<svg width="40" height="40" viewBox="0 0 40 40" fill="none" xmlns="http://www.w3.org/2000/svg"><path fill-rule="evenodd" clip-rule="evenodd" d="M36.667 20c0 9.205-7.462 16.667-16.667 16.667H4.99c-1.473 0-2.21-1.796-1.17-2.846l3.263-3.288A16.598 16.598 0 013.333 20c0-9.205 7.462-16.667 16.667-16.667 9.205 0 16.667 7.462 16.667 16.667zm-11.322-5.345c.651.65.651 1.706 0 2.357L22.357 20l2.988 2.988a1.667 1.667 0 01-2.357 2.357L20 22.357l-2.988 2.988a1.667 1.667 0 01-2.357-2.357L17.643 20l-2.988-2.988a1.667 1.667 0 112.357-2.357L20 17.643l2.988-2.988a1.666 1.666 0 012.357 0z" fill="#FF4762"/></svg>