<svg width="20" height="21" viewBox="0 0 20 21" fill="none" xmlns="http://www.w3.org/2000/svg"><path d="M7.401 10.027a2.574 2.574 0 00.747 1.813 2.55 2.55 0 002.781.556 2.551 2.551 0 001.381-1.388 2.573 2.573 0 00-.553-2.793 2.546 2.546 0 00-3.609 0 2.57 2.57 0 00-.747 1.812zm12.443-.59c-2.16-4.571-5.424-6.87-9.8-6.87-4.379 0-7.641 2.299-9.803 6.872a1.385 1.385 0 000 1.178c2.16 4.57 5.425 6.87 9.802 6.87s7.64-2.3 9.8-6.872c.176-.37.176-.8 0-1.179h.001zm-9.892 4.618a3.994 3.994 0 01-2.836-1.18 4.03 4.03 0 01-1.174-2.848 4.044 4.044 0 011.174-2.848 4.008 4.008 0 012.836-1.18 4 4 0 012.835 1.18 4.037 4.037 0 010 5.696 4 4 0 01-2.835 1.18z" fill="#87909F"/></svg>