<svg width="14" height="14" viewBox="0 0 14 14" fill="none" xmlns="http://www.w3.org/2000/svg">
<g id="eye-closed">
<path id="Icon" d="M11.9 11.375L3.15002 2.625M5.95002 6.09092C5.7322 6.33107 5.60002 6.64652 5.60002 6.99201C5.60002 7.74439 6.22683 8.3543 7.00002 8.3543C7.35652 8.3543 7.6819 8.22464 7.92907 8.01114M11.9227 8.3543C12.4046 7.63281 12.6 7.04441 12.6 7.04441C12.6 7.04441 11.3257 2.975 7.00002 2.975C6.75718 2.975 6.52395 2.98783 6.30002 3.01204M10.15 10.1205C9.34653 10.6331 8.31213 10.9956 7.00002 10.9741C2.72823 10.9042 1.40002 7.04441 1.40002 7.04441C1.40002 7.04441 2.01711 5.07388 3.85002 3.87527" stroke="#67686B" stroke-linecap="round"/>
</g>
</svg>
