<svg width="40" height="40" viewBox="0 0 40 40" fill="none" xmlns="http://www.w3.org/2000/svg"><path fill-rule="evenodd" clip-rule="evenodd" d="M36.667 20c0 9.205-7.462 16.667-16.667 16.667H4.99c-1.473 0-2.21-1.796-1.17-2.846l3.263-3.288A16.598 16.598 0 013.333 20c0-9.205 7.462-16.667 16.667-16.667 9.205 0 16.667 7.462 16.667 16.667zm-10.488-2.155a1.667 1.667 0 00-2.357-2.357l-5.488 5.488-2.155-2.154a1.667 1.667 0 10-2.357 2.357l3.333 3.333a1.667 1.667 0 002.357 0l6.667-6.667z" fill="#31C440"/></svg>