<svg width="40" height="40" viewBox="0 0 40 40" fill="none" xmlns="http://www.w3.org/2000/svg"><path fill-rule="evenodd" clip-rule="evenodd" d="M36.667 20c0 9.205-7.462 16.667-16.667 16.667H4.99c-1.473 0-2.21-1.796-1.17-2.846l3.262-3.288A16.598 16.598 0 013.333 20c0-9.205 7.462-16.667 16.667-16.667 9.205 0 16.667 7.462 16.667 16.667zM21.65 13.333c0-.92-.742-1.666-1.658-1.666-.916 0-1.659.746-1.659 1.666V20c0 .92.743 1.667 1.659 1.667.915 0 1.658-.747 1.658-1.667v-6.667zM19.992 25c-.916 0-1.659.746-1.659 1.667 0 .92.743 1.666 1.659 1.666h.016c.916 0 1.659-.746 1.659-1.666 0-.92-.743-1.667-1.659-1.667h-.016z" fill="#FFC400"/></svg>