<svg class="sc-aXZVg ktFCMi mx-icon" focusable="false" width="" height="" fill="currentColor" aria-hidden="true" viewBox="0 0 32 32" data-icon="IconBonusGift"><path fill-rule="evenodd" clip-rule="evenodd" d="M17.1379 4.70435C18.0363 1.62804 22.1269 1.01755 23.8844 3.69746C25.5226 6.19541 23.7306 9.51353 20.7434 9.51353H15.7334L17.1379 4.70435ZM7.58189 3.69795C9.33942 1.01804 13.43 1.62853 14.3284 4.70484L15.7329 9.51402H10.7229C7.73566 9.51402 5.9437 6.1959 7.58189 3.69795ZM6.13333 11.5146C4.95513 11.5146 4 12.4697 4 13.648V26.448C4 27.6262 4.95513 28.5813 6.13333 28.5813H25.3333C26.5116 28.5813 27.4667 27.6262 27.4667 26.448V13.648C27.4667 12.4697 26.5116 11.5146 25.3333 11.5146H6.13333ZM14.6667 25.448H16.8V14.648H14.6667V25.448Z" fill="currentColor"></path></svg>