<svg width="20" height="16" viewBox="0 0 20 16" fill="none" xmlns="http://www.w3.org/2000/svg">
<path d="M0 3C0 2.33696 0.263392 1.70107 0.732233 1.23223C1.20107 0.763392 1.83696 0.5 2.5 0.5H17.5C18.163 0.5 18.7989 0.763392 19.2678 1.23223C19.7366 1.70107 20 2.33696 20 3V4.25H0V3ZM0 6.75V13C0 13.663 0.263392 14.2989 0.732233 14.7678C1.20107 15.2366 1.83696 15.5 2.5 15.5H17.5C18.163 15.5 18.7989 15.2366 19.2678 14.7678C19.7366 14.2989 20 13.663 20 13V6.75H0ZM3.75 9.25H5C5.33152 9.25 5.64946 9.3817 5.88388 9.61612C6.1183 9.85054 6.25 10.1685 6.25 10.5V11.75C6.25 12.0815 6.1183 12.3995 5.88388 12.6339C5.64946 12.8683 5.33152 13 5 13H3.75C3.41848 13 3.10054 12.8683 2.86612 12.6339C2.6317 12.3995 2.5 12.0815 2.5 11.75V10.5C2.5 10.1685 2.6317 9.85054 2.86612 9.61612C3.10054 9.3817 3.41848 9.25 3.75 9.25Z" fill="#46B75B"/>
</svg>
