<svg aria-hidden="true" viewBox="0 0 1024 1024" data-icon="Icongoogle1"><path d="M977.455 565.434a539.927 539.927 0 00-8.192-94.115H521.495v178.27h256.466a214.947 214.947 0 01-94.86 140.753v115.805h153.042c89.646-80.617 141.312-199.773 141.312-340.713z" fill="#4285F4"/><path d="M521.588 1018.042c128.093 0 235.986-40.96 314.648-111.802L683.287 790.435c-42.635 28.113-97.373 44.218-161.606 44.218a281.88 281.88 0 01-163.56-52.876 284.858 284.858 0 01-103.052-138.333H97.28v119.343c80.71 156.393 244.83 255.255 424.308 255.255z" fill="#34A853"/><path d="M254.883 643.444a271.08 271.08 0 010-177.245V346.95H97.093a452.701 452.701 0 000 415.838l157.79-119.343z" fill="#FBBC04"/><path d="M521.588 274.99a261.4 261.4 0 01182.086 69.54l135.54-132.19A462.662 462.662 0 00521.589 91.695c-179.479 0-343.784 98.676-424.308 255.255L255.07 466.2a284.858 284.858 0 01102.958-138.24 281.88 281.88 0 01163.56-52.97z" fill="#EA4335"/></svg>