<svg class="sc-gEvEer hSTeNi mx-icon iconfont iconGooglePlaylogo1 download_googleplay__Wm4mF" focusable="false" width="" height="" fill="currentColor" aria-hidden="true" viewBox="0 0 1024 1024" data-icon="GooglePlayOutlined"><path d="M168.30464 102.4l417.01376 409.6-416.9728 409.6a40.63232 40.63232 0 0 1-18.18624-14.78656 39.56736 39.56736 0 0 1-6.79936-22.20032V139.38688a39.7312 39.7312 0 0 1 6.79936-22.15936 40.79616 40.79616 0 0 1 18.14528-14.82752z m445.97248 438.02624l94.28992 92.5696-447.93856 254.64832 353.64864-347.21792z m130.99008-128.6144l114.97472 65.41312a39.64928 39.64928 0 0 1 0 69.55008l-115.01568 65.37216-101.9904-100.1472 102.03136-100.1472zM260.62848 136.3968L708.608 390.9632l-94.28992 92.5696L260.62848 136.3968z"></path></svg>