<svg aria-hidden="true" viewBox="0 0 16 16"><path d="M11.892 6.377h-1.745v-.652c0-1.094-.303-2.933-2.328-2.933-2.103 0-2.328 2.049-2.328 2.933v.652H3.746v-.652C3.746 2.855 5.344 1 7.819 1c2.475 0 4.073 1.854 4.073 4.725v.652zm-2.91 4.45c0-.659-.527-1.194-1.163-1.194s-1.164.535-1.164 1.195c0 .45.233.822.582 1.024v1.357c0 .326.264.606.582.606a.596.596 0 00.582-.605v-1.35c.349-.202.582-.582.582-1.032zm4.656-2.068v5.449c0 .985-.784 1.792-1.746 1.792H3.746C2.784 16 2 15.193 2 14.208v-5.45c0-.985.784-1.792 1.746-1.792h8.146c.962 0 1.746.807 1.746 1.793z" fill="currentColor"/></svg>