<svg width="131" height="26" viewBox="0 0 131 26" fill="none" xmlns="http://www.w3.org/2000/svg">
    <path
        d="M7.77266 19.5558L7.70687 19.5005L1.07935 25.0898C1.68479 25.654 2.49619 26 3.38959 26H6.04689H17.9785L7.77266 19.5558Z"
        fill="url(#paint0_linear_132_48)" />
    <path
        d="M12.2854 10.3626L0 0V7.76912L5.18207 12.1393C5.71506 12.5892 5.71506 13.4099 5.18207 13.8597L0 18.2309V22.6116C0 23.5904 0.41571 24.4712 1.07932 25.0898L7.77263 19.4442L12.2863 15.6374C13.9206 14.2591 13.9206 11.7418 12.2854 10.3626Z"
        fill="white" />
    <path
        d="M29.484 18.8218H32.2738L29.6584 15.075L29.7195 15.0483C30.4784 14.7185 31.0724 14.2362 31.4843 13.6157C31.8962 12.9952 32.105 12.246 32.105 11.3872C32.105 10.5294 31.8991 9.77642 31.4919 9.1502C31.0858 8.52399 30.4975 8.03407 29.7433 7.69284C28.9862 7.35066 28.0814 7.17719 27.0536 7.17719H22.0193V18.8209H24.6318V15.5468H27.2166L29.484 18.8218ZM24.6318 13.4908V9.2865H26.9029C27.7296 9.2865 28.3684 9.46856 28.8013 9.82789C29.238 10.1901 29.4592 10.7153 29.4592 11.3892C29.4592 12.0516 29.238 12.5739 28.8013 12.9418C28.3674 13.3069 27.7286 13.4918 26.902 13.4918H24.6318V13.4908Z"
        fill="white" />
    <path d="M36.9753 7.17816H34.3628V18.8218H36.9753V7.17816Z" fill="white" />
    <path
        d="M54.9539 7.17816L52.1764 15.6269L49.4505 7.17816H47.0106L44.1988 15.5582L41.5072 7.17816H38.8003L42.6275 18.8218H45.4545L48.1643 10.7458L50.7891 18.8218H53.6324L57.4424 7.17816H54.9539Z"
        fill="white" />
    <path
        d="M66.4212 16.3036L67.4623 18.8218H70.1969L64.9891 7.17816H62.3728L57.1812 18.8218H59.8489L60.8901 16.3036H66.4212ZM63.6647 9.65158L65.6098 14.3468H61.7187L63.6647 9.65158Z"
        fill="white" />
    <path d="M79.783 7.17816H69.6467V9.28653H73.4091V18.8218H76.0206V9.28653H79.783V7.17816Z"
        fill="white" />
    <path
        d="M89.4052 13.9198V11.9125H83.9476V9.25221H90.127V7.17816H81.3523V18.8218H90.3454V16.7478H83.9476V13.9198H89.4052Z"
        fill="white" />
    <path
        d="M99.8839 18.8218H102.889L98.5452 12.7989L98.5681 12.7674L102.604 7.17816H99.799L97.1179 11.0298L94.3862 7.17816H91.4295L95.5218 12.8999L91.2122 18.8218H94.2003L97.0168 14.7014L99.8839 18.8218Z"
        fill="white" />
    <defs>
        <linearGradient id="paint0_linear_132_48" x1="2.44788" y1="19.293" x2="12.1869" y2="27.8987"
            gradientUnits="userSpaceOnUse">
            <stop stop-color="#0EB69D" />
            <stop offset="1" stop-color="#85E047" />
        </linearGradient>
    </defs>
</svg>