<svg focusable="" width=""
    height="" fill="" aria-hidden="true" viewBox="0 0 28 29">
    <path d="M15.6468 10.8244L12.3428 10.8295L11.0536 7.71594L15.6468 10.8244Z" fill="#F6851B"></path>
    <path d="M11.0536 7.71598L16.9803 7.70361L15.6468 10.8244L11.0536 7.71598Z" fill="#F6851B"></path>
    <path d="M12.3428 10.8296L4.02687 4.57495L11.0536 7.71597L12.3428 10.8296Z" fill="#E4761B"></path>
    <path d="M23.9749 4.52209L15.6467 10.8244L16.9803 7.70359L23.9749 4.52209Z" fill="#E2761B"></path>
    <path
        d="M7.40035 13.4927L3.63225 12.5111L3.43001 11.6323L7.40035 13.4927ZM3.76111 13.5668L3.63219 12.5111L7.40035 13.4927L3.76111 13.5668ZM4.28827 15.0917L7.40035 13.4927L9.01852 13.7802L4.28827 15.0917Z"
        fill="#763D16"></path>
    <path
        d="M3.76111 13.5668L7.40035 13.4927L4.28827 15.0916L3.76111 13.5668ZM20.6391 13.4788L24.6145 11.6029L24.4106 12.4855L20.6391 13.4788ZM24.2799 13.5454L20.6391 13.4788L24.4106 12.4855L24.2799 13.5454ZM23.7495 15.0767L18.9995 13.7702L20.6391 13.4788L23.7495 15.0767Z"
        fill="#763D16"></path>
    <path
        d="M24.2799 13.5454L23.7495 15.0766L20.6391 13.4788L24.2799 13.5454ZM7.56077 8.71387L7.40035 13.4927L3.43001 11.6323L7.56077 8.71387ZM9.01857 13.7801L7.40035 13.4927L7.56077 8.71387L9.01857 13.7801Z"
        fill="#763D16"></path>
    <path
        d="M9.11284 23.4921L10.3478 22.8386L10.5638 22.7877L9.11284 23.4921ZM17.4792 22.7919L17.6699 22.843L18.8745 23.4992L17.4792 22.7919Z"
        fill="#E2761B"></path>
    <path d="M24.6145 11.603L20.6391 13.4788L20.4466 8.68933L24.6145 11.603Z" fill="#763D16"></path>
    <path d="M20.4466 8.68933L20.6391 13.4788L18.9994 13.7702L20.4466 8.68933Z" fill="#763D16"></path>
    <path d="M9.11283 23.492L3.82824 25.4442L2.53342 20.1577L9.11283 23.492Z" fill="#E4761B"></path>
    <path d="M2.93918 11.9501L3.43005 11.6323L3.63224 12.5111L2.93918 11.9501Z" fill="#763D16"></path>
    <path d="M25.5317 20.1608L24.2356 25.4662L18.8745 23.4992L25.5317 20.1608Z" fill="#E4761B"></path>
    <path
        d="M7.56076 8.71387L12.3427 10.8295L9.01856 13.7801L7.56076 8.71387ZM3.7611 13.5668L3.07533 12.897L3.63218 12.511L3.7611 13.5668ZM18.9994 13.7701L15.6467 10.8244L20.4466 8.6892L18.9994 13.7701ZM25.1058 11.9206L24.4106 12.4855L24.6145 11.6029L25.1058 11.9206ZM3.43 11.6323L2.81866 7.96289L7.56076 8.71387L3.43 11.6323ZM4.28826 15.0916L3.30546 13.8605L3.76104 13.5668L4.28826 15.0916Z"
        fill="#763D16"></path>
    <path
        d="M24.2799 13.5455L24.4106 12.4856L24.9678 12.8717L24.2799 13.5455ZM20.4466 8.68934L25.2137 7.91724L24.6145 11.603L20.4466 8.68934Z"
        fill="#763D16"></path>
    <path d="M7.54011 15.4302L2.53342 20.1577L4.2882 15.0917L7.54011 15.4302Z" fill="#F6851B"></path>
    <path d="M23.7495 15.0767L24.2798 13.5454L24.7358 13.8393L23.7495 15.0767Z" fill="#763D16"></path>
    <path d="M6.75185 19.5446L2.53348 20.1577L7.54011 15.4302L6.75185 19.5446Z" fill="#F6851B"></path>
    <path d="M2.53348 20.1577L6.75185 19.5446L9.11289 23.492L2.53348 20.1577Z" fill="#E4761B"></path>
    <path
        d="M20.4341 15.421L23.7495 15.0767L25.5317 20.1608L20.4341 15.421ZM20.4341 15.421L25.5317 20.1608L21.223 19.5449L20.4341 15.421Z"
        fill="#F6851B"></path>
    <path d="M18.8745 23.4991L21.223 19.5449L25.5317 20.1607L18.8745 23.4991Z" fill="#E4761B"></path>
    <path
        d="M4.28825 15.0917L9.0185 13.7802L7.5401 15.4303L4.28825 15.0917ZM23.7495 15.0768L20.4341 15.4211L18.9994 13.7703L23.7495 15.0768Z"
        fill="#F6851B"></path>
    <path
        d="M9.01857 13.7802L12.3428 10.8296L12.5927 15.4564L9.01857 13.7802ZM12.5927 15.4564L7.54012 15.4302L9.01857 13.7802L12.5927 15.4564ZM18.9994 13.7702L20.4341 15.4211L15.348 15.4544L18.9994 13.7702ZM15.348 15.4544L15.6468 10.8245L18.9994 13.7702L15.348 15.4544Z"
        fill="#E4761B"></path>
    <path
        d="M4.02687 4.57494L12.3427 10.8296L7.56076 8.71393L4.02687 4.57494ZM7.56076 8.71393L2.81873 7.96295L4.02681 4.57494L7.56076 8.71393ZM23.9749 4.52209L25.2136 7.91721L20.4466 8.68931L23.9749 4.52209ZM20.4466 8.68931L15.6467 10.8245L23.9749 4.52209L20.4466 8.68931Z"
        fill="#763D16"></path>
    <path d="M12.3427 10.8295L15.6467 10.8245L15.348 15.4544L12.3427 10.8295Z" fill="#F6851B"></path>
    <path d="M15.348 15.4544L12.5926 15.4564L12.3427 10.8296L15.348 15.4544Z" fill="#F6851B"></path>
    <path
        d="M9.11283 23.4921L6.75185 19.5447L9.58877 19.4092L9.11283 23.4921ZM18.8745 23.4992L18.3566 19.4092L21.223 19.545L18.8745 23.4992ZM9.54776 17.3768L7.5401 15.4302L12.5926 15.4564L9.54776 17.3768Z"
        fill="#CD6116"></path>
    <path d="M7.5401 15.4302L9.58877 19.4092L6.75185 19.5446L7.5401 15.4302Z" fill="#F6851B"></path>
    <path d="M7.54012 15.4302L9.54777 17.3768L9.58878 19.4092L7.54012 15.4302Z" fill="#E4751F"></path>
    <path d="M15.348 15.4543L20.4341 15.421L18.4046 17.3735L15.348 15.4543Z" fill="#CD6116"></path>
    <path d="M21.223 19.545L18.3566 19.4092L20.4342 15.4211L21.223 19.545Z" fill="#F6851B"></path>
    <path d="M20.4341 15.421L18.3566 19.4092L18.4046 17.3735L20.4341 15.421Z" fill="#E4751F"></path>
    <path
        d="M10.1083 24.0684L9.11288 23.4919L11.9709 23.6968L10.1083 24.0684ZM15.8859 23.6998L18.8745 23.4991L17.8479 24.0749L15.8859 23.6998Z"
        fill="#C0AD9E"></path>
    <path d="M12.5926 15.4563L11.3667 16.5286L9.54776 17.3767L12.5926 15.4563Z" fill="#CD6116"></path>
    <path d="M11.9409 22.5656L11.9709 23.6969L9.11288 23.4921L11.9409 22.5656Z" fill="#D7C1B3"></path>
    <path d="M18.4046 17.3735L16.5788 16.5259L15.348 15.4543L18.4046 17.3735Z" fill="#CD6116"></path>
    <path d="M12.1963 20.4482L9.11284 23.492L9.58884 19.4092L12.1963 20.4482Z" fill="#E4761B"></path>
    <path
        d="M9.11284 23.4921L12.1963 20.4481L11.9409 22.5655L9.11284 23.4921ZM15.8914 22.5677L18.8745 23.4991L15.886 23.6999L15.8914 22.5677Z"
        fill="#D7C1B3"></path>
    <path d="M15.6328 20.4488L18.3566 19.4092L18.8745 23.4992L15.6328 20.4488Z" fill="#E4761B"></path>
    <path d="M18.8745 23.4991L15.8914 22.5677L15.6328 20.4487L18.8745 23.4991Z" fill="#D7C1B3"></path>
    <path d="M9.58883 19.4092L9.54776 17.3767L12.1047 17.9954L9.58883 19.4092Z" fill="#F6851B"></path>
    <path d="M12.1047 17.9954L9.54776 17.3767L11.3667 16.5286L12.1047 17.9954Z" fill="#233447"></path>
    <path d="M18.3566 19.4092L15.8273 17.9946L18.4046 17.3735L18.3566 19.4092Z" fill="#F6851B"></path>
    <path d="M15.8273 17.9945L16.5789 16.5259L18.4046 17.3735L15.8273 17.9945Z" fill="#233447"></path>
    <path
        d="M11.3667 16.5287L12.5927 15.4564L12.1047 17.9955L11.3667 16.5287ZM16.5789 16.526L15.8273 17.9946L15.348 15.4545L16.5789 16.526Z"
        fill="#CD6116"></path>
    <path d="M12.6917 16.9154L12.5927 15.4565L15.348 15.4545L12.6917 16.9154Z" fill="#F6851B"></path>
    <path d="M12.1047 17.9954L12.5926 15.4563L12.6917 16.9153L12.1047 17.9954Z" fill="#E4751F"></path>
    <path d="M15.348 15.4543L15.2295 16.9142L12.6917 16.9154L15.348 15.4543Z" fill="#F6851B"></path>
    <path d="M15.8273 17.9946L15.2295 16.9143L15.348 15.4545L15.8273 17.9946Z" fill="#E2761B"></path>
    <path
        d="M11.9709 23.6969L12.1376 24.5546L10.1083 24.0685L11.9709 23.6969ZM17.8479 24.075L15.7131 24.558L15.886 23.6999L17.8479 24.075Z"
        fill="#C0AD9E"></path>
    <path
        d="M12.1963 20.4481L9.58882 19.4092L12.1047 17.9954L12.1963 20.4481ZM15.8273 17.9945L18.3566 19.4091L15.6328 20.4488L15.8273 17.9945Z"
        fill="#F6851B"></path>
    <path d="M12.6917 16.9153L12.6399 20.1395L12.1047 17.9954L12.6917 16.9153Z" fill="#E4751F"></path>
    <path d="M12.1047 17.9955L12.6399 20.1395L12.1963 20.4481L12.1047 17.9955Z" fill="#F6851B"></path>
    <path d="M15.2295 16.9142L15.8273 17.9945L15.1889 20.1398L15.2295 16.9142Z" fill="#E4751F"></path>
    <path d="M15.6328 20.4488L15.1889 20.1398L15.8273 17.9945L15.6328 20.4488Z" fill="#F6851B"></path>
    <path
        d="M12.6917 16.9153L15.2295 16.9142L15.1889 20.1398L12.6917 16.9153ZM15.1888 20.1398L12.6399 20.1395L12.6917 16.9153L15.1888 20.1398Z"
        fill="#F6851B"></path>
    <path
        d="M12.1376 24.5546L11.9709 23.6969L11.9409 22.5656L12.1376 24.5546ZM15.8914 22.5678L15.886 23.6999L15.7131 24.5579L15.8914 22.5678Z"
        fill="#C0AD9E"></path>
    <path
        d="M11.9409 22.5654L12.1648 22.2362L12.1376 24.5545L11.9409 22.5654ZM12.1376 24.5545L12.1648 22.2362L15.6556 22.238L12.1376 24.5545Z"
        fill="#C0AD9E"></path>
    <path
        d="M15.6556 22.238L15.7131 24.5579L12.1376 24.5546L15.6556 22.238ZM15.7131 24.5578L15.6556 22.238L15.8914 22.5677L15.7131 24.5578Z"
        fill="#C0AD9E"></path>
    <path
        d="M12.1648 22.2362L11.9409 22.5654L12.1963 20.448L12.1648 22.2362ZM15.6328 20.4487L15.8914 22.5676L15.6556 22.2379L15.6328 20.4487ZM12.6035 20.3319L12.6399 20.1394L15.1889 20.1398L12.6035 20.3319Z"
        fill="#161616"></path>
    <path d="M12.1963 20.448L12.6399 20.1394L12.6035 20.3319L12.1963 20.448Z" fill="#161616"></path>
    <path
        d="M15.1888 20.1398L15.2016 20.3324L12.6036 20.3319L15.1888 20.1398ZM15.2016 20.3324L15.1889 20.1398L15.6328 20.4487L15.2016 20.3324ZM12.1963 20.4481L12.3194 20.6521L12.1648 22.2362L12.1963 20.4481Z"
        fill="#161616"></path>
    <path
        d="M12.6035 20.332L12.3194 20.6522L12.1963 20.4482L12.6035 20.332ZM15.6556 22.2381L15.4858 20.6529L15.6328 20.4488L15.6556 22.2381Z"
        fill="#161616"></path>
    <path
        d="M15.6328 20.4488L15.4858 20.6529L15.2016 20.3325L15.6328 20.4488ZM15.6556 22.2381L12.1648 22.2363L12.3194 20.6522L15.6556 22.2381ZM12.3194 20.6522L15.4858 20.6529L15.6556 22.2381L12.3194 20.6522ZM12.3194 20.6522L12.6035 20.332L15.2016 20.3325L12.3194 20.6522Z"
        fill="#161616"></path>
    <path d="M15.2015 20.3324L15.4858 20.6528L12.3194 20.6521L15.2015 20.3324Z" fill="#161616"></path>
</svg>