<svg width="12" height="11" viewBox="0 0 12 11" fill="none" xmlns="http://www.w3.org/2000/svg"><path fill-rule="evenodd" clip-rule="evenodd" d="M11.989 10.31a.2.2 0 01-.2.2H.2a.2.2 0 01-.2-.2V9.2c0-.11.09-.2.2-.2h11.589c.11 0 .2.09.2.2v1.11zM9.42 4.332a.2.2 0 01-.2.2H.2a.2.2 0 01-.2-.2v-1.11a.2.2 0 01.2-.2h9.02a.2.2 0 01.2.2v1.11zm0 3.022a.2.2 0 01-.2.2H.2a.2.2 0 01-.2-.2V6.243c0-.11.09-.2.2-.2h9.02c.11 0 .2.09.2.2v1.11zm0-6.044a.2.2 0 01-.2.2H.2a.2.2 0 01-.2-.2V.2C0 .09.09 0 .2 0h9.02c.11 0 .2.09.2.2v1.11z" fill="#0AA869"/></svg>