<svg width="26" height="26" viewBox="0 0 26 26" fill="none" xmlns="http://www.w3.org/2000/svg"><g id="Group"><path id="Ellipse 46" d="M25 13c0 6.627-5.373 12-12 12S1 19.627 1 13 6.373 1 13 1s12 5.373 12 12z" stroke="#58D068" stroke-width="2"/><path id="Vector" d="M14 17l-5 3.5c.393.367.622.392 1.202.392h9.479L14 17z" fill="#58D068"/><path id="Vector_2" d="M15.982 10.733L8 4v5.048l3.367 2.839a.731.731 0 010 1.118L8 15.845v2.846c0 .636.27 1.208.701 1.61l4.349-3.668 2.932-2.473a2.241 2.241 0 000-3.427z" fill="#58D068"/></g></svg>