<svg focusable="false" width=""
    height="" fill="" aria-hidden="true" viewBox="0 0 16 16"
    data-icon="SearchOutlined">
    <path fill-rule="evenodd" clip-rule="evenodd"
        d="M9.93186 10.8786C9.02879 11.5806 7.89393 11.9987 6.66146 11.9987C3.71594 11.9987 1.32812 9.6109 1.32812 6.66536C1.32812 3.71984 3.71594 1.33203 6.66146 1.33203C9.60699 1.33203 11.9948 3.71984 11.9948 6.66536C11.9948 7.89783 11.5767 9.0327 10.8747 9.93576L14.4662 13.5273C14.7265 13.7876 14.7265 14.2098 14.4662 14.4701C14.2059 14.7304 13.7837 14.7304 13.5234 14.4701L9.93186 10.8786ZM10.6615 6.66536C10.6615 8.8745 8.87059 10.6654 6.66146 10.6654C4.45232 10.6654 2.66146 8.8745 2.66146 6.66536C2.66146 4.45622 4.45232 2.66536 6.66146 2.66536C8.87059 2.66536 10.6615 4.45622 10.6615 6.66536Z"></path>
</svg>