<svg width="30" height="30" viewBox="0 0 30 30" fill="none" xmlns="http://www.w3.org/2000/svg">
<path d="M10.2562 23.4937C9.99289 23.2301 9.84497 22.8727 9.84497 22.5C9.84497 22.1273 9.99289 21.7699 10.2562 21.5063L16.7625 15L10.2562 8.49375C10.0078 8.22717 9.8726 7.87459 9.87903 7.51027C9.88546 7.14596 10.033 6.79836 10.2907 6.54071C10.5483 6.28306 10.8959 6.13548 11.2603 6.12905C11.6246 6.12262 11.9772 6.25785 12.2437 6.50625L19.7437 14.0063C20.0071 14.2699 20.155 14.6273 20.155 15C20.155 15.3727 20.0071 15.7301 19.7437 15.9938L12.2437 23.4937C11.9801 23.7571 11.6226 23.905 11.25 23.905C10.8773 23.905 10.5199 23.7571 10.2562 23.4937Z" fill="white"/>
</svg>
