<svg fill="#4281ff" aria-hidden="true" viewBox="0 0 1024 1024" data-icon="IconiconNotice"><path d="M795.989333 121.059556A71.111111 71.111111 0 0 1 896 186.026667v652.060444a71.111111 71.111111 0 0 1-100.010667 64.967111l-294.741333-131.015111a156.501333 156.501333 0 0 1-253.553778-75.093333H199.111111c-39.253333 0-71.111111-31.857778-71.111111-71.111111v-227.555556c0-39.253333 31.857778-71.111111 71.111111-71.111111h133.12l463.758222-206.108444z m14.677334 86.869333L350.435556 412.501333H213.333333v199.111111h113.777778v42.666667a71.111111 71.111111 0 0 0 128.910222 41.472l20.252445-28.16 334.392889 148.593778V207.928889z" fill="currentColor" opacity=".8"></path><path d="M625.777778 412.501333a42.666667 42.666667 0 0 1 85.333333 0v199.111111a42.666667 42.666667 0 0 1-85.333333 0v-199.111111z" fill="currentColor" opacity=".5"></path></svg>