<svg viewBox="0 0 25 25" xmlns="http://www.w3.org/2000/svg"><path d="M12.146.25c6.581 0 12 5.42 12 12 0 6.63-5.419 12-12 12-6.629 0-12-5.37-12-12 0-6.58 5.371-12 12-12zm5.517 8.178a.82.82 0 000-.484c0-.097-.097-.242-.146-.29-.145-.145-.387-.145-.483-.145-.436 0-1.162.241-4.5 1.645-1.162.484-3.484 1.451-6.968 3-.58.242-.871.435-.92.677-.048.387.581.532 1.307.774.629.194 1.452.436 1.887.436.387 0 .823-.145 1.306-.484 3.242-2.226 4.936-3.339 5.033-3.339.096 0 .193-.048.242 0 .097.097.097.194.048.242-.048.242-3.097 3.049-3.29 3.242-.678.678-1.452 1.113-.242 1.887 1.016.678 1.597 1.113 2.661 1.79.677.436 1.21.968 1.887.92.339-.049.678-.339.823-1.258.435-2.08 1.21-6.726 1.355-8.613z"/></svg>