<svg viewBox="0 0 24 24" xmlns="http://www.w3.org/2000/svg"><path d="M18.804 11.184c1.667 0 2.923-.695 3.848-1.905l-1.237-.943a3.265 3.265 0 01-2.611 1.29c-1.81 0-3.121-1.474-3.121-3.283s1.29-3.366 3.172-3.366c.837 0 1.429.197 1.945.517v1.59h1.556V2.766l-.298-.234c-.856-.674-2.163-1.031-3.255-1.031a4.848 4.848 0 00-4.843 4.843 4.848 4.848 0 004.844 4.84zm3.23 9.551l-.056-2.229v-5.44h-3.247v1.557h1.607v3.691c0 1.59-1.214 2.716-2.44 2.716-1.224 0-1.864-.85-1.864-2.439v-5.526h-3.033v1.557h1.394v4.239c0 2.157 1.209 3.643 3.366 3.643 1.24 0 2.184-.688 2.747-1.748h.025l.222 1.483h2.495v-1.502h-1.214v-.003l-.002.001zM13.602 1.728h-2.706L8.543 8.562h-.037l-2.34-6.834H3.281v1.558h1.622l2.79 7.79h1.483v-.003l2.91-7.786H13.6V1.73zM.75 22.258h1.603v-1.602H.751v1.603H.75zm6.192-7.386h-.018l-.1-1.806H3.962v1.42h1.522v6.25H3.962v1.502h7.072v-1.472H7.097v-3.773c.178-1.365 1.201-2.531 2.598-2.531h.026l-.029 1.396h1.557V13.04h-1.23c-1.41-.004-2.456.759-3.078 1.832z"/></svg>