<svg class="sc-aXZVg ktFCMi mx-icon icon-dir-rtl" focusable="false" width="" height="" fill="currentColor" aria-hidden="true" viewBox="0 0 16 12" data-icon="HomeTrumpet" style="color: var(--title); font-size: 16px;"><path fill-rule="evenodd" clip-rule="evenodd" d="M8 0H5L3 3H0V6V9H3L5 12H8V0ZM16 6C16 9.31371 13.3137 12 10 12V11C12.7614 11 15 8.76142 15 6C15 3.23858 12.7614 1 10 1V0C13.3137 0 16 2.68629 16 6ZM13 6C13 7.65685 11.6569 9 10 9V8C11.1046 8 12 7.10457 12 6C12 4.89543 11.1046 4 10 4V3C11.6569 3 13 4.34315 13 6Z" fill="currentColor"></path></svg>