<svg width="111" height="39" viewBox="0 0 111 39" fill="none" xmlns="http://www.w3.org/2000/svg"><path d="M1 26.765s5.09-2.177 7.5-.5c.68.473.804 1.05 1.5 1.5 1.803 1.167 3.422-.544 5.5 0 4.55 1.191 3.584 7.383 8 9 2.574.942 4.637 1.888 7 .5 1.821-1.07 1.21-3.378 3-4.5 2.316-1.452 4.535 1.182 7 0 3.386-1.625 1.931-5.76 4.5-8.5 1.523-1.624 2.52-2.48 4.5-3.5 1.647-.848 2.904-.56 4.5-1.5 5.809-3.421.75-14.833 4-17 1.5-1 13.5-2 15.5-.5 2.794 2.096.652 7.003 4 8 1.31.39 2.158.257 3.5 0 2.766-.53 3.19-4.172 6-4 2.007.122 2.49 2.519 4.5 2.5 3.202-.03 1.802-6.332 5-6.5 2.652-.14 3.037 3.005 5.5 4 1.669.674 2.833.321 4.5 1 1.706.695 4 2.5 4 2.5" stroke="#0BBA74"/></svg>