<svg width="20" height="14" viewBox="0 0 20 14" fill="none" xmlns="http://www.w3.org/2000/svg"><g clip-path="url(#clip0_1327_7146)"><path d="M18.095 0H1.905C.853 0 0 .836 0 1.867v10.266C0 13.164.853 14 1.905 14h16.19C19.147 14 20 13.164 20 12.133V1.867C20 .836 19.147 0 18.095 0z" fill="#F93939"/><path fill-rule="evenodd" clip-rule="evenodd" d="M0 9.334h20V14H0V9.334z" fill="#249F58"/><path fill-rule="evenodd" clip-rule="evenodd" d="M11.429 6.533h.952v.934h-.952v-.934z" fill="#fff"/><path fill-rule="evenodd" clip-rule="evenodd" d="M11.905 8.4A2.394 2.394 0 0110 9.333C8.686 9.333 7.62 8.288 7.62 7c0-1.288 1.066-2.333 2.38-2.333.78 0 1.47.366 1.905.933h-1.429c-.788 0-1.428.627-1.428 1.4 0 .773.64 1.4 1.428 1.4h1.429z" fill="#fff"/><path fill-rule="evenodd" clip-rule="evenodd" d="M0 0h20v4.667H0V0z" fill="#3ECBF8"/></g><defs><clipPath id="clip0_1327_7146"><rect width="20" height="14" rx="3" fill="#fff"/></clipPath></defs></svg>