<svg width="20" height="14" viewBox="0 0 20 14" fill="none" xmlns="http://www.w3.org/2000/svg"><g clip-path="url(#clip0_1327_7155)"><rect width="20" height="14" rx="3" fill="#F93939"/><path d="M18.095 0H1.905C.853 0 0 .836 0 1.867v10.266C0 13.164.853 14 1.905 14h16.19C19.147 14 20 13.164 20 12.133V1.867C20 .836 19.147 0 18.095 0z" fill="#F93939"/><path fill-rule="evenodd" clip-rule="evenodd" d="M4.762 10.267H20V14H4.762v-3.733z" fill="#249F58"/><path fill-rule="evenodd" clip-rule="evenodd" d="M2.857 0l1.905 1.4-1.905 1.4V0zm0 2.8l1.905 1.4-1.905 1.4V2.8zm0 2.8L4.762 7 2.857 8.4V5.6zm0 2.8l1.905 1.4-1.905 1.4V8.4zm0 2.8l1.905 1.4L2.857 14v-2.8zM1.905 0L0 1.4l1.905 1.4V0zm0 2.8L0 4.2l1.905 1.4V2.8zm0 2.8L0 7l1.905 1.4V5.6zm0 2.8L0 9.8l1.905 1.4V8.4zm0 2.8L0 12.6 1.905 14v-2.8zm0-11.2h.952v1.867h-.952V0zm0 12.133h.952V14h-.952v-1.867zm0-7.466h.952v1.866h-.952V4.667zm0-1.867h.952v.933h-.952V2.8zm0 7.467h.952v.933h-.952v-.933zm0-2.8h.952v1.866h-.952V7.467z" fill="#fff"/></g><defs><clipPath id="clip0_1327_7155"><rect width="20" height="14" rx="3" fill="#fff"/></clipPath></defs></svg>