<svg width="20" height="14" viewBox="0 0 20 14" fill="none" xmlns="http://www.w3.org/2000/svg"><rect width="20" height="14" rx="3" fill="#F93939"/><path fill-rule="evenodd" clip-rule="evenodd" d="M9.72 8.853a2.785 2.785 0 00.56 0L10 8.167l-.28.686zm-1.29-.509c-.498-.386-.81-.95-.81-1.577 0-.74.434-1.39 1.09-1.764L9.524 7 8.429 8.344zm2.862-3.341c.656.373 1.09 1.024 1.09 1.764 0 .628-.312 1.192-.81 1.577L10.476 7l.815-1.997zm-.095-.053A2.612 2.612 0 0010 4.667c-.436 0-.845.102-1.196.283L10 6.416l1.196-1.466z" fill="#FFDA2C"/><path fill-rule="evenodd" clip-rule="evenodd" d="M10 11.2c2.367 0 4.286-1.88 4.286-4.2 0-2.32-1.92-4.2-4.286-4.2-2.367 0-4.286 1.88-4.286 4.2 0 2.32 1.92 4.2 4.286 4.2zm0-.933c1.841 0 3.333-1.463 3.333-3.267 0-1.804-1.492-3.267-3.333-3.267-1.84 0-3.333 1.463-3.333 3.267 0 1.804 1.492 3.267 3.333 3.267z" fill="#FFDA2C"/></svg>