<svg width="20" height="14" viewBox="0 0 20 14" fill="none" xmlns="http://www.w3.org/2000/svg"><rect width="20" height="14" rx="3" fill="#03BCDB"/><path d="M10.952 8.4c1.315 0 2.381-1.045 2.381-2.333 0-1.289-1.066-2.334-2.38-2.334-1.316 0-2.382 1.045-2.382 2.334 0 1.288 1.066 2.333 2.381 2.333z" fill="#FFDA2C"/><path fill-rule="evenodd" clip-rule="evenodd" d="M7.62 6.533L8.571 8.4l2.38.933 2.381-.933.953-1.867v2.8l-3.333.934-3.334-.934v-2.8zM1.905 2.329c0-.255.22-.462.476-.462.263 0 .476.201.476.462v1.876a.475.475 0 01-.476.462.466.466 0 01-.476-.462V2.329zm.952 1.866c0-.254.221-.462.476-.462.263 0 .477.202.477.462v1.876a.475.475 0 01-.477.462.466.466 0 01-.476-.462V4.195zm0 3.734c0-.255.221-.462.476-.462.263 0 .477.201.477.462v1.876a.475.475 0 01-.477.462.466.466 0 01-.476-.462V7.929zm-.952 1.866c0-.254.22-.462.476-.462.263 0 .476.202.476.462v1.876a.475.475 0 01-.476.462.466.466 0 01-.476-.462V9.795zm0-3.728a.477.477 0 01.952 0 .477.477 0 01-.952 0zm.952-3.734a.477.477 0 01.953 0 .477.477 0 01-.953 0zM1.905 7a.477.477 0 01.952 0 .477.477 0 01-.952 0zm.952 4.667a.477.477 0 01.953 0 .477.477 0 01-.953 0zm-.952-3.734a.477.477 0 01.952 0 .477.477 0 01-.952 0z" fill="#FFDA2C"/></svg>