<svg width="20" height="14" viewBox="0 0 20 14" fill="none" xmlns="http://www.w3.org/2000/svg"><g clip-path="url(#clip0_1327_7167)"><rect width="20" height="14" rx="3" fill="#F93939"/><path fill-rule="evenodd" clip-rule="evenodd" d="M0 10.267h20V14H0v-3.733z" fill="#00B731"/><path fill-rule="evenodd" clip-rule="evenodd" d="M0 0h20v3.733H0V0z" fill="#03BCDB"/><path fill-rule="evenodd" clip-rule="evenodd" d="M0 4.667h20v4.666H0V4.667zm4.762-1.013c-.149.051-.31.08-.476.08-.789 0-1.429-.628-1.429-1.4 0-.773.64-1.4 1.429-1.4.166 0 .327.027.476.079a1.403 1.403 0 00-.952 1.32c0 .61.397 1.13.952 1.321z" fill="#fff"/><path opacity=".5" fill-rule="evenodd" clip-rule="evenodd" d="M5.714 1.867h.953V2.8h-.953v-.933zm.953-.934h.952v.934h-.952V.933zm.952.934h.953V2.8h-.953v-.933zm.953-.934h.952v.934h-.952V.933zm.952.934h.952V2.8h-.952v-.933zm-.952.933h.952v.933h-.952V2.8zm-1.905 0h.952v.933h-.952V2.8z" fill="#1A47B8"/></g><defs><clipPath id="clip0_1327_7167"><rect width="20" height="14" rx="3" fill="#fff"/></clipPath></defs></svg>