<?xml version="1.0" encoding="utf-8"?><svg width="20" height="20" fill="none" xmlns="http://www.w3.org/2000/svg" viewBox="0 0 20 20"><path d="M9.812 17.756V6.12m-1.354-.698a.43.43 0 00.4-.111.43.43 0 00.11-.4c-.129-.528-.605-2.297-1.094-2.786a1.564 1.564 0 00-2.207-.005 1.564 1.564 0 00.005 2.207c.497.497 2.258.965 2.786 1.095zm1.479-.51a.43.43 0 00.11.399.43.43 0 00.4.11c.528-.129 2.297-.605 2.786-1.094.61-.61.612-1.601.005-2.207a1.564 1.564 0 00-2.207.005c-.497.497-.965 2.258-1.094 2.786zm-7.689 5.28h14.837c.321 0 .581-.26.581-.581V6.7a.582.582 0 00-.581-.581H2.248a.582.582 0 00-.582.582V9.61c0 .321.261.582.582.582zm13.964 0v6.982c0 .322-.26.582-.582.582H3.703a.582.582 0 01-.582-.582v-6.981h13.091z" stroke="#EB771A" stroke-linecap="round" stroke-linejoin="round"/></svg>