<?xml version="1.0" encoding="utf-8"?><svg class="csc-aXZVg cktFCMi cmx-icon" fill="currentColor" aria-hidden="true" viewBox="0 0 32 32" data-icon="IconBonusGift" width="32" height="32"><path fill-rule="evenodd" clip-rule="evenodd" d="M17.138 4.704c.898-3.076 4.989-3.686 6.746-1.007 1.639 2.498-.153 5.817-3.14 5.817h-5.01l1.404-4.81zM7.582 3.698c1.757-2.68 5.848-2.07 6.746 1.007l1.405 4.809h-5.01c-2.987 0-4.78-3.318-3.141-5.816zm-1.449 7.817A2.133 2.133 0 004 13.648v12.8c0 1.178.955 2.133 2.133 2.133h19.2a2.133 2.133 0 002.134-2.133v-12.8a2.133 2.133 0 00-2.134-2.133h-19.2zm8.534 13.933H16.8v-10.8h-2.133v10.8z"/></svg>