<?xml version="1.0" encoding="utf-8"?><svg width="26" height="26" fill="none" xmlns="http://www.w3.org/2000/svg" viewBox="0 0 26 26"><g clip-path="url(#alclip0_85_2868)"><path d="M25.61 16.145c-1.736 6.964-8.79 11.203-15.756 9.466C2.89 23.875-1.348 16.821.389 9.857 2.125 2.892 9.18-1.347 16.143.389c6.966 1.736 11.204 8.791 9.468 15.756z" fill="#F7931A"/><path d="M18.733 11.148c.259-1.73-1.059-2.66-2.86-3.28l.585-2.344-1.427-.355-.569 2.281c-.375-.093-.76-.181-1.143-.269l.573-2.297-1.426-.355-.584 2.343c-.31-.07-.616-.14-.912-.214l.002-.008-1.967-.491-.38 1.524s1.059.242 1.036.257c.578.144.683.527.665.83l-.665 2.67c.04.01.091.024.148.047l-.15-.037-.934 3.74c-.07.175-.25.439-.654.339.015.02-1.036-.259-1.036-.259l-.709 1.633 1.857.463c.345.086.684.177 1.017.262l-.59 2.37 1.425.356.584-2.345c.39.105.767.203 1.137.295l-.582 2.334 1.426.355.59-2.366c2.434.46 4.263.275 5.033-1.925.62-1.772-.031-2.793-1.311-3.46.932-.215 1.634-.828 1.822-2.094h-.001zm-3.26 4.57c-.44 1.772-3.424.814-4.39.574l.783-3.14c.967.241 4.068.719 3.607 2.566zm.442-4.596c-.403 1.611-2.885.793-3.69.592l.71-2.848c.805.2 3.399.575 2.98 2.256z" fill="#fff"/></g><defs><clipPath id="alclip0_85_2868"><path fill="#fff" d="M0 0h26v26H0z"/></clipPath></defs></svg>