<?xml version="1.0" encoding="utf-8"?><svg width="22" height="16" fill="none" xmlns="http://www.w3.org/2000/svg" viewBox="0 0 22 16"><g clip-path="url(#akclip0_1_5)"><path d="M-26-42h320V58a6 6 0 01-6 6H-20a6 6 0 01-6-6V-42z" fill="#18191C"/><path d="M1.6 5.2h18M5.2 9.4h3M3.4 1h14.4a2.4 2.4 0 012.4 2.4V12.4a2.4 2.4 0 01-2.4 2.399H3.4A2.4 2.4 0 011 12.4v-9A2.4 2.4 0 013.4 1z" stroke="#58D068" stroke-width="2" stroke-linecap="round" stroke-linejoin="round"/></g><defs><clipPath id="akclip0_1_5"><path fill="#fff" transform="translate(-258 -102)" d="M0 0h1920v2669H0z"/></clipPath></defs></svg>