<?xml version="1.0" encoding="utf-8"?><svg viewBox="0 0 15 15" xmlns="http://www.w3.org/2000/svg" width="15" height="15"><path fill="#E5E5E5" d="M0 0h15v15H0z"/><g clip-path="url(#aqclip0_1_5)"><path fill="#050611" d="M-568-1170h1920V596H-568z"/><path d="M-135-44h236v327a6 6 0 01-6 6h-224a6 6 0 01-6-6V-44z" fill="#18191C"/><path d="M11.563 5.875h1.624c.45 0 .813.364.813.813V12a2 2 0 01-2 2H6.687a.813.813 0 01-.812-.813v-1.624M7.5 1H2.625C1.728 1 1 1.728 1 2.625V7.5c0 .897.728 1.625 1.625 1.625H7.5c.897 0 1.625-.728 1.625-1.625V2.625C9.125 1.728 8.397 1 7.5 1z" stroke="#67686B" stroke-width="1.5" stroke-linecap="round"/></g><defs><clipPath id="aqclip0_1_5"><path fill="#fff" transform="translate(-568 -1170)" d="M0 0h1920v1766H0z"/></clipPath></defs></svg>