<?xml version="1.0" encoding="utf-8"?><svg width="48" height="48" xmlns="http://www.w3.org/2000/svg" viewBox="0 0 48 48"><g clip-path="url(#asclip0_66_2190)"><path d="M40.634 8.311a39.58 39.58 0 00-9.77-3.03.148.148 0 00-.157.074c-.422.75-.89 1.73-1.217 2.499a36.542 36.542 0 00-10.973 0 25.261 25.261 0 00-1.236-2.499.154.154 0 00-.157-.074 39.472 39.472 0 00-9.77 3.03.14.14 0 00-.064.055C1.067 17.663-.638 26.731.198 35.687a.165.165 0 00.063.113c4.105 3.015 8.082 4.845 11.986 6.058a.155.155 0 00.168-.055 28.453 28.453 0 002.452-3.988.152.152 0 00-.083-.212 26.207 26.207 0 01-3.745-1.785.154.154 0 01-.015-.255c.252-.188.504-.385.744-.583a.149.149 0 01.155-.02c7.856 3.586 16.36 3.586 24.123 0a.148.148 0 01.157.018c.24.199.492.397.745.585.087.065.082.2-.013.255a24.595 24.595 0 01-3.746 1.783.153.153 0 00-.081.214 31.937 31.937 0 002.45 3.986.152.152 0 00.168.057c3.922-1.213 7.9-3.043 12.005-6.058a.154.154 0 00.062-.111c1.001-10.354-1.676-19.348-7.097-27.32a.122.122 0 00-.062-.058zM16.04 30.234c-2.365 0-4.314-2.171-4.314-4.838 0-2.666 1.911-4.838 4.314-4.838 2.422 0 4.352 2.19 4.314 4.838 0 2.667-1.911 4.838-4.314 4.838zm15.95 0c-2.365 0-4.314-2.171-4.314-4.838 0-2.666 1.91-4.838 4.314-4.838 2.421 0 4.351 2.19 4.313 4.838 0 2.667-1.892 4.838-4.313 4.838z"/></g><defs><clipPath id="asclip0_66_2190"><path d="M0 0h48v48H0z"/></clipPath></defs></svg>