<?xml version="1.0" encoding="utf-8"?><svg width="14" height="14" fill="none" xmlns="http://www.w3.org/2000/svg" viewBox="0 0 14 14"><mask id="aoa" style="mask-type:alpha" maskUnits="userSpaceOnUse" x="2" y="0" width="10" height="13"><path d="M11.422 5.783a4.586 4.586 0 00-1.082-1.52l-.38-.353a.105.105 0 00-.169.043l-.17.493c-.105.309-.3.624-.575.935a.082.082 0 01-.054.026.071.071 0 01-.056-.02.077.077 0 01-.026-.063c.049-.795-.186-1.691-.7-2.667-.426-.81-1.017-1.443-1.756-1.884L5.915.452c-.07-.042-.16.013-.157.096l.03.634c.019.433-.03.816-.148 1.134-.144.39-.35.752-.614 1.076a3.884 3.884 0 01-.62.609 4.644 4.644 0 00-1.309 1.604 4.637 4.637 0 00-.11 3.833 4.612 4.612 0 002.445 2.45c.567.24 1.167.362 1.787.362a4.57 4.57 0 003.247-1.347 4.589 4.589 0 001.347-3.26c0-.644-.131-1.27-.39-1.86z" fill="#F48E2F"/></mask><g mask="url(#aoa)"><path d="M11.422 5.783a4.586 4.586 0 00-1.082-1.52l-.38-.353a.105.105 0 00-.169.043l-.17.493c-.105.309-.3.624-.575.935a.082.082 0 01-.054.026.071.071 0 01-.056-.02.077.077 0 01-.026-.063c.049-.795-.186-1.691-.7-2.667-.426-.81-1.017-1.443-1.756-1.884L5.915.452c-.07-.042-.16.013-.157.096l.03.634c.019.433-.03.816-.148 1.134-.144.39-.35.752-.614 1.076a3.884 3.884 0 01-.62.609 4.644 4.644 0 00-1.309 1.604 4.637 4.637 0 00-.11 3.833 4.612 4.612 0 002.445 2.45c.567.24 1.167.362 1.787.362a4.57 4.57 0 003.247-1.347 4.589 4.589 0 001.347-3.26c0-.644-.131-1.27-.39-1.86z" fill="#F48E2F"/><g filter="url(#aofilter0_f_8410_16243)"><path d="M4.376 11.249c.03.926.54 1.712 1.252 2.16l2.419.153c.991-.462 1.645-1.541 1.572-2.715-.043-.68-.42-1.327-.83-1.775-.247 1.714-1.135 1.914-1.135 1.914s.51-1.126.582-2.376a4.343 4.343 0 00-.131-1.545c-.466-1.774-1.268-2.253-1.268-2.253s.262 1.034-.698 2.7c-.671 1.16-1.805 2.008-1.763 3.737z" fill="url(#aopaint0_linear_8410_16243)"/></g><path d="M4.376 11.249c.03.926.54 1.712 1.252 2.16l2.419.153c.991-.462 1.645-1.541 1.572-2.715-.043-.68-.42-1.327-.83-1.775-.247 1.714-1.135 1.914-1.135 1.914s.51-1.126.582-2.376a4.343 4.343 0 00-.131-1.545c-.466-1.774-1.268-2.253-1.268-2.253s.262 1.034-.698 2.7c-.671 1.16-1.805 2.008-1.763 3.737z" fill="#fff"/><g filter="url(#aofilter1_f_8410_16243)"><path d="M4.376 11.249c.03.926.54 1.712 1.252 2.16l2.419.153c.991-.462 1.645-1.541 1.572-2.715-.043-.68-.42-1.327-.83-1.775-.247 1.714-1.135 1.914-1.135 1.914s.51-1.126.582-2.376a4.343 4.343 0 00-.131-1.545c-.466-1.774-1.268-2.253-1.268-2.253s.262 1.034-.698 2.7c-.671 1.16-1.805 2.008-1.763 3.737z" fill="url(#aopaint1_linear_8410_16243)"/></g><g filter="url(#aofilter2_f_8410_16243)"><circle cx="7" cy="5.688" r=".875" fill="#FFFBE0"/></g><path d="M7 7.713c-.438 2.188-.875 2.625-2.188 3.938l1.313 1.312c1.02-.145 3.063-.175 3.063-.875 0-1.75-1.313-3.937-2.188-4.375z" fill="#FFFCEF"/></g><defs><filter id="aofilter0_f_8410_16243" x="2.375" y="2.813" width="9.25" height="12.75" filterUnits="userSpaceOnUse" color-interpolation-filters="sRGB"><feFlood flood-opacity="0" result="BackgroundImageFix"/><feBlend in="SourceGraphic" in2="BackgroundImageFix" result="shape"/><feGaussianBlur stdDeviation="1" result="effect1_foregroundBlur_8410_16243"/></filter><filter id="aofilter1_f_8410_16243" x="2.375" y="2.813" width="9.25" height="12.75" filterUnits="userSpaceOnUse" color-interpolation-filters="sRGB"><feFlood flood-opacity="0" result="BackgroundImageFix"/><feBlend in="SourceGraphic" in2="BackgroundImageFix" result="shape"/><feGaussianBlur stdDeviation="1" result="effect1_foregroundBlur_8410_16243"/></filter><filter id="aofilter2_f_8410_16243" x="3.125" y="1.813" width="7.75" height="7.75" filterUnits="userSpaceOnUse" color-interpolation-filters="sRGB"><feFlood flood-opacity="0" result="BackgroundImageFix"/><feBlend in="SourceGraphic" in2="BackgroundImageFix" result="shape"/><feGaussianBlur stdDeviation="1.5" result="effect1_foregroundBlur_8410_16243"/></filter><linearGradient id="aopaint0_linear_8410_16243" x1="7" y1="4.813" x2="7" y2="13.563" gradientUnits="userSpaceOnUse"><stop stop-color="#FFF88B"/><stop offset="1" stop-color="#FFF103" stop-opacity="0"/></linearGradient><linearGradient id="aopaint1_linear_8410_16243" x1="7" y1="4.813" x2="7" y2="13.563" gradientUnits="userSpaceOnUse"><stop stop-color="#FFFBBF"/><stop offset="1" stop-color="#FF9A03" stop-opacity="0"/></linearGradient></defs></svg>