<?xml version="1.0" encoding="utf-8"?><svg class="hsc-gEvEer hhSTeNi hmx-icon hiconfont hiconGooglePlaylogo1 hdownload_googleplay__Wm4mF" fill="currentColor" aria-hidden="true" viewBox="0 0 1024 1024" data-icon="GooglePlayOutlined" width="1024" height="1024"><path d="M168.305 102.4L585.318 512 168.346 921.6a40.632 40.632 0 01-18.187-14.787 39.567 39.567 0 01-6.799-22.2V139.387a39.731 39.731 0 016.8-22.16 40.796 40.796 0 0118.145-14.827zm445.972 438.026l94.29 92.57-447.939 254.648 353.65-347.218zm130.99-128.614l114.975 65.413a39.65 39.65 0 010 69.55l-115.016 65.372L643.236 512l102.031-100.147zM260.628 136.397l447.98 254.566-94.29 92.57-353.69-347.136z"/></svg>