<?xml version="1.0" encoding="utf-8"?><svg width="131" height="26" fill="none" xmlns="http://www.w3.org/2000/svg" viewBox="0 0 131 26"><path d="M7.773 19.556l-.066-.056-6.628 5.59c.606.564 1.417.91 2.31.91H17.979L7.774 19.556z" fill="url(#blpaint0_linear_132_48)"/><path d="M12.285 10.363L0 0v7.77l5.182 4.37c.533.45.533 1.27 0 1.72L0 18.23v4.382c0 .978.416 1.86 1.08 2.478l6.693-5.646 4.513-3.807a3.45 3.45 0 000-5.274zM29.484 18.822h2.79l-2.616-3.747.061-.027c.76-.33 1.353-.812 1.765-1.432.412-.62.621-1.37.621-2.229 0-.858-.206-1.61-.613-2.237-.406-.626-.995-1.116-1.749-1.457-.757-.342-1.662-.516-2.69-.516H22.02v11.644h2.613v-3.274h2.585l2.267 3.275zm-4.852-5.331V9.287h2.27c.828 0 1.466.182 1.9.54.436.363.657.888.657 1.562 0 .663-.221 1.185-.658 1.553-.434.365-1.072.55-1.899.55h-2.27v-.001zM36.975 7.178h-2.612v11.644h2.612V7.178zM54.954 7.178l-2.778 8.449-2.726-8.449h-2.44l-2.811 8.38-2.692-8.38H38.8l3.828 11.644h2.827l2.71-8.076 2.624 8.076h2.843l3.81-11.644h-2.488zM66.421 16.304l1.041 2.518h2.735L64.989 7.178h-2.616L57.18 18.822h2.668l1.041-2.518h5.531zm-2.756-6.652l1.945 4.695h-3.891l1.946-4.695zM79.783 7.178H69.647v2.109h3.762v9.535h2.612V9.287h3.762V7.178zM89.405 13.92v-2.008h-5.457v-2.66h6.179V7.178h-8.775v11.644h8.993v-2.074h-6.397V13.92h5.457zM99.884 18.822h3.005l-4.344-6.023.023-.032 4.036-5.589h-2.805l-2.681 3.852-2.732-3.852H91.43l4.092 5.722-4.31 5.922H94.2l2.817-4.12 2.867 4.12z" fill="#fff"/><defs><linearGradient id="blpaint0_linear_132_48" x1="2.448" y1="19.293" x2="12.187" y2="27.899" gradientUnits="userSpaceOnUse"><stop stop-color="#0EB69D"/><stop offset="1" stop-color="#85E047"/></linearGradient></defs></svg>