<?xml version="1.0" encoding="utf-8"?><svg width="146" height="28" fill="none" xmlns="http://www.w3.org/2000/svg" viewBox="0 0 146 28"><path d="M42.386 19.468L33.07 3.31c-2.043-3.368-7.023-3.404-8.994.144l-9.781 16.804c-1.827 3.081.43 6.95 4.085 6.95h19.598c3.69 0 6.45-3.976 4.407-7.739z" fill="#3156AA"/><path d="M28.95 20.723l-.573-1.003c-.537-.932-1.72-2.938-1.72-2.938L18.776 3.095c-2.042-3.046-6.88-3.296-8.922.537L.681 19.505c-1.899 3.332.358 7.667 4.479 7.703H37.908c-5.052.036-6.664-2.58-8.957-6.485z" fill="#1972E2"/><path d="M28.951 20.723l-.573-1.003c-.538-.932-1.72-2.938-1.72-2.938L21.57 7.824l-7.31 12.469c-1.826 3.081.43 6.95 4.085 6.95H37.908c-5.087-.035-6.664-2.615-8.957-6.52z" fill="url(#gpaint0_linear_5316_35437)"/><path d="M124.362 14.803c.042 6.293 5.161 11.245 11.455 11.16 3.902 0 6.923-1.342 9.189-3.985l-1.427-1.217c-.923-.755-2.224-.797-3.147-.084-1.259.923-2.811 1.427-4.657 1.427-4.364 0-7.091-2.812-7.091-7.385 0-4.532 2.643-7.217 7.091-7.217 1.804 0 3.398.461 4.657 1.426.965.714 2.266.672 3.147-.084l1.427-1.216c-2.266-2.686-5.413-4.07-9.399-4.07-3.399 0-6.252 1.049-8.224 2.979-1.972 1.972-3.021 4.825-3.021 8.266zM65.493 23.404L71.45 13V25.67h4.532V3.81H73.17c-.88 0-1.72.461-2.14 1.258l-7.133 13.008-7.133-13.008c-.42-.797-1.258-1.258-2.14-1.258h-2.81v21.86h4.53V13l5.959 10.405h3.189zM79.716 3.851v21.86l18.169-.041v-1.385a1.97 1.97 0 00-1.973-1.972H84.248v-5.874h11.664v-3.357H84.248V7.208h11.664a1.97 1.97 0 001.973-1.972V3.85H79.716zM119.706 3.851h4.279l-8.643 10.993 8.685 10.91h-4.279c-.798 0-1.511-.378-2.015-.965l-5.202-6.504-5.161 6.462a2.525 2.525 0 01-2.014.965h-4.28l8.685-10.91-8.685-10.909h4.28c.797 0 1.51.336 2.014.965l5.161 6.462 5.161-6.504a2.522 2.522 0 012.014-.965z" fill="#fff"/><defs><linearGradient id="gpaint0_linear_5316_35437" x1="11.659" y1="14.628" x2="34.303" y2="22.995" gradientUnits="userSpaceOnUse"><stop stop-color="#264CA2" stop-opacity="0"/><stop offset="1" stop-color="#234588"/></linearGradient></defs></svg>