<?xml version="1.0" encoding="utf-8"?><svg aria-hidden="true" viewBox="0 0 28 29" width="28" height="29"><path d="M15.647 10.824l-3.304.005-1.29-3.113 4.594 3.108z" fill="#F6851B"/><path d="M11.054 7.716l5.926-.012-1.333 3.12-4.593-3.108z" fill="#F6851B"/><path d="M12.343 10.83L4.027 4.575l7.027 3.141 1.289 3.114z" fill="#E4761B"/><path d="M23.975 4.522l-8.328 6.302 1.333-3.12 6.995-3.182z" fill="#E2761B"/><path d="M7.4 13.493l-3.768-.982-.202-.879 3.97 1.86zm-3.639.074l-.129-1.056 3.768.982-3.639.074zm.527 1.525l3.112-1.6 1.619.288-4.73 1.312z" fill="#763D16"/><path d="M3.761 13.567l3.64-.074-3.113 1.599-.527-1.525zm16.878-.088l3.976-1.876-.204.883-3.772.993zm3.64.066l-3.64-.066 3.772-.993-.131 1.06zm-.53 1.532L19 13.77l1.64-.291 3.11 1.598z" fill="#763D16"/><path d="M24.28 13.545l-.53 1.532-3.11-1.598 3.64.066zM7.56 8.714l-.16 4.779-3.97-1.86 4.13-2.92zM9.02 13.78L7.4 13.493l.16-4.78L9.02 13.78z" fill="#763D16"/><path d="M9.113 23.492l1.235-.653.216-.051-1.451.704zm8.366-.7l.19.051 1.206.656-1.396-.707z" fill="#E2761B"/><path d="M24.614 11.603l-3.975 1.876-.192-4.79 4.168 2.914zM20.447 8.69l.192 4.789-1.64.291 1.448-5.08z" fill="#763D16"/><path d="M9.113 23.492l-5.285 1.952-1.295-5.286 6.58 3.334z" fill="#E4761B"/><path d="M2.94 11.95l.49-.318.202.88-.693-.562z" fill="#763D16"/><path d="M25.532 20.16l-1.296 5.306-5.361-1.967 6.657-3.338z" fill="#E4761B"/><path d="M7.56 8.714l4.783 2.115-3.324 2.951L7.56 8.714zm-3.799 4.853l-.686-.67.557-.386.13 1.056zM19 13.77l-3.352-2.946 4.8-2.135-1.448 5.081zm6.107-1.85l-.695.566.203-.883.492.318zM3.43 11.633l-.611-3.67 4.742.752-4.131 2.918zm.858 3.46l-.983-1.232.456-.293.527 1.525z" fill="#763D16"/><path d="M24.28 13.546l.13-1.06.558.386-.688.674zm-3.833-4.857l4.767-.772-.6 3.686-4.167-2.914z" fill="#763D16"/><path d="M7.54 15.43l-5.007 4.728 1.755-5.066 3.252.338z" fill="#F6851B"/><path d="M23.75 15.077l.53-1.532.456.294-.986 1.238z" fill="#763D16"/><path d="M6.752 19.545l-4.219.613L7.54 15.43l-.788 4.115z" fill="#F6851B"/><path d="M2.533 20.158l4.219-.613 2.36 3.947-6.579-3.334z" fill="#E4761B"/><path d="M20.434 15.421l3.316-.344 1.782 5.084-5.098-4.74zm0 0l5.098 4.74-4.309-.616-.789-4.124z" fill="#F6851B"/><path d="M18.875 23.5l2.348-3.955 4.309.616-6.657 3.338z" fill="#E4761B"/><path d="M4.288 15.092l4.73-1.312-1.478 1.65-3.252-.338zm19.462-.015l-3.316.344L19 13.771l4.75 1.306z" fill="#F6851B"/><path d="M9.019 13.78l3.324-2.95.25 4.626-3.574-1.676zm3.574 1.676L7.54 15.43l1.479-1.65 3.574 1.676zm6.406-1.686l1.435 1.651-5.086.033 3.651-1.684zm-3.651 1.684l.299-4.63 3.352 2.946-3.651 1.684z" fill="#E4761B"/><path d="M4.027 4.575l8.316 6.255L7.56 8.714l-3.534-4.14zM7.56 8.714l-4.742-.751 1.208-3.388L7.56 8.714zm16.414-4.192l1.239 3.395-4.767.772 3.528-4.167zM20.447 8.69l-4.8 2.136 8.328-6.303-3.528 4.167z" fill="#763D16"/><path d="M12.343 10.83l3.304-.005-.299 4.63-3.005-4.626z" fill="#F6851B"/><path d="M15.348 15.454l-2.755.002-.25-4.626 3.005 4.624z" fill="#F6851B"/><path d="M9.113 23.492l-2.361-3.947 2.837-.136-.476 4.083zm9.762.007l-.518-4.09 2.866.136-2.348 3.954zm-9.327-6.122L7.54 15.43l5.053.026-3.045 1.92z" fill="#CD6116"/><path d="M7.54 15.43l2.049 3.98-2.837.135.788-4.115z" fill="#F6851B"/><path d="M7.54 15.43l2.008 1.947.04 2.032L7.54 15.43z" fill="#E4751F"/><path d="M15.348 15.454l5.086-.033-2.03 1.953-3.056-1.92z" fill="#CD6116"/><path d="M21.223 19.545l-2.866-.136 2.077-3.988.789 4.124z" fill="#F6851B"/><path d="M20.434 15.421l-2.077 3.988.048-2.035 2.03-1.953z" fill="#E4751F"/><path d="M10.108 24.068l-.995-.576 2.858.205-1.863.371zm5.778-.368l2.989-.2-1.027.575-1.962-.375z" fill="#C0AD9E"/><path d="M12.593 15.456l-1.226 1.073-1.82.848 3.046-1.92z" fill="#CD6116"/><path d="M11.94 22.566l.03 1.13-2.857-.204 2.828-.926z" fill="#D7C1B3"/><path d="M18.405 17.373l-1.826-.847-1.231-1.072 3.057 1.92z" fill="#CD6116"/><path d="M12.196 20.448l-3.083 3.044.476-4.083 2.607 1.04z" fill="#E4761B"/><path d="M9.113 23.492l3.083-3.044-.255 2.117-2.828.927zm6.778-.924l2.984.931-2.989.2.005-1.131z" fill="#D7C1B3"/><path d="M15.633 20.449l2.724-1.04.518 4.09-3.242-3.05z" fill="#E4761B"/><path d="M18.875 23.5l-2.984-.932-.258-2.12 3.242 3.051z" fill="#D7C1B3"/><path d="M9.589 19.41l-.041-2.033 2.557.618-2.516 1.414z" fill="#F6851B"/><path d="M12.105 17.995l-2.557-.618 1.819-.848.738 1.466z" fill="#233447"/><path d="M18.357 19.41l-2.53-1.415 2.578-.622-.048 2.036z" fill="#F6851B"/><path d="M15.827 17.994l.752-1.468 1.826.848-2.578.62z" fill="#233447"/><path d="M11.367 16.529l1.226-1.073-.488 2.54-.738-1.467zm5.212-.003l-.752 1.469-.479-2.54 1.23 1.071z" fill="#CD6116"/><path d="M12.692 16.915l-.1-1.458 2.756-.003-2.656 1.461z" fill="#F6851B"/><path d="M12.105 17.995l.488-2.539.099 1.46-.587 1.08z" fill="#E4751F"/><path d="M15.348 15.454l-.119 1.46-2.537.001 2.656-1.46z" fill="#F6851B"/><path d="M15.827 17.995l-.598-1.08.119-1.46.48 2.54z" fill="#E2761B"/><path d="M11.97 23.697l.168.858-2.03-.486 1.863-.372zm5.878.378l-2.135.483.173-.858 1.962.375z" fill="#C0AD9E"/><path d="M12.196 20.448L9.59 19.41l2.516-1.414.091 2.453zm3.631-2.454l2.53 1.415-2.724 1.04.194-2.455z" fill="#F6851B"/><path d="M12.692 16.915l-.052 3.225-.535-2.145.587-1.08z" fill="#E4751F"/><path d="M12.105 17.995l.535 2.145-.444.308-.091-2.453z" fill="#F6851B"/><path d="M15.23 16.914l.597 1.08-.638 2.146.04-3.226z" fill="#E4751F"/><path d="M15.633 20.449l-.444-.31.638-2.145-.194 2.455z" fill="#F6851B"/><path d="M12.692 16.915h2.537l-.04 3.225-2.497-3.225zm2.497 3.225h-2.55l.053-3.225 2.497 3.225z" fill="#F6851B"/><path d="M12.138 24.555l-.167-.858-.03-1.131.197 1.989zm3.753-1.987l-.005 1.132-.173.858.178-1.99z" fill="#C0AD9E"/><path d="M11.94 22.565l.225-.329-.027 2.319-.197-1.99zm.198 1.99l.027-2.319 3.49.002-3.517 2.317zM15.656 22.238l.057 2.32-3.575-.003 3.518-2.317zm.057 2.32l-.057-2.32.235.33-.178 1.99z" fill="#C0AD9E"/><path d="M12.165 22.236l-.224.33.255-2.118-.031 1.788zm3.468-1.787l.258 2.119-.235-.33-.023-1.79zm-3.03-.117l.037-.193h2.549l-2.585.193z" fill="#161616"/><path d="M12.196 20.448l.444-.309-.037.193-.407.116zM15.189 20.14l.013.192h-2.598l2.585-.192zm.013.192l-.013-.192.444.309-.431-.117zm-3.006.116l.123.204-.154 1.584.031-1.788z" fill="#161616"/><path d="M12.604 20.332l-.285.32-.123-.204.408-.116zm3.052 1.906l-.17-1.585.147-.204.023 1.79z" fill="#161616"/><path d="M15.633 20.449l-.147.204-.284-.32.43.116zm.023 1.79l-3.491-.003.154-1.584 3.337 1.586zm-3.337-1.587h3.167l.17 1.586-3.337-1.586zm0 0l.284-.32h2.599l-2.883.32z" fill="#161616"/><path d="M15.201 20.332l.285.32h-3.167l2.882-.32z" fill="#161616"/></svg>