<?xml version="1.0" encoding="utf-8"?><svg width="12" height="11" fill="none" xmlns="http://www.w3.org/2000/svg" viewBox="0 0 12 11"><path fill-rule="evenodd" clip-rule="evenodd" d="M11.989 10.31a.2.2 0 01-.2.2H.2a.2.2 0 01-.2-.2V9.2c0-.11.09-.2.2-.2h11.589c.11 0 .2.09.2.2v1.11zM9.42 4.332a.2.2 0 01-.2.2H.2a.2.2 0 01-.2-.2v-1.11c0-.111.09-.2.2-.2h9.02c.11 0 .2.089.2.2v1.11zM9.42 7.354a.2.2 0 01-.2.2H.2a.2.2 0 01-.2-.2V6.243c0-.11.09-.2.2-.2h9.02c.11 0 .2.09.2.2v1.11zM9.42 1.31a.2.2 0 01-.2.2H.2a.2.2 0 01-.2-.2V.2C0 .09.09 0 .2 0h9.02c.11 0 .2.09.2.2v1.11z" fill="#0AA869"/></svg>