<?xml version="1.0" encoding="utf-8"?><svg width="20" height="20" fill="none" xmlns="http://www.w3.org/2000/svg" viewBox="0 0 20 20"><path d="M17.22 15.642s-.966.949-1.203 1.227c-.385.411-.84.605-1.435.605-.057 0-.118 0-.175-.004-1.134-.072-2.187-.514-2.977-.89a16.948 16.948 0 01-5.633-4.404C4.496 10.611 3.625 9.164 3.049 7.61c-.355-.948-.485-1.687-.427-2.384.038-.446.21-.815.526-1.131l1.302-1.3c.187-.174.385-.27.58-.27.24 0 .435.145.557.267l.011.011c.233.218.455.442.687.682l.363.37 1.042 1.04c.404.403.404.776 0 1.18-.11.11-.218.22-.328.328-.32.327-.07.076-.401.373-.008.007-.015.011-.02.019-.327.327-.266.647-.198.864l.012.035c.27.655.652 1.272 1.232 2.007l.004.004c1.054 1.295 2.164 2.304 3.39 3.077.156.1.316.179.469.255.137.069.267.133.377.202.016.008.031.02.046.027.13.065.252.095.378.095a.817.817 0 00.58-.263l.748-.746c.13-.13.336-.286.577-.286.236 0 .43.148.55.278l.007.008 2.103 2.098c.393.389.003 1.192.003 1.192z" stroke="#F2F4F6" stroke-width="1.5" stroke-linecap="round" stroke-linejoin="round"/></svg>