<?xml version="1.0" encoding="utf-8"?><svg width="20" height="20" fill="none" xmlns="http://www.w3.org/2000/svg" viewBox="0 0 20 20"><g clip-path="url(#cjclip0_777_1528)"><path d="M10 .916a9.084 9.084 0 100 18.168A9.084 9.084 0 1010 .916zm.83 14.316H9.137V13.61h1.693v1.622zm0-3.355v.537H9.137v-.66c0-1.994 2.269-2.31 2.269-3.727 0-.646-.577-1.141-1.333-1.141-.784 0-1.471.578-1.471.578l-.963-1.198s.948-.991 2.584-.991c1.554 0 2.997.962 2.997 2.585 0 2.27-2.392 2.531-2.392 4.017h.002z" fill="#6D6E73"/></g><defs><clipPath id="cjclip0_777_1528"><path fill="#fff" d="M0 0h20v20H0z"/></clipPath></defs></svg>