<?xml version="1.0" encoding="utf-8"?><svg aria-hidden="true" viewBox="0 0 16 16" data-icon="MoreSetOutlined" font-size="16" width="16" height="16"><path fill-rule="evenodd" clip-rule="evenodd" d="M5.882 2.18c-.922 0-1.674.751-1.674 1.683s.752 1.682 1.674 1.682c.921 0 1.673-.75 1.673-1.682 0-.932-.752-1.683-1.673-1.683zm-3.085.933A3.176 3.176 0 015.882.68a3.176 3.176 0 013.084 2.433h5.99a.75.75 0 010 1.5h-5.99a3.176 3.176 0 01-3.084 2.432 3.176 3.176 0 01-3.085-2.432H1.044a.75.75 0 110-1.5h1.753zm7.32 7.342c-.92 0-1.673.75-1.673 1.682 0 .932.752 1.683 1.674 1.683.921 0 1.673-.751 1.673-1.683s-.752-1.682-1.673-1.682zm-3.084.932a3.176 3.176 0 013.085-2.432 3.176 3.176 0 013.084 2.432h1.753a.75.75 0 010 1.5h-1.753a3.176 3.176 0 01-3.084 2.433 3.176 3.176 0 01-3.085-2.433H1.044a.75.75 0 110-1.5h5.989z" fill="currentColor"/></svg>