<?xml version="1.0" encoding="utf-8"?><svg fill="#4281ff" aria-hidden="true" viewBox="0 0 1024 1024" data-icon="IconiconNotice" width="1024" height="1024"><path d="M795.99 121.06A71.111 71.111 0 01896 186.027v652.06a71.111 71.111 0 01-100.01 64.967L501.247 772.04a156.501 156.501 0 01-253.554-75.093h-48.583c-39.253 0-71.111-31.858-71.111-71.111V398.279c0-39.253 31.858-71.111 71.111-71.111h133.12L795.99 121.06zm14.677 86.869L350.436 412.5H213.333v199.111h113.778v42.667a71.111 71.111 0 00128.91 41.472l20.253-28.16 334.393 148.594V207.929z" fill="currentColor" opacity=".8"/><path d="M625.778 412.501a42.667 42.667 0 0185.333 0v199.111a42.667 42.667 0 01-85.333 0v-199.11z" fill="currentColor" opacity=".5"/></svg>