<?xml version="1.0" encoding="utf-8"?><svg class="cosc-gEvEer cohSTeNi comx-icon" width="1" height="1" fill="currentColor" aria-hidden="true" viewBox="0 0 48 48" data-icon="IconFee"><path d="M35.812 21.513v1.5h2.183c1.176 0 1.982.643 2.322 1.408.334.75.242 1.644-.518 2.352L25.804 39.812c-.985.917-2.623.917-3.608 0L8.2 26.773c-.76-.708-.852-1.601-.518-2.352.34-.765 1.146-1.408 2.322-1.408h2.824V9.724c0-1.13 1.016-2.224 2.497-2.224h17.989c1.48 0 2.497 1.094 2.497 2.224v11.789z" stroke="currentColor" fill="none" stroke-width="3"/><path d="M22.5 16.5a1.5 1.5 0 013 0v13a1.5 1.5 0 01-3 0v-13z"/><rect x="6" y="39" width="36" height="3" rx="1.5"/></svg>