<?xml version="1.0" encoding="utf-8"?><svg class="bfsc-gEvEer bfhSTeNi bfmx-icon" fill="currentColor" aria-hidden="true" viewBox="0 0 48 48" data-icon="IconSecurity" width="48" height="48"><path d="M8.02 10.76l15.884-3.21a.5.5 0 01.197 0l15.873 3.164a.5.5 0 01.4.53l-1.576 19.658a.5.5 0 01-.236.386l-14.304 8.805a.5.5 0 01-.523 0L9.422 31.349l-.783 1.28.783-1.28a.5.5 0 01-.238-.387L7.62 11.291a.5.5 0 01.4-.53z" stroke="currentColor" fill="none" stroke-width="3"/><path d="M32.618 19.945a1.5 1.5 0 10-2.122-2.122l-7.232 7.233a.5.5 0 01-.707 0l-3.535-3.536a1.5 1.5 0 10-2.122 2.122l5.303 5.303a1 1 0 001.415 0l9-9z"/></svg>