<?xml version="1.0" encoding="utf-8"?><svg viewBox="0 0 2000 1024" xmlns="http://www.w3.org/2000/svg" xmlns:xlink="http://www.w3.org/1999/xlink"><style>:root>svg{display:none}:root>svg:target{display:block}</style><svg aria-hidden="true" viewBox="0 0 1024 1024" id="apple"><path d="M781.152 517.547c1.35 140.502 129.231 187.259 130.72 187.907-1.162 3.216-20.492 66.642-67.481 132.167-40.604 56.626-82.659 112.933-149.023 114.093-65.292 1.165-86.199-36.882-160.801-36.882-74.562 0-97.891 35.723-159.597 38.048-63.984 2.329-112.789-61.102-153.729-117.497C137.509 719.984 73.614 509.346 159.49 367.17c42.612-70.649 118.847-115.307 201.509-116.514 62.918-1.073 122.337 40.467 160.71 40.467 38.513 0 110.649-49.921 186.511-42.612 31.716 1.26 120.898 12.201 178.13 92.025-4.563 2.839-106.41 59.285-105.201 177.01zM514.026 237.942c-7.358-53.414 20.211-108.929 51.695-143.808 35.161-39.259 94.487-68.457 143.481-70.32 6.287 54.393-16.716 109.02-50.667 148.37-34.043 39.216-89.836 69.81-144.507 65.758zm0 0z"/></svg><svg class="absc-aXZVg abktFCMi abmx-icon abiconfont abiconios1 abdownload_appStore__b4QwE" fill="currentColor" aria-hidden="true" viewBox="0 0 1024 1024" data-icon="AppleFilled" id="appstore"><path d="M781.152 517.547c1.35 140.502 129.231 187.259 130.72 187.907-1.162 3.216-20.492 66.642-67.481 132.167-40.604 56.626-82.659 112.933-149.023 114.093-65.292 1.165-86.199-36.882-160.801-36.882-74.562 0-97.891 35.723-159.597 38.048-63.984 2.329-112.789-61.102-153.729-117.497C137.509 719.984 73.614 509.346 159.49 367.17c42.612-70.649 118.847-115.307 201.509-116.514 62.918-1.073 122.337 40.467 160.71 40.467 38.513 0 110.649-49.921 186.511-42.612 31.716 1.26 120.898 12.201 178.13 92.025-4.563 2.839-106.41 59.285-105.201 177.01zM514.026 237.942c-7.358-53.414 20.211-108.929 51.695-143.808 35.161-39.259 94.487-68.457 143.481-70.32 6.287 54.393-16.716 109.02-50.667 148.37-34.043 39.216-89.836 69.81-144.507 65.758zm0 0z"/></svg><svg fill="none" viewBox="0 0 5 9" id="arrow" xmlns="http://www.w3.org/2000/svg"><path d="M1 1l3 3.5L1 8" stroke="#67686B" stroke-linecap="round" stroke-linejoin="round"/></svg><svg class="adsc-aXZVg adktFCMi admx-icon" fill="currentColor" aria-hidden="true" viewBox="0 0 1024 1024" data-icon="ArrowRightOutlined" id="arrow-link"><path d="M128 469.333h604.587L579.84 316.16 640 256l256 256-256 256-60.16-60.16 152.747-153.173H128z"/></svg><svg fill="none" viewBox="0 0 12 10" id="arrow-link-bold" xmlns="http://www.w3.org/2000/svg"><path d="M6.833 1L11 5m0 0L6.833 9M11 5H1" stroke="#46B75B" stroke-width="1.5" stroke-linecap="round" stroke-linejoin="round"/></svg><svg fill="none" viewBox="0 0 20 20" id="bonus-box" xmlns="http://www.w3.org/2000/svg"><path d="M9.812 17.756V6.12m-1.354-.698a.43.43 0 00.4-.111.43.43 0 00.11-.4c-.129-.528-.605-2.297-1.094-2.786a1.564 1.564 0 00-2.207-.005 1.564 1.564 0 00.005 2.207c.497.497 2.258.965 2.786 1.095zm1.479-.51a.43.43 0 00.11.399.43.43 0 00.4.11c.528-.129 2.297-.605 2.786-1.094.61-.61.612-1.601.005-2.207a1.564 1.564 0 00-2.207.005c-.497.497-.965 2.258-1.094 2.786zm-7.689 5.28h14.837c.321 0 .581-.26.581-.581V6.7a.582.582 0 00-.581-.581H2.248a.582.582 0 00-.582.582V9.61c0 .321.261.582.582.582zm13.964 0v6.982c0 .322-.26.582-.582.582H3.703a.582.582 0 01-.582-.582v-6.981h13.091z" stroke="#EB771A" stroke-linecap="round" stroke-linejoin="round"/></svg><svg fill="none" viewBox="0 0 26 26" id="btc" xmlns="http://www.w3.org/2000/svg"><g clip-path="url(#agclip0_85_2868)"><path d="M25.61 16.145c-1.736 6.964-8.79 11.203-15.756 9.466C2.89 23.875-1.348 16.821.389 9.857 2.125 2.892 9.18-1.347 16.143.389c6.966 1.736 11.204 8.791 9.468 15.756z" fill="#F7931A"/><path d="M18.733 11.148c.259-1.73-1.059-2.66-2.86-3.28l.585-2.344-1.427-.355-.569 2.281c-.375-.093-.76-.181-1.143-.269l.573-2.297-1.426-.355-.584 2.343c-.31-.07-.616-.14-.912-.214l.002-.008-1.967-.491-.38 1.524s1.059.242 1.036.257c.578.144.683.527.665.83l-.665 2.67c.04.01.091.024.148.047l-.15-.037-.934 3.74c-.07.175-.25.439-.654.339.015.02-1.036-.259-1.036-.259l-.709 1.633 1.857.463c.345.086.684.177 1.017.262l-.59 2.37 1.425.356.584-2.345c.39.105.767.203 1.137.295l-.582 2.334 1.426.355.59-2.366c2.434.46 4.263.275 5.033-1.925.62-1.772-.031-2.793-1.311-3.46.932-.215 1.634-.828 1.822-2.094h-.001zm-3.26 4.57c-.44 1.772-3.424.814-4.39.574l.783-3.14c.967.241 4.068.719 3.607 2.566zm.442-4.596c-.403 1.611-2.885.793-3.69.592l.71-2.848c.805.2 3.399.575 2.98 2.256z" fill="#fff"/></g><defs><clipPath id="agclip0_85_2868"><path fill="#fff" d="M0 0h26v26H0z"/></clipPath></defs></svg><svg class="ahsc-aXZVg ahktFCMi ahmx-icon ahheader_mobileMenuToggle__gRSy_ ahheader_navItem__dEqAQ" fill="currentColor" aria-hidden="true" viewBox="0 0 20 20" data-icon="MenuOutlined" font-size="22" id="burger"><path fill-rule="evenodd" clip-rule="evenodd" d="M0 2h20v2H0V2zm0 7h20v2H0V9zm20 7H0v2h20v-2z"/></svg><svg fill="none" viewBox="0 0 22 16" id="card" xmlns="http://www.w3.org/2000/svg"><g clip-path="url(#aiclip0_1_5)"><path d="M-26-42h320V58a6 6 0 01-6 6H-20a6 6 0 01-6-6V-42z" fill="#18191C"/><path d="M1.6 5.2h18M5.2 9.4h3M3.4 1h14.4a2.4 2.4 0 012.4 2.4V12.4a2.4 2.4 0 01-2.4 2.399H3.4A2.4 2.4 0 011 12.4v-9A2.4 2.4 0 013.4 1z" stroke="#58D068" stroke-width="2" stroke-linecap="round" stroke-linejoin="round"/></g><defs><clipPath id="aiclip0_1_5"><path fill="#fff" transform="translate(-258 -102)" d="M0 0h1920v2669H0z"/></clipPath></defs></svg><svg aria-hidden="true" viewBox="0 0 2048 1024" data-icon="CaretUpOutlined" id="caret"><path d="M1144.832 120.832a170.667 170.667 0 00-241.664 0l-611.67 611.67A170.667 170.667 0 00411.99 1024h1224.022a170.667 170.667 0 00120.49-291.499l-611.669-611.669z"/></svg><svg viewBox="0 0 20 20" fill="none" id="circle-holder" xmlns="http://www.w3.org/2000/svg"><circle cx="10" cy="10" r="10" fill="#D9D9D9"/></svg><svg viewBox="64 64 896 896" data-icon="close-circle" aria-hidden="true" id="clear"><path d="M512 64C264.6 64 64 264.6 64 512s200.6 448 448 448 448-200.6 448-448S759.4 64 512 64zm165.4 618.2l-66-.3L512 563.4l-99.3 118.4-66.1.3c-4.4 0-8-3.5-8-8 0-1.9.7-3.7 1.9-5.2l130.1-155L340.5 359a8.32 8.32 0 01-1.9-5.2c0-4.4 3.6-8 8-8l66.1.3L512 464.6l99.3-118.4 66-.3c4.4 0 8 3.5 8 8 0 1.9-.7 3.7-1.9 5.2L553.5 514l130 155c1.2 1.5 1.9 3.3 1.9 5.2 0 4.4-3.6 8-8 8z"/></svg><svg class="amsc-aXZVg amktFCMi ammx-icon" fill="currentColor" aria-hidden="true" viewBox="0 0 10 10" data-icon="IconCountDown" id="clock"><path fill-rule="evenodd" clip-rule="evenodd" d="M5 10A5 5 0 105 0a5 5 0 000 10zM4 2.5h1v3h2.5v1H4v-4z"/></svg><svg aria-hidden="true" viewBox="0 0 1024 1024" id="close"><path d="M512 592.44l414.89 414.892 80.442-80.441L592.44 512l414.89-414.89-80.44-80.442L512 431.56 97.11 16.67l-80.442 80.44L431.56 512 16.67 926.89l80.44 80.442L512 592.44z" fill="currentColor"/></svg><svg viewBox="0 0 15 15" id="copy" xmlns="http://www.w3.org/2000/svg"><path fill="#E5E5E5" d="M0 0h15v15H0z"/><g clip-path="url(#aoclip0_1_5)"><path fill="#050611" d="M-568-1170h1920V596H-568z"/><path d="M-135-44h236v327a6 6 0 01-6 6h-224a6 6 0 01-6-6V-44z" fill="#18191C"/><path d="M11.563 5.875h1.624c.45 0 .813.364.813.813V12a2 2 0 01-2 2H6.687a.813.813 0 01-.812-.813v-1.624M7.5 1H2.625C1.728 1 1 1.728 1 2.625V7.5c0 .897.728 1.625 1.625 1.625H7.5c.897 0 1.625-.728 1.625-1.625V2.625C9.125 1.728 8.397 1 7.5 1z" stroke="#67686B" stroke-width="1.5" stroke-linecap="round"/></g><defs><clipPath id="aoclip0_1_5"><path fill="#fff" transform="translate(-568 -1170)" d="M0 0h1920v1766H0z"/></clipPath></defs></svg><svg viewBox="0 0 48 48" id="discord" xmlns="http://www.w3.org/2000/svg"><g clip-path="url(#apclip0_66_2190)"><path d="M40.634 8.311a39.58 39.58 0 00-9.77-3.03.148.148 0 00-.157.074c-.422.75-.89 1.73-1.217 2.499a36.542 36.542 0 00-10.973 0 25.261 25.261 0 00-1.236-2.499.154.154 0 00-.157-.074 39.472 39.472 0 00-9.77 3.03.14.14 0 00-.064.055C1.067 17.663-.638 26.731.198 35.687a.165.165 0 00.063.113c4.105 3.015 8.082 4.845 11.986 6.058a.155.155 0 00.168-.055 28.453 28.453 0 002.452-3.988.152.152 0 00-.083-.212 26.207 26.207 0 01-3.745-1.785.154.154 0 01-.015-.255c.252-.188.504-.385.744-.583a.149.149 0 01.155-.02c7.856 3.586 16.36 3.586 24.123 0a.148.148 0 01.157.018c.24.199.492.397.745.585.087.065.082.2-.013.255a24.595 24.595 0 01-3.746 1.783.153.153 0 00-.081.214 31.937 31.937 0 002.45 3.986.152.152 0 00.168.057c3.922-1.213 7.9-3.043 12.005-6.058a.154.154 0 00.062-.111c1.001-10.354-1.676-19.348-7.097-27.32a.122.122 0 00-.062-.058zM16.04 30.234c-2.365 0-4.314-2.171-4.314-4.838 0-2.666 1.911-4.838 4.314-4.838 2.422 0 4.352 2.19 4.314 4.838 0 2.667-1.911 4.838-4.314 4.838zm15.95 0c-2.365 0-4.314-2.171-4.314-4.838 0-2.666 1.91-4.838 4.314-4.838 2.421 0 4.351 2.19 4.313 4.838 0 2.667-1.892 4.838-4.313 4.838z"/></g><defs><clipPath id="apclip0_66_2190"><path d="M0 0h48v48H0z"/></clipPath></defs></svg><svg viewBox="0 0 48 48" id="dots" xmlns="http://www.w3.org/2000/svg"><path d="M48 23.655c0 6.36-1.066 11.517-2.38 11.517-1.316 0-2.38-5.157-2.38-11.517 0-6.36 1.065-11.516 2.38-11.516 1.314 0 2.38 5.156 2.38 11.516zM41.926 23.655c0 7.1-3.03 12.856-6.77 12.856-3.738 0-6.768-5.757-6.768-12.856 0-7.098 3.03-12.855 6.768-12.855 3.739 0 6.77 5.755 6.77 12.855M27.075 23.655c0 7.542-6.061 13.655-13.537 13.655C6.06 37.31 0 31.195 0 23.655 0 16.115 6.061 10 13.538 10c7.476 0 13.537 6.114 13.537 13.655z"/></svg><svg viewBox="0 0 14 14" id="eye-closed" xmlns="http://www.w3.org/2000/svg"><path d="M11.9 11.375l-8.75-8.75m2.8 3.466c-.218.24-.35.556-.35.901 0 .752.627 1.362 1.4 1.362.357 0 .682-.13.93-.343m3.993.343c.482-.721.677-1.31.677-1.31S11.326 2.975 7 2.975c-.243 0-.476.013-.7.037m3.85 7.108c-.803.513-1.838.876-3.15.854-4.272-.07-5.6-3.93-5.6-3.93s.617-1.97 2.45-3.169" stroke="#67686B" stroke-linecap="round"/></svg><svg fill="none" viewBox="0 0 14 14" id="eye-open" xmlns="http://www.w3.org/2000/svg"><path d="M8.4 7.017c0 .752-.627 1.362-1.4 1.362-.773 0-1.4-.61-1.4-1.362 0-.752.627-1.362 1.4-1.362.773 0 1.4.61 1.4 1.362z" stroke="#67686B"/></svg><svg viewBox="0 0 48 48" id="facebook" xmlns="http://www.w3.org/2000/svg"><g clip-path="url(#atclip0_125_105)"><path d="M24 0C10.745 0 0 10.745 0 24c0 11.255 7.75 20.7 18.203 23.293V31.334h-4.95V24h4.95v-3.16c0-8.169 3.697-11.955 11.716-11.955 1.521 0 4.145.298 5.218.596v6.648c-.566-.06-1.55-.09-2.773-.09-3.935 0-5.455 1.492-5.455 5.367V24h7.84L33.4 31.334H26.91v16.49C38.793 46.39 48 36.271 48 24 48 10.745 37.255 0 24 0z"/></g><defs><clipPath id="atclip0_125_105"><path d="M0 0h48v48H0z"/></clipPath></defs></svg><svg aria-hidden="true" viewBox="0 0 1024 1024" data-icon="StarFilled" id="favourites"><path d="M908.096 353.088l-253.888-36.864-113.536-230.08a32.128 32.128 0 00-57.408 0L369.792 316.16l-253.888 36.864a32 32 0 00-17.728 54.656l183.68 179.072-43.392 252.864a32 32 0 0046.4 33.728L512 753.984l227.072 119.424a32 32 0 0046.4-33.728L742.08 586.816l183.68-179.072a31.936 31.936 0 00-17.664-54.656z" fill="currentColor"/></svg><svg fill="none" viewBox="0 0 14 14" id="fire" xmlns="http://www.w3.org/2000/svg"><mask id="ava" style="mask-type:alpha" maskUnits="userSpaceOnUse" x="2" y="0" width="10" height="13"><path d="M11.422 5.783a4.586 4.586 0 00-1.082-1.52l-.38-.353a.105.105 0 00-.169.043l-.17.493c-.105.309-.3.624-.575.935a.082.082 0 01-.054.026.071.071 0 01-.056-.02.077.077 0 01-.026-.063c.049-.795-.186-1.691-.7-2.667-.426-.81-1.017-1.443-1.756-1.884L5.915.452c-.07-.042-.16.013-.157.096l.03.634c.019.433-.03.816-.148 1.134-.144.39-.35.752-.614 1.076a3.884 3.884 0 01-.62.609 4.644 4.644 0 00-1.309 1.604 4.637 4.637 0 00-.11 3.833 4.612 4.612 0 002.445 2.45c.567.24 1.167.362 1.787.362a4.57 4.57 0 003.247-1.347 4.589 4.589 0 001.347-3.26c0-.644-.131-1.27-.39-1.86z" fill="#F48E2F"/></mask><g mask="url(#ava)"><path d="M11.422 5.783a4.586 4.586 0 00-1.082-1.52l-.38-.353a.105.105 0 00-.169.043l-.17.493c-.105.309-.3.624-.575.935a.082.082 0 01-.054.026.071.071 0 01-.056-.02.077.077 0 01-.026-.063c.049-.795-.186-1.691-.7-2.667-.426-.81-1.017-1.443-1.756-1.884L5.915.452c-.07-.042-.16.013-.157.096l.03.634c.019.433-.03.816-.148 1.134-.144.39-.35.752-.614 1.076a3.884 3.884 0 01-.62.609 4.644 4.644 0 00-1.309 1.604 4.637 4.637 0 00-.11 3.833 4.612 4.612 0 002.445 2.45c.567.24 1.167.362 1.787.362a4.57 4.57 0 003.247-1.347 4.589 4.589 0 001.347-3.26c0-.644-.131-1.27-.39-1.86z" fill="#F48E2F"/><g filter="url(#avfilter0_f_8410_16243)"><path d="M4.376 11.249c.03.926.54 1.712 1.252 2.16l2.419.153c.991-.462 1.645-1.541 1.572-2.715-.043-.68-.42-1.327-.83-1.775-.247 1.714-1.135 1.914-1.135 1.914s.51-1.126.582-2.376a4.343 4.343 0 00-.131-1.545c-.466-1.774-1.268-2.253-1.268-2.253s.262 1.034-.698 2.7c-.671 1.16-1.805 2.008-1.763 3.737z" fill="url(#avpaint0_linear_8410_16243)"/></g><path d="M4.376 11.249c.03.926.54 1.712 1.252 2.16l2.419.153c.991-.462 1.645-1.541 1.572-2.715-.043-.68-.42-1.327-.83-1.775-.247 1.714-1.135 1.914-1.135 1.914s.51-1.126.582-2.376a4.343 4.343 0 00-.131-1.545c-.466-1.774-1.268-2.253-1.268-2.253s.262 1.034-.698 2.7c-.671 1.16-1.805 2.008-1.763 3.737z" fill="#fff"/><g filter="url(#avfilter1_f_8410_16243)"><path d="M4.376 11.249c.03.926.54 1.712 1.252 2.16l2.419.153c.991-.462 1.645-1.541 1.572-2.715-.043-.68-.42-1.327-.83-1.775-.247 1.714-1.135 1.914-1.135 1.914s.51-1.126.582-2.376a4.343 4.343 0 00-.131-1.545c-.466-1.774-1.268-2.253-1.268-2.253s.262 1.034-.698 2.7c-.671 1.16-1.805 2.008-1.763 3.737z" fill="url(#avpaint1_linear_8410_16243)"/></g><g filter="url(#avfilter2_f_8410_16243)"><circle cx="7" cy="5.688" r=".875" fill="#FFFBE0"/></g><path d="M7 7.713c-.438 2.188-.875 2.625-2.188 3.938l1.313 1.312c1.02-.145 3.063-.175 3.063-.875 0-1.75-1.313-3.937-2.188-4.375z" fill="#FFFCEF"/></g><defs><filter id="avfilter0_f_8410_16243" x="2.375" y="2.813" width="9.25" height="12.75" filterUnits="userSpaceOnUse" color-interpolation-filters="sRGB"><feFlood flood-opacity="0" result="BackgroundImageFix"/><feBlend in="SourceGraphic" in2="BackgroundImageFix" result="shape"/><feGaussianBlur stdDeviation="1" result="effect1_foregroundBlur_8410_16243"/></filter><filter id="avfilter1_f_8410_16243" x="2.375" y="2.813" width="9.25" height="12.75" filterUnits="userSpaceOnUse" color-interpolation-filters="sRGB"><feFlood flood-opacity="0" result="BackgroundImageFix"/><feBlend in="SourceGraphic" in2="BackgroundImageFix" result="shape"/><feGaussianBlur stdDeviation="1" result="effect1_foregroundBlur_8410_16243"/></filter><filter id="avfilter2_f_8410_16243" x="3.125" y="1.813" width="7.75" height="7.75" filterUnits="userSpaceOnUse" color-interpolation-filters="sRGB"><feFlood flood-opacity="0" result="BackgroundImageFix"/><feBlend in="SourceGraphic" in2="BackgroundImageFix" result="shape"/><feGaussianBlur stdDeviation="1.5" result="effect1_foregroundBlur_8410_16243"/></filter><linearGradient id="avpaint0_linear_8410_16243" x1="7" y1="4.813" x2="7" y2="13.563" gradientUnits="userSpaceOnUse"><stop stop-color="#FFF88B"/><stop offset="1" stop-color="#FFF103" stop-opacity="0"/></linearGradient><linearGradient id="avpaint1_linear_8410_16243" x1="7" y1="4.813" x2="7" y2="13.563" gradientUnits="userSpaceOnUse"><stop stop-color="#FFFBBF"/><stop offset="1" stop-color="#FF9A03" stop-opacity="0"/></linearGradient></defs></svg><svg fill="none" viewBox="0 0 22 20" id="futures" xmlns="http://www.w3.org/2000/svg"><path d="M5.8 9.4V8.2m4.8 1.2V7m4.8 2.4V4.6m-7.2 9.6L6.4 19m8.794-.067l-2.122-4.667M3.4 14.2A2.4 2.4 0 011 11.8V3.4A2.4 2.4 0 013.4 1h14.4a2.4 2.4 0 012.4 2.4v8.4a2.4 2.4 0 01-2.4 2.4H3.4z" stroke="#58D068" stroke-width="2" stroke-linecap="round" stroke-linejoin="round"/></svg><svg fill="none" viewBox="0 0 22 22" id="futures2" xmlns="http://www.w3.org/2000/svg"><path d="M1 1v19.2h19.2M5.8 13L10 8.8l3 3 6.6-6.6m-4.49-.6h5.09v5.091" stroke="#58D068" stroke-width="2" stroke-linecap="round" stroke-linejoin="round"/></svg><svg aria-hidden="true" viewBox="0 0 1024 1024" data-icon="Icongoogle1" id="google"><path d="M977.455 565.434a539.927 539.927 0 00-8.192-94.115H521.495v178.27h256.466a214.947 214.947 0 01-94.86 140.753v115.805h153.042c89.646-80.617 141.312-199.773 141.312-340.713z" fill="#4285F4"/><path d="M521.588 1018.042c128.093 0 235.986-40.96 314.648-111.802L683.287 790.435c-42.635 28.113-97.373 44.218-161.606 44.218a281.88 281.88 0 01-163.56-52.876 284.858 284.858 0 01-103.052-138.333H97.28v119.343c80.71 156.393 244.83 255.255 424.308 255.255z" fill="#34A853"/><path d="M254.883 643.444a271.08 271.08 0 010-177.245V346.95H97.093a452.701 452.701 0 000 415.838l157.79-119.343z" fill="#FBBC04"/><path d="M521.588 274.99a261.4 261.4 0 01182.086 69.54l135.54-132.19A462.662 462.662 0 00521.589 91.695c-179.479 0-343.784 98.676-424.308 255.255L255.07 466.2a284.858 284.858 0 01102.958-138.24 281.88 281.88 0 01163.56-52.97z" fill="#EA4335"/></svg><svg fill="currentColor" aria-hidden="true" viewBox="0 0 1024 1024" data-icon="GooglePlayOutlined" id="google-play"><path d="M168.305 102.4L585.318 512 168.346 921.6a40.632 40.632 0 01-18.187-14.787 39.567 39.567 0 01-6.799-22.2V139.387a39.731 39.731 0 016.8-22.16 40.796 40.796 0 0118.145-14.827zm445.972 438.026l94.29 92.57-447.939 254.648 353.65-347.218zm130.99-128.614l114.975 65.413a39.65 39.65 0 010 69.55l-115.016 65.372L643.236 512l102.031-100.147zM260.628 136.397l447.98 254.566-94.29 92.57-353.69-347.136z"/></svg><svg aria-hidden="true" viewBox="0 0 24 24" data-icon="GlobalOutlined" font-size="20" id="lang"><path d="M12 22C6.477 22 2 17.523 2 12S6.477 2 12 2s10 4.477 10 10-4.477 10-10 10zm-2.29-2.333A17.9 17.9 0 018.027 13H4.062a8.008 8.008 0 005.648 6.667zM10.03 13c.151 2.439.848 4.73 1.97 6.752A15.906 15.906 0 0013.97 13h-3.94zm9.908 0h-3.965a17.9 17.9 0 01-1.683 6.667A8.008 8.008 0 0019.938 13zM4.062 11h3.965A17.9 17.9 0 019.71 4.333 8.008 8.008 0 004.062 11zm5.969 0h3.938A15.904 15.904 0 0012 4.248 15.906 15.906 0 0010.03 11h.001zm4.259-6.667A17.9 17.9 0 0115.973 11h3.965a8.008 8.008 0 00-5.648-6.667z"/></svg><svg aria-hidden="true" viewBox="0 0 16 16" id="lock"><path d="M11.892 6.377h-1.745v-.652c0-1.094-.303-2.933-2.328-2.933-2.103 0-2.328 2.049-2.328 2.933v.652H3.746v-.652C3.746 2.855 5.344 1 7.819 1c2.475 0 4.073 1.854 4.073 4.725v.652zm-2.91 4.45c0-.659-.527-1.194-1.163-1.194s-1.164.535-1.164 1.195c0 .45.233.822.582 1.024v1.357c0 .326.264.606.582.606a.596.596 0 00.582-.605v-1.35c.349-.202.582-.582.582-1.032zm4.656-2.068v5.449c0 .985-.784 1.792-1.746 1.792H3.746C2.784 16 2 15.193 2 14.208v-5.45c0-.985.784-1.792 1.746-1.792h8.146c.962 0 1.746.807 1.746 1.793z" fill="currentColor"/></svg><svg fill="none" viewBox="0 0 131 26" id="logo" xmlns="http://www.w3.org/2000/svg"><path d="M7.773 19.556l-.066-.056-6.628 5.59c.606.564 1.417.91 2.31.91H17.979L7.774 19.556z" fill="url(#bcpaint0_linear_132_48)"/><path d="M12.285 10.363L0 0v7.77l5.182 4.37c.533.45.533 1.27 0 1.72L0 18.23v4.382c0 .978.416 1.86 1.08 2.478l6.693-5.646 4.513-3.807a3.45 3.45 0 000-5.274zM29.484 18.822h2.79l-2.616-3.747.061-.027c.76-.33 1.353-.812 1.765-1.432.412-.62.621-1.37.621-2.229 0-.858-.206-1.61-.613-2.237-.406-.626-.995-1.116-1.749-1.457-.757-.342-1.662-.516-2.69-.516H22.02v11.644h2.613v-3.274h2.585l2.267 3.275zm-4.852-5.331V9.287h2.27c.828 0 1.466.182 1.9.54.436.363.657.888.657 1.562 0 .663-.221 1.185-.658 1.553-.434.365-1.072.55-1.899.55h-2.27v-.001zM36.975 7.178h-2.612v11.644h2.612V7.178zM54.954 7.178l-2.778 8.449-2.726-8.449h-2.44l-2.811 8.38-2.692-8.38H38.8l3.828 11.644h2.827l2.71-8.076 2.624 8.076h2.843l3.81-11.644h-2.488zM66.421 16.304l1.041 2.518h2.735L64.989 7.178h-2.616L57.18 18.822h2.668l1.041-2.518h5.531zm-2.756-6.652l1.945 4.695h-3.891l1.946-4.695zM79.783 7.178H69.647v2.109h3.762v9.535h2.612V9.287h3.762V7.178zM89.405 13.92v-2.008h-5.457v-2.66h6.179V7.178h-8.775v11.644h8.993v-2.074h-6.397V13.92h5.457zM99.884 18.822h3.005l-4.344-6.023.023-.032 4.036-5.589h-2.805l-2.681 3.852-2.732-3.852H91.43l4.092 5.722-4.31 5.922H94.2l2.817-4.12 2.867 4.12z" fill="#fff"/><defs><linearGradient id="bcpaint0_linear_132_48" x1="2.448" y1="19.293" x2="12.187" y2="27.899" gradientUnits="userSpaceOnUse"><stop stop-color="#0EB69D"/><stop offset="1" stop-color="#85E047"/></linearGradient></defs></svg><svg aria-hidden="true" viewBox="0 0 1293 1024" id="mail"><path d="M1242.92 188.632L636.605 538.678 45.865 197.686v-50.877c0-60.146 48.72-109.029 109.028-109.029h979.268c60.146 0 109.083 48.721 109.083 109.03v41.822h-.324zm0 125.682v594.082a109.03 109.03 0 01-109.029 109.029H154.678a109.03 109.03 0 01-109.03-109.03V323.423l563.794 325.47c19.402 11.21 42.63 9.055 59.5-3.34.808-.324 1.455-.81 2.317-1.133l571.608-330.105z"/></svg><svg fill="none" viewBox="0 0 16 12" id="mail-nobg" xmlns="http://www.w3.org/2000/svg"><path d="M1.875 1.846L8 5.65l6.563-3.805M2.75 11C1.784 11 1 10.243 1 9.309V2.69C1 1.757 1.784 1 2.75 1h10.5c.966 0 1.75.757 1.75 1.691V9.31c0 .934-.784 1.691-1.75 1.691H2.75z" stroke="#46B75B" stroke-width="1.5" stroke-linecap="round" stroke-linejoin="round"/></svg><svg aria-hidden="true" viewBox="0 0 28 29" id="metamask"><path d="M15.647 10.824l-3.304.005-1.29-3.113 4.594 3.108z" fill="#F6851B"/><path d="M11.054 7.716l5.926-.012-1.333 3.12-4.593-3.108z" fill="#F6851B"/><path d="M12.343 10.83L4.027 4.575l7.027 3.141 1.289 3.114z" fill="#E4761B"/><path d="M23.975 4.522l-8.328 6.302 1.333-3.12 6.995-3.182z" fill="#E2761B"/><path d="M7.4 13.493l-3.768-.982-.202-.879 3.97 1.86zm-3.639.074l-.129-1.056 3.768.982-3.639.074zm.527 1.525l3.112-1.6 1.619.288-4.73 1.312z" fill="#763D16"/><path d="M3.761 13.567l3.64-.074-3.113 1.599-.527-1.525zm16.878-.088l3.976-1.876-.204.883-3.772.993zm3.64.066l-3.64-.066 3.772-.993-.131 1.06zm-.53 1.532L19 13.77l1.64-.291 3.11 1.598z" fill="#763D16"/><path d="M24.28 13.545l-.53 1.532-3.11-1.598 3.64.066zM7.56 8.714l-.16 4.779-3.97-1.86 4.13-2.92zM9.02 13.78L7.4 13.493l.16-4.78L9.02 13.78z" fill="#763D16"/><path d="M9.113 23.492l1.235-.653.216-.051-1.451.704zm8.366-.7l.19.051 1.206.656-1.396-.707z" fill="#E2761B"/><path d="M24.614 11.603l-3.975 1.876-.192-4.79 4.168 2.914zM20.447 8.69l.192 4.789-1.64.291 1.448-5.08z" fill="#763D16"/><path d="M9.113 23.492l-5.285 1.952-1.295-5.286 6.58 3.334z" fill="#E4761B"/><path d="M2.94 11.95l.49-.318.202.88-.693-.562z" fill="#763D16"/><path d="M25.532 20.16l-1.296 5.306-5.361-1.967 6.657-3.338z" fill="#E4761B"/><path d="M7.56 8.714l4.783 2.115-3.324 2.951L7.56 8.714zm-3.799 4.853l-.686-.67.557-.386.13 1.056zM19 13.77l-3.352-2.946 4.8-2.135-1.448 5.081zm6.107-1.85l-.695.566.203-.883.492.318zM3.43 11.633l-.611-3.67 4.742.752-4.131 2.918zm.858 3.46l-.983-1.232.456-.293.527 1.525z" fill="#763D16"/><path d="M24.28 13.546l.13-1.06.558.386-.688.674zm-3.833-4.857l4.767-.772-.6 3.686-4.167-2.914z" fill="#763D16"/><path d="M7.54 15.43l-5.007 4.728 1.755-5.066 3.252.338z" fill="#F6851B"/><path d="M23.75 15.077l.53-1.532.456.294-.986 1.238z" fill="#763D16"/><path d="M6.752 19.545l-4.219.613L7.54 15.43l-.788 4.115z" fill="#F6851B"/><path d="M2.533 20.158l4.219-.613 2.36 3.947-6.579-3.334z" fill="#E4761B"/><path d="M20.434 15.421l3.316-.344 1.782 5.084-5.098-4.74zm0 0l5.098 4.74-4.309-.616-.789-4.124z" fill="#F6851B"/><path d="M18.875 23.5l2.348-3.955 4.309.616-6.657 3.338z" fill="#E4761B"/><path d="M4.288 15.092l4.73-1.312-1.478 1.65-3.252-.338zm19.462-.015l-3.316.344L19 13.771l4.75 1.306z" fill="#F6851B"/><path d="M9.019 13.78l3.324-2.95.25 4.626-3.574-1.676zm3.574 1.676L7.54 15.43l1.479-1.65 3.574 1.676zm6.406-1.686l1.435 1.651-5.086.033 3.651-1.684zm-3.651 1.684l.299-4.63 3.352 2.946-3.651 1.684z" fill="#E4761B"/><path d="M4.027 4.575l8.316 6.255L7.56 8.714l-3.534-4.14zM7.56 8.714l-4.742-.751 1.208-3.388L7.56 8.714zm16.414-4.192l1.239 3.395-4.767.772 3.528-4.167zM20.447 8.69l-4.8 2.136 8.328-6.303-3.528 4.167z" fill="#763D16"/><path d="M12.343 10.83l3.304-.005-.299 4.63-3.005-4.626z" fill="#F6851B"/><path d="M15.348 15.454l-2.755.002-.25-4.626 3.005 4.624z" fill="#F6851B"/><path d="M9.113 23.492l-2.361-3.947 2.837-.136-.476 4.083zm9.762.007l-.518-4.09 2.866.136-2.348 3.954zm-9.327-6.122L7.54 15.43l5.053.026-3.045 1.92z" fill="#CD6116"/><path d="M7.54 15.43l2.049 3.98-2.837.135.788-4.115z" fill="#F6851B"/><path d="M7.54 15.43l2.008 1.947.04 2.032L7.54 15.43z" fill="#E4751F"/><path d="M15.348 15.454l5.086-.033-2.03 1.953-3.056-1.92z" fill="#CD6116"/><path d="M21.223 19.545l-2.866-.136 2.077-3.988.789 4.124z" fill="#F6851B"/><path d="M20.434 15.421l-2.077 3.988.048-2.035 2.03-1.953z" fill="#E4751F"/><path d="M10.108 24.068l-.995-.576 2.858.205-1.863.371zm5.778-.368l2.989-.2-1.027.575-1.962-.375z" fill="#C0AD9E"/><path d="M12.593 15.456l-1.226 1.073-1.82.848 3.046-1.92z" fill="#CD6116"/><path d="M11.94 22.566l.03 1.13-2.857-.204 2.828-.926z" fill="#D7C1B3"/><path d="M18.405 17.373l-1.826-.847-1.231-1.072 3.057 1.92z" fill="#CD6116"/><path d="M12.196 20.448l-3.083 3.044.476-4.083 2.607 1.04z" fill="#E4761B"/><path d="M9.113 23.492l3.083-3.044-.255 2.117-2.828.927zm6.778-.924l2.984.931-2.989.2.005-1.131z" fill="#D7C1B3"/><path d="M15.633 20.449l2.724-1.04.518 4.09-3.242-3.05z" fill="#E4761B"/><path d="M18.875 23.5l-2.984-.932-.258-2.12 3.242 3.051z" fill="#D7C1B3"/><path d="M9.589 19.41l-.041-2.033 2.557.618-2.516 1.414z" fill="#F6851B"/><path d="M12.105 17.995l-2.557-.618 1.819-.848.738 1.466z" fill="#233447"/><path d="M18.357 19.41l-2.53-1.415 2.578-.622-.048 2.036z" fill="#F6851B"/><path d="M15.827 17.994l.752-1.468 1.826.848-2.578.62z" fill="#233447"/><path d="M11.367 16.529l1.226-1.073-.488 2.54-.738-1.467zm5.212-.003l-.752 1.469-.479-2.54 1.23 1.071z" fill="#CD6116"/><path d="M12.692 16.915l-.1-1.458 2.756-.003-2.656 1.461z" fill="#F6851B"/><path d="M12.105 17.995l.488-2.539.099 1.46-.587 1.08z" fill="#E4751F"/><path d="M15.348 15.454l-.119 1.46-2.537.001 2.656-1.46z" fill="#F6851B"/><path d="M15.827 17.995l-.598-1.08.119-1.46.48 2.54z" fill="#E2761B"/><path d="M11.97 23.697l.168.858-2.03-.486 1.863-.372zm5.878.378l-2.135.483.173-.858 1.962.375z" fill="#C0AD9E"/><path d="M12.196 20.448L9.59 19.41l2.516-1.414.091 2.453zm3.631-2.454l2.53 1.415-2.724 1.04.194-2.455z" fill="#F6851B"/><path d="M12.692 16.915l-.052 3.225-.535-2.145.587-1.08z" fill="#E4751F"/><path d="M12.105 17.995l.535 2.145-.444.308-.091-2.453z" fill="#F6851B"/><path d="M15.23 16.914l.597 1.08-.638 2.146.04-3.226z" fill="#E4751F"/><path d="M15.633 20.449l-.444-.31.638-2.145-.194 2.455z" fill="#F6851B"/><path d="M12.692 16.915h2.537l-.04 3.225-2.497-3.225zm2.497 3.225h-2.55l.053-3.225 2.497 3.225z" fill="#F6851B"/><path d="M12.138 24.555l-.167-.858-.03-1.131.197 1.989zm3.753-1.987l-.005 1.132-.173.858.178-1.99z" fill="#C0AD9E"/><path d="M11.94 22.565l.225-.329-.027 2.319-.197-1.99zm.198 1.99l.027-2.319 3.49.002-3.517 2.317zM15.656 22.238l.057 2.32-3.575-.003 3.518-2.317zm.057 2.32l-.057-2.32.235.33-.178 1.99z" fill="#C0AD9E"/><path d="M12.165 22.236l-.224.33.255-2.118-.031 1.788zm3.468-1.787l.258 2.119-.235-.33-.023-1.79zm-3.03-.117l.037-.193h2.549l-2.585.193z" fill="#161616"/><path d="M12.196 20.448l.444-.309-.037.193-.407.116zM15.189 20.14l.013.192h-2.598l2.585-.192zm.013.192l-.013-.192.444.309-.431-.117zm-3.006.116l.123.204-.154 1.584.031-1.788z" fill="#161616"/><path d="M12.604 20.332l-.285.32-.123-.204.408-.116zm3.052 1.906l-.17-1.585.147-.204.023 1.79z" fill="#161616"/><path d="M15.633 20.449l-.147.204-.284-.32.43.116zm.023 1.79l-3.491-.003.154-1.584 3.337 1.586zm-3.337-1.587h3.167l.17 1.586-3.337-1.586zm0 0l.284-.32h2.599l-2.883.32z" fill="#161616"/><path d="M15.201 20.332l.285.32h-3.167l2.882-.32z" fill="#161616"/></svg><svg class="bgsc-aXZVg bgktFCMi bgmx-icon bgfooter_toggleBtn__3F0ol" fill="currentColor" aria-hidden="true" viewBox="0 0 1024 1024" data-icon="PlusOutlined" id="minus"><path d="M80 512a48 48 0 0148-48h768a48 48 0 010 96H128a48 48 0 01-48-48z"/></svg><svg fill="none" viewBox="0 0 44 44" id="mobile-apps" xmlns="http://www.w3.org/2000/svg"><path fill="#CFE4FF" d="M1.5 3.659h41v36.684h-41z"/><path fill="#7295D8" d="M9.055.421H34.95v43.158H9.055z"/><path fill="#1261C4" d="M9.055.421H34.95v5.395H9.055zM9.055 37.105H34.95v6.474H9.055z"/><circle cx="22.002" cy="40.343" r="2.158" fill="#fff"/></svg><svg viewBox="0 0 20 20" id="notification" xmlns="http://www.w3.org/2000/svg"><path d="M17.32 13.232a8 8 0 10-3.405 3.746l4.087 1.021-.682-4.767z"/></svg><svg fill="none" viewBox="0 0 12 11" id="orders1" xmlns="http://www.w3.org/2000/svg"><path fill-rule="evenodd" clip-rule="evenodd" d="M11.989 1.31a.2.2 0 01-.2.2H.2a.2.2 0 01-.2-.2V.2C0 .09.09 0 .2 0h11.589c.11 0 .2.09.2.2v1.11z" fill="#FE445C"/><path fill-rule="evenodd" clip-rule="evenodd" d="M11.989 10.375a.2.2 0 01-.2.2H.2a.2.2 0 01-.2-.2v-1.11c0-.111.09-.2.2-.2h11.589c.11 0 .2.089.2.2v1.11z" fill="#0AA869"/><path fill-rule="evenodd" clip-rule="evenodd" d="M9.42 4.332a.2.2 0 01-.2.2H.2a.2.2 0 01-.2-.2v-1.11c0-.111.09-.2.2-.2h9.02c.11 0 .2.089.2.2v1.11z" fill="#FE445C"/><path fill-rule="evenodd" clip-rule="evenodd" d="M9.42 7.354a.2.2 0 01-.2.2H.2a.2.2 0 01-.2-.2V6.243c0-.11.09-.2.2-.2h9.02c.11 0 .2.09.2.2v1.11z" fill="#0AA869"/></svg><svg fill="none" viewBox="0 0 12 11" id="orders2" xmlns="http://www.w3.org/2000/svg"><path fill-rule="evenodd" clip-rule="evenodd" d="M11.989 1.31a.2.2 0 01-.2.2H.2a.2.2 0 01-.2-.2V.2C0 .09.09 0 .2 0h11.589c.11 0 .2.09.2.2v1.11zM9.42 4.332a.2.2 0 01-.2.2H.2a.2.2 0 01-.2-.2v-1.11c0-.111.09-.2.2-.2h9.02c.11 0 .2.089.2.2v1.11zM9.42 7.354a.2.2 0 01-.2.2H.2a.2.2 0 01-.2-.2V6.243c0-.11.09-.2.2-.2h9.02c.11 0 .2.09.2.2v1.11zM9.42 10.375a.2.2 0 01-.2.2H.2a.2.2 0 01-.2-.2v-1.11c0-.111.09-.2.2-.2h9.02c.11 0 .2.089.2.2v1.11z" fill="#FE445C"/></svg><svg fill="none" viewBox="0 0 12 11" id="orders3" xmlns="http://www.w3.org/2000/svg"><path fill-rule="evenodd" clip-rule="evenodd" d="M11.989 10.31a.2.2 0 01-.2.2H.2a.2.2 0 01-.2-.2V9.2c0-.11.09-.2.2-.2h11.589c.11 0 .2.09.2.2v1.11zM9.42 4.332a.2.2 0 01-.2.2H.2a.2.2 0 01-.2-.2v-1.11c0-.111.09-.2.2-.2h9.02c.11 0 .2.089.2.2v1.11zM9.42 7.354a.2.2 0 01-.2.2H.2a.2.2 0 01-.2-.2V6.243c0-.11.09-.2.2-.2h9.02c.11 0 .2.09.2.2v1.11zM9.42 1.31a.2.2 0 01-.2.2H.2a.2.2 0 01-.2-.2V.2C0 .09.09 0 .2 0h9.02c.11 0 .2.09.2.2v1.11z" fill="#0AA869"/></svg><svg class="bmsc-aXZVg bmktFCMi bmmx-icon bmfooter_toggleBtn__3F0ol" fill="currentColor" aria-hidden="true" viewBox="0 0 1024 1024" data-icon="PlusOutlined" id="plus"><path d="M80 512a48 48 0 0148-48h768a48 48 0 010 96H128a48 48 0 01-48-48z"/><path d="M512 944a48 48 0 01-48-48V128a48 48 0 0196 0v768a48 48 0 01-48 48z"/></svg><svg fill="none" viewBox="0 0 44 44" id="portfolio" xmlns="http://www.w3.org/2000/svg"><path fill="#5A81CD" d="M4 25h9v15H4z"/><path fill="#CFE4FF" d="M13 18h10v22H13z"/><path opacity=".7" fill="#1261C4" d="M23 12h8v28h-8z"/><path fill="#1261C4" d="M31 4h9v36h-9z"/></svg><svg viewBox="0 0 48 48" id="reddit" xmlns="http://www.w3.org/2000/svg"><path fill-rule="evenodd" clip-rule="evenodd" d="M48 24c0 13.255-10.745 24-24 24S0 37.255 0 24 10.745 0 24 0s24 10.745 24 24zm-11.509-3.509A3.51 3.51 0 0140 24c0 1.431-.87 2.667-2.021 3.228.056.337.084.674.084 1.039 0 5.39-6.26 9.74-14.007 9.74s-14.007-4.35-14.007-9.74c0-.365.028-.73.084-1.067-1.235-.561-2.077-1.768-2.077-3.2a3.51 3.51 0 013.509-3.509c.926 0 1.796.393 2.414.983 2.414-1.769 5.754-2.864 9.488-2.976l1.768-8.365c.056-.168.14-.308.28-.393.141-.084.31-.112.478-.084l5.81 1.235a2.428 2.428 0 012.218-1.403 2.504 2.504 0 012.498 2.498 2.504 2.504 0 01-2.498 2.498 2.501 2.501 0 01-2.498-2.386l-5.193-1.095-1.6 7.495c3.649.14 6.961 1.263 9.347 2.976a3.37 3.37 0 012.414-.983zM18.498 24A2.504 2.504 0 0016 26.498a2.504 2.504 0 002.498 2.498 2.504 2.504 0 002.498-2.498A2.504 2.504 0 0018.498 24zm5.53 10.92c.955 0 4.21-.113 5.923-1.825.252-.253.252-.646.056-.927a.66.66 0 00-.926 0c-1.095 1.067-3.369 1.46-5.025 1.46-1.656 0-3.958-.393-5.024-1.46a.66.66 0 00-.927 0 .66.66 0 000 .927c1.684 1.684 4.969 1.824 5.923 1.824zm2.976-8.422a2.504 2.504 0 002.498 2.498A2.504 2.504 0 0032 26.498 2.504 2.504 0 0029.502 24a2.504 2.504 0 00-2.498 2.498z"/></svg><svg fill="none" viewBox="0 0 26 26" id="rwtx" xmlns="http://www.w3.org/2000/svg"><path d="M25 13c0 6.627-5.373 12-12 12S1 19.627 1 13 6.373 1 13 1s12 5.373 12 12z" stroke="#58D068" stroke-width="2"/><path d="M14 17l-5 3.5c.393.367.622.392 1.202.392h9.479L14 17zM15.982 10.733L8 4v5.048l3.367 2.839a.731.731 0 010 1.118L8 15.845v2.846c0 .636.27 1.208.701 1.61l4.349-3.668 2.932-2.473a2.241 2.241 0 000-3.427z" fill="#58D068"/></svg><svg aria-hidden="true" viewBox="0 0 16 16" data-icon="SearchOutlined" id="search"><path fill-rule="evenodd" clip-rule="evenodd" d="M9.932 10.879a5.333 5.333 0 11.943-.943l3.591 3.591a.667.667 0 01-.943.943L9.932 10.88zm.73-4.214a4 4 0 11-8 0 4 4 0 018 0z"/></svg><svg aria-hidden="true" viewBox="0 0 16 16" data-icon="MoreSetOutlined" font-size="16" id="setting"><path fill-rule="evenodd" clip-rule="evenodd" d="M5.882 2.18c-.922 0-1.674.751-1.674 1.683s.752 1.682 1.674 1.682c.921 0 1.673-.75 1.673-1.682 0-.932-.752-1.683-1.673-1.683zm-3.085.933A3.176 3.176 0 015.882.68a3.176 3.176 0 013.084 2.433h5.99a.75.75 0 010 1.5h-5.99a3.176 3.176 0 01-3.084 2.432 3.176 3.176 0 01-3.085-2.432H1.044a.75.75 0 110-1.5h1.753zm7.32 7.342c-.92 0-1.673.75-1.673 1.682 0 .932.752 1.683 1.674 1.683.921 0 1.673-.751 1.673-1.683s-.752-1.682-1.673-1.682zm-3.084.932a3.176 3.176 0 013.085-2.432 3.176 3.176 0 013.084 2.432h1.753a.75.75 0 010 1.5h-1.753a3.176 3.176 0 01-3.084 2.433 3.176 3.176 0 01-3.085-2.433H1.044a.75.75 0 110-1.5h5.989z" fill="currentColor"/></svg><svg fill="none" viewBox="0 0 30 30" id="slider-arrow" xmlns="http://www.w3.org/2000/svg"><path d="M10.256 23.494a1.406 1.406 0 010-1.988L16.762 15l-6.506-6.506a1.406 1.406 0 011.988-1.988l7.5 7.5a1.406 1.406 0 010 1.988l-7.5 7.5a1.406 1.406 0 01-1.988 0z" fill="#fff"/></svg><svg fill="#4281ff" aria-hidden="true" viewBox="0 0 1024 1024" data-icon="IconiconNotice" id="speaker"><path d="M795.99 121.06A71.111 71.111 0 01896 186.027v652.06a71.111 71.111 0 01-100.01 64.967L501.247 772.04a156.501 156.501 0 01-253.554-75.093h-48.583c-39.253 0-71.111-31.858-71.111-71.111V398.279c0-39.253 31.858-71.111 71.111-71.111h133.12L795.99 121.06zm14.677 86.869L350.436 412.5H213.333v199.111h113.778v42.667a71.111 71.111 0 00128.91 41.472l20.253-28.16 334.393 148.594V207.929z" fill="currentColor" opacity=".8"/><path d="M625.778 412.501a42.667 42.667 0 0185.333 0v199.111a42.667 42.667 0 01-85.333 0v-199.11z" fill="currentColor" opacity=".5"/></svg><svg fill="none" viewBox="0 0 23 24" id="spot" xmlns="http://www.w3.org/2000/svg"><path d="M9.4 7.6a5.4 5.4 0 115.916 6.561M5.8 5.8l2.4-2.4L5.8 1M1 8.2V6.6a3.2 3.2 0 013.2-3.2h2.4m10 14.4l-2.4 2.4 2.4 2.4m4.8-7.2V17a3.2 3.2 0 01-3.2 3.2h-2.4m-4-4.2A5.4 5.4 0 111 16a5.4 5.4 0 0110.8 0z" stroke="#58D068" stroke-width="2" stroke-linecap="round" stroke-linejoin="round"/></svg><svg class="bvsc-aXZVg bvktFCMi bvmx-icon" fill="currentColor" aria-hidden="true" viewBox="0 0 1024 1024" data-icon="TelegramFilled" id="telegram"><path d="M417.28 795.733l11.947-180.48L756.907 320c14.506-13.227-2.987-19.627-22.187-8.107L330.24 567.467 155.307 512c-37.547-10.667-37.974-36.693 8.533-55.467l681.387-262.826c31.146-14.08 61.013 7.68 49.066 55.466L778.24 795.733c-8.107 38.827-31.573 48.214-64 30.294L537.6 695.467l-84.907 82.346c-9.813 9.814-17.92 17.92-35.413 17.92z"/></svg><svg fill="none" viewBox="0 0 48 48" id="tiktok" xmlns="http://www.w3.org/2000/svg"><path d="M34.353 17.327a18.724 18.724 0 0010.952 3.517v-7.887c-.773 0-1.544-.08-2.3-.241v6.208a18.727 18.727 0 01-10.952-3.517v16.095c0 8.051-6.504 14.578-14.526 14.578a14.42 14.42 0 01-8.087-2.466A14.457 14.457 0 0019.826 48c8.023 0 14.527-6.527 14.527-14.578V17.327zM37.19 9.37a11.012 11.012 0 01-2.837-6.436V1.92h-2.18a11.043 11.043 0 005.017 7.45zM14.514 37.436a6.657 6.657 0 01-1.355-4.038c0-3.682 2.974-6.668 6.644-6.668.684 0 1.364.105 2.016.313V18.98c-.761-.105-1.53-.15-2.299-.133v6.276a6.627 6.627 0 00-2.017-.313c-3.67 0-6.644 2.986-6.644 6.669a6.67 6.67 0 003.655 5.957z" fill="#145D40"/><path d="M32.053 15.407a18.727 18.727 0 0010.952 3.517v-6.208A10.984 10.984 0 0137.19 9.37a11.043 11.043 0 01-5.017-7.45h-5.725V33.42c-.013 3.673-2.983 6.646-6.645 6.646a6.627 6.627 0 01-5.29-2.631 6.67 6.67 0 01-3.655-5.957c0-3.683 2.975-6.669 6.645-6.669.703 0 1.381.11 2.017.313v-6.276C11.638 19.01 5.3 25.473 5.3 33.42c0 3.968 1.578 7.565 4.14 10.193a14.422 14.422 0 008.087 2.466c8.022 0 14.526-6.527 14.526-14.578V15.407z" fill="#145D40"/><path d="M43.005 12.716v-1.679A10.921 10.921 0 0137.19 9.37a10.975 10.975 0 005.815 3.346zM32.173 1.92c-.052-.3-.092-.602-.12-.906V0h-7.905v31.502c-.013 3.671-2.982 6.645-6.645 6.645a6.598 6.598 0 01-2.99-.711 6.627 6.627 0 005.29 2.631c3.662 0 6.632-2.973 6.645-6.646V1.92h5.725zM19.52 18.847V17.06a14.62 14.62 0 00-1.993-.136C9.504 16.924 3 23.451 3 31.502c0 5.047 2.556 9.495 6.44 12.112A14.555 14.555 0 015.3 33.421c0-7.948 6.339-14.41 14.22-14.574z" fill="#145D40"/></svg><svg fill="none" viewBox="0 0 48 48" id="tiktok-hover" xmlns="http://www.w3.org/2000/svg"><path d="M34.353 17.327a18.724 18.724 0 0010.952 3.517v-7.887c-.773 0-1.544-.08-2.3-.241v6.208a18.727 18.727 0 01-10.952-3.517v16.095c0 8.051-6.504 14.578-14.526 14.578a14.42 14.42 0 01-8.087-2.466A14.457 14.457 0 0019.826 48c8.023 0 14.527-6.527 14.527-14.578V17.327zM37.19 9.37a11.012 11.012 0 01-2.837-6.436V1.92h-2.18a11.043 11.043 0 005.017 7.45zM14.514 37.436a6.657 6.657 0 01-1.355-4.038c0-3.682 2.974-6.668 6.644-6.668.684 0 1.364.105 2.016.313V18.98c-.761-.105-1.53-.15-2.299-.133v6.276a6.627 6.627 0 00-2.017-.313c-3.67 0-6.644 2.986-6.644 6.669a6.67 6.67 0 003.655 5.957z" fill="#FF004F"/><path d="M32.053 15.407a18.727 18.727 0 0010.952 3.517v-6.208A10.984 10.984 0 0137.19 9.37a11.043 11.043 0 01-5.017-7.45h-5.725V33.42c-.013 3.673-2.983 6.646-6.645 6.646a6.627 6.627 0 01-5.29-2.631 6.67 6.67 0 01-3.655-5.957c0-3.683 2.975-6.669 6.645-6.669.703 0 1.381.11 2.017.313v-6.276C11.638 19.01 5.3 25.473 5.3 33.42c0 3.968 1.578 7.565 4.14 10.193a14.422 14.422 0 008.087 2.466c8.022 0 14.526-6.527 14.526-14.578V15.407z" fill="#000"/><path d="M43.005 12.716v-1.679A10.921 10.921 0 0137.19 9.37a10.975 10.975 0 005.815 3.346zM32.173 1.92c-.052-.3-.092-.602-.12-.906V0h-7.905v31.502c-.013 3.671-2.982 6.645-6.645 6.645a6.598 6.598 0 01-2.99-.711 6.627 6.627 0 005.29 2.631c3.662 0 6.632-2.973 6.645-6.646V1.92h5.725zM19.52 18.847V17.06a14.62 14.62 0 00-1.993-.136C9.504 16.924 3 23.451 3 31.502c0 5.047 2.556 9.495 6.44 12.112A14.555 14.555 0 015.3 33.421c0-7.948 6.339-14.41 14.22-14.574z" fill="#00F2EA"/></svg><svg class="bysc-bcXHqe byfzgrYP bymx-icon byiconfont byicon-down2" fill="currentColor" aria-hidden="true" viewBox="0 0 1462 1024" data-icon="BottomOutlined" id="toggle"><path d="M330.862 261.091a65.469 65.469 0 0192.475 0l281.106 281.025L985.549 261.09a65.469 65.469 0 0192.474 92.475l-373.58 373.826-373.58-373.744a65.469 65.469 0 010-92.557z"/></svg><svg aria-hidden="true" viewBox="0 0 1024 1024" data-icon="CaretDownOutlined" id="triangle"><path d="M929.178 203.162a61.44 61.44 0 0146.899 100.966l-416.973 494.9a61.44 61.44 0 01-94.003 0l-417.178-494.9a61.44 61.44 0 0146.9-100.966h834.355z"/></svg><svg viewBox="0 0 20 20" id="user" xmlns="http://www.w3.org/2000/svg"><path d="M3 16.875c1.05-1.75 3.349-2.948 6.937-2.948s5.887 1.198 6.937 2.948M12.787 7.85a2.85 2.85 0 11-5.7 0 2.85 2.85 0 015.7 0z" stroke="#" stroke-width="2" stroke-linecap="round"/></svg><svg class="cbsc-gEvEer cbhSTeNi cbmx-icon" fill="currentColor" aria-hidden="true" viewBox="0 0 48 48" data-icon="IconFee" id="video-icon1"><path d="M35.812 21.513v1.5h2.183c1.176 0 1.982.643 2.322 1.408.334.75.242 1.644-.518 2.352L25.804 39.812c-.985.917-2.623.917-3.608 0L8.2 26.773c-.76-.708-.852-1.601-.518-2.352.34-.765 1.146-1.408 2.322-1.408h2.824V9.724c0-1.13 1.016-2.224 2.497-2.224h17.989c1.48 0 2.497 1.094 2.497 2.224v11.789z" stroke="currentColor" fill="none" stroke-width="3"/><path d="M22.5 16.5a1.5 1.5 0 013 0v13a1.5 1.5 0 01-3 0v-13z"/><rect x="6" y="39" width="36" height="3" rx="1.5"/></svg><svg class="ccsc-gEvEer cchSTeNi ccmx-icon ccicon-liquidity" fill="currentColor" aria-hidden="true" viewBox="0 0 48 48" data-icon="IconLiquidity" id="video-icon2"><rect x="7.5" y="7.5" width="33" height="33" rx="2.5" stroke="currentColor" fill="none" stroke-width="3"/><path d="M16.698 29H24.5v11.5H10A2.5 2.5 0 017.5 38V21.5h7.698V29h1.5zM24.5 24v16.5H38a2.5 2.5 0 002.5-2.5V14.5h-8.943V24H24.5z" stroke="currentColor" fill="none" stroke-width="3"/></svg><svg class="cdsc-gEvEer cdhSTeNi cdmx-icon" fill="currentColor" aria-hidden="true" viewBox="0 0 48 48" data-icon="IconSecurity" id="video-icon3"><path d="M8.02 10.76l15.884-3.21a.5.5 0 01.197 0l15.873 3.164a.5.5 0 01.4.53l-1.576 19.658a.5.5 0 01-.236.386l-14.304 8.805a.5.5 0 01-.523 0L9.422 31.349l-.783 1.28.783-1.28a.5.5 0 01-.238-.387L7.62 11.291a.5.5 0 01.4-.53z" stroke="currentColor" fill="none" stroke-width="3"/><path d="M32.618 19.945a1.5 1.5 0 10-2.122-2.122l-7.232 7.233a.5.5 0 01-.707 0l-3.535-3.536a1.5 1.5 0 10-2.122 2.122l5.303 5.303a1 1 0 001.415 0l9-9z"/></svg><svg viewBox="0 0 48 48" id="vk" xmlns="http://www.w3.org/2000/svg"><g clip-path="url(#ceclip0_125_103)"><path fill-rule="evenodd" clip-rule="evenodd" d="M3.374 3.374C0 6.748 0 12.18 0 23.04v1.92c0 10.861 0 16.292 3.374 19.666C6.748 48 12.18 48 23.04 48h1.92c10.861 0 16.292 0 19.666-3.374C48 41.252 48 35.82 48 24.96v-1.92c0-10.861 0-16.292-3.374-19.666C41.252 0 35.82 0 24.96 0h-1.92C12.179 0 6.748 0 3.374 3.374zM8.1 14.6c.26 12.48 6.5 19.98 17.44 19.98h.62v-7.14c4.02.4 7.06 3.34 8.28 7.14h5.68c-1.56-5.68-5.66-8.82-8.22-10.02 2.56-1.48 6.16-5.08 7.02-9.96h-5.16c-1.12 3.96-4.44 7.56-7.6 7.9v-7.9H21v13.84c-3.2-.8-7.24-4.68-7.42-13.84H8.1z"/></g><defs><clipPath id="ceclip0_125_103"><path d="M0 0h48v48H0z"/></clipPath></defs></svg><svg fill="none" viewBox="0 0 17 13" id="volume" xmlns="http://www.w3.org/2000/svg"><path d="M15.087 2.802c1.338 2.178 1.527 5.078.254 7.643M12.27 4.227c1.129 1.353 1.288 3.155.214 4.75M8.6 1L4.874 4.022H1v4.352l3.874-.001L8.6 11.397V1z" stroke="#F2F4F6" stroke-width="1.5" stroke-linecap="round" stroke-linejoin="round"/></svg><svg class="cgsc-gEvEer cghSTeNi cgmx-icon cgiconfont cgicondo-windows1" fill="currentColor" aria-hidden="true" viewBox="0 0 1024 1024" data-icon="WindowsOutlined" id="windows"><path d="M125.542 242.33v221.798l243.098-9.062v-263.27l-243.046 50.482zm345.396-78.797v286.515l428.85-15.82V74.495l-428.85 89.088zM125.542 560.128v221.798l243.047 50.535V569.24l-243.047-9.113zm345.396 14.131v286.464l428.85 89.037V590.08l-428.85-15.82z"/></svg><svg class="chsc-aXZVg chktFCMi chmx-icon" fill="currentColor" aria-hidden="true" viewBox="0 0 28 25" data-icon="NewTwitterOutLined" id="x"><path d="M19.92 23.798L2.45 1.202h5.63l17.47 22.596h-5.63z" stroke="currentColor" stroke-width="2.405"/><path fill-rule="evenodd" clip-rule="evenodd" d="M21.979 0h4.215l-9.44 10.977-2.022-2.55L21.979 0zM10.665 13.158L.482 25h4.215l7.99-9.293-2.022-2.55z"/></svg><svg viewBox="0 0 48 48" id="youtube" xmlns="http://www.w3.org/2000/svg"><path d="M47.522 14.4s-.469-3.31-1.913-4.762c-1.828-1.913-3.872-1.922-4.809-2.035-6.712-.487-16.79-.487-16.79-.487h-.02s-10.077 0-16.79.487c-.938.113-2.981.122-4.81 2.035C.948 11.09.488 14.4.488 14.4S0 18.29 0 22.172v3.637c0 3.882.478 7.772.478 7.772s.469 3.31 1.903 4.763c1.828 1.912 4.228 1.847 5.297 2.053 3.844.366 16.322.478 16.322.478s10.087-.019 16.8-.497c.938-.112 2.981-.122 4.81-2.034 1.443-1.453 1.912-4.763 1.912-4.763S48 29.701 48 25.81v-3.637c0-3.881-.478-7.772-.478-7.772zM19.04 30.225v-13.49l12.965 6.768-12.965 6.722z"/></svg></svg>