<?xml version="1.0" encoding="utf-8"?><svg viewBox="0 0 1024 1024" xmlns="http://www.w3.org/2000/svg" xmlns:xlink="http://www.w3.org/1999/xlink"><style>:root>svg{display:none}:root>svg:target{display:block}</style><svg class="asc-aXZVg aktFCMi amx-icon aiconfont aiconios1 adownload_appStore__b4QwE" fill="currentColor" aria-hidden="true" viewBox="0 0 1024 1024" data-icon="AppleFilled" id="appstore"><path d="M781.152 517.547c1.35 140.502 129.231 187.259 130.72 187.907-1.162 3.216-20.492 66.642-67.481 132.167-40.604 56.626-82.659 112.933-149.023 114.093-65.292 1.165-86.199-36.882-160.801-36.882-74.562 0-97.891 35.723-159.597 38.048-63.984 2.329-112.789-61.102-153.729-117.497C137.509 719.984 73.614 509.346 159.49 367.17c42.612-70.649 118.847-115.307 201.509-116.514 62.918-1.073 122.337 40.467 160.71 40.467 38.513 0 110.649-49.921 186.511-42.612 31.716 1.26 120.898 12.201 178.13 92.025-4.563 2.839-106.41 59.285-105.201 177.01zM514.026 237.942c-7.358-53.414 20.211-108.929 51.695-143.808 35.161-39.259 94.487-68.457 143.481-70.32 6.287 54.393-16.716 109.02-50.667 148.37-34.043 39.216-89.836 69.81-144.507 65.758zm0 0z"/></svg><svg class="bsc-aXZVg bktFCMi bmx-icon" fill="currentColor" aria-hidden="true" viewBox="0 0 1024 1024" data-icon="ArrowRightOutlined" id="arrow-link"><path d="M128 469.333h604.587L579.84 316.16 640 256l256 256-256 256-60.16-60.16 152.747-153.173H128z"/></svg><svg class="csc-aXZVg cktFCMi cmx-icon" fill="currentColor" aria-hidden="true" viewBox="0 0 32 32" data-icon="IconBonusGift" id="bonus-box"><path fill-rule="evenodd" clip-rule="evenodd" d="M17.138 4.704c.898-3.076 4.989-3.686 6.746-1.007 1.639 2.498-.153 5.817-3.14 5.817h-5.01l1.404-4.81zM7.582 3.698c1.757-2.68 5.848-2.07 6.746 1.007l1.405 4.809h-5.01c-2.987 0-4.78-3.318-3.141-5.816zm-1.449 7.817A2.133 2.133 0 004 13.648v12.8c0 1.178.955 2.133 2.133 2.133h19.2a2.133 2.133 0 002.134-2.133v-12.8a2.133 2.133 0 00-2.134-2.133h-19.2zm8.534 13.933H16.8v-10.8h-2.133v10.8z"/></svg><svg class="dsc-aXZVg dktFCMi dmx-icon dheader_mobileMenuToggle__gRSy_ dheader_navItem__dEqAQ" fill="currentColor" aria-hidden="true" viewBox="0 0 20 20" data-icon="MenuOutlined" font-size="22" id="burger"><path fill-rule="evenodd" clip-rule="evenodd" d="M0 2h20v2H0V2zm0 7h20v2H0V9zm20 7H0v2h20v-2z"/></svg><svg class="esc-aXZVg ektFCMi emx-icon" fill="currentColor" aria-hidden="true" viewBox="0 0 10 10" data-icon="IconCountDown" id="clock"><path fill-rule="evenodd" clip-rule="evenodd" d="M5 10A5 5 0 105 0a5 5 0 000 10zM4 2.5h1v3h2.5v1H4v-4z"/></svg><svg class="fsc-gEvEer fhSTeNi fmx-icon ficonfont ficonGooglePlaylogo1 fdownload_googleplay__Wm4mF" fill="currentColor" aria-hidden="true" viewBox="0 0 1024 1024" data-icon="GooglePlayOutlined" id="google-play"><path d="M168.305 102.4L585.318 512 168.346 921.6a40.632 40.632 0 01-18.187-14.787 39.567 39.567 0 01-6.799-22.2V139.387a39.731 39.731 0 016.8-22.16 40.796 40.796 0 0118.145-14.827zm445.972 438.026l94.29 92.57-447.939 254.648 353.65-347.218zm130.99-128.614l114.975 65.413a39.65 39.65 0 010 69.55l-115.016 65.372L643.236 512l102.031-100.147zM260.628 136.397l447.98 254.566-94.29 92.57-353.69-347.136z"/></svg><svg fill="none" viewBox="0 0 146 28" id="logo" xmlns="http://www.w3.org/2000/svg"><path d="M42.386 19.468L33.07 3.31c-2.043-3.368-7.023-3.404-8.994.144l-9.781 16.804c-1.827 3.081.43 6.95 4.085 6.95h19.598c3.69 0 6.45-3.976 4.407-7.739z" fill="#3156AA"/><path d="M28.95 20.723l-.573-1.003c-.537-.932-1.72-2.938-1.72-2.938L18.776 3.095c-2.042-3.046-6.88-3.296-8.922.537L.681 19.505c-1.899 3.332.358 7.667 4.479 7.703H37.908c-5.052.036-6.664-2.58-8.957-6.485z" fill="#1972E2"/><path d="M28.951 20.723l-.573-1.003c-.538-.932-1.72-2.938-1.72-2.938L21.57 7.824l-7.31 12.469c-1.826 3.081.43 6.95 4.085 6.95H37.908c-5.087-.035-6.664-2.615-8.957-6.52z" fill="url(#gpaint0_linear_5316_35437)"/><path d="M124.362 14.803c.042 6.293 5.161 11.245 11.455 11.16 3.902 0 6.923-1.342 9.189-3.985l-1.427-1.217c-.923-.755-2.224-.797-3.147-.084-1.259.923-2.811 1.427-4.657 1.427-4.364 0-7.091-2.812-7.091-7.385 0-4.532 2.643-7.217 7.091-7.217 1.804 0 3.398.461 4.657 1.426.965.714 2.266.672 3.147-.084l1.427-1.216c-2.266-2.686-5.413-4.07-9.399-4.07-3.399 0-6.252 1.049-8.224 2.979-1.972 1.972-3.021 4.825-3.021 8.266zM65.493 23.404L71.45 13V25.67h4.532V3.81H73.17c-.88 0-1.72.461-2.14 1.258l-7.133 13.008-7.133-13.008c-.42-.797-1.258-1.258-2.14-1.258h-2.81v21.86h4.53V13l5.959 10.405h3.189zM79.716 3.851v21.86l18.169-.041v-1.385a1.97 1.97 0 00-1.973-1.972H84.248v-5.874h11.664v-3.357H84.248V7.208h11.664a1.97 1.97 0 001.973-1.972V3.85H79.716zM119.706 3.851h4.279l-8.643 10.993 8.685 10.91h-4.279c-.798 0-1.511-.378-2.015-.965l-5.202-6.504-5.161 6.462a2.525 2.525 0 01-2.014.965h-4.28l8.685-10.91-8.685-10.909h4.28c.797 0 1.51.336 2.014.965l5.161 6.462 5.161-6.504a2.522 2.522 0 012.014-.965z" fill="#fff"/><defs><linearGradient id="gpaint0_linear_5316_35437" x1="11.659" y1="14.628" x2="34.303" y2="22.995" gradientUnits="userSpaceOnUse"><stop stop-color="#264CA2" stop-opacity="0"/><stop offset="1" stop-color="#234588"/></linearGradient></defs></svg><svg class="hsc-aXZVg hktFCMi hmx-icon hfooter_toggleBtn__3F0ol" fill="currentColor" aria-hidden="true" viewBox="0 0 1024 1024" data-icon="PlusOutlined" id="minus"><path d="M80 512a48 48 0 0148-48h768a48 48 0 010 96H128a48 48 0 01-48-48z"/></svg><svg fill="none" viewBox="0 0 44 44" id="mobile-apps" xmlns="http://www.w3.org/2000/svg"><path fill="#CFE4FF" d="M1.5 3.659h41v36.684h-41z"/><path fill="#7295D8" d="M9.055.421H34.95v43.158H9.055z"/><path fill="#1261C4" d="M9.055.421H34.95v5.395H9.055zM9.055 37.105H34.95v6.474H9.055z"/><circle cx="22.002" cy="40.343" r="2.158" fill="#fff"/></svg><svg class="jsc-aXZVg jktFCMi jmx-icon jfooter_toggleBtn__3F0ol" fill="currentColor" aria-hidden="true" viewBox="0 0 1024 1024" data-icon="PlusOutlined" id="plus"><path d="M80 512a48 48 0 0148-48h768a48 48 0 010 96H128a48 48 0 01-48-48z"/><path d="M512 944a48 48 0 01-48-48V128a48 48 0 0196 0v768a48 48 0 01-48 48z"/></svg><svg fill="none" viewBox="0 0 44 44" id="portfolio" xmlns="http://www.w3.org/2000/svg"><path fill="#5A81CD" d="M4 25h9v15H4z"/><path fill="#CFE4FF" d="M13 18h10v22H13z"/><path opacity=".7" fill="#1261C4" d="M23 12h8v28h-8z"/><path fill="#1261C4" d="M31 4h9v36h-9z"/></svg><svg class="lsc-aXZVg lktFCMi lmx-icon" fill="currentColor" aria-hidden="true" viewBox="0 0 1024 1024" data-icon="TelegramFilled" id="telegram"><path d="M417.28 795.733l11.947-180.48L756.907 320c14.506-13.227-2.987-19.627-22.187-8.107L330.24 567.467 155.307 512c-37.547-10.667-37.974-36.693 8.533-55.467l681.387-262.826c31.146-14.08 61.013 7.68 49.066 55.466L778.24 795.733c-8.107 38.827-31.573 48.214-64 30.294L537.6 695.467l-84.907 82.346c-9.813 9.814-17.92 17.92-35.413 17.92z"/></svg><svg class="msc-gEvEer mhSTeNi mmx-icon" fill="currentColor" aria-hidden="true" viewBox="0 0 48 48" data-icon="IconFee" id="video-icon1"><path d="M35.812 21.513v1.5h2.183c1.176 0 1.982.643 2.322 1.408.334.75.242 1.644-.518 2.352L25.804 39.812c-.985.917-2.623.917-3.608 0L8.2 26.773c-.76-.708-.852-1.601-.518-2.352.34-.765 1.146-1.408 2.322-1.408h2.824V9.724c0-1.13 1.016-2.224 2.497-2.224h17.989c1.48 0 2.497 1.094 2.497 2.224v11.789z" stroke="currentColor" fill="none" stroke-width="3"/><path d="M22.5 16.5a1.5 1.5 0 013 0v13a1.5 1.5 0 01-3 0v-13z"/><rect x="6" y="39" width="36" height="3" rx="1.5"/></svg><svg class="nsc-gEvEer nhSTeNi nmx-icon nicon-liquidity" fill="currentColor" aria-hidden="true" viewBox="0 0 48 48" data-icon="IconLiquidity" id="video-icon2"><rect x="7.5" y="7.5" width="33" height="33" rx="2.5" stroke="currentColor" fill="none" stroke-width="3"/><path d="M16.698 29H24.5v11.5H10A2.5 2.5 0 017.5 38V21.5h7.698V29h1.5zM24.5 24v16.5H38a2.5 2.5 0 002.5-2.5V14.5h-8.943V24H24.5z" stroke="currentColor" fill="none" stroke-width="3"/></svg><svg class="osc-gEvEer ohSTeNi omx-icon" fill="currentColor" aria-hidden="true" viewBox="0 0 48 48" data-icon="IconSecurity" id="video-icon3"><path d="M8.02 10.76l15.884-3.21a.5.5 0 01.197 0l15.873 3.164a.5.5 0 01.4.53l-1.576 19.658a.5.5 0 01-.236.386l-14.304 8.805a.5.5 0 01-.523 0L9.422 31.349l-.783 1.28.783-1.28a.5.5 0 01-.238-.387L7.62 11.291a.5.5 0 01.4-.53z" stroke="currentColor" fill="none" stroke-width="3"/><path d="M32.618 19.945a1.5 1.5 0 10-2.122-2.122l-7.232 7.233a.5.5 0 01-.707 0l-3.535-3.536a1.5 1.5 0 10-2.122 2.122l5.303 5.303a1 1 0 001.415 0l9-9z"/></svg><svg class="psc-aXZVg pktFCMi pmx-icon picon-dir-rtl" fill="currentColor" aria-hidden="true" viewBox="0 0 16 12" data-icon="HomeTrumpet" color="var(--title)" font-size="16" id="volume"><path fill-rule="evenodd" clip-rule="evenodd" d="M8 0H5L3 3H0v6h3l2 3h3V0zm8 6a6 6 0 01-6 6v-1a5 5 0 000-10V0a6 6 0 016 6zm-3 0a3 3 0 01-3 3V8a2 2 0 100-4V3a3 3 0 013 3z"/></svg><svg class="qsc-gEvEer qhSTeNi qmx-icon qiconfont qicondo-windows1" fill="currentColor" aria-hidden="true" viewBox="0 0 1024 1024" data-icon="WindowsOutlined" id="windows"><path d="M125.542 242.33v221.798l243.098-9.062v-263.27l-243.046 50.482zm345.396-78.797v286.515l428.85-15.82V74.495l-428.85 89.088zM125.542 560.128v221.798l243.047 50.535V569.24l-243.047-9.113zm345.396 14.131v286.464l428.85 89.037V590.08l-428.85-15.82z"/></svg><svg class="rsc-aXZVg rktFCMi rmx-icon" fill="currentColor" aria-hidden="true" viewBox="0 0 28 25" data-icon="NewTwitterOutLined" id="x"><path d="M19.92 23.798L2.45 1.202h5.63l17.47 22.596h-5.63z" stroke="currentColor" stroke-width="2.405"/><path fill-rule="evenodd" clip-rule="evenodd" d="M21.979 0h4.215l-9.44 10.977-2.022-2.55L21.979 0zM10.665 13.158L.482 25h4.215l7.99-9.293-2.022-2.55z"/></svg></svg>