<?xml version="1.0" encoding="utf-8"?><svg viewBox="0 0 2000 1024" xmlns="http://www.w3.org/2000/svg" xmlns:xlink="http://www.w3.org/1999/xlink"><style>:root>svg{display:none}:root>svg:target{display:block}</style><svg aria-hidden="true" viewBox="0 0 1024 1024" id="apple"><path d="M781.152 517.547c1.35 140.502 129.231 187.259 130.72 187.907-1.162 3.216-20.492 66.642-67.481 132.167-40.604 56.626-82.659 112.933-149.023 114.093-65.292 1.165-86.199-36.882-160.801-36.882-74.562 0-97.891 35.723-159.597 38.048-63.984 2.329-112.789-61.102-153.729-117.497C137.509 719.984 73.614 509.346 159.49 367.17c42.612-70.649 118.847-115.307 201.509-116.514 62.918-1.073 122.337 40.467 160.71 40.467 38.513 0 110.649-49.921 186.511-42.612 31.716 1.26 120.898 12.201 178.13 92.025-4.563 2.839-106.41 59.285-105.201 177.01zM514.026 237.942c-7.358-53.414 20.211-108.929 51.695-143.808 35.161-39.259 94.487-68.457 143.481-70.32 6.287 54.393-16.716 109.02-50.667 148.37-34.043 39.216-89.836 69.81-144.507 65.758zm0 0z"/></svg><svg class="absc-aXZVg abktFCMi abmx-icon abiconfont abiconios1 abdownload_appStore__b4QwE" fill="currentColor" aria-hidden="true" viewBox="0 0 1024 1024" data-icon="AppleFilled" id="appstore"><path d="M781.152 517.547c1.35 140.502 129.231 187.259 130.72 187.907-1.162 3.216-20.492 66.642-67.481 132.167-40.604 56.626-82.659 112.933-149.023 114.093-65.292 1.165-86.199-36.882-160.801-36.882-74.562 0-97.891 35.723-159.597 38.048-63.984 2.329-112.789-61.102-153.729-117.497C137.509 719.984 73.614 509.346 159.49 367.17c42.612-70.649 118.847-115.307 201.509-116.514 62.918-1.073 122.337 40.467 160.71 40.467 38.513 0 110.649-49.921 186.511-42.612 31.716 1.26 120.898 12.201 178.13 92.025-4.563 2.839-106.41 59.285-105.201 177.01zM514.026 237.942c-7.358-53.414 20.211-108.929 51.695-143.808 35.161-39.259 94.487-68.457 143.481-70.32 6.287 54.393-16.716 109.02-50.667 148.37-34.043 39.216-89.836 69.81-144.507 65.758zm0 0z"/></svg><svg class="acsc-aXZVg acktFCMi acmx-icon" fill="currentColor" aria-hidden="true" viewBox="0 0 1024 1024" data-icon="ArrowRightOutlined" id="arrow-link"><path d="M128 469.333h604.587L579.84 316.16 640 256l256 256-256 256-60.16-60.16 152.747-153.173H128z"/></svg><svg class="adsc-aXZVg adktFCMi admx-icon" fill="currentColor" aria-hidden="true" viewBox="0 0 32 32" data-icon="IconBonusGift" id="bonus-box"><path fill-rule="evenodd" clip-rule="evenodd" d="M17.138 4.704c.898-3.076 4.989-3.686 6.746-1.007 1.639 2.498-.153 5.817-3.14 5.817h-5.01l1.404-4.81zM7.582 3.698c1.757-2.68 5.848-2.07 6.746 1.007l1.405 4.809h-5.01c-2.987 0-4.78-3.318-3.141-5.816zm-1.449 7.817A2.133 2.133 0 004 13.648v12.8c0 1.178.955 2.133 2.133 2.133h19.2a2.133 2.133 0 002.134-2.133v-12.8a2.133 2.133 0 00-2.134-2.133h-19.2zm8.534 13.933H16.8v-10.8h-2.133v10.8z"/></svg><svg class="aesc-aXZVg aektFCMi aemx-icon aeheader_mobileMenuToggle__gRSy_ aeheader_navItem__dEqAQ" fill="currentColor" aria-hidden="true" viewBox="0 0 20 20" data-icon="MenuOutlined" font-size="22" id="burger"><path fill-rule="evenodd" clip-rule="evenodd" d="M0 2h20v2H0V2zm0 7h20v2H0V9zm20 7H0v2h20v-2z"/></svg><svg aria-hidden="true" viewBox="0 0 2048 1024" data-icon="CaretUpOutlined" id="caret"><path d="M1144.832 120.832a170.667 170.667 0 00-241.664 0l-611.67 611.67A170.667 170.667 0 00411.99 1024h1224.022a170.667 170.667 0 00120.49-291.499l-611.669-611.669z"/></svg><svg viewBox="64 64 896 896" data-icon="close-circle" aria-hidden="true" id="clear"><path d="M512 64C264.6 64 64 264.6 64 512s200.6 448 448 448 448-200.6 448-448S759.4 64 512 64zm165.4 618.2l-66-.3L512 563.4l-99.3 118.4-66.1.3c-4.4 0-8-3.5-8-8 0-1.9.7-3.7 1.9-5.2l130.1-155L340.5 359a8.32 8.32 0 01-1.9-5.2c0-4.4 3.6-8 8-8l66.1.3L512 464.6l99.3-118.4 66-.3c4.4 0 8 3.5 8 8 0 1.9-.7 3.7-1.9 5.2L553.5 514l130 155c1.2 1.5 1.9 3.3 1.9 5.2 0 4.4-3.6 8-8 8z"/></svg><svg class="ahsc-aXZVg ahktFCMi ahmx-icon" fill="currentColor" aria-hidden="true" viewBox="0 0 10 10" data-icon="IconCountDown" id="clock"><path fill-rule="evenodd" clip-rule="evenodd" d="M5 10A5 5 0 105 0a5 5 0 000 10zM4 2.5h1v3h2.5v1H4v-4z"/></svg><svg aria-hidden="true" viewBox="0 0 1024 1024" id="close"><path d="M512 592.44l414.89 414.892 80.442-80.441L592.44 512l414.89-414.89-80.44-80.442L512 431.56 97.11 16.67l-80.442 80.44L431.56 512 16.67 926.89l80.44 80.442L512 592.44z" fill="currentColor"/></svg><svg aria-hidden="true" viewBox="0 0 1024 1024" data-icon="StarFilled" id="favourites"><path d="M908.096 353.088l-253.888-36.864-113.536-230.08a32.128 32.128 0 00-57.408 0L369.792 316.16l-253.888 36.864a32 32 0 00-17.728 54.656l183.68 179.072-43.392 252.864a32 32 0 0046.4 33.728L512 753.984l227.072 119.424a32 32 0 0046.4-33.728L742.08 586.816l183.68-179.072a31.936 31.936 0 00-17.664-54.656z" fill="currentColor"/></svg><svg fill="none" viewBox="0 0 14 14" id="fire" xmlns="http://www.w3.org/2000/svg"><mask id="aka" style="mask-type:alpha" maskUnits="userSpaceOnUse" x="2" y="0" width="10" height="13"><path d="M11.422 5.783a4.586 4.586 0 00-1.082-1.52l-.38-.353a.105.105 0 00-.169.043l-.17.493c-.105.309-.3.624-.575.935a.082.082 0 01-.054.026.071.071 0 01-.056-.02.077.077 0 01-.026-.063c.049-.795-.186-1.691-.7-2.667-.426-.81-1.017-1.443-1.756-1.884L5.915.452c-.07-.042-.16.013-.157.096l.03.634c.019.433-.03.816-.148 1.134-.144.39-.35.752-.614 1.076a3.884 3.884 0 01-.62.609 4.644 4.644 0 00-1.309 1.604 4.637 4.637 0 00-.11 3.833 4.612 4.612 0 002.445 2.45c.567.24 1.167.362 1.787.362a4.57 4.57 0 003.247-1.347 4.589 4.589 0 001.347-3.26c0-.644-.131-1.27-.39-1.86z" fill="#F48E2F"/></mask><g mask="url(#aka)"><path d="M11.422 5.783a4.586 4.586 0 00-1.082-1.52l-.38-.353a.105.105 0 00-.169.043l-.17.493c-.105.309-.3.624-.575.935a.082.082 0 01-.054.026.071.071 0 01-.056-.02.077.077 0 01-.026-.063c.049-.795-.186-1.691-.7-2.667-.426-.81-1.017-1.443-1.756-1.884L5.915.452c-.07-.042-.16.013-.157.096l.03.634c.019.433-.03.816-.148 1.134-.144.39-.35.752-.614 1.076a3.884 3.884 0 01-.62.609 4.644 4.644 0 00-1.309 1.604 4.637 4.637 0 00-.11 3.833 4.612 4.612 0 002.445 2.45c.567.24 1.167.362 1.787.362a4.57 4.57 0 003.247-1.347 4.589 4.589 0 001.347-3.26c0-.644-.131-1.27-.39-1.86z" fill="#F48E2F"/><g filter="url(#akfilter0_f_8410_16243)"><path d="M4.376 11.249c.03.926.54 1.712 1.252 2.16l2.419.153c.991-.462 1.645-1.541 1.572-2.715-.043-.68-.42-1.327-.83-1.775-.247 1.714-1.135 1.914-1.135 1.914s.51-1.126.582-2.376a4.343 4.343 0 00-.131-1.545c-.466-1.774-1.268-2.253-1.268-2.253s.262 1.034-.698 2.7c-.671 1.16-1.805 2.008-1.763 3.737z" fill="url(#akpaint0_linear_8410_16243)"/></g><path d="M4.376 11.249c.03.926.54 1.712 1.252 2.16l2.419.153c.991-.462 1.645-1.541 1.572-2.715-.043-.68-.42-1.327-.83-1.775-.247 1.714-1.135 1.914-1.135 1.914s.51-1.126.582-2.376a4.343 4.343 0 00-.131-1.545c-.466-1.774-1.268-2.253-1.268-2.253s.262 1.034-.698 2.7c-.671 1.16-1.805 2.008-1.763 3.737z" fill="#fff"/><g filter="url(#akfilter1_f_8410_16243)"><path d="M4.376 11.249c.03.926.54 1.712 1.252 2.16l2.419.153c.991-.462 1.645-1.541 1.572-2.715-.043-.68-.42-1.327-.83-1.775-.247 1.714-1.135 1.914-1.135 1.914s.51-1.126.582-2.376a4.343 4.343 0 00-.131-1.545c-.466-1.774-1.268-2.253-1.268-2.253s.262 1.034-.698 2.7c-.671 1.16-1.805 2.008-1.763 3.737z" fill="url(#akpaint1_linear_8410_16243)"/></g><g filter="url(#akfilter2_f_8410_16243)"><circle cx="7" cy="5.688" r=".875" fill="#FFFBE0"/></g><path d="M7 7.713c-.438 2.188-.875 2.625-2.188 3.938l1.313 1.312c1.02-.145 3.063-.175 3.063-.875 0-1.75-1.313-3.937-2.188-4.375z" fill="#FFFCEF"/></g><defs><filter id="akfilter0_f_8410_16243" x="2.375" y="2.813" width="9.25" height="12.75" filterUnits="userSpaceOnUse" color-interpolation-filters="sRGB"><feFlood flood-opacity="0" result="BackgroundImageFix"/><feBlend in="SourceGraphic" in2="BackgroundImageFix" result="shape"/><feGaussianBlur stdDeviation="1" result="effect1_foregroundBlur_8410_16243"/></filter><filter id="akfilter1_f_8410_16243" x="2.375" y="2.813" width="9.25" height="12.75" filterUnits="userSpaceOnUse" color-interpolation-filters="sRGB"><feFlood flood-opacity="0" result="BackgroundImageFix"/><feBlend in="SourceGraphic" in2="BackgroundImageFix" result="shape"/><feGaussianBlur stdDeviation="1" result="effect1_foregroundBlur_8410_16243"/></filter><filter id="akfilter2_f_8410_16243" x="3.125" y="1.813" width="7.75" height="7.75" filterUnits="userSpaceOnUse" color-interpolation-filters="sRGB"><feFlood flood-opacity="0" result="BackgroundImageFix"/><feBlend in="SourceGraphic" in2="BackgroundImageFix" result="shape"/><feGaussianBlur stdDeviation="1.5" result="effect1_foregroundBlur_8410_16243"/></filter><linearGradient id="akpaint0_linear_8410_16243" x1="7" y1="4.813" x2="7" y2="13.563" gradientUnits="userSpaceOnUse"><stop stop-color="#FFF88B"/><stop offset="1" stop-color="#FFF103" stop-opacity="0"/></linearGradient><linearGradient id="akpaint1_linear_8410_16243" x1="7" y1="4.813" x2="7" y2="13.563" gradientUnits="userSpaceOnUse"><stop stop-color="#FFFBBF"/><stop offset="1" stop-color="#FF9A03" stop-opacity="0"/></linearGradient></defs></svg><svg aria-hidden="true" viewBox="0 0 1024 1024" data-icon="Icongoogle1" id="google"><path d="M977.455 565.434a539.927 539.927 0 00-8.192-94.115H521.495v178.27h256.466a214.947 214.947 0 01-94.86 140.753v115.805h153.042c89.646-80.617 141.312-199.773 141.312-340.713z" fill="#4285F4"/><path d="M521.588 1018.042c128.093 0 235.986-40.96 314.648-111.802L683.287 790.435c-42.635 28.113-97.373 44.218-161.606 44.218a281.88 281.88 0 01-163.56-52.876 284.858 284.858 0 01-103.052-138.333H97.28v119.343c80.71 156.393 244.83 255.255 424.308 255.255z" fill="#34A853"/><path d="M254.883 643.444a271.08 271.08 0 010-177.245V346.95H97.093a452.701 452.701 0 000 415.838l157.79-119.343z" fill="#FBBC04"/><path d="M521.588 274.99a261.4 261.4 0 01182.086 69.54l135.54-132.19A462.662 462.662 0 00521.589 91.695c-179.479 0-343.784 98.676-424.308 255.255L255.07 466.2a284.858 284.858 0 01102.958-138.24 281.88 281.88 0 01163.56-52.97z" fill="#EA4335"/></svg><svg fill="currentColor" aria-hidden="true" viewBox="0 0 1024 1024" data-icon="GooglePlayOutlined" id="google-play"><path d="M168.305 102.4L585.318 512 168.346 921.6a40.632 40.632 0 01-18.187-14.787 39.567 39.567 0 01-6.799-22.2V139.387a39.731 39.731 0 016.8-22.16 40.796 40.796 0 0118.145-14.827zm445.972 438.026l94.29 92.57-447.939 254.648 353.65-347.218zm130.99-128.614l114.975 65.413a39.65 39.65 0 010 69.55l-115.016 65.372L643.236 512l102.031-100.147zM260.628 136.397l447.98 254.566-94.29 92.57-353.69-347.136z"/></svg><svg aria-hidden="true" viewBox="0 0 24 24" data-icon="GlobalOutlined" font-size="20" id="lang"><path d="M12 22C6.477 22 2 17.523 2 12S6.477 2 12 2s10 4.477 10 10-4.477 10-10 10zm-2.29-2.333A17.9 17.9 0 018.027 13H4.062a8.008 8.008 0 005.648 6.667zM10.03 13c.151 2.439.848 4.73 1.97 6.752A15.906 15.906 0 0013.97 13h-3.94zm9.908 0h-3.965a17.9 17.9 0 01-1.683 6.667A8.008 8.008 0 0019.938 13zM4.062 11h3.965A17.9 17.9 0 019.71 4.333 8.008 8.008 0 004.062 11zm5.969 0h3.938A15.904 15.904 0 0012 4.248 15.906 15.906 0 0010.03 11h.001zm4.259-6.667A17.9 17.9 0 0115.973 11h3.965a8.008 8.008 0 00-5.648-6.667z"/></svg><svg aria-hidden="true" viewBox="0 0 16 16" id="lock"><path d="M11.892 6.377h-1.745v-.652c0-1.094-.303-2.933-2.328-2.933-2.103 0-2.328 2.049-2.328 2.933v.652H3.746v-.652C3.746 2.855 5.344 1 7.819 1c2.475 0 4.073 1.854 4.073 4.725v.652zm-2.91 4.45c0-.659-.527-1.194-1.163-1.194s-1.164.535-1.164 1.195c0 .45.233.822.582 1.024v1.357c0 .326.264.606.582.606a.596.596 0 00.582-.605v-1.35c.349-.202.582-.582.582-1.032zm4.656-2.068v5.449c0 .985-.784 1.792-1.746 1.792H3.746C2.784 16 2 15.193 2 14.208v-5.45c0-.985.784-1.792 1.746-1.792h8.146c.962 0 1.746.807 1.746 1.793z" fill="currentColor"/></svg><svg fill="none" viewBox="0 0 146 28" id="logo" xmlns="http://www.w3.org/2000/svg"><path d="M42.386 19.468L33.07 3.31c-2.043-3.368-7.023-3.404-8.994.144l-9.781 16.804c-1.827 3.081.43 6.95 4.085 6.95h19.598c3.69 0 6.45-3.976 4.407-7.739z" fill="#3156AA"/><path d="M28.95 20.723l-.573-1.003c-.537-.932-1.72-2.938-1.72-2.938L18.776 3.095c-2.042-3.046-6.88-3.296-8.922.537L.681 19.505c-1.899 3.332.358 7.667 4.479 7.703H37.908c-5.052.036-6.664-2.58-8.957-6.485z" fill="#1972E2"/><path d="M28.951 20.723l-.573-1.003c-.538-.932-1.72-2.938-1.72-2.938L21.57 7.824l-7.31 12.469c-1.826 3.081.43 6.95 4.085 6.95H37.908c-5.087-.035-6.664-2.615-8.957-6.52z" fill="url(#appaint0_linear_5316_35437)"/><path d="M124.362 14.803c.042 6.293 5.161 11.245 11.455 11.16 3.902 0 6.923-1.342 9.189-3.985l-1.427-1.217c-.923-.755-2.224-.797-3.147-.084-1.259.923-2.811 1.427-4.657 1.427-4.364 0-7.091-2.812-7.091-7.385 0-4.532 2.643-7.217 7.091-7.217 1.804 0 3.398.461 4.657 1.426.965.714 2.266.672 3.147-.084l1.427-1.216c-2.266-2.686-5.413-4.07-9.399-4.07-3.399 0-6.252 1.049-8.224 2.979-1.972 1.972-3.021 4.825-3.021 8.266zM65.493 23.404L71.45 13V25.67h4.532V3.81H73.17c-.88 0-1.72.461-2.14 1.258l-7.133 13.008-7.133-13.008c-.42-.797-1.258-1.258-2.14-1.258h-2.81v21.86h4.53V13l5.959 10.405h3.189zM79.716 3.851v21.86l18.169-.041v-1.385a1.97 1.97 0 00-1.973-1.972H84.248v-5.874h11.664v-3.357H84.248V7.208h11.664a1.97 1.97 0 001.973-1.972V3.85H79.716zM119.706 3.851h4.279l-8.643 10.993 8.685 10.91h-4.279c-.798 0-1.511-.378-2.015-.965l-5.202-6.504-5.161 6.462a2.525 2.525 0 01-2.014.965h-4.28l8.685-10.91-8.685-10.909h4.28c.797 0 1.51.336 2.014.965l5.161 6.462 5.161-6.504a2.522 2.522 0 012.014-.965z" fill="#fff"/><defs><linearGradient id="appaint0_linear_5316_35437" x1="11.659" y1="14.628" x2="34.303" y2="22.995" gradientUnits="userSpaceOnUse"><stop stop-color="#264CA2" stop-opacity="0"/><stop offset="1" stop-color="#234588"/></linearGradient></defs></svg><svg aria-hidden="true" viewBox="0 0 1293 1024" id="mail"><path d="M1242.92 188.632L636.605 538.678 45.865 197.686v-50.877c0-60.146 48.72-109.029 109.028-109.029h979.268c60.146 0 109.083 48.721 109.083 109.03v41.822h-.324zm0 125.682v594.082a109.03 109.03 0 01-109.029 109.029H154.678a109.03 109.03 0 01-109.03-109.03V323.423l563.794 325.47c19.402 11.21 42.63 9.055 59.5-3.34.808-.324 1.455-.81 2.317-1.133l571.608-330.105z"/></svg><svg aria-hidden="true" viewBox="0 0 28 29" id="metamask"><path d="M15.647 10.824l-3.304.005-1.29-3.113 4.594 3.108z" fill="#F6851B"/><path d="M11.054 7.716l5.926-.012-1.333 3.12-4.593-3.108z" fill="#F6851B"/><path d="M12.343 10.83L4.027 4.575l7.027 3.141 1.289 3.114z" fill="#E4761B"/><path d="M23.975 4.522l-8.328 6.302 1.333-3.12 6.995-3.182z" fill="#E2761B"/><path d="M7.4 13.493l-3.768-.982-.202-.879 3.97 1.86zm-3.639.074l-.129-1.056 3.768.982-3.639.074zm.527 1.525l3.112-1.6 1.619.288-4.73 1.312z" fill="#763D16"/><path d="M3.761 13.567l3.64-.074-3.113 1.599-.527-1.525zm16.878-.088l3.976-1.876-.204.883-3.772.993zm3.64.066l-3.64-.066 3.772-.993-.131 1.06zm-.53 1.532L19 13.77l1.64-.291 3.11 1.598z" fill="#763D16"/><path d="M24.28 13.545l-.53 1.532-3.11-1.598 3.64.066zM7.56 8.714l-.16 4.779-3.97-1.86 4.13-2.92zM9.02 13.78L7.4 13.493l.16-4.78L9.02 13.78z" fill="#763D16"/><path d="M9.113 23.492l1.235-.653.216-.051-1.451.704zm8.366-.7l.19.051 1.206.656-1.396-.707z" fill="#E2761B"/><path d="M24.614 11.603l-3.975 1.876-.192-4.79 4.168 2.914zM20.447 8.69l.192 4.789-1.64.291 1.448-5.08z" fill="#763D16"/><path d="M9.113 23.492l-5.285 1.952-1.295-5.286 6.58 3.334z" fill="#E4761B"/><path d="M2.94 11.95l.49-.318.202.88-.693-.562z" fill="#763D16"/><path d="M25.532 20.16l-1.296 5.306-5.361-1.967 6.657-3.338z" fill="#E4761B"/><path d="M7.56 8.714l4.783 2.115-3.324 2.951L7.56 8.714zm-3.799 4.853l-.686-.67.557-.386.13 1.056zM19 13.77l-3.352-2.946 4.8-2.135-1.448 5.081zm6.107-1.85l-.695.566.203-.883.492.318zM3.43 11.633l-.611-3.67 4.742.752-4.131 2.918zm.858 3.46l-.983-1.232.456-.293.527 1.525z" fill="#763D16"/><path d="M24.28 13.546l.13-1.06.558.386-.688.674zm-3.833-4.857l4.767-.772-.6 3.686-4.167-2.914z" fill="#763D16"/><path d="M7.54 15.43l-5.007 4.728 1.755-5.066 3.252.338z" fill="#F6851B"/><path d="M23.75 15.077l.53-1.532.456.294-.986 1.238z" fill="#763D16"/><path d="M6.752 19.545l-4.219.613L7.54 15.43l-.788 4.115z" fill="#F6851B"/><path d="M2.533 20.158l4.219-.613 2.36 3.947-6.579-3.334z" fill="#E4761B"/><path d="M20.434 15.421l3.316-.344 1.782 5.084-5.098-4.74zm0 0l5.098 4.74-4.309-.616-.789-4.124z" fill="#F6851B"/><path d="M18.875 23.5l2.348-3.955 4.309.616-6.657 3.338z" fill="#E4761B"/><path d="M4.288 15.092l4.73-1.312-1.478 1.65-3.252-.338zm19.462-.015l-3.316.344L19 13.771l4.75 1.306z" fill="#F6851B"/><path d="M9.019 13.78l3.324-2.95.25 4.626-3.574-1.676zm3.574 1.676L7.54 15.43l1.479-1.65 3.574 1.676zm6.406-1.686l1.435 1.651-5.086.033 3.651-1.684zm-3.651 1.684l.299-4.63 3.352 2.946-3.651 1.684z" fill="#E4761B"/><path d="M4.027 4.575l8.316 6.255L7.56 8.714l-3.534-4.14zM7.56 8.714l-4.742-.751 1.208-3.388L7.56 8.714zm16.414-4.192l1.239 3.395-4.767.772 3.528-4.167zM20.447 8.69l-4.8 2.136 8.328-6.303-3.528 4.167z" fill="#763D16"/><path d="M12.343 10.83l3.304-.005-.299 4.63-3.005-4.626z" fill="#F6851B"/><path d="M15.348 15.454l-2.755.002-.25-4.626 3.005 4.624z" fill="#F6851B"/><path d="M9.113 23.492l-2.361-3.947 2.837-.136-.476 4.083zm9.762.007l-.518-4.09 2.866.136-2.348 3.954zm-9.327-6.122L7.54 15.43l5.053.026-3.045 1.92z" fill="#CD6116"/><path d="M7.54 15.43l2.049 3.98-2.837.135.788-4.115z" fill="#F6851B"/><path d="M7.54 15.43l2.008 1.947.04 2.032L7.54 15.43z" fill="#E4751F"/><path d="M15.348 15.454l5.086-.033-2.03 1.953-3.056-1.92z" fill="#CD6116"/><path d="M21.223 19.545l-2.866-.136 2.077-3.988.789 4.124z" fill="#F6851B"/><path d="M20.434 15.421l-2.077 3.988.048-2.035 2.03-1.953z" fill="#E4751F"/><path d="M10.108 24.068l-.995-.576 2.858.205-1.863.371zm5.778-.368l2.989-.2-1.027.575-1.962-.375z" fill="#C0AD9E"/><path d="M12.593 15.456l-1.226 1.073-1.82.848 3.046-1.92z" fill="#CD6116"/><path d="M11.94 22.566l.03 1.13-2.857-.204 2.828-.926z" fill="#D7C1B3"/><path d="M18.405 17.373l-1.826-.847-1.231-1.072 3.057 1.92z" fill="#CD6116"/><path d="M12.196 20.448l-3.083 3.044.476-4.083 2.607 1.04z" fill="#E4761B"/><path d="M9.113 23.492l3.083-3.044-.255 2.117-2.828.927zm6.778-.924l2.984.931-2.989.2.005-1.131z" fill="#D7C1B3"/><path d="M15.633 20.449l2.724-1.04.518 4.09-3.242-3.05z" fill="#E4761B"/><path d="M18.875 23.5l-2.984-.932-.258-2.12 3.242 3.051z" fill="#D7C1B3"/><path d="M9.589 19.41l-.041-2.033 2.557.618-2.516 1.414z" fill="#F6851B"/><path d="M12.105 17.995l-2.557-.618 1.819-.848.738 1.466z" fill="#233447"/><path d="M18.357 19.41l-2.53-1.415 2.578-.622-.048 2.036z" fill="#F6851B"/><path d="M15.827 17.994l.752-1.468 1.826.848-2.578.62z" fill="#233447"/><path d="M11.367 16.529l1.226-1.073-.488 2.54-.738-1.467zm5.212-.003l-.752 1.469-.479-2.54 1.23 1.071z" fill="#CD6116"/><path d="M12.692 16.915l-.1-1.458 2.756-.003-2.656 1.461z" fill="#F6851B"/><path d="M12.105 17.995l.488-2.539.099 1.46-.587 1.08z" fill="#E4751F"/><path d="M15.348 15.454l-.119 1.46-2.537.001 2.656-1.46z" fill="#F6851B"/><path d="M15.827 17.995l-.598-1.08.119-1.46.48 2.54z" fill="#E2761B"/><path d="M11.97 23.697l.168.858-2.03-.486 1.863-.372zm5.878.378l-2.135.483.173-.858 1.962.375z" fill="#C0AD9E"/><path d="M12.196 20.448L9.59 19.41l2.516-1.414.091 2.453zm3.631-2.454l2.53 1.415-2.724 1.04.194-2.455z" fill="#F6851B"/><path d="M12.692 16.915l-.052 3.225-.535-2.145.587-1.08z" fill="#E4751F"/><path d="M12.105 17.995l.535 2.145-.444.308-.091-2.453z" fill="#F6851B"/><path d="M15.23 16.914l.597 1.08-.638 2.146.04-3.226z" fill="#E4751F"/><path d="M15.633 20.449l-.444-.31.638-2.145-.194 2.455z" fill="#F6851B"/><path d="M12.692 16.915h2.537l-.04 3.225-2.497-3.225zm2.497 3.225h-2.55l.053-3.225 2.497 3.225z" fill="#F6851B"/><path d="M12.138 24.555l-.167-.858-.03-1.131.197 1.989zm3.753-1.987l-.005 1.132-.173.858.178-1.99z" fill="#C0AD9E"/><path d="M11.94 22.565l.225-.329-.027 2.319-.197-1.99zm.198 1.99l.027-2.319 3.49.002-3.517 2.317zM15.656 22.238l.057 2.32-3.575-.003 3.518-2.317zm.057 2.32l-.057-2.32.235.33-.178 1.99z" fill="#C0AD9E"/><path d="M12.165 22.236l-.224.33.255-2.118-.031 1.788zm3.468-1.787l.258 2.119-.235-.33-.023-1.79zm-3.03-.117l.037-.193h2.549l-2.585.193z" fill="#161616"/><path d="M12.196 20.448l.444-.309-.037.193-.407.116zM15.189 20.14l.013.192h-2.598l2.585-.192zm.013.192l-.013-.192.444.309-.431-.117zm-3.006.116l.123.204-.154 1.584.031-1.788z" fill="#161616"/><path d="M12.604 20.332l-.285.32-.123-.204.408-.116zm3.052 1.906l-.17-1.585.147-.204.023 1.79z" fill="#161616"/><path d="M15.633 20.449l-.147.204-.284-.32.43.116zm.023 1.79l-3.491-.003.154-1.584 3.337 1.586zm-3.337-1.587h3.167l.17 1.586-3.337-1.586zm0 0l.284-.32h2.599l-2.883.32z" fill="#161616"/><path d="M15.201 20.332l.285.32h-3.167l2.882-.32z" fill="#161616"/></svg><svg class="assc-aXZVg asktFCMi asmx-icon asfooter_toggleBtn__3F0ol" fill="currentColor" aria-hidden="true" viewBox="0 0 1024 1024" data-icon="PlusOutlined" id="minus"><path d="M80 512a48 48 0 0148-48h768a48 48 0 010 96H128a48 48 0 01-48-48z"/></svg><svg fill="none" viewBox="0 0 44 44" id="mobile-apps" xmlns="http://www.w3.org/2000/svg"><path fill="#CFE4FF" d="M1.5 3.659h41v36.684h-41z"/><path fill="#7295D8" d="M9.055.421H34.95v43.158H9.055z"/><path fill="#1261C4" d="M9.055.421H34.95v5.395H9.055zM9.055 37.105H34.95v6.474H9.055z"/><circle cx="22.002" cy="40.343" r="2.158" fill="#fff"/></svg><svg fill="none" viewBox="0 0 12 11" id="orders1" xmlns="http://www.w3.org/2000/svg"><path fill-rule="evenodd" clip-rule="evenodd" d="M11.989 1.31a.2.2 0 01-.2.2H.2a.2.2 0 01-.2-.2V.2C0 .09.09 0 .2 0h11.589c.11 0 .2.09.2.2v1.11z" fill="#FE445C"/><path fill-rule="evenodd" clip-rule="evenodd" d="M11.989 10.375a.2.2 0 01-.2.2H.2a.2.2 0 01-.2-.2v-1.11c0-.111.09-.2.2-.2h11.589c.11 0 .2.089.2.2v1.11z" fill="#0AA869"/><path fill-rule="evenodd" clip-rule="evenodd" d="M9.42 4.332a.2.2 0 01-.2.2H.2a.2.2 0 01-.2-.2v-1.11c0-.111.09-.2.2-.2h9.02c.11 0 .2.089.2.2v1.11z" fill="#FE445C"/><path fill-rule="evenodd" clip-rule="evenodd" d="M9.42 7.354a.2.2 0 01-.2.2H.2a.2.2 0 01-.2-.2V6.243c0-.11.09-.2.2-.2h9.02c.11 0 .2.09.2.2v1.11z" fill="#0AA869"/></svg><svg fill="none" viewBox="0 0 12 11" id="orders2" xmlns="http://www.w3.org/2000/svg"><path fill-rule="evenodd" clip-rule="evenodd" d="M11.989 1.31a.2.2 0 01-.2.2H.2a.2.2 0 01-.2-.2V.2C0 .09.09 0 .2 0h11.589c.11 0 .2.09.2.2v1.11zM9.42 4.332a.2.2 0 01-.2.2H.2a.2.2 0 01-.2-.2v-1.11c0-.111.09-.2.2-.2h9.02c.11 0 .2.089.2.2v1.11zM9.42 7.354a.2.2 0 01-.2.2H.2a.2.2 0 01-.2-.2V6.243c0-.11.09-.2.2-.2h9.02c.11 0 .2.09.2.2v1.11zM9.42 10.375a.2.2 0 01-.2.2H.2a.2.2 0 01-.2-.2v-1.11c0-.111.09-.2.2-.2h9.02c.11 0 .2.089.2.2v1.11z" fill="#FE445C"/></svg><svg fill="none" viewBox="0 0 12 11" id="orders3" xmlns="http://www.w3.org/2000/svg"><path fill-rule="evenodd" clip-rule="evenodd" d="M11.989 10.31a.2.2 0 01-.2.2H.2a.2.2 0 01-.2-.2V9.2c0-.11.09-.2.2-.2h11.589c.11 0 .2.09.2.2v1.11zM9.42 4.332a.2.2 0 01-.2.2H.2a.2.2 0 01-.2-.2v-1.11c0-.111.09-.2.2-.2h9.02c.11 0 .2.089.2.2v1.11zM9.42 7.354a.2.2 0 01-.2.2H.2a.2.2 0 01-.2-.2V6.243c0-.11.09-.2.2-.2h9.02c.11 0 .2.09.2.2v1.11zM9.42 1.31a.2.2 0 01-.2.2H.2a.2.2 0 01-.2-.2V.2C0 .09.09 0 .2 0h9.02c.11 0 .2.09.2.2v1.11z" fill="#0AA869"/></svg><svg class="axsc-aXZVg axktFCMi axmx-icon axfooter_toggleBtn__3F0ol" fill="currentColor" aria-hidden="true" viewBox="0 0 1024 1024" data-icon="PlusOutlined" id="plus"><path d="M80 512a48 48 0 0148-48h768a48 48 0 010 96H128a48 48 0 01-48-48z"/><path d="M512 944a48 48 0 01-48-48V128a48 48 0 0196 0v768a48 48 0 01-48 48z"/></svg><svg fill="none" viewBox="0 0 44 44" id="portfolio" xmlns="http://www.w3.org/2000/svg"><path fill="#5A81CD" d="M4 25h9v15H4z"/><path fill="#CFE4FF" d="M13 18h10v22H13z"/><path opacity=".7" fill="#1261C4" d="M23 12h8v28h-8z"/><path fill="#1261C4" d="M31 4h9v36h-9z"/></svg><svg aria-hidden="true" viewBox="0 0 16 16" data-icon="SearchOutlined" id="search"><path fill-rule="evenodd" clip-rule="evenodd" d="M9.932 10.879a5.333 5.333 0 11.943-.943l3.591 3.591a.667.667 0 01-.943.943L9.932 10.88zm.73-4.214a4 4 0 11-8 0 4 4 0 018 0z"/></svg><svg aria-hidden="true" viewBox="0 0 16 16" data-icon="MoreSetOutlined" font-size="16" id="setting"><path fill-rule="evenodd" clip-rule="evenodd" d="M5.882 2.18c-.922 0-1.674.751-1.674 1.683s.752 1.682 1.674 1.682c.921 0 1.673-.75 1.673-1.682 0-.932-.752-1.683-1.673-1.683zm-3.085.933A3.176 3.176 0 015.882.68a3.176 3.176 0 013.084 2.433h5.99a.75.75 0 010 1.5h-5.99a3.176 3.176 0 01-3.084 2.432 3.176 3.176 0 01-3.085-2.432H1.044a.75.75 0 110-1.5h1.753zm7.32 7.342c-.92 0-1.673.75-1.673 1.682 0 .932.752 1.683 1.674 1.683.921 0 1.673-.751 1.673-1.683s-.752-1.682-1.673-1.682zm-3.084.932a3.176 3.176 0 013.085-2.432 3.176 3.176 0 013.084 2.432h1.753a.75.75 0 010 1.5h-1.753a3.176 3.176 0 01-3.084 2.433 3.176 3.176 0 01-3.085-2.433H1.044a.75.75 0 110-1.5h5.989z" fill="currentColor"/></svg><svg fill="#4281ff" aria-hidden="true" viewBox="0 0 1024 1024" data-icon="IconiconNotice" id="speaker"><path d="M795.99 121.06A71.111 71.111 0 01896 186.027v652.06a71.111 71.111 0 01-100.01 64.967L501.247 772.04a156.501 156.501 0 01-253.554-75.093h-48.583c-39.253 0-71.111-31.858-71.111-71.111V398.279c0-39.253 31.858-71.111 71.111-71.111h133.12L795.99 121.06zm14.677 86.869L350.436 412.5H213.333v199.111h113.778v42.667a71.111 71.111 0 00128.91 41.472l20.253-28.16 334.393 148.594V207.929z" fill="currentColor" opacity=".8"/><path d="M625.778 412.501a42.667 42.667 0 0185.333 0v199.111a42.667 42.667 0 01-85.333 0v-199.11z" fill="currentColor" opacity=".5"/></svg><svg class="bcsc-aXZVg bcktFCMi bcmx-icon" fill="currentColor" aria-hidden="true" viewBox="0 0 1024 1024" data-icon="TelegramFilled" id="telegram"><path d="M417.28 795.733l11.947-180.48L756.907 320c14.506-13.227-2.987-19.627-22.187-8.107L330.24 567.467 155.307 512c-37.547-10.667-37.974-36.693 8.533-55.467l681.387-262.826c31.146-14.08 61.013 7.68 49.066 55.466L778.24 795.733c-8.107 38.827-31.573 48.214-64 30.294L537.6 695.467l-84.907 82.346c-9.813 9.814-17.92 17.92-35.413 17.92z"/></svg><svg class="bdsc-bcXHqe bdfzgrYP bdmx-icon bdiconfont bdicon-down2" fill="currentColor" aria-hidden="true" viewBox="0 0 1462 1024" data-icon="BottomOutlined" id="toggle"><path d="M330.862 261.091a65.469 65.469 0 0192.475 0l281.106 281.025L985.549 261.09a65.469 65.469 0 0192.474 92.475l-373.58 373.826-373.58-373.744a65.469 65.469 0 010-92.557z"/></svg><svg aria-hidden="true" viewBox="0 0 1024 1024" data-icon="CaretDownOutlined" id="triangle"><path d="M929.178 203.162a61.44 61.44 0 0146.899 100.966l-416.973 494.9a61.44 61.44 0 01-94.003 0l-417.178-494.9a61.44 61.44 0 0146.9-100.966h834.355z"/></svg><svg class="bfsc-gEvEer bfhSTeNi bfmx-icon" fill="currentColor" aria-hidden="true" viewBox="0 0 48 48" data-icon="IconFee" id="video-icon1"><path d="M35.812 21.513v1.5h2.183c1.176 0 1.982.643 2.322 1.408.334.75.242 1.644-.518 2.352L25.804 39.812c-.985.917-2.623.917-3.608 0L8.2 26.773c-.76-.708-.852-1.601-.518-2.352.34-.765 1.146-1.408 2.322-1.408h2.824V9.724c0-1.13 1.016-2.224 2.497-2.224h17.989c1.48 0 2.497 1.094 2.497 2.224v11.789z" stroke="currentColor" fill="none" stroke-width="3"/><path d="M22.5 16.5a1.5 1.5 0 013 0v13a1.5 1.5 0 01-3 0v-13z"/><rect x="6" y="39" width="36" height="3" rx="1.5"/></svg><svg class="bgsc-gEvEer bghSTeNi bgmx-icon bgicon-liquidity" fill="currentColor" aria-hidden="true" viewBox="0 0 48 48" data-icon="IconLiquidity" id="video-icon2"><rect x="7.5" y="7.5" width="33" height="33" rx="2.5" stroke="currentColor" fill="none" stroke-width="3"/><path d="M16.698 29H24.5v11.5H10A2.5 2.5 0 017.5 38V21.5h7.698V29h1.5zM24.5 24v16.5H38a2.5 2.5 0 002.5-2.5V14.5h-8.943V24H24.5z" stroke="currentColor" fill="none" stroke-width="3"/></svg><svg class="bhsc-gEvEer bhhSTeNi bhmx-icon" fill="currentColor" aria-hidden="true" viewBox="0 0 48 48" data-icon="IconSecurity" id="video-icon3"><path d="M8.02 10.76l15.884-3.21a.5.5 0 01.197 0l15.873 3.164a.5.5 0 01.4.53l-1.576 19.658a.5.5 0 01-.236.386l-14.304 8.805a.5.5 0 01-.523 0L9.422 31.349l-.783 1.28.783-1.28a.5.5 0 01-.238-.387L7.62 11.291a.5.5 0 01.4-.53z" stroke="currentColor" fill="none" stroke-width="3"/><path d="M32.618 19.945a1.5 1.5 0 10-2.122-2.122l-7.232 7.233a.5.5 0 01-.707 0l-3.535-3.536a1.5 1.5 0 10-2.122 2.122l5.303 5.303a1 1 0 001.415 0l9-9z"/></svg><svg class="bisc-aXZVg biktFCMi bimx-icon biicon-dir-rtl" fill="currentColor" aria-hidden="true" viewBox="0 0 16 12" data-icon="HomeTrumpet" color="var(--title)" font-size="16" id="volume"><path fill-rule="evenodd" clip-rule="evenodd" d="M8 0H5L3 3H0v6h3l2 3h3V0zm8 6a6 6 0 01-6 6v-1a5 5 0 000-10V0a6 6 0 016 6zm-3 0a3 3 0 01-3 3V8a2 2 0 100-4V3a3 3 0 013 3z"/></svg><svg class="bjsc-gEvEer bjhSTeNi bjmx-icon bjiconfont bjicondo-windows1" fill="currentColor" aria-hidden="true" viewBox="0 0 1024 1024" data-icon="WindowsOutlined" id="windows"><path d="M125.542 242.33v221.798l243.098-9.062v-263.27l-243.046 50.482zm345.396-78.797v286.515l428.85-15.82V74.495l-428.85 89.088zM125.542 560.128v221.798l243.047 50.535V569.24l-243.047-9.113zm345.396 14.131v286.464l428.85 89.037V590.08l-428.85-15.82z"/></svg><svg class="bksc-aXZVg bkktFCMi bkmx-icon" fill="currentColor" aria-hidden="true" viewBox="0 0 28 25" data-icon="NewTwitterOutLined" id="x"><path d="M19.92 23.798L2.45 1.202h5.63l17.47 22.596h-5.63z" stroke="currentColor" stroke-width="2.405"/><path fill-rule="evenodd" clip-rule="evenodd" d="M21.979 0h4.215l-9.44 10.977-2.022-2.55L21.979 0zM10.665 13.158L.482 25h4.215l7.99-9.293-2.022-2.55z"/></svg></svg>