<svg width="24" height="24" viewBox="0 0 24 24" fill="none" xmlns="http://www.w3.org/2000/svg"><g clip-path="url(#clip0_813_3007)"><path d="M19.4 15.6a1 1 0 102 0h-2zm-16.8 0a1 1 0 102 0h-2zM5.7 5.2h12.6v-2H5.7v2zm13.7 1.031v9.37h2V6.23h-2zm-14.8 9.37V6.23h-2v9.37h2zM18.3 5.2c.64 0 1.1.492 1.1 1.03h2c0-1.705-1.42-3.03-3.1-3.03v2zm-12.6-2c-1.68 0-3.1 1.325-3.1 3.03h2c0-.538.46-1.03 1.1-1.03v-2zm-2.1 14h16.8v-2H3.6v2zm17 .2v1.2h2v-1.2h-2zm-.2 1.4H3.6v2h16.8v-2zm-17-.2v-1.2h-2v1.2h2zm.2.2a.2.2 0 01-.2-.2h-2a2.2 2.2 0 002.2 2.2v-2zm17-.2a.2.2 0 01-.2.2v2a2.2 2.2 0 002.2-2.2h-2zm-.2-1.4a.2.2 0 01.2.2h2a2.2 2.2 0 00-2.2-2.2v2zm-16.8-2a2.2 2.2 0 00-2.2 2.2h2a.2.2 0 01.2-.2v-2z" fill="#F2F4F6"/></g><defs><clipPath id="clip0_813_3007"><path fill="#fff" d="M0 0h24v24H0z"/></clipPath></defs></svg>