<svg width="20" height="20" viewBox="0 0 20 20" fill="none" xmlns="http://www.w3.org/2000/svg"><path d="M19.091 11.044c0-.617-.053-1.232-.16-1.838h-8.746v3.481h5.01a4.199 4.199 0 01-1.853 2.75v2.261h2.989c1.75-1.574 2.76-3.902 2.76-6.654z" fill="#4285F4"/><path d="M10.187 19.884c2.502 0 4.61-.8 6.146-2.184l-2.988-2.262c-.832.55-1.902.864-3.156.864a5.505 5.505 0 01-3.195-1.033 5.563 5.563 0 01-2.012-2.702H1.9v2.331c1.576 3.055 4.782 4.986 8.287 4.986z" fill="#34A853"/><path d="M4.978 12.567a5.295 5.295 0 010-3.462V6.776H1.896a8.842 8.842 0 000 8.122l3.082-2.33z" fill="#FBBC04"/><path d="M10.187 5.37a5.105 5.105 0 013.556 1.359l2.648-2.582a9.036 9.036 0 00-6.204-2.356c-3.505 0-6.714 1.927-8.287 4.985l3.082 2.33a5.564 5.564 0 012.01-2.7 5.505 5.505 0 013.195-1.035z" fill="#EA4335"/></svg>