<svg width="20" height="20" viewBox="0 0 20 20" fill="none" xmlns="http://www.w3.org/2000/svg">
<path d="M19.091 11.0437C19.0915 10.4275 19.0379 9.81244 18.931 9.20557H10.1855V12.6874H15.1946C15.0886 13.2474 14.8696 13.7799 14.5511 14.2526C14.2326 14.7252 13.8212 15.128 13.3419 15.4365V17.6983H16.331C18.0819 16.1237 19.091 13.7965 19.091 11.0437Z" fill="#4285F4"/>
<path d="M10.1872 19.8837C12.689 19.8837 14.7963 19.0837 16.3326 17.7001L13.3454 15.4383C12.5126 15.9874 11.4435 16.3019 10.189 16.3019C9.04259 16.2987 7.9258 15.9376 6.99445 15.2692C6.06042 14.5983 5.35727 13.6544 4.98172 12.5674H1.8999V14.8983C3.47627 17.9528 6.68172 19.8837 10.1872 19.8837Z" fill="#34A853"/>
<path d="M4.97824 12.5673C4.59033 11.4459 4.59033 10.2268 4.97824 9.10546V6.77637H1.89642C1.24739 8.03162 0.908691 9.42416 0.908691 10.8373C0.908691 12.2504 1.24739 13.6429 1.89642 14.8982L4.97824 12.5673Z" fill="#FBBC04"/>
<path d="M10.1872 5.3708C11.5034 5.3481 12.7775 5.83469 13.7435 6.72898L16.3908 4.14716C14.6966 2.60336 12.4791 1.76105 10.1872 1.7908C6.68172 1.7908 3.47263 3.71807 1.8999 6.77626L4.98172 9.10535C5.35711 8.01928 6.05958 7.07608 6.99263 6.40535C7.92377 5.73625 9.04058 5.37458 10.1872 5.3708Z" fill="#EA4335"/>
</svg>
