<svg width="20" height="20" viewBox="0 0 20 20" fill="none" xmlns="http://www.w3.org/2000/svg"><path d="M7.702 6.641a.75.75 0 00-1.06 1.06l1.06-1.06zm4.596 6.718a.75.75 0 001.061-1.06l-1.06 1.06zm1.061-5.657a.75.75 0 10-1.06-1.06l1.06 1.06zm-6.718 4.596a.75.75 0 001.061 1.06l-1.06-1.06zm8.486-7.425a7.25 7.25 0 010 10.253l1.06 1.061a8.75 8.75 0 000-12.374l-1.06 1.06zm0 10.253a7.25 7.25 0 01-10.253 0l-1.06 1.061a8.75 8.75 0 0012.373 0l-1.06-1.06zm-10.253 0a7.25 7.25 0 010-10.253l-1.06-1.06a8.75 8.75 0 00-.001 12.374l1.06-1.06zm0-10.253a7.25 7.25 0 0110.253 0l1.06-1.06a8.75 8.75 0 00-12.374 0l1.06 1.06zM6.64 7.702l2.83 2.828 1.06-1.06-2.827-2.83-1.06 1.06zm2.83 2.828l2.828 2.829 1.061-1.06-2.828-2.83L9.47 10.53zm2.828-3.889L9.47 9.47l1.06 1.06 2.829-2.828-1.06-1.06zM9.47 9.47l-2.83 2.828 1.061 1.06 2.829-2.828-1.06-1.06z" fill="#87909F"/></svg>