<svg width="24" height="24" viewBox="0 0 24 24" fill="none" xmlns="http://www.w3.org/2000/svg"><g clip-path="url(#clip0_811_2987)"><path d="M6.6 8.8v-.914C6.6 4.846 9.008 2.4 12 2.4c2.991 0 5.4 2.447 5.4 5.486V8.8m-10.8 0c-.99 0-1.8.823-1.8 1.829v9.142c0 1.006.81 1.829 1.8 1.829h10.8c.99 0 1.8-.823 1.8-1.829v-9.143c0-1.005-.81-1.828-1.8-1.828m-10.8 0h10.8M12 13.37c.99 0 1.8.823 1.8 1.829s-.81 1.829-1.8 1.829-1.8-.823-1.8-1.83c0-1.005.81-1.828 1.8-1.828z" stroke="#F2F4F6" stroke-width="2"/></g><defs><clipPath id="clip0_811_2987"><path fill="#fff" d="M0 0h24v24H0z"/></clipPath></defs></svg>