<svg width="170" height="120" viewBox="0 0 170 120" fill="none" xmlns="http://www.w3.org/2000/svg"><path d="M84.503 37v19c0 3.865 3.116 7 6.959 7C103.5 34 105 19.5 136.696 13c.497-2 2.982-1.5 3.977-3.5-5.407-3.462-13.244-5.945-21.108-6-15.862.13-35.062 13.595-35.062 33.5z" fill="#504F59"/><path d="M107.368 98.5c.995-3.5 1.492-6.5 1.492-10.5l10.687 1.466L130.234 88c0 4 .497 7 1.491 10.5-4.405 3.939-6.883 4.484-12.178 4.5-5.296-.016-7.773-.561-12.179-4.5z" fill="#F4D0A8"/><path d="M5.965 120l3.48-35.5 3.976 7V120H5.965z" fill="#504F59"/><path d="M13.421 98.5V120h14.912l-1.49-10L13.42 98.5z" fill="#474553"/><path d="M119.298 63h28.831c3.976 0 6.462-3.5 6.462-6.5V37c0-3 2.982-8 5.468-10-6.96-7.5-9.445-12-23.363-14-36.145-3.5-42.251 12-45.234 50h27.836z" fill="#474551"/><path d="M91.462 43c0-6.627 5.373-12 12-12h32.667c6.627 0 12 5.373 12 12v22c0 14.36-11.641 26-26 26h-4.667c-14.359 0-26-11.64-26-26V43z" fill="#F4E2C8"/><path d="M66.111 120c28.333-24.5 37.281-12.5 41.257-21.5h24.357c5.468 10 18.889-1.5 38.275 21.5H66.111z" fill="#474553"/><rect x="8.947" y="23" width="67.602" height="89" rx="5" fill="#E9E1E6"/><rect x="13.918" y="28" width="57.661" height="4" rx="2" fill="#D2CACF"/><rect x="34.795" y="73" width="36.784" height="4" rx="2" fill="#D2CACF"/><rect x="13.918" y="34" width="57.661" height="4" rx="2" fill="#D2CACF"/><rect x="34.795" y="79" width="36.784" height="4" rx="2" fill="#D2CACF"/><rect x="13.918" y="40" width="57.661" height="4" rx="2" fill="#D2CACF"/><rect x="34.795" y="85" width="36.784" height="4" rx="2" fill="#D2CACF"/><rect x="34.795" y="91" width="36.784" height="4" rx="2" fill="#D2CACF"/><rect x="13.918" y="103" width="57.661" height="4" rx="2" fill="#D2CACF"/><path fill="#D2CACF" d="M13.918 50H28.83v1H13.918zm40.76 0h16.901v1H54.678zm0 9h16.901v1H54.678z"/><path d="M8.947 85l-6.959-8.5 3.48-1.5 3.976 2-.497 8z" fill="#F4D0A8"/><path d="M.994 73l.994 3.5 3.255-.819a2 2 0 011.387.153l3.7 1.861c.392.198.84.258 1.27.171l.26-.052a1.686 1.686 0 001.337-1.89l-.15-1.062a.756.756 0 01.748-.862c.36 0 .67-.255.741-.609l.243-1.222a2 2 0 00-.17-1.28l-.69-1.389a1.272 1.272 0 01.43-1.622c.352-.236.563-.632.563-1.056v-.497a2 2 0 00-.581-1.41l-1.787-1.797a.876.876 0 010-1.236.877.877 0 00.21-.893l-.143-.432a1.616 1.616 0 00-.683-.866L6.916 56.59a2 2 0 00-1.95-.086l-1.876.943a2 2 0 00-1.102 1.787v1.104a2 2 0 01-.396 1.195l-.698.936a2 2 0 00-.397 1.195v3.64a2 2 0 01-.038.39l-.356 1.79A2 2 0 00.166 70.5L.994 73z" fill="#F4E2C8"/><path d="M14.415 48.5c1.657-.333 4.97-1.6 4.97-4 0-3-4.97 3.5-1.987 3.5 2.982 0 3.48-1.5 2.982-2-.497-.5-1.988 1-.497 2s3.48.5 3.48-1-3.48.5-.995 1.5c1.989.8 6.131 1 7.954 1m25.35 8.118c1.864-.46 6.463-1.803 6.463-5.118 0-4.145-6.462 4.428-3.107 4.428 3.355 0 6.151-1.737 5.592-2.428-.56-.69-3.165 1.09-2.486 2 1.492 2 5.842 1.11 8.948 1.5" stroke="#000" stroke-width=".4"/><ellipse cx="11.93" cy="61" rx=".994" ry="1" fill="#F4D0A8"/><ellipse cx="12.924" cy="67" rx=".994" ry="1" fill="#F4D0A8"/><ellipse cx="12.924" cy="72" rx=".994" ry="1" fill="#F4D0A8"/><ellipse cx="11.93" cy="76.5" rx=".994" ry=".5" fill="#F4D0A8"/><rect x="13.918" y="73" width="17.895" height="22" rx="2" fill="#fff"/><path d="M16.404 95a3.471 3.471 0 013.47-3.471h5.712a3.471 3.471 0 013.471 3.47H16.404zm4.354-4.298l-.41.827h4.847l-.411-.827h-4.026zm1.972-5.868h4.765c.658 0 1.068-.579 1.068-1.074v-3.223c0-.496.493-1.323.904-1.653-1.15-1.24-1.56-1.984-3.861-2.314-5.975-.579-6.984 1.983-7.477 8.264h4.601z" fill="#474551"/><path d="M16.979 80.537v3.14c0 .64.515 1.157 1.15 1.157.493-6.28 1.502-8.842 7.477-8.264.082-.33.492-.248.657-.578-.894-.573-2.19-.983-3.489-.992-2.622.021-5.795 2.247-5.795 5.537z" fill="#504F59"/><path d="M18.129 81.53c0-1.096.888-1.984 1.983-1.984h5.4c1.095 0 1.983.888 1.983 1.983v3.637a4.297 4.297 0 01-4.297 4.297h-.771a4.297 4.297 0 01-4.298-4.297v-3.637z" fill="#F4E2C8"/><path d="M20.758 90.702a5.906 5.906 0 00.247-1.735l1.766.242 1.766-.242c0 .66.083 1.157.247 1.735-.728.651-1.138.741-2.013.744-.875-.003-1.285-.093-2.013-.744z" fill="#F4D0A8"/><g clip-path="url(#clip0_3316_6488)" fill="#CE9CA6"><path d="M46.372 54.683a.132.132 0 00-.048-.133.13.13 0 00-.14-.013l-.1.052a1.97 1.97 0 00.15-.937.13.13 0 00-.208-.09l-.107.079c.144-.53.038-.968.032-.992a.131.131 0 00-.226-.054l-1.903 2.196a.132.132 0 00.006.18.15.15 0 010 .212.147.147 0 01-.106.044.15.15 0 01-.15-.15v-.013a.272.272 0 00-.27-.26h-.15v-.246c0-.266.104-.516.29-.704l.054-.054h.506a.15.15 0 01.15.15.131.131 0 10.262 0v-.423a.413.413 0 00-.412-.413h-.1a.266.266 0 00-.029-.042.484.484 0 00-.23-.786v-.168a.132.132 0 00-.13-.132.132.132 0 00-.132.132v.168a.484.484 0 00-.297.687h-.342a.131.131 0 00-.131.132.13.13 0 00.13.131h.105l-.166.167a1.68 1.68 0 00-.359.534 1.68 1.68 0 00-.358-.534l-.166-.167h.104a.131.131 0 000-.264h-.342a.483.483 0 00-.297-.686v-.168a.132.132 0 00-.131-.132.131.131 0 00-.131.132v.168a.485.485 0 00-.23.786.274.274 0 00-.029.042h-.1a.413.413 0 00-.412.413v.423c0 .073.059.132.131.132a.131.131 0 00.131-.132.15.15 0 01.15-.15h.506l.053.054c.187.188.29.438.29.704v.246h-.15a.272.272 0 00-.27.273.15.15 0 11-.255-.106.132.132 0 00.006-.18l-1.903-2.196a.13.13 0 00-.226.054 2.13 2.13 0 00.032.992l-.107-.08a.13.13 0 00-.208.09 1.97 1.97 0 00.15.938l-.1-.052a.13.13 0 00-.14.013.132.132 0 00-.048.133c.006.029.132.583.53.968a.132.132 0 00-.1.187 1.3 1.3 0 00.586.555.132.132 0 00.04.214c.018.008.29.124.64.124.115 0 .237-.012.362-.044a.132.132 0 00.13.14h.008c.017-.002.33-.022.603-.186v.228a.98.98 0 00-.56.886.13.13 0 00.13.131h.29v.15a.15.15 0 01-.15.15h-.833l-1.062-1.335a.413.413 0 00-.346-.637.413.413 0 10.141.802l1.438 1.807a.13.13 0 00.184.02.132.132 0 00.02-.185l-.165-.208h.624a.413.413 0 00.41-.414v-.15h.15a.13.13 0 00.13-.132c0-.16.13-.29.29-.29h.14a.29.29 0 01.289.279.43.43 0 01-.201.347l-.594.373a.692.692 0 00-.325.59v.392a.13.13 0 00.13.132.131.131 0 00.132-.132v-.392a.43.43 0 01.202-.366l.29-.183a.974.974 0 00-.194.587v.495c0 .073.059.132.131.132a.131.131 0 00.131-.132v-.495c0-.19.074-.37.208-.505l.09-.09v1.372c0 .073.059.132.131.132a.131.131 0 00.132-.132v-1.371l.09.09a.711.711 0 01.208.504v.495a.13.13 0 10.262 0v-.495a.973.973 0 00-.195-.587l.291.183a.43.43 0 01.202.366v.392c0 .073.059.132.131.132a.131.131 0 00.131-.132v-.392a.692.692 0 00-.325-.59l-.594-.373a.43.43 0 01-.2-.347.29.29 0 01.288-.28h.14a.29.29 0 01.289.292c0 .072.059.131.131.131h.15v.15c0 .111.042.215.12.292a.416.416 0 00.295.118h.744a.553.553 0 10.503-.948v-.166a.131.131 0 00-.131-.132.131.131 0 00-.131.132v.166a.555.555 0 00-.4.684h-.58a.159.159 0 01-.116-.043.142.142 0 01-.043-.103v-.15h.29a.131.131 0 00.13-.131.98.98 0 00-.56-.886v-.228a1.47 1.47 0 00.61.186.13.13 0 00.131-.14c.125.032.247.044.361.044.351 0 .623-.116.64-.124a.132.132 0 00.04-.214c.413-.2.579-.538.587-.554a.132.132 0 00-.1-.187c.398-.386.524-.94.53-.97zm-7.833 2.094a.15.15 0 010-.3.15.15 0 010 .3zm6.444.968a.29.29 0 010 .582.29.29 0 010-.582zm-1.066-4.368h.085a.15.15 0 01.15.15v.038a.407.407 0 00-.15-.029h-.244l.159-.159zm-.405-.845a.22.22 0 010 .44.22.22 0 010-.44zm-1.06 2.06c0-.379.147-.735.413-1.003l.351-.353h.448c.003 0 .006 0 .009.006.002.006 0 .008-.002.01l-.414.415a1.255 1.255 0 00-.366.89v.247h-.438v-.212zm-1.812-1.056a.407.407 0 00-.149.029v-.038a.15.15 0 01.15-.15h.085l.158.16h-.244zm.49-1.004a.22.22 0 010 .44.22.22 0 010-.44zm.255 1.136l-.413-.416c-.002-.002-.004-.004-.002-.01.003-.006.005-.006.009-.006h.448l.35.353c.267.268.413.624.413 1.003v.212h-.438v-.246c0-.337-.13-.653-.367-.89zm-1.581 1.098a.13.13 0 00.183-.028.132.132 0 00-.028-.184l-.84-.621a1.876 1.876 0 01-.205-.942l1.642 1.895a.41.41 0 00-.033.085l-.084-.063a.13.13 0 00-.184.029.132.132 0 00.028.184l.39.289.015.009a.407.407 0 00.382.044v.429l-2.077-1.078a1.636 1.636 0 01-.325-.887l1.136.84zm-1.177.155l1.405.729h-.789l-.005-.003c-.319-.163-.508-.486-.61-.726zm.447.993h.963l-.48.304a1.098 1.098 0 01-.483-.304zm1.405.436l-.003.001c-.276.141-.572.128-.778.09l.836-.53.124.063-.18.376zm.21.169l.202-.424.179.093v.122a.86.86 0 01-.381.209zm.536 1.104h-.441a.716.716 0 01.336-.483.558.558 0 00.226.25.556.556 0 00-.12.233zm1.797-.423h-.28a.549.549 0 00-.42.196.55.55 0 00-.42-.196h-.281a.29.29 0 01-.29-.29v-1.833c0-.005.005-.009.01-.009h1.961a.01.01 0 01.01.01v1.831c0 .16-.13.29-.29.29zm.837.423h-.442a.556.556 0 00-.12-.233.557.557 0 00.226-.25c.175.105.298.28.336.483zm-.286-2.16a.41.41 0 00.396-.053l1.055-.78a.132.132 0 00.028-.185.13.13 0 00-.183-.028l-.75.554a.41.41 0 00-.032-.085l1.642-1.895c.01.235-.02.59-.205.942l-.199.147a.132.132 0 00-.028.184.13.13 0 00.183.028l.495-.365a1.629 1.629 0 01-.325.888l-2.077 1.077v-.43zm0 .847v-.122l.18-.093.201.424a.86.86 0 01-.38-.209zm.594.041l-.003-.001-.179-.376.124-.063.836.53c-.206.038-.502.051-.778-.09zm.918-.133l-.48-.304h.964a1.099 1.099 0 01-.484.304zm.315-.568h-.79l1.405-.729c-.102.24-.297.566-.615.729z"/><path d="M41.77 52.428v.113c0 .073.059.132.131.132h.84c.073 0 .132-.06.132-.132v-.113a.415.415 0 00.128-.412.41.41 0 00-.548-.283v-.328h.008a.131.131 0 00.132-.132.131.131 0 00-.132-.132h-.008v-.01a.131.131 0 10-.262 0v.01h-.01a.131.131 0 00-.13.132.13.13 0 00.13.132h.01v.328a.41.41 0 00-.548.283.415.415 0 00.127.412zm.127-.35a.15.15 0 01.26-.055c.026.032.06.055.097.067a.13.13 0 00.135 0 .211.211 0 00.097-.067.15.15 0 11.213.207.26.26 0 00-.087.179h-.58a.26.26 0 00-.088-.179.148.148 0 01-.047-.151zm.758 4.118h.146l.104.208a.13.13 0 10.234-.118l-.14-.281a.131.131 0 00-.117-.073h-.15v-.15a.15.15 0 01.15-.15.131.131 0 00.13-.132.131.131 0 00-.13-.132.413.413 0 00-.411.414v.15h-.159V55.5a.131.131 0 10-.262 0v.01h-.009a.131.131 0 00-.13.13c0 .074.058.133.13.133h.01v.159h-.01a.413.413 0 00-.411.413v.423c0 .073.059.132.131.132a.131.131 0 00.131-.132v-.423a.15.15 0 01.15-.15h.008v.573a.131.131 0 10.262 0v-.572h.06l.248.621a.131.131 0 10.243-.098l-.208-.523z"/></g><path fill-rule="evenodd" clip-rule="evenodd" d="M42.251 63.5c4.393 0 7.954-3.582 7.954-8s-3.561-8-7.954-8c-4.392 0-7.953 3.582-7.953 8s3.561 8 7.953 8zm0 .5c4.667 0 8.45-3.806 8.45-8.5s-3.783-8.5-8.45-8.5c-4.666 0-8.45 3.806-8.45 8.5s3.783 8.5 8.45 8.5z" fill="#CE9CA6"/><path fill-rule="evenodd" clip-rule="evenodd" d="M42.251 62c3.57 0 6.462-2.91 6.462-6.5S45.82 49 42.251 49c-3.568 0-6.462 2.91-6.462 6.5s2.894 6.5 6.462 6.5zm0 1c4.118 0 7.457-3.358 7.457-7.5 0-4.142-3.339-7.5-7.457-7.5-4.117 0-7.456 3.358-7.456 7.5 0 4.142 3.338 7.5 7.456 7.5z" fill="#CE9CA6"/><defs><clipPath id="clip0_3316_6488"><path fill="#fff" transform="translate(37.778 51)" d="M0 0h8.947v9H0z"/></clipPath></defs></svg>