<svg width="120" height="120" viewBox="0 0 120 120" fill="none" xmlns="http://www.w3.org/2000/svg">
<path d="M120 0H0V120H120V0Z" fill="#292A2F"/>
<path d="M2.66667 0H0V2.66667H2.66667V0Z" fill="#F2F4F6"/>
<path d="M5.33317 0H2.6665V2.66667H5.33317V0Z" fill="#F2F4F6"/>
<path d="M8.00016 0H5.3335V2.66667H8.00016V0Z" fill="#F2F4F6"/>
<path d="M10.6667 0H8V2.66667H10.6667V0Z" fill="#F2F4F6"/>
<path d="M13.3332 0H10.6665V2.66667H13.3332V0Z" fill="#F2F4F6"/>
<path d="M16.0002 0H13.3335V2.66667H16.0002V0Z" fill="#F2F4F6"/>
<path d="M18.6667 0H16V2.66667H18.6667V0Z" fill="#F2F4F6"/>
<path d="M24.0002 0H21.3335V2.66667H24.0002V0Z" fill="#F2F4F6"/>
<path d="M32.0002 0H29.3335V2.66667H32.0002V0Z" fill="#F2F4F6"/>
<path d="M37.3332 0H34.6665V2.66667H37.3332V0Z" fill="#F2F4F6"/>
<path d="M40.0002 0H37.3335V2.66667H40.0002V0Z" fill="#F2F4F6"/>
<path d="M48.0002 0H45.3335V2.66667H48.0002V0Z" fill="#F2F4F6"/>
<path d="M53.3332 0H50.6665V2.66667H53.3332V0Z" fill="#F2F4F6"/>
<path d="M66.6667 0H64V2.66667H66.6667V0Z" fill="#F2F4F6"/>
<path d="M82.6667 0H80V2.66667H82.6667V0Z" fill="#F2F4F6"/>
<path d="M85.3332 0H82.6665V2.66667H85.3332V0Z" fill="#F2F4F6"/>
<path d="M88.0002 0H85.3335V2.66667H88.0002V0Z" fill="#F2F4F6"/>
<path d="M98.6667 0H96V2.66667H98.6667V0Z" fill="#F2F4F6"/>
<path d="M104 0H101.333V2.66667H104V0Z" fill="#F2F4F6"/>
<path d="M106.667 0H104V2.66667H106.667V0Z" fill="#F2F4F6"/>
<path d="M109.333 0H106.667V2.66667H109.333V0Z" fill="#F2F4F6"/>
<path d="M112 0H109.333V2.66667H112V0Z" fill="#F2F4F6"/>
<path d="M114.667 0H112V2.66667H114.667V0Z" fill="#F2F4F6"/>
<path d="M117.333 0H114.667V2.66667H117.333V0Z" fill="#F2F4F6"/>
<path d="M120 0H117.333V2.66667H120V0Z" fill="#F2F4F6"/>
<path d="M2.66667 2.6665H0V5.33317H2.66667V2.6665Z" fill="#F2F4F6"/>
<path d="M18.6667 2.6665H16V5.33317H18.6667V2.6665Z" fill="#F2F4F6"/>
<path d="M24.0002 2.6665H21.3335V5.33317H24.0002V2.6665Z" fill="#F2F4F6"/>
<path d="M26.6667 2.6665H24V5.33317H26.6667V2.6665Z" fill="#F2F4F6"/>
<path d="M32.0002 2.6665H29.3335V5.33317H32.0002V2.6665Z" fill="#F2F4F6"/>
<path d="M40.0002 2.6665H37.3335V5.33317H40.0002V2.6665Z" fill="#F2F4F6"/>
<path d="M42.6667 2.6665H40V5.33317H42.6667V2.6665Z" fill="#F2F4F6"/>
<path d="M50.6667 2.6665H48V5.33317H50.6667V2.6665Z" fill="#F2F4F6"/>
<path d="M64.0002 2.6665H61.3335V5.33317H64.0002V2.6665Z" fill="#F2F4F6"/>
<path d="M72.0002 2.6665H69.3335V5.33317H72.0002V2.6665Z" fill="#F2F4F6"/>
<path d="M77.3332 2.6665H74.6665V5.33317H77.3332V2.6665Z" fill="#F2F4F6"/>
<path d="M82.6667 2.6665H80V5.33317H82.6667V2.6665Z" fill="#F2F4F6"/>
<path d="M85.3332 2.6665H82.6665V5.33317H85.3332V2.6665Z" fill="#F2F4F6"/>
<path d="M96.0002 2.6665H93.3335V5.33317H96.0002V2.6665Z" fill="#F2F4F6"/>
<path d="M104 2.6665H101.333V5.33317H104V2.6665Z" fill="#F2F4F6"/>
<path d="M120 2.6665H117.333V5.33317H120V2.6665Z" fill="#F2F4F6"/>
<path d="M2.66667 5.3335H0V8.00016H2.66667V5.3335Z" fill="#F2F4F6"/>
<path d="M8.00016 5.3335H5.3335V8.00016H8.00016V5.3335Z" fill="#F2F4F6"/>
<path d="M10.6667 5.3335H8V8.00016H10.6667V5.3335Z" fill="#F2F4F6"/>
<path d="M13.3332 5.3335H10.6665V8.00016H13.3332V5.3335Z" fill="#F2F4F6"/>
<path d="M18.6667 5.3335H16V8.00016H18.6667V5.3335Z" fill="#F2F4F6"/>
<path d="M24.0002 5.3335H21.3335V8.00016H24.0002V5.3335Z" fill="#F2F4F6"/>
<path d="M34.6667 5.3335H32V8.00016H34.6667V5.3335Z" fill="#F2F4F6"/>
<path d="M40.0002 5.3335H37.3335V8.00016H40.0002V5.3335Z" fill="#F2F4F6"/>
<path d="M50.6667 5.3335H48V8.00016H50.6667V5.3335Z" fill="#F2F4F6"/>
<path d="M58.6667 5.3335H56V8.00016H58.6667V5.3335Z" fill="#F2F4F6"/>
<path d="M61.3332 5.3335H58.6665V8.00016H61.3332V5.3335Z" fill="#F2F4F6"/>
<path d="M69.3332 5.3335H66.6665V8.00016H69.3332V5.3335Z" fill="#F2F4F6"/>
<path d="M77.3332 5.3335H74.6665V8.00016H77.3332V5.3335Z" fill="#F2F4F6"/>
<path d="M82.6667 5.3335H80V8.00016H82.6667V5.3335Z" fill="#F2F4F6"/>
<path d="M90.6667 5.3335H88V8.00016H90.6667V5.3335Z" fill="#F2F4F6"/>
<path d="M96.0002 5.3335H93.3335V8.00016H96.0002V5.3335Z" fill="#F2F4F6"/>
<path d="M104 5.3335H101.333V8.00016H104V5.3335Z" fill="#F2F4F6"/>
<path d="M109.333 5.3335H106.667V8.00016H109.333V5.3335Z" fill="#F2F4F6"/>
<path d="M112 5.3335H109.333V8.00016H112V5.3335Z" fill="#F2F4F6"/>
<path d="M114.667 5.3335H112V8.00016H114.667V5.3335Z" fill="#F2F4F6"/>
<path d="M120 5.3335H117.333V8.00016H120V5.3335Z" fill="#F2F4F6"/>
<path d="M2.66667 8H0V10.6667H2.66667V8Z" fill="#F2F4F6"/>
<path d="M8.00016 8H5.3335V10.6667H8.00016V8Z" fill="#F2F4F6"/>
<path d="M10.6667 8H8V10.6667H10.6667V8Z" fill="#F2F4F6"/>
<path d="M13.3332 8H10.6665V10.6667H13.3332V8Z" fill="#F2F4F6"/>
<path d="M18.6667 8H16V10.6667H18.6667V8Z" fill="#F2F4F6"/>
<path d="M32.0002 8H29.3335V10.6667H32.0002V8Z" fill="#F2F4F6"/>
<path d="M34.6667 8H32V10.6667H34.6667V8Z" fill="#F2F4F6"/>
<path d="M37.3332 8H34.6665V10.6667H37.3332V8Z" fill="#F2F4F6"/>
<path d="M40.0002 8H37.3335V10.6667H40.0002V8Z" fill="#F2F4F6"/>
<path d="M45.3332 8H42.6665V10.6667H45.3332V8Z" fill="#F2F4F6"/>
<path d="M48.0002 8H45.3335V10.6667H48.0002V8Z" fill="#F2F4F6"/>
<path d="M53.3332 8H50.6665V10.6667H53.3332V8Z" fill="#F2F4F6"/>
<path d="M56.0002 8H53.3335V10.6667H56.0002V8Z" fill="#F2F4F6"/>
<path d="M64.0002 8H61.3335V10.6667H64.0002V8Z" fill="#F2F4F6"/>
<path d="M74.6667 8H72V10.6667H74.6667V8Z" fill="#F2F4F6"/>
<path d="M96.0002 8H93.3335V10.6667H96.0002V8Z" fill="#F2F4F6"/>
<path d="M98.6667 8H96V10.6667H98.6667V8Z" fill="#F2F4F6"/>
<path d="M104 8H101.333V10.6667H104V8Z" fill="#F2F4F6"/>
<path d="M109.333 8H106.667V10.6667H109.333V8Z" fill="#F2F4F6"/>
<path d="M112 8H109.333V10.6667H112V8Z" fill="#F2F4F6"/>
<path d="M114.667 8H112V10.6667H114.667V8Z" fill="#F2F4F6"/>
<path d="M120 8H117.333V10.6667H120V8Z" fill="#F2F4F6"/>
<path d="M2.66667 10.6665H0V13.3332H2.66667V10.6665Z" fill="#F2F4F6"/>
<path d="M8.00016 10.6665H5.3335V13.3332H8.00016V10.6665Z" fill="#F2F4F6"/>
<path d="M10.6667 10.6665H8V13.3332H10.6667V10.6665Z" fill="#F2F4F6"/>
<path d="M13.3332 10.6665H10.6665V13.3332H13.3332V10.6665Z" fill="#F2F4F6"/>
<path d="M18.6667 10.6665H16V13.3332H18.6667V10.6665Z" fill="#F2F4F6"/>
<path d="M26.6667 10.6665H24V13.3332H26.6667V10.6665Z" fill="#F2F4F6"/>
<path d="M29.3332 10.6665H26.6665V13.3332H29.3332V10.6665Z" fill="#F2F4F6"/>
<path d="M37.3332 10.6665H34.6665V13.3332H37.3332V10.6665Z" fill="#F2F4F6"/>
<path d="M40.0002 10.6665H37.3335V13.3332H40.0002V10.6665Z" fill="#F2F4F6"/>
<path d="M42.6667 10.6665H40V13.3332H42.6667V10.6665Z" fill="#F2F4F6"/>
<path d="M48.0002 10.6665H45.3335V13.3332H48.0002V10.6665Z" fill="#F2F4F6"/>
<path d="M50.6667 10.6665H48V13.3332H50.6667V10.6665Z" fill="#F2F4F6"/>
<path d="M53.3332 10.6665H50.6665V13.3332H53.3332V10.6665Z" fill="#F2F4F6"/>
<path d="M56.0002 10.6665H53.3335V13.3332H56.0002V10.6665Z" fill="#F2F4F6"/>
<path d="M58.6667 10.6665H56V13.3332H58.6667V10.6665Z" fill="#F2F4F6"/>
<path d="M61.3332 10.6665H58.6665V13.3332H61.3332V10.6665Z" fill="#F2F4F6"/>
<path d="M64.0002 10.6665H61.3335V13.3332H64.0002V10.6665Z" fill="#F2F4F6"/>
<path d="M66.6667 10.6665H64V13.3332H66.6667V10.6665Z" fill="#F2F4F6"/>
<path d="M74.6667 10.6665H72V13.3332H74.6667V10.6665Z" fill="#F2F4F6"/>
<path d="M80.0002 10.6665H77.3335V13.3332H80.0002V10.6665Z" fill="#F2F4F6"/>
<path d="M85.3332 10.6665H82.6665V13.3332H85.3332V10.6665Z" fill="#F2F4F6"/>
<path d="M88.0002 10.6665H85.3335V13.3332H88.0002V10.6665Z" fill="#F2F4F6"/>
<path d="M90.6667 10.6665H88V13.3332H90.6667V10.6665Z" fill="#F2F4F6"/>
<path d="M93.3332 10.6665H90.6665V13.3332H93.3332V10.6665Z" fill="#F2F4F6"/>
<path d="M96.0002 10.6665H93.3335V13.3332H96.0002V10.6665Z" fill="#F2F4F6"/>
<path d="M98.6667 10.6665H96V13.3332H98.6667V10.6665Z" fill="#F2F4F6"/>
<path d="M104 10.6665H101.333V13.3332H104V10.6665Z" fill="#F2F4F6"/>
<path d="M109.333 10.6665H106.667V13.3332H109.333V10.6665Z" fill="#F2F4F6"/>
<path d="M112 10.6665H109.333V13.3332H112V10.6665Z" fill="#F2F4F6"/>
<path d="M114.667 10.6665H112V13.3332H114.667V10.6665Z" fill="#F2F4F6"/>
<path d="M120 10.6665H117.333V13.3332H120V10.6665Z" fill="#F2F4F6"/>
<path d="M2.66667 13.3335H0V16.0002H2.66667V13.3335Z" fill="#F2F4F6"/>
<path d="M18.6667 13.3335H16V16.0002H18.6667V13.3335Z" fill="#F2F4F6"/>
<path d="M24.0002 13.3335H21.3335V16.0002H24.0002V13.3335Z" fill="#F2F4F6"/>
<path d="M26.6667 13.3335H24V16.0002H26.6667V13.3335Z" fill="#F2F4F6"/>
<path d="M29.3332 13.3335H26.6665V16.0002H29.3332V13.3335Z" fill="#F2F4F6"/>
<path d="M32.0002 13.3335H29.3335V16.0002H32.0002V13.3335Z" fill="#F2F4F6"/>
<path d="M37.3332 13.3335H34.6665V16.0002H37.3332V13.3335Z" fill="#F2F4F6"/>
<path d="M42.6667 13.3335H40V16.0002H42.6667V13.3335Z" fill="#F2F4F6"/>
<path d="M45.3332 13.3335H42.6665V16.0002H45.3332V13.3335Z" fill="#F2F4F6"/>
<path d="M48.0002 13.3335H45.3335V16.0002H48.0002V13.3335Z" fill="#F2F4F6"/>
<path d="M50.6667 13.3335H48V16.0002H50.6667V13.3335Z" fill="#F2F4F6"/>
<path d="M56.0002 13.3335H53.3335V16.0002H56.0002V13.3335Z" fill="#F2F4F6"/>
<path d="M66.6667 13.3335H64V16.0002H66.6667V13.3335Z" fill="#F2F4F6"/>
<path d="M69.3332 13.3335H66.6665V16.0002H69.3332V13.3335Z" fill="#F2F4F6"/>
<path d="M74.6667 13.3335H72V16.0002H74.6667V13.3335Z" fill="#F2F4F6"/>
<path d="M77.3332 13.3335H74.6665V16.0002H77.3332V13.3335Z" fill="#F2F4F6"/>
<path d="M80.0002 13.3335H77.3335V16.0002H80.0002V13.3335Z" fill="#F2F4F6"/>
<path d="M90.6667 13.3335H88V16.0002H90.6667V13.3335Z" fill="#F2F4F6"/>
<path d="M104 13.3335H101.333V16.0002H104V13.3335Z" fill="#F2F4F6"/>
<path d="M120 13.3335H117.333V16.0002H120V13.3335Z" fill="#F2F4F6"/>
<path d="M2.66667 16H0V18.6667H2.66667V16Z" fill="#F2F4F6"/>
<path d="M5.33317 16H2.6665V18.6667H5.33317V16Z" fill="#F2F4F6"/>
<path d="M8.00016 16H5.3335V18.6667H8.00016V16Z" fill="#F2F4F6"/>
<path d="M10.6667 16H8V18.6667H10.6667V16Z" fill="#F2F4F6"/>
<path d="M13.3332 16H10.6665V18.6667H13.3332V16Z" fill="#F2F4F6"/>
<path d="M16.0002 16H13.3335V18.6667H16.0002V16Z" fill="#F2F4F6"/>
<path d="M18.6667 16H16V18.6667H18.6667V16Z" fill="#F2F4F6"/>
<path d="M24.0002 16H21.3335V18.6667H24.0002V16Z" fill="#F2F4F6"/>
<path d="M29.3332 16H26.6665V18.6667H29.3332V16Z" fill="#F2F4F6"/>
<path d="M34.6667 16H32V18.6667H34.6667V16Z" fill="#F2F4F6"/>
<path d="M40.0002 16H37.3335V18.6667H40.0002V16Z" fill="#F2F4F6"/>
<path d="M45.3332 16H42.6665V18.6667H45.3332V16Z" fill="#F2F4F6"/>
<path d="M50.6667 16H48V18.6667H50.6667V16Z" fill="#F2F4F6"/>
<path d="M56.0002 16H53.3335V18.6667H56.0002V16Z" fill="#F2F4F6"/>
<path d="M61.3332 16H58.6665V18.6667H61.3332V16Z" fill="#F2F4F6"/>
<path d="M66.6667 16H64V18.6667H66.6667V16Z" fill="#F2F4F6"/>
<path d="M72.0002 16H69.3335V18.6667H72.0002V16Z" fill="#F2F4F6"/>
<path d="M77.3332 16H74.6665V18.6667H77.3332V16Z" fill="#F2F4F6"/>
<path d="M82.6667 16H80V18.6667H82.6667V16Z" fill="#F2F4F6"/>
<path d="M88.0002 16H85.3335V18.6667H88.0002V16Z" fill="#F2F4F6"/>
<path d="M93.3332 16H90.6665V18.6667H93.3332V16Z" fill="#F2F4F6"/>
<path d="M98.6667 16H96V18.6667H98.6667V16Z" fill="#F2F4F6"/>
<path d="M104 16H101.333V18.6667H104V16Z" fill="#F2F4F6"/>
<path d="M106.667 16H104V18.6667H106.667V16Z" fill="#F2F4F6"/>
<path d="M109.333 16H106.667V18.6667H109.333V16Z" fill="#F2F4F6"/>
<path d="M112 16H109.333V18.6667H112V16Z" fill="#F2F4F6"/>
<path d="M114.667 16H112V18.6667H114.667V16Z" fill="#F2F4F6"/>
<path d="M117.333 16H114.667V18.6667H117.333V16Z" fill="#F2F4F6"/>
<path d="M120 16H117.333V18.6667H120V16Z" fill="#F2F4F6"/>
<path d="M24.0002 18.6665H21.3335V21.3332H24.0002V18.6665Z" fill="#F2F4F6"/>
<path d="M26.6667 18.6665H24V21.3332H26.6667V18.6665Z" fill="#F2F4F6"/>
<path d="M37.3332 18.6665H34.6665V21.3332H37.3332V18.6665Z" fill="#F2F4F6"/>
<path d="M40.0002 18.6665H37.3335V21.3332H40.0002V18.6665Z" fill="#F2F4F6"/>
<path d="M45.3332 18.6665H42.6665V21.3332H45.3332V18.6665Z" fill="#F2F4F6"/>
<path d="M50.6667 18.6665H48V21.3332H50.6667V18.6665Z" fill="#F2F4F6"/>
<path d="M56.0002 18.6665H53.3335V21.3332H56.0002V18.6665Z" fill="#F2F4F6"/>
<path d="M66.6667 18.6665H64V21.3332H66.6667V18.6665Z" fill="#F2F4F6"/>
<path d="M69.3332 18.6665H66.6665V21.3332H69.3332V18.6665Z" fill="#F2F4F6"/>
<path d="M72.0002 18.6665H69.3335V21.3332H72.0002V18.6665Z" fill="#F2F4F6"/>
<path d="M74.6667 18.6665H72V21.3332H74.6667V18.6665Z" fill="#F2F4F6"/>
<path d="M77.3332 18.6665H74.6665V21.3332H77.3332V18.6665Z" fill="#F2F4F6"/>
<path d="M80.0002 18.6665H77.3335V21.3332H80.0002V18.6665Z" fill="#F2F4F6"/>
<path d="M82.6667 18.6665H80V21.3332H82.6667V18.6665Z" fill="#F2F4F6"/>
<path d="M90.6667 18.6665H88V21.3332H90.6667V18.6665Z" fill="#F2F4F6"/>
<path d="M98.6667 18.6665H96V21.3332H98.6667V18.6665Z" fill="#F2F4F6"/>
<path d="M8.00016 21.3335H5.3335V24.0002H8.00016V21.3335Z" fill="#F2F4F6"/>
<path d="M10.6667 21.3335H8V24.0002H10.6667V21.3335Z" fill="#F2F4F6"/>
<path d="M13.3332 21.3335H10.6665V24.0002H13.3332V21.3335Z" fill="#F2F4F6"/>
<path d="M18.6667 21.3335H16V24.0002H18.6667V21.3335Z" fill="#F2F4F6"/>
<path d="M24.0002 21.3335H21.3335V24.0002H24.0002V21.3335Z" fill="#F2F4F6"/>
<path d="M26.6667 21.3335H24V24.0002H26.6667V21.3335Z" fill="#F2F4F6"/>
<path d="M32.0002 21.3335H29.3335V24.0002H32.0002V21.3335Z" fill="#F2F4F6"/>
<path d="M34.6667 21.3335H32V24.0002H34.6667V21.3335Z" fill="#F2F4F6"/>
<path d="M45.3332 21.3335H42.6665V24.0002H45.3332V21.3335Z" fill="#F2F4F6"/>
<path d="M53.3332 21.3335H50.6665V24.0002H53.3332V21.3335Z" fill="#F2F4F6"/>
<path d="M56.0002 21.3335H53.3335V24.0002H56.0002V21.3335Z" fill="#F2F4F6"/>
<path d="M58.6667 21.3335H56V24.0002H58.6667V21.3335Z" fill="#F2F4F6"/>
<path d="M61.3332 21.3335H58.6665V24.0002H61.3332V21.3335Z" fill="#F2F4F6"/>
<path d="M64.0002 21.3335H61.3335V24.0002H64.0002V21.3335Z" fill="#F2F4F6"/>
<path d="M66.6667 21.3335H64V24.0002H66.6667V21.3335Z" fill="#F2F4F6"/>
<path d="M74.6667 21.3335H72V24.0002H74.6667V21.3335Z" fill="#F2F4F6"/>
<path d="M77.3332 21.3335H74.6665V24.0002H77.3332V21.3335Z" fill="#F2F4F6"/>
<path d="M85.3332 21.3335H82.6665V24.0002H85.3332V21.3335Z" fill="#F2F4F6"/>
<path d="M93.3332 21.3335H90.6665V24.0002H93.3332V21.3335Z" fill="#F2F4F6"/>
<path d="M98.6667 21.3335H96V24.0002H98.6667V21.3335Z" fill="#F2F4F6"/>
<path d="M101.333 21.3335H98.6665V24.0002H101.333V21.3335Z" fill="#F2F4F6"/>
<path d="M104 21.3335H101.333V24.0002H104V21.3335Z" fill="#F2F4F6"/>
<path d="M106.667 21.3335H104V24.0002H106.667V21.3335Z" fill="#F2F4F6"/>
<path d="M114.667 21.3335H112V24.0002H114.667V21.3335Z" fill="#F2F4F6"/>
<path d="M117.333 21.3335H114.667V24.0002H117.333V21.3335Z" fill="#F2F4F6"/>
<path d="M120 21.3335H117.333V24.0002H120V21.3335Z" fill="#F2F4F6"/>
<path d="M2.66667 24H0V26.6667H2.66667V24Z" fill="#F2F4F6"/>
<path d="M5.33317 24H2.6665V26.6667H5.33317V24Z" fill="#F2F4F6"/>
<path d="M13.3332 24H10.6665V26.6667H13.3332V24Z" fill="#F2F4F6"/>
<path d="M26.6667 24H24V26.6667H26.6667V24Z" fill="#F2F4F6"/>
<path d="M29.3332 24H26.6665V26.6667H29.3332V24Z" fill="#F2F4F6"/>
<path d="M40.0002 24H37.3335V26.6667H40.0002V24Z" fill="#F2F4F6"/>
<path d="M42.6667 24H40V26.6667H42.6667V24Z" fill="#F2F4F6"/>
<path d="M48.0002 24H45.3335V26.6667H48.0002V24Z" fill="#F2F4F6"/>
<path d="M53.3332 24H50.6665V26.6667H53.3332V24Z" fill="#F2F4F6"/>
<path d="M58.6667 24H56V26.6667H58.6667V24Z" fill="#F2F4F6"/>
<path d="M61.3332 24H58.6665V26.6667H61.3332V24Z" fill="#F2F4F6"/>
<path d="M64.0002 24H61.3335V26.6667H64.0002V24Z" fill="#F2F4F6"/>
<path d="M66.6667 24H64V26.6667H66.6667V24Z" fill="#F2F4F6"/>
<path d="M72.0002 24H69.3335V26.6667H72.0002V24Z" fill="#F2F4F6"/>
<path d="M74.6667 24H72V26.6667H74.6667V24Z" fill="#F2F4F6"/>
<path d="M80.0002 24H77.3335V26.6667H80.0002V24Z" fill="#F2F4F6"/>
<path d="M82.6667 24H80V26.6667H82.6667V24Z" fill="#F2F4F6"/>
<path d="M85.3332 24H82.6665V26.6667H85.3332V24Z" fill="#F2F4F6"/>
<path d="M88.0002 24H85.3335V26.6667H88.0002V24Z" fill="#F2F4F6"/>
<path d="M90.6667 24H88V26.6667H90.6667V24Z" fill="#F2F4F6"/>
<path d="M93.3332 24H90.6665V26.6667H93.3332V24Z" fill="#F2F4F6"/>
<path d="M96.0002 24H93.3335V26.6667H96.0002V24Z" fill="#F2F4F6"/>
<path d="M98.6667 24H96V26.6667H98.6667V24Z" fill="#F2F4F6"/>
<path d="M109.333 24H106.667V26.6667H109.333V24Z" fill="#F2F4F6"/>
<path d="M114.667 24H112V26.6667H114.667V24Z" fill="#F2F4F6"/>
<path d="M117.333 24H114.667V26.6667H117.333V24Z" fill="#F2F4F6"/>
<path d="M2.66667 26.6665H0V29.3332H2.66667V26.6665Z" fill="#F2F4F6"/>
<path d="M18.6667 26.6665H16V29.3332H18.6667V26.6665Z" fill="#F2F4F6"/>
<path d="M21.3332 26.6665H18.6665V29.3332H21.3332V26.6665Z" fill="#F2F4F6"/>
<path d="M34.6667 26.6665H32V29.3332H34.6667V26.6665Z" fill="#F2F4F6"/>
<path d="M48.0002 26.6665H45.3335V29.3332H48.0002V26.6665Z" fill="#F2F4F6"/>
<path d="M53.3332 26.6665H50.6665V29.3332H53.3332V26.6665Z" fill="#F2F4F6"/>
<path d="M58.6667 26.6665H56V29.3332H58.6667V26.6665Z" fill="#F2F4F6"/>
<path d="M61.3332 26.6665H58.6665V29.3332H61.3332V26.6665Z" fill="#F2F4F6"/>
<path d="M64.0002 26.6665H61.3335V29.3332H64.0002V26.6665Z" fill="#F2F4F6"/>
<path d="M66.6667 26.6665H64V29.3332H66.6667V26.6665Z" fill="#F2F4F6"/>
<path d="M72.0002 26.6665H69.3335V29.3332H72.0002V26.6665Z" fill="#F2F4F6"/>
<path d="M74.6667 26.6665H72V29.3332H74.6667V26.6665Z" fill="#F2F4F6"/>
<path d="M77.3332 26.6665H74.6665V29.3332H77.3332V26.6665Z" fill="#F2F4F6"/>
<path d="M80.0002 26.6665H77.3335V29.3332H80.0002V26.6665Z" fill="#F2F4F6"/>
<path d="M82.6667 26.6665H80V29.3332H82.6667V26.6665Z" fill="#F2F4F6"/>
<path d="M85.3332 26.6665H82.6665V29.3332H85.3332V26.6665Z" fill="#F2F4F6"/>
<path d="M90.6667 26.6665H88V29.3332H90.6667V26.6665Z" fill="#F2F4F6"/>
<path d="M93.3332 26.6665H90.6665V29.3332H93.3332V26.6665Z" fill="#F2F4F6"/>
<path d="M96.0002 26.6665H93.3335V29.3332H96.0002V26.6665Z" fill="#F2F4F6"/>
<path d="M101.333 26.6665H98.6665V29.3332H101.333V26.6665Z" fill="#F2F4F6"/>
<path d="M104 26.6665H101.333V29.3332H104V26.6665Z" fill="#F2F4F6"/>
<path d="M106.667 26.6665H104V29.3332H106.667V26.6665Z" fill="#F2F4F6"/>
<path d="M2.66667 29.3335H0V32.0002H2.66667V29.3335Z" fill="#F2F4F6"/>
<path d="M10.6667 29.3335H8V32.0002H10.6667V29.3335Z" fill="#F2F4F6"/>
<path d="M13.3332 29.3335H10.6665V32.0002H13.3332V29.3335Z" fill="#F2F4F6"/>
<path d="M16.0002 29.3335H13.3335V32.0002H16.0002V29.3335Z" fill="#F2F4F6"/>
<path d="M21.3332 29.3335H18.6665V32.0002H21.3332V29.3335Z" fill="#F2F4F6"/>
<path d="M32.0002 29.3335H29.3335V32.0002H32.0002V29.3335Z" fill="#F2F4F6"/>
<path d="M45.3332 29.3335H42.6665V32.0002H45.3332V29.3335Z" fill="#F2F4F6"/>
<path d="M48.0002 29.3335H45.3335V32.0002H48.0002V29.3335Z" fill="#F2F4F6"/>
<path d="M50.6667 29.3335H48V32.0002H50.6667V29.3335Z" fill="#F2F4F6"/>
<path d="M53.3332 29.3335H50.6665V32.0002H53.3332V29.3335Z" fill="#F2F4F6"/>
<path d="M58.6667 29.3335H56V32.0002H58.6667V29.3335Z" fill="#F2F4F6"/>
<path d="M61.3332 29.3335H58.6665V32.0002H61.3332V29.3335Z" fill="#F2F4F6"/>
<path d="M64.0002 29.3335H61.3335V32.0002H64.0002V29.3335Z" fill="#F2F4F6"/>
<path d="M66.6667 29.3335H64V32.0002H66.6667V29.3335Z" fill="#F2F4F6"/>
<path d="M74.6667 29.3335H72V32.0002H74.6667V29.3335Z" fill="#F2F4F6"/>
<path d="M77.3332 29.3335H74.6665V32.0002H77.3332V29.3335Z" fill="#F2F4F6"/>
<path d="M80.0002 29.3335H77.3335V32.0002H80.0002V29.3335Z" fill="#F2F4F6"/>
<path d="M82.6667 29.3335H80V32.0002H82.6667V29.3335Z" fill="#F2F4F6"/>
<path d="M90.6667 29.3335H88V32.0002H90.6667V29.3335Z" fill="#F2F4F6"/>
<path d="M96.0002 29.3335H93.3335V32.0002H96.0002V29.3335Z" fill="#F2F4F6"/>
<path d="M98.6667 29.3335H96V32.0002H98.6667V29.3335Z" fill="#F2F4F6"/>
<path d="M101.333 29.3335H98.6665V32.0002H101.333V29.3335Z" fill="#F2F4F6"/>
<path d="M106.667 29.3335H104V32.0002H106.667V29.3335Z" fill="#F2F4F6"/>
<path d="M112 29.3335H109.333V32.0002H112V29.3335Z" fill="#F2F4F6"/>
<path d="M120 29.3335H117.333V32.0002H120V29.3335Z" fill="#F2F4F6"/>
<path d="M2.66667 32H0V34.6667H2.66667V32Z" fill="#F2F4F6"/>
<path d="M13.3332 32H10.6665V34.6667H13.3332V32Z" fill="#F2F4F6"/>
<path d="M18.6667 32H16V34.6667H18.6667V32Z" fill="#F2F4F6"/>
<path d="M26.6667 32H24V34.6667H26.6667V32Z" fill="#F2F4F6"/>
<path d="M29.3332 32H26.6665V34.6667H29.3332V32Z" fill="#F2F4F6"/>
<path d="M32.0002 32H29.3335V34.6667H32.0002V32Z" fill="#F2F4F6"/>
<path d="M34.6667 32H32V34.6667H34.6667V32Z" fill="#F2F4F6"/>
<path d="M40.0002 32H37.3335V34.6667H40.0002V32Z" fill="#F2F4F6"/>
<path d="M45.3332 32H42.6665V34.6667H45.3332V32Z" fill="#F2F4F6"/>
<path d="M50.6667 32H48V34.6667H50.6667V32Z" fill="#F2F4F6"/>
<path d="M53.3332 32H50.6665V34.6667H53.3332V32Z" fill="#F2F4F6"/>
<path d="M61.3332 32H58.6665V34.6667H61.3332V32Z" fill="#F2F4F6"/>
<path d="M64.0002 32H61.3335V34.6667H64.0002V32Z" fill="#F2F4F6"/>
<path d="M66.6667 32H64V34.6667H66.6667V32Z" fill="#F2F4F6"/>
<path d="M77.3332 32H74.6665V34.6667H77.3332V32Z" fill="#F2F4F6"/>
<path d="M85.3332 32H82.6665V34.6667H85.3332V32Z" fill="#F2F4F6"/>
<path d="M88.0002 32H85.3335V34.6667H88.0002V32Z" fill="#F2F4F6"/>
<path d="M90.6667 32H88V34.6667H90.6667V32Z" fill="#F2F4F6"/>
<path d="M93.3332 32H90.6665V34.6667H93.3332V32Z" fill="#F2F4F6"/>
<path d="M96.0002 32H93.3335V34.6667H96.0002V32Z" fill="#F2F4F6"/>
<path d="M101.333 32H98.6665V34.6667H101.333V32Z" fill="#F2F4F6"/>
<path d="M104 32H101.333V34.6667H104V32Z" fill="#F2F4F6"/>
<path d="M106.667 32H104V34.6667H106.667V32Z" fill="#F2F4F6"/>
<path d="M109.333 32H106.667V34.6667H109.333V32Z" fill="#F2F4F6"/>
<path d="M112 32H109.333V34.6667H112V32Z" fill="#F2F4F6"/>
<path d="M117.333 32H114.667V34.6667H117.333V32Z" fill="#F2F4F6"/>
<path d="M2.66667 34.6665H0V37.3332H2.66667V34.6665Z" fill="#F2F4F6"/>
<path d="M5.33317 34.6665H2.6665V37.3332H5.33317V34.6665Z" fill="#F2F4F6"/>
<path d="M16.0002 34.6665H13.3335V37.3332H16.0002V34.6665Z" fill="#F2F4F6"/>
<path d="M21.3332 34.6665H18.6665V37.3332H21.3332V34.6665Z" fill="#F2F4F6"/>
<path d="M26.6667 34.6665H24V37.3332H26.6667V34.6665Z" fill="#F2F4F6"/>
<path d="M29.3332 34.6665H26.6665V37.3332H29.3332V34.6665Z" fill="#F2F4F6"/>
<path d="M37.3332 34.6665H34.6665V37.3332H37.3332V34.6665Z" fill="#F2F4F6"/>
<path d="M40.0002 34.6665H37.3335V37.3332H40.0002V34.6665Z" fill="#F2F4F6"/>
<path d="M42.6667 34.6665H40V37.3332H42.6667V34.6665Z" fill="#F2F4F6"/>
<path d="M45.3332 34.6665H42.6665V37.3332H45.3332V34.6665Z" fill="#F2F4F6"/>
<path d="M56.0002 34.6665H53.3335V37.3332H56.0002V34.6665Z" fill="#F2F4F6"/>
<path d="M58.6667 34.6665H56V37.3332H58.6667V34.6665Z" fill="#F2F4F6"/>
<path d="M61.3332 34.6665H58.6665V37.3332H61.3332V34.6665Z" fill="#F2F4F6"/>
<path d="M69.3332 34.6665H66.6665V37.3332H69.3332V34.6665Z" fill="#F2F4F6"/>
<path d="M72.0002 34.6665H69.3335V37.3332H72.0002V34.6665Z" fill="#F2F4F6"/>
<path d="M77.3332 34.6665H74.6665V37.3332H77.3332V34.6665Z" fill="#F2F4F6"/>
<path d="M80.0002 34.6665H77.3335V37.3332H80.0002V34.6665Z" fill="#F2F4F6"/>
<path d="M88.0002 34.6665H85.3335V37.3332H88.0002V34.6665Z" fill="#F2F4F6"/>
<path d="M93.3332 34.6665H90.6665V37.3332H93.3332V34.6665Z" fill="#F2F4F6"/>
<path d="M96.0002 34.6665H93.3335V37.3332H96.0002V34.6665Z" fill="#F2F4F6"/>
<path d="M98.6667 34.6665H96V37.3332H98.6667V34.6665Z" fill="#F2F4F6"/>
<path d="M101.333 34.6665H98.6665V37.3332H101.333V34.6665Z" fill="#F2F4F6"/>
<path d="M106.667 34.6665H104V37.3332H106.667V34.6665Z" fill="#F2F4F6"/>
<path d="M109.333 34.6665H106.667V37.3332H109.333V34.6665Z" fill="#F2F4F6"/>
<path d="M114.667 34.6665H112V37.3332H114.667V34.6665Z" fill="#F2F4F6"/>
<path d="M117.333 34.6665H114.667V37.3332H117.333V34.6665Z" fill="#F2F4F6"/>
<path d="M5.33317 37.3335H2.6665V40.0002H5.33317V37.3335Z" fill="#F2F4F6"/>
<path d="M8.00016 37.3335H5.3335V40.0002H8.00016V37.3335Z" fill="#F2F4F6"/>
<path d="M18.6667 37.3335H16V40.0002H18.6667V37.3335Z" fill="#F2F4F6"/>
<path d="M21.3332 37.3335H18.6665V40.0002H21.3332V37.3335Z" fill="#F2F4F6"/>
<path d="M24.0002 37.3335H21.3335V40.0002H24.0002V37.3335Z" fill="#F2F4F6"/>
<path d="M26.6667 37.3335H24V40.0002H26.6667V37.3335Z" fill="#F2F4F6"/>
<path d="M37.3332 37.3335H34.6665V40.0002H37.3332V37.3335Z" fill="#F2F4F6"/>
<path d="M42.6667 37.3335H40V40.0002H42.6667V37.3335Z" fill="#F2F4F6"/>
<path d="M45.3332 37.3335H42.6665V40.0002H45.3332V37.3335Z" fill="#F2F4F6"/>
<path d="M50.6667 37.3335H48V40.0002H50.6667V37.3335Z" fill="#F2F4F6"/>
<path d="M56.0002 37.3335H53.3335V40.0002H56.0002V37.3335Z" fill="#F2F4F6"/>
<path d="M58.6667 37.3335H56V40.0002H58.6667V37.3335Z" fill="#F2F4F6"/>
<path d="M61.3332 37.3335H58.6665V40.0002H61.3332V37.3335Z" fill="#F2F4F6"/>
<path d="M74.6667 37.3335H72V40.0002H74.6667V37.3335Z" fill="#F2F4F6"/>
<path d="M80.0002 37.3335H77.3335V40.0002H80.0002V37.3335Z" fill="#F2F4F6"/>
<path d="M85.3332 37.3335H82.6665V40.0002H85.3332V37.3335Z" fill="#F2F4F6"/>
<path d="M90.6667 37.3335H88V40.0002H90.6667V37.3335Z" fill="#F2F4F6"/>
<path d="M93.3332 37.3335H90.6665V40.0002H93.3332V37.3335Z" fill="#F2F4F6"/>
<path d="M112 37.3335H109.333V40.0002H112V37.3335Z" fill="#F2F4F6"/>
<path d="M117.333 37.3335H114.667V40.0002H117.333V37.3335Z" fill="#F2F4F6"/>
<path d="M2.66667 40H0V42.6667H2.66667V40Z" fill="#F2F4F6"/>
<path d="M8.00016 40H5.3335V42.6667H8.00016V40Z" fill="#F2F4F6"/>
<path d="M10.6667 40H8V42.6667H10.6667V40Z" fill="#F2F4F6"/>
<path d="M13.3332 40H10.6665V42.6667H13.3332V40Z" fill="#F2F4F6"/>
<path d="M16.0002 40H13.3335V42.6667H16.0002V40Z" fill="#F2F4F6"/>
<path d="M21.3332 40H18.6665V42.6667H21.3332V40Z" fill="#F2F4F6"/>
<path d="M26.6667 40H24V42.6667H26.6667V40Z" fill="#F2F4F6"/>
<path d="M37.3332 40H34.6665V42.6667H37.3332V40Z" fill="#F2F4F6"/>
<path d="M42.6667 40H40V42.6667H42.6667V40Z" fill="#F2F4F6"/>
<path d="M45.3332 40H42.6665V42.6667H45.3332V40Z" fill="#F2F4F6"/>
<path d="M48.0002 40H45.3335V42.6667H48.0002V40Z" fill="#F2F4F6"/>
<path d="M50.6667 40H48V42.6667H50.6667V40Z" fill="#F2F4F6"/>
<path d="M53.3332 40H50.6665V42.6667H53.3332V40Z" fill="#F2F4F6"/>
<path d="M56.0002 40H53.3335V42.6667H56.0002V40Z" fill="#F2F4F6"/>
<path d="M58.6667 40H56V42.6667H58.6667V40Z" fill="#F2F4F6"/>
<path d="M64.0002 40H61.3335V42.6667H64.0002V40Z" fill="#F2F4F6"/>
<path d="M66.6667 40H64V42.6667H66.6667V40Z" fill="#F2F4F6"/>
<path d="M69.3332 40H66.6665V42.6667H69.3332V40Z" fill="#F2F4F6"/>
<path d="M82.6667 40H80V42.6667H82.6667V40Z" fill="#F2F4F6"/>
<path d="M85.3332 40H82.6665V42.6667H85.3332V40Z" fill="#F2F4F6"/>
<path d="M96.0002 40H93.3335V42.6667H96.0002V40Z" fill="#F2F4F6"/>
<path d="M98.6667 40H96V42.6667H98.6667V40Z" fill="#F2F4F6"/>
<path d="M101.333 40H98.6665V42.6667H101.333V40Z" fill="#F2F4F6"/>
<path d="M106.667 40H104V42.6667H106.667V40Z" fill="#F2F4F6"/>
<path d="M112 40H109.333V42.6667H112V40Z" fill="#F2F4F6"/>
<path d="M117.333 40H114.667V42.6667H117.333V40Z" fill="#F2F4F6"/>
<path d="M120 40H117.333V42.6667H120V40Z" fill="#F2F4F6"/>
<path d="M5.33317 42.6665H2.6665V45.3332H5.33317V42.6665Z" fill="#F2F4F6"/>
<path d="M8.00016 42.6665H5.3335V45.3332H8.00016V42.6665Z" fill="#F2F4F6"/>
<path d="M16.0002 42.6665H13.3335V45.3332H16.0002V42.6665Z" fill="#F2F4F6"/>
<path d="M18.6667 42.6665H16V45.3332H18.6667V42.6665Z" fill="#F2F4F6"/>
<path d="M24.0002 42.6665H21.3335V45.3332H24.0002V42.6665Z" fill="#F2F4F6"/>
<path d="M26.6667 42.6665H24V45.3332H26.6667V42.6665Z" fill="#F2F4F6"/>
<path d="M29.3332 42.6665H26.6665V45.3332H29.3332V42.6665Z" fill="#F2F4F6"/>
<path d="M34.6667 42.6665H32V45.3332H34.6667V42.6665Z" fill="#F2F4F6"/>
<path d="M42.6667 42.6665H40V45.3332H42.6667V42.6665Z" fill="#F2F4F6"/>
<path d="M45.3332 42.6665H42.6665V45.3332H45.3332V42.6665Z" fill="#F2F4F6"/>
<path d="M48.0002 42.6665H45.3335V45.3332H48.0002V42.6665Z" fill="#F2F4F6"/>
<path d="M53.3332 42.6665H50.6665V45.3332H53.3332V42.6665Z" fill="#F2F4F6"/>
<path d="M58.6667 42.6665H56V45.3332H58.6667V42.6665Z" fill="#F2F4F6"/>
<path d="M61.3332 42.6665H58.6665V45.3332H61.3332V42.6665Z" fill="#F2F4F6"/>
<path d="M64.0002 42.6665H61.3335V45.3332H64.0002V42.6665Z" fill="#F2F4F6"/>
<path d="M72.0002 42.6665H69.3335V45.3332H72.0002V42.6665Z" fill="#F2F4F6"/>
<path d="M74.6667 42.6665H72V45.3332H74.6667V42.6665Z" fill="#F2F4F6"/>
<path d="M80.0002 42.6665H77.3335V45.3332H80.0002V42.6665Z" fill="#F2F4F6"/>
<path d="M85.3332 42.6665H82.6665V45.3332H85.3332V42.6665Z" fill="#F2F4F6"/>
<path d="M88.0002 42.6665H85.3335V45.3332H88.0002V42.6665Z" fill="#F2F4F6"/>
<path d="M90.6667 42.6665H88V45.3332H90.6667V42.6665Z" fill="#F2F4F6"/>
<path d="M93.3332 42.6665H90.6665V45.3332H93.3332V42.6665Z" fill="#F2F4F6"/>
<path d="M96.0002 42.6665H93.3335V45.3332H96.0002V42.6665Z" fill="#F2F4F6"/>
<path d="M98.6667 42.6665H96V45.3332H98.6667V42.6665Z" fill="#F2F4F6"/>
<path d="M101.333 42.6665H98.6665V45.3332H101.333V42.6665Z" fill="#F2F4F6"/>
<path d="M104 42.6665H101.333V45.3332H104V42.6665Z" fill="#F2F4F6"/>
<path d="M106.667 42.6665H104V45.3332H106.667V42.6665Z" fill="#F2F4F6"/>
<path d="M117.333 42.6665H114.667V45.3332H117.333V42.6665Z" fill="#F2F4F6"/>
<path d="M2.66667 45.3335H0V48.0002H2.66667V45.3335Z" fill="#F2F4F6"/>
<path d="M8.00016 45.3335H5.3335V48.0002H8.00016V45.3335Z" fill="#F2F4F6"/>
<path d="M16.0002 45.3335H13.3335V48.0002H16.0002V45.3335Z" fill="#F2F4F6"/>
<path d="M21.3332 45.3335H18.6665V48.0002H21.3332V45.3335Z" fill="#F2F4F6"/>
<path d="M24.0002 45.3335H21.3335V48.0002H24.0002V45.3335Z" fill="#F2F4F6"/>
<path d="M32.0002 45.3335H29.3335V48.0002H32.0002V45.3335Z" fill="#F2F4F6"/>
<path d="M37.3332 45.3335H34.6665V48.0002H37.3332V45.3335Z" fill="#F2F4F6"/>
<path d="M40.0002 45.3335H37.3335V48.0002H40.0002V45.3335Z" fill="#F2F4F6"/>
<path d="M42.6667 45.3335H40V48.0002H42.6667V45.3335Z" fill="#F2F4F6"/>
<path d="M50.6667 45.3335H48V48.0002H50.6667V45.3335Z" fill="#F2F4F6"/>
<path d="M56.0002 45.3335H53.3335V48.0002H56.0002V45.3335Z" fill="#F2F4F6"/>
<path d="M69.3332 45.3335H66.6665V48.0002H69.3332V45.3335Z" fill="#F2F4F6"/>
<path d="M77.3332 45.3335H74.6665V48.0002H77.3332V45.3335Z" fill="#F2F4F6"/>
<path d="M80.0002 45.3335H77.3335V48.0002H80.0002V45.3335Z" fill="#F2F4F6"/>
<path d="M82.6667 45.3335H80V48.0002H82.6667V45.3335Z" fill="#F2F4F6"/>
<path d="M88.0002 45.3335H85.3335V48.0002H88.0002V45.3335Z" fill="#F2F4F6"/>
<path d="M93.3332 45.3335H90.6665V48.0002H93.3332V45.3335Z" fill="#F2F4F6"/>
<path d="M96.0002 45.3335H93.3335V48.0002H96.0002V45.3335Z" fill="#F2F4F6"/>
<path d="M98.6667 45.3335H96V48.0002H98.6667V45.3335Z" fill="#F2F4F6"/>
<path d="M109.333 45.3335H106.667V48.0002H109.333V45.3335Z" fill="#F2F4F6"/>
<path d="M114.667 45.3335H112V48.0002H114.667V45.3335Z" fill="#F2F4F6"/>
<path d="M117.333 45.3335H114.667V48.0002H117.333V45.3335Z" fill="#F2F4F6"/>
<path d="M120 45.3335H117.333V48.0002H120V45.3335Z" fill="#F2F4F6"/>
<path d="M13.3332 48H10.6665V50.6667H13.3332V48Z" fill="#F2F4F6"/>
<path d="M18.6667 48H16V50.6667H18.6667V48Z" fill="#F2F4F6"/>
<path d="M21.3332 48H18.6665V50.6667H21.3332V48Z" fill="#F2F4F6"/>
<path d="M40.0002 48H37.3335V50.6667H40.0002V48Z" fill="#F2F4F6"/>
<path d="M42.6667 48H40V50.6667H42.6667V48Z" fill="#F2F4F6"/>
<path d="M45.3332 48H42.6665V50.6667H45.3332V48Z" fill="#F2F4F6"/>
<path d="M48.0002 48H45.3335V50.6667H48.0002V48Z" fill="#F2F4F6"/>
<path d="M53.3332 48H50.6665V50.6667H53.3332V48Z" fill="#F2F4F6"/>
<path d="M56.0002 48H53.3335V50.6667H56.0002V48Z" fill="#F2F4F6"/>
<path d="M69.3332 48H66.6665V50.6667H69.3332V48Z" fill="#F2F4F6"/>
<path d="M80.0002 48H77.3335V50.6667H80.0002V48Z" fill="#F2F4F6"/>
<path d="M82.6667 48H80V50.6667H82.6667V48Z" fill="#F2F4F6"/>
<path d="M85.3332 48H82.6665V50.6667H85.3332V48Z" fill="#F2F4F6"/>
<path d="M93.3332 48H90.6665V50.6667H93.3332V48Z" fill="#F2F4F6"/>
<path d="M2.66667 50.6665H0V53.3332H2.66667V50.6665Z" fill="#F2F4F6"/>
<path d="M5.33317 50.6665H2.6665V53.3332H5.33317V50.6665Z" fill="#F2F4F6"/>
<path d="M10.6667 50.6665H8V53.3332H10.6667V50.6665Z" fill="#F2F4F6"/>
<path d="M13.3332 50.6665H10.6665V53.3332H13.3332V50.6665Z" fill="#F2F4F6"/>
<path d="M16.0002 50.6665H13.3335V53.3332H16.0002V50.6665Z" fill="#F2F4F6"/>
<path d="M21.3332 50.6665H18.6665V53.3332H21.3332V50.6665Z" fill="#F2F4F6"/>
<path d="M24.0002 50.6665H21.3335V53.3332H24.0002V50.6665Z" fill="#F2F4F6"/>
<path d="M34.6667 50.6665H32V53.3332H34.6667V50.6665Z" fill="#F2F4F6"/>
<path d="M37.3332 50.6665H34.6665V53.3332H37.3332V50.6665Z" fill="#F2F4F6"/>
<path d="M40.0002 50.6665H37.3335V53.3332H40.0002V50.6665Z" fill="#F2F4F6"/>
<path d="M42.6667 50.6665H40V53.3332H42.6667V50.6665Z" fill="#F2F4F6"/>
<path d="M48.0002 50.6665H45.3335V53.3332H48.0002V50.6665Z" fill="#F2F4F6"/>
<path d="M53.3332 50.6665H50.6665V53.3332H53.3332V50.6665Z" fill="#F2F4F6"/>
<path d="M58.6667 50.6665H56V53.3332H58.6667V50.6665Z" fill="#F2F4F6"/>
<path d="M72.0002 50.6665H69.3335V53.3332H72.0002V50.6665Z" fill="#F2F4F6"/>
<path d="M82.6667 50.6665H80V53.3332H82.6667V50.6665Z" fill="#F2F4F6"/>
<path d="M85.3332 50.6665H82.6665V53.3332H85.3332V50.6665Z" fill="#F2F4F6"/>
<path d="M96.0002 50.6665H93.3335V53.3332H96.0002V50.6665Z" fill="#F2F4F6"/>
<path d="M98.6667 50.6665H96V53.3332H98.6667V50.6665Z" fill="#F2F4F6"/>
<path d="M101.333 50.6665H98.6665V53.3332H101.333V50.6665Z" fill="#F2F4F6"/>
<path d="M106.667 50.6665H104V53.3332H106.667V50.6665Z" fill="#F2F4F6"/>
<path d="M112 50.6665H109.333V53.3332H112V50.6665Z" fill="#F2F4F6"/>
<path d="M117.333 50.6665H114.667V53.3332H117.333V50.6665Z" fill="#F2F4F6"/>
<path d="M120 50.6665H117.333V53.3332H120V50.6665Z" fill="#F2F4F6"/>
<path d="M5.33317 53.3335H2.6665V56.0002H5.33317V53.3335Z" fill="#F2F4F6"/>
<path d="M10.6667 53.3335H8V56.0002H10.6667V53.3335Z" fill="#F2F4F6"/>
<path d="M13.3332 53.3335H10.6665V56.0002H13.3332V53.3335Z" fill="#F2F4F6"/>
<path d="M16.0002 53.3335H13.3335V56.0002H16.0002V53.3335Z" fill="#F2F4F6"/>
<path d="M18.6667 53.3335H16V56.0002H18.6667V53.3335Z" fill="#F2F4F6"/>
<path d="M21.3332 53.3335H18.6665V56.0002H21.3332V53.3335Z" fill="#F2F4F6"/>
<path d="M24.0002 53.3335H21.3335V56.0002H24.0002V53.3335Z" fill="#F2F4F6"/>
<path d="M40.0002 53.3335H37.3335V56.0002H40.0002V53.3335Z" fill="#F2F4F6"/>
<path d="M45.3332 53.3335H42.6665V56.0002H45.3332V53.3335Z" fill="#F2F4F6"/>
<path d="M53.3332 53.3335H50.6665V56.0002H53.3332V53.3335Z" fill="#F2F4F6"/>
<path d="M56.0002 53.3335H53.3335V56.0002H56.0002V53.3335Z" fill="#F2F4F6"/>
<path d="M58.6667 53.3335H56V56.0002H58.6667V53.3335Z" fill="#F2F4F6"/>
<path d="M61.3332 53.3335H58.6665V56.0002H61.3332V53.3335Z" fill="#F2F4F6"/>
<path d="M64.0002 53.3335H61.3335V56.0002H64.0002V53.3335Z" fill="#F2F4F6"/>
<path d="M66.6667 53.3335H64V56.0002H66.6667V53.3335Z" fill="#F2F4F6"/>
<path d="M69.3332 53.3335H66.6665V56.0002H69.3332V53.3335Z" fill="#F2F4F6"/>
<path d="M77.3332 53.3335H74.6665V56.0002H77.3332V53.3335Z" fill="#F2F4F6"/>
<path d="M82.6667 53.3335H80V56.0002H82.6667V53.3335Z" fill="#F2F4F6"/>
<path d="M90.6667 53.3335H88V56.0002H90.6667V53.3335Z" fill="#F2F4F6"/>
<path d="M93.3332 53.3335H90.6665V56.0002H93.3332V53.3335Z" fill="#F2F4F6"/>
<path d="M96.0002 53.3335H93.3335V56.0002H96.0002V53.3335Z" fill="#F2F4F6"/>
<path d="M98.6667 53.3335H96V56.0002H98.6667V53.3335Z" fill="#F2F4F6"/>
<path d="M101.333 53.3335H98.6665V56.0002H101.333V53.3335Z" fill="#F2F4F6"/>
<path d="M104 53.3335H101.333V56.0002H104V53.3335Z" fill="#F2F4F6"/>
<path d="M106.667 53.3335H104V56.0002H106.667V53.3335Z" fill="#F2F4F6"/>
<path d="M109.333 53.3335H106.667V56.0002H109.333V53.3335Z" fill="#F2F4F6"/>
<path d="M117.333 53.3335H114.667V56.0002H117.333V53.3335Z" fill="#F2F4F6"/>
<path d="M8.00016 56H5.3335V58.6667H8.00016V56Z" fill="#F2F4F6"/>
<path d="M10.6667 56H8V58.6667H10.6667V56Z" fill="#F2F4F6"/>
<path d="M13.3332 56H10.6665V58.6667H13.3332V56Z" fill="#F2F4F6"/>
<path d="M24.0002 56H21.3335V58.6667H24.0002V56Z" fill="#F2F4F6"/>
<path d="M29.3332 56H26.6665V58.6667H29.3332V56Z" fill="#F2F4F6"/>
<path d="M42.6667 56H40V58.6667H42.6667V56Z" fill="#F2F4F6"/>
<path d="M45.3332 56H42.6665V58.6667H45.3332V56Z" fill="#F2F4F6"/>
<path d="M48.0002 56H45.3335V58.6667H48.0002V56Z" fill="#F2F4F6"/>
<path d="M56.0002 56H53.3335V58.6667H56.0002V56Z" fill="#F2F4F6"/>
<path d="M66.6667 56H64V58.6667H66.6667V56Z" fill="#F2F4F6"/>
<path d="M69.3332 56H66.6665V58.6667H69.3332V56Z" fill="#F2F4F6"/>
<path d="M74.6667 56H72V58.6667H74.6667V56Z" fill="#F2F4F6"/>
<path d="M77.3332 56H74.6665V58.6667H77.3332V56Z" fill="#F2F4F6"/>
<path d="M82.6667 56H80V58.6667H82.6667V56Z" fill="#F2F4F6"/>
<path d="M88.0002 56H85.3335V58.6667H88.0002V56Z" fill="#F2F4F6"/>
<path d="M90.6667 56H88V58.6667H90.6667V56Z" fill="#F2F4F6"/>
<path d="M93.3332 56H90.6665V58.6667H93.3332V56Z" fill="#F2F4F6"/>
<path d="M96.0002 56H93.3335V58.6667H96.0002V56Z" fill="#F2F4F6"/>
<path d="M98.6667 56H96V58.6667H98.6667V56Z" fill="#F2F4F6"/>
<path d="M109.333 56H106.667V58.6667H109.333V56Z" fill="#F2F4F6"/>
<path d="M114.667 56H112V58.6667H114.667V56Z" fill="#F2F4F6"/>
<path d="M2.66667 58.6665H0V61.3332H2.66667V58.6665Z" fill="#F2F4F6"/>
<path d="M8.00016 58.6665H5.3335V61.3332H8.00016V58.6665Z" fill="#F2F4F6"/>
<path d="M13.3332 58.6665H10.6665V61.3332H13.3332V58.6665Z" fill="#F2F4F6"/>
<path d="M18.6667 58.6665H16V61.3332H18.6667V58.6665Z" fill="#F2F4F6"/>
<path d="M24.0002 58.6665H21.3335V61.3332H24.0002V58.6665Z" fill="#F2F4F6"/>
<path d="M26.6667 58.6665H24V61.3332H26.6667V58.6665Z" fill="#F2F4F6"/>
<path d="M29.3332 58.6665H26.6665V61.3332H29.3332V58.6665Z" fill="#F2F4F6"/>
<path d="M32.0002 58.6665H29.3335V61.3332H32.0002V58.6665Z" fill="#F2F4F6"/>
<path d="M37.3332 58.6665H34.6665V61.3332H37.3332V58.6665Z" fill="#F2F4F6"/>
<path d="M45.3332 58.6665H42.6665V61.3332H45.3332V58.6665Z" fill="#F2F4F6"/>
<path d="M48.0002 58.6665H45.3335V61.3332H48.0002V58.6665Z" fill="#F2F4F6"/>
<path d="M50.6667 58.6665H48V61.3332H50.6667V58.6665Z" fill="#F2F4F6"/>
<path d="M53.3332 58.6665H50.6665V61.3332H53.3332V58.6665Z" fill="#F2F4F6"/>
<path d="M56.0002 58.6665H53.3335V61.3332H56.0002V58.6665Z" fill="#F2F4F6"/>
<path d="M61.3332 58.6665H58.6665V61.3332H61.3332V58.6665Z" fill="#F2F4F6"/>
<path d="M66.6667 58.6665H64V61.3332H66.6667V58.6665Z" fill="#F2F4F6"/>
<path d="M74.6667 58.6665H72V61.3332H74.6667V58.6665Z" fill="#F2F4F6"/>
<path d="M77.3332 58.6665H74.6665V61.3332H77.3332V58.6665Z" fill="#F2F4F6"/>
<path d="M82.6667 58.6665H80V61.3332H82.6667V58.6665Z" fill="#F2F4F6"/>
<path d="M85.3332 58.6665H82.6665V61.3332H85.3332V58.6665Z" fill="#F2F4F6"/>
<path d="M98.6667 58.6665H96V61.3332H98.6667V58.6665Z" fill="#F2F4F6"/>
<path d="M104 58.6665H101.333V61.3332H104V58.6665Z" fill="#F2F4F6"/>
<path d="M109.333 58.6665H106.667V61.3332H109.333V58.6665Z" fill="#F2F4F6"/>
<path d="M117.333 58.6665H114.667V61.3332H117.333V58.6665Z" fill="#F2F4F6"/>
<path d="M10.6667 61.3335H8V64.0002H10.6667V61.3335Z" fill="#F2F4F6"/>
<path d="M13.3332 61.3335H10.6665V64.0002H13.3332V61.3335Z" fill="#F2F4F6"/>
<path d="M24.0002 61.3335H21.3335V64.0002H24.0002V61.3335Z" fill="#F2F4F6"/>
<path d="M26.6667 61.3335H24V64.0002H26.6667V61.3335Z" fill="#F2F4F6"/>
<path d="M37.3332 61.3335H34.6665V64.0002H37.3332V61.3335Z" fill="#F2F4F6"/>
<path d="M42.6667 61.3335H40V64.0002H42.6667V61.3335Z" fill="#F2F4F6"/>
<path d="M48.0002 61.3335H45.3335V64.0002H48.0002V61.3335Z" fill="#F2F4F6"/>
<path d="M50.6667 61.3335H48V64.0002H50.6667V61.3335Z" fill="#F2F4F6"/>
<path d="M56.0002 61.3335H53.3335V64.0002H56.0002V61.3335Z" fill="#F2F4F6"/>
<path d="M66.6667 61.3335H64V64.0002H66.6667V61.3335Z" fill="#F2F4F6"/>
<path d="M72.0002 61.3335H69.3335V64.0002H72.0002V61.3335Z" fill="#F2F4F6"/>
<path d="M74.6667 61.3335H72V64.0002H74.6667V61.3335Z" fill="#F2F4F6"/>
<path d="M77.3332 61.3335H74.6665V64.0002H77.3332V61.3335Z" fill="#F2F4F6"/>
<path d="M88.0002 61.3335H85.3335V64.0002H88.0002V61.3335Z" fill="#F2F4F6"/>
<path d="M90.6667 61.3335H88V64.0002H90.6667V61.3335Z" fill="#F2F4F6"/>
<path d="M98.6667 61.3335H96V64.0002H98.6667V61.3335Z" fill="#F2F4F6"/>
<path d="M109.333 61.3335H106.667V64.0002H109.333V61.3335Z" fill="#F2F4F6"/>
<path d="M112 61.3335H109.333V64.0002H112V61.3335Z" fill="#F2F4F6"/>
<path d="M120 61.3335H117.333V64.0002H120V61.3335Z" fill="#F2F4F6"/>
<path d="M5.33317 64H2.6665V66.6667H5.33317V64Z" fill="#F2F4F6"/>
<path d="M10.6667 64H8V66.6667H10.6667V64Z" fill="#F2F4F6"/>
<path d="M13.3332 64H10.6665V66.6667H13.3332V64Z" fill="#F2F4F6"/>
<path d="M16.0002 64H13.3335V66.6667H16.0002V64Z" fill="#F2F4F6"/>
<path d="M18.6667 64H16V66.6667H18.6667V64Z" fill="#F2F4F6"/>
<path d="M21.3332 64H18.6665V66.6667H21.3332V64Z" fill="#F2F4F6"/>
<path d="M24.0002 64H21.3335V66.6667H24.0002V64Z" fill="#F2F4F6"/>
<path d="M26.6667 64H24V66.6667H26.6667V64Z" fill="#F2F4F6"/>
<path d="M29.3332 64H26.6665V66.6667H29.3332V64Z" fill="#F2F4F6"/>
<path d="M34.6667 64H32V66.6667H34.6667V64Z" fill="#F2F4F6"/>
<path d="M37.3332 64H34.6665V66.6667H37.3332V64Z" fill="#F2F4F6"/>
<path d="M40.0002 64H37.3335V66.6667H40.0002V64Z" fill="#F2F4F6"/>
<path d="M42.6667 64H40V66.6667H42.6667V64Z" fill="#F2F4F6"/>
<path d="M48.0002 64H45.3335V66.6667H48.0002V64Z" fill="#F2F4F6"/>
<path d="M50.6667 64H48V66.6667H50.6667V64Z" fill="#F2F4F6"/>
<path d="M56.0002 64H53.3335V66.6667H56.0002V64Z" fill="#F2F4F6"/>
<path d="M58.6667 64H56V66.6667H58.6667V64Z" fill="#F2F4F6"/>
<path d="M61.3332 64H58.6665V66.6667H61.3332V64Z" fill="#F2F4F6"/>
<path d="M64.0002 64H61.3335V66.6667H64.0002V64Z" fill="#F2F4F6"/>
<path d="M66.6667 64H64V66.6667H66.6667V64Z" fill="#F2F4F6"/>
<path d="M72.0002 64H69.3335V66.6667H72.0002V64Z" fill="#F2F4F6"/>
<path d="M77.3332 64H74.6665V66.6667H77.3332V64Z" fill="#F2F4F6"/>
<path d="M82.6667 64H80V66.6667H82.6667V64Z" fill="#F2F4F6"/>
<path d="M85.3332 64H82.6665V66.6667H85.3332V64Z" fill="#F2F4F6"/>
<path d="M93.3332 64H90.6665V66.6667H93.3332V64Z" fill="#F2F4F6"/>
<path d="M96.0002 64H93.3335V66.6667H96.0002V64Z" fill="#F2F4F6"/>
<path d="M98.6667 64H96V66.6667H98.6667V64Z" fill="#F2F4F6"/>
<path d="M101.333 64H98.6665V66.6667H101.333V64Z" fill="#F2F4F6"/>
<path d="M104 64H101.333V66.6667H104V64Z" fill="#F2F4F6"/>
<path d="M106.667 64H104V66.6667H106.667V64Z" fill="#F2F4F6"/>
<path d="M109.333 64H106.667V66.6667H109.333V64Z" fill="#F2F4F6"/>
<path d="M112 64H109.333V66.6667H112V64Z" fill="#F2F4F6"/>
<path d="M120 64H117.333V66.6667H120V64Z" fill="#F2F4F6"/>
<path d="M2.66667 66.6665H0V69.3332H2.66667V66.6665Z" fill="#F2F4F6"/>
<path d="M5.33317 66.6665H2.6665V69.3332H5.33317V66.6665Z" fill="#F2F4F6"/>
<path d="M8.00016 66.6665H5.3335V69.3332H8.00016V66.6665Z" fill="#F2F4F6"/>
<path d="M10.6667 66.6665H8V69.3332H10.6667V66.6665Z" fill="#F2F4F6"/>
<path d="M13.3332 66.6665H10.6665V69.3332H13.3332V66.6665Z" fill="#F2F4F6"/>
<path d="M32.0002 66.6665H29.3335V69.3332H32.0002V66.6665Z" fill="#F2F4F6"/>
<path d="M40.0002 66.6665H37.3335V69.3332H40.0002V66.6665Z" fill="#F2F4F6"/>
<path d="M48.0002 66.6665H45.3335V69.3332H48.0002V66.6665Z" fill="#F2F4F6"/>
<path d="M50.6667 66.6665H48V69.3332H50.6667V66.6665Z" fill="#F2F4F6"/>
<path d="M53.3332 66.6665H50.6665V69.3332H53.3332V66.6665Z" fill="#F2F4F6"/>
<path d="M56.0002 66.6665H53.3335V69.3332H56.0002V66.6665Z" fill="#F2F4F6"/>
<path d="M61.3332 66.6665H58.6665V69.3332H61.3332V66.6665Z" fill="#F2F4F6"/>
<path d="M64.0002 66.6665H61.3335V69.3332H64.0002V66.6665Z" fill="#F2F4F6"/>
<path d="M66.6667 66.6665H64V69.3332H66.6667V66.6665Z" fill="#F2F4F6"/>
<path d="M69.3332 66.6665H66.6665V69.3332H69.3332V66.6665Z" fill="#F2F4F6"/>
<path d="M72.0002 66.6665H69.3335V69.3332H72.0002V66.6665Z" fill="#F2F4F6"/>
<path d="M77.3332 66.6665H74.6665V69.3332H77.3332V66.6665Z" fill="#F2F4F6"/>
<path d="M85.3332 66.6665H82.6665V69.3332H85.3332V66.6665Z" fill="#F2F4F6"/>
<path d="M88.0002 66.6665H85.3335V69.3332H88.0002V66.6665Z" fill="#F2F4F6"/>
<path d="M90.6667 66.6665H88V69.3332H90.6667V66.6665Z" fill="#F2F4F6"/>
<path d="M93.3332 66.6665H90.6665V69.3332H93.3332V66.6665Z" fill="#F2F4F6"/>
<path d="M96.0002 66.6665H93.3335V69.3332H96.0002V66.6665Z" fill="#F2F4F6"/>
<path d="M101.333 66.6665H98.6665V69.3332H101.333V66.6665Z" fill="#F2F4F6"/>
<path d="M104 66.6665H101.333V69.3332H104V66.6665Z" fill="#F2F4F6"/>
<path d="M106.667 66.6665H104V69.3332H106.667V66.6665Z" fill="#F2F4F6"/>
<path d="M112 66.6665H109.333V69.3332H112V66.6665Z" fill="#F2F4F6"/>
<path d="M114.667 66.6665H112V69.3332H114.667V66.6665Z" fill="#F2F4F6"/>
<path d="M120 66.6665H117.333V69.3332H120V66.6665Z" fill="#F2F4F6"/>
<path d="M2.66667 69.3335H0V72.0002H2.66667V69.3335Z" fill="#F2F4F6"/>
<path d="M8.00016 69.3335H5.3335V72.0002H8.00016V69.3335Z" fill="#F2F4F6"/>
<path d="M10.6667 69.3335H8V72.0002H10.6667V69.3335Z" fill="#F2F4F6"/>
<path d="M13.3332 69.3335H10.6665V72.0002H13.3332V69.3335Z" fill="#F2F4F6"/>
<path d="M16.0002 69.3335H13.3335V72.0002H16.0002V69.3335Z" fill="#F2F4F6"/>
<path d="M18.6667 69.3335H16V72.0002H18.6667V69.3335Z" fill="#F2F4F6"/>
<path d="M24.0002 69.3335H21.3335V72.0002H24.0002V69.3335Z" fill="#F2F4F6"/>
<path d="M26.6667 69.3335H24V72.0002H26.6667V69.3335Z" fill="#F2F4F6"/>
<path d="M29.3332 69.3335H26.6665V72.0002H29.3332V69.3335Z" fill="#F2F4F6"/>
<path d="M32.0002 69.3335H29.3335V72.0002H32.0002V69.3335Z" fill="#F2F4F6"/>
<path d="M34.6667 69.3335H32V72.0002H34.6667V69.3335Z" fill="#F2F4F6"/>
<path d="M37.3332 69.3335H34.6665V72.0002H37.3332V69.3335Z" fill="#F2F4F6"/>
<path d="M40.0002 69.3335H37.3335V72.0002H40.0002V69.3335Z" fill="#F2F4F6"/>
<path d="M56.0002 69.3335H53.3335V72.0002H56.0002V69.3335Z" fill="#F2F4F6"/>
<path d="M58.6667 69.3335H56V72.0002H58.6667V69.3335Z" fill="#F2F4F6"/>
<path d="M64.0002 69.3335H61.3335V72.0002H64.0002V69.3335Z" fill="#F2F4F6"/>
<path d="M69.3332 69.3335H66.6665V72.0002H69.3332V69.3335Z" fill="#F2F4F6"/>
<path d="M74.6667 69.3335H72V72.0002H74.6667V69.3335Z" fill="#F2F4F6"/>
<path d="M80.0002 69.3335H77.3335V72.0002H80.0002V69.3335Z" fill="#F2F4F6"/>
<path d="M98.6667 69.3335H96V72.0002H98.6667V69.3335Z" fill="#F2F4F6"/>
<path d="M109.333 69.3335H106.667V72.0002H109.333V69.3335Z" fill="#F2F4F6"/>
<path d="M112 69.3335H109.333V72.0002H112V69.3335Z" fill="#F2F4F6"/>
<path d="M5.33317 72H2.6665V74.6667H5.33317V72Z" fill="#F2F4F6"/>
<path d="M8.00016 72H5.3335V74.6667H8.00016V72Z" fill="#F2F4F6"/>
<path d="M13.3332 72H10.6665V74.6667H13.3332V72Z" fill="#F2F4F6"/>
<path d="M26.6667 72H24V74.6667H26.6667V72Z" fill="#F2F4F6"/>
<path d="M29.3332 72H26.6665V74.6667H29.3332V72Z" fill="#F2F4F6"/>
<path d="M32.0002 72H29.3335V74.6667H32.0002V72Z" fill="#F2F4F6"/>
<path d="M37.3332 72H34.6665V74.6667H37.3332V72Z" fill="#F2F4F6"/>
<path d="M50.6667 72H48V74.6667H50.6667V72Z" fill="#F2F4F6"/>
<path d="M53.3332 72H50.6665V74.6667H53.3332V72Z" fill="#F2F4F6"/>
<path d="M56.0002 72H53.3335V74.6667H56.0002V72Z" fill="#F2F4F6"/>
<path d="M58.6667 72H56V74.6667H58.6667V72Z" fill="#F2F4F6"/>
<path d="M64.0002 72H61.3335V74.6667H64.0002V72Z" fill="#F2F4F6"/>
<path d="M66.6667 72H64V74.6667H66.6667V72Z" fill="#F2F4F6"/>
<path d="M72.0002 72H69.3335V74.6667H72.0002V72Z" fill="#F2F4F6"/>
<path d="M77.3332 72H74.6665V74.6667H77.3332V72Z" fill="#F2F4F6"/>
<path d="M80.0002 72H77.3335V74.6667H80.0002V72Z" fill="#F2F4F6"/>
<path d="M85.3332 72H82.6665V74.6667H85.3332V72Z" fill="#F2F4F6"/>
<path d="M90.6667 72H88V74.6667H90.6667V72Z" fill="#F2F4F6"/>
<path d="M98.6667 72H96V74.6667H98.6667V72Z" fill="#F2F4F6"/>
<path d="M112 72H109.333V74.6667H112V72Z" fill="#F2F4F6"/>
<path d="M114.667 72H112V74.6667H114.667V72Z" fill="#F2F4F6"/>
<path d="M117.333 72H114.667V74.6667H117.333V72Z" fill="#F2F4F6"/>
<path d="M120 72H117.333V74.6667H120V72Z" fill="#F2F4F6"/>
<path d="M8.00016 74.6665H5.3335V77.3332H8.00016V74.6665Z" fill="#F2F4F6"/>
<path d="M10.6667 74.6665H8V77.3332H10.6667V74.6665Z" fill="#F2F4F6"/>
<path d="M18.6667 74.6665H16V77.3332H18.6667V74.6665Z" fill="#F2F4F6"/>
<path d="M21.3332 74.6665H18.6665V77.3332H21.3332V74.6665Z" fill="#F2F4F6"/>
<path d="M26.6667 74.6665H24V77.3332H26.6667V74.6665Z" fill="#F2F4F6"/>
<path d="M29.3332 74.6665H26.6665V77.3332H29.3332V74.6665Z" fill="#F2F4F6"/>
<path d="M32.0002 74.6665H29.3335V77.3332H32.0002V74.6665Z" fill="#F2F4F6"/>
<path d="M34.6667 74.6665H32V77.3332H34.6667V74.6665Z" fill="#F2F4F6"/>
<path d="M40.0002 74.6665H37.3335V77.3332H40.0002V74.6665Z" fill="#F2F4F6"/>
<path d="M50.6667 74.6665H48V77.3332H50.6667V74.6665Z" fill="#F2F4F6"/>
<path d="M53.3332 74.6665H50.6665V77.3332H53.3332V74.6665Z" fill="#F2F4F6"/>
<path d="M56.0002 74.6665H53.3335V77.3332H56.0002V74.6665Z" fill="#F2F4F6"/>
<path d="M58.6667 74.6665H56V77.3332H58.6667V74.6665Z" fill="#F2F4F6"/>
<path d="M64.0002 74.6665H61.3335V77.3332H64.0002V74.6665Z" fill="#F2F4F6"/>
<path d="M69.3332 74.6665H66.6665V77.3332H69.3332V74.6665Z" fill="#F2F4F6"/>
<path d="M74.6667 74.6665H72V77.3332H74.6667V74.6665Z" fill="#F2F4F6"/>
<path d="M80.0002 74.6665H77.3335V77.3332H80.0002V74.6665Z" fill="#F2F4F6"/>
<path d="M90.6667 74.6665H88V77.3332H90.6667V74.6665Z" fill="#F2F4F6"/>
<path d="M93.3332 74.6665H90.6665V77.3332H93.3332V74.6665Z" fill="#F2F4F6"/>
<path d="M96.0002 74.6665H93.3335V77.3332H96.0002V74.6665Z" fill="#F2F4F6"/>
<path d="M101.333 74.6665H98.6665V77.3332H101.333V74.6665Z" fill="#F2F4F6"/>
<path d="M106.667 74.6665H104V77.3332H106.667V74.6665Z" fill="#F2F4F6"/>
<path d="M112 74.6665H109.333V77.3332H112V74.6665Z" fill="#F2F4F6"/>
<path d="M114.667 74.6665H112V77.3332H114.667V74.6665Z" fill="#F2F4F6"/>
<path d="M117.333 74.6665H114.667V77.3332H117.333V74.6665Z" fill="#F2F4F6"/>
<path d="M10.6667 77.3335H8V80.0002H10.6667V77.3335Z" fill="#F2F4F6"/>
<path d="M13.3332 77.3335H10.6665V80.0002H13.3332V77.3335Z" fill="#F2F4F6"/>
<path d="M32.0002 77.3335H29.3335V80.0002H32.0002V77.3335Z" fill="#F2F4F6"/>
<path d="M37.3332 77.3335H34.6665V80.0002H37.3332V77.3335Z" fill="#F2F4F6"/>
<path d="M40.0002 77.3335H37.3335V80.0002H40.0002V77.3335Z" fill="#F2F4F6"/>
<path d="M45.3332 77.3335H42.6665V80.0002H45.3332V77.3335Z" fill="#F2F4F6"/>
<path d="M56.0002 77.3335H53.3335V80.0002H56.0002V77.3335Z" fill="#F2F4F6"/>
<path d="M61.3332 77.3335H58.6665V80.0002H61.3332V77.3335Z" fill="#F2F4F6"/>
<path d="M74.6667 77.3335H72V80.0002H74.6667V77.3335Z" fill="#F2F4F6"/>
<path d="M80.0002 77.3335H77.3335V80.0002H80.0002V77.3335Z" fill="#F2F4F6"/>
<path d="M88.0002 77.3335H85.3335V80.0002H88.0002V77.3335Z" fill="#F2F4F6"/>
<path d="M93.3332 77.3335H90.6665V80.0002H93.3332V77.3335Z" fill="#F2F4F6"/>
<path d="M96.0002 77.3335H93.3335V80.0002H96.0002V77.3335Z" fill="#F2F4F6"/>
<path d="M98.6667 77.3335H96V80.0002H98.6667V77.3335Z" fill="#F2F4F6"/>
<path d="M104 77.3335H101.333V80.0002H104V77.3335Z" fill="#F2F4F6"/>
<path d="M112 77.3335H109.333V80.0002H112V77.3335Z" fill="#F2F4F6"/>
<path d="M114.667 77.3335H112V80.0002H114.667V77.3335Z" fill="#F2F4F6"/>
<path d="M117.333 77.3335H114.667V80.0002H117.333V77.3335Z" fill="#F2F4F6"/>
<path d="M16.0002 80H13.3335V82.6667H16.0002V80Z" fill="#F2F4F6"/>
<path d="M18.6667 80H16V82.6667H18.6667V80Z" fill="#F2F4F6"/>
<path d="M29.3332 80H26.6665V82.6667H29.3332V80Z" fill="#F2F4F6"/>
<path d="M42.6667 80H40V82.6667H42.6667V80Z" fill="#F2F4F6"/>
<path d="M58.6667 80H56V82.6667H58.6667V80Z" fill="#F2F4F6"/>
<path d="M61.3332 80H58.6665V82.6667H61.3332V80Z" fill="#F2F4F6"/>
<path d="M64.0002 80H61.3335V82.6667H64.0002V80Z" fill="#F2F4F6"/>
<path d="M77.3332 80H74.6665V82.6667H77.3332V80Z" fill="#F2F4F6"/>
<path d="M80.0002 80H77.3335V82.6667H80.0002V80Z" fill="#F2F4F6"/>
<path d="M82.6667 80H80V82.6667H82.6667V80Z" fill="#F2F4F6"/>
<path d="M85.3332 80H82.6665V82.6667H85.3332V80Z" fill="#F2F4F6"/>
<path d="M93.3332 80H90.6665V82.6667H93.3332V80Z" fill="#F2F4F6"/>
<path d="M98.6667 80H96V82.6667H98.6667V80Z" fill="#F2F4F6"/>
<path d="M101.333 80H98.6665V82.6667H101.333V80Z" fill="#F2F4F6"/>
<path d="M109.333 80H106.667V82.6667H109.333V80Z" fill="#F2F4F6"/>
<path d="M117.333 80H114.667V82.6667H117.333V80Z" fill="#F2F4F6"/>
<path d="M120 80H117.333V82.6667H120V80Z" fill="#F2F4F6"/>
<path d="M2.66667 82.6665H0V85.3332H2.66667V82.6665Z" fill="#F2F4F6"/>
<path d="M16.0002 82.6665H13.3335V85.3332H16.0002V82.6665Z" fill="#F2F4F6"/>
<path d="M21.3332 82.6665H18.6665V85.3332H21.3332V82.6665Z" fill="#F2F4F6"/>
<path d="M26.6667 82.6665H24V85.3332H26.6667V82.6665Z" fill="#F2F4F6"/>
<path d="M32.0002 82.6665H29.3335V85.3332H32.0002V82.6665Z" fill="#F2F4F6"/>
<path d="M34.6667 82.6665H32V85.3332H34.6667V82.6665Z" fill="#F2F4F6"/>
<path d="M37.3332 82.6665H34.6665V85.3332H37.3332V82.6665Z" fill="#F2F4F6"/>
<path d="M40.0002 82.6665H37.3335V85.3332H40.0002V82.6665Z" fill="#F2F4F6"/>
<path d="M42.6667 82.6665H40V85.3332H42.6667V82.6665Z" fill="#F2F4F6"/>
<path d="M45.3332 82.6665H42.6665V85.3332H45.3332V82.6665Z" fill="#F2F4F6"/>
<path d="M48.0002 82.6665H45.3335V85.3332H48.0002V82.6665Z" fill="#F2F4F6"/>
<path d="M50.6667 82.6665H48V85.3332H50.6667V82.6665Z" fill="#F2F4F6"/>
<path d="M56.0002 82.6665H53.3335V85.3332H56.0002V82.6665Z" fill="#F2F4F6"/>
<path d="M58.6667 82.6665H56V85.3332H58.6667V82.6665Z" fill="#F2F4F6"/>
<path d="M64.0002 82.6665H61.3335V85.3332H64.0002V82.6665Z" fill="#F2F4F6"/>
<path d="M69.3332 82.6665H66.6665V85.3332H69.3332V82.6665Z" fill="#F2F4F6"/>
<path d="M72.0002 82.6665H69.3335V85.3332H72.0002V82.6665Z" fill="#F2F4F6"/>
<path d="M74.6667 82.6665H72V85.3332H74.6667V82.6665Z" fill="#F2F4F6"/>
<path d="M77.3332 82.6665H74.6665V85.3332H77.3332V82.6665Z" fill="#F2F4F6"/>
<path d="M82.6667 82.6665H80V85.3332H82.6667V82.6665Z" fill="#F2F4F6"/>
<path d="M85.3332 82.6665H82.6665V85.3332H85.3332V82.6665Z" fill="#F2F4F6"/>
<path d="M88.0002 82.6665H85.3335V85.3332H88.0002V82.6665Z" fill="#F2F4F6"/>
<path d="M96.0002 82.6665H93.3335V85.3332H96.0002V82.6665Z" fill="#F2F4F6"/>
<path d="M101.333 82.6665H98.6665V85.3332H101.333V82.6665Z" fill="#F2F4F6"/>
<path d="M120 82.6665H117.333V85.3332H120V82.6665Z" fill="#F2F4F6"/>
<path d="M2.66667 85.3335H0V88.0002H2.66667V85.3335Z" fill="#F2F4F6"/>
<path d="M5.33317 85.3335H2.6665V88.0002H5.33317V85.3335Z" fill="#F2F4F6"/>
<path d="M8.00016 85.3335H5.3335V88.0002H8.00016V85.3335Z" fill="#F2F4F6"/>
<path d="M10.6667 85.3335H8V88.0002H10.6667V85.3335Z" fill="#F2F4F6"/>
<path d="M16.0002 85.3335H13.3335V88.0002H16.0002V85.3335Z" fill="#F2F4F6"/>
<path d="M18.6667 85.3335H16V88.0002H18.6667V85.3335Z" fill="#F2F4F6"/>
<path d="M21.3332 85.3335H18.6665V88.0002H21.3332V85.3335Z" fill="#F2F4F6"/>
<path d="M32.0002 85.3335H29.3335V88.0002H32.0002V85.3335Z" fill="#F2F4F6"/>
<path d="M45.3332 85.3335H42.6665V88.0002H45.3332V85.3335Z" fill="#F2F4F6"/>
<path d="M50.6667 85.3335H48V88.0002H50.6667V85.3335Z" fill="#F2F4F6"/>
<path d="M53.3332 85.3335H50.6665V88.0002H53.3332V85.3335Z" fill="#F2F4F6"/>
<path d="M64.0002 85.3335H61.3335V88.0002H64.0002V85.3335Z" fill="#F2F4F6"/>
<path d="M72.0002 85.3335H69.3335V88.0002H72.0002V85.3335Z" fill="#F2F4F6"/>
<path d="M74.6667 85.3335H72V88.0002H74.6667V85.3335Z" fill="#F2F4F6"/>
<path d="M77.3332 85.3335H74.6665V88.0002H77.3332V85.3335Z" fill="#F2F4F6"/>
<path d="M80.0002 85.3335H77.3335V88.0002H80.0002V85.3335Z" fill="#F2F4F6"/>
<path d="M82.6667 85.3335H80V88.0002H82.6667V85.3335Z" fill="#F2F4F6"/>
<path d="M85.3332 85.3335H82.6665V88.0002H85.3332V85.3335Z" fill="#F2F4F6"/>
<path d="M90.6667 85.3335H88V88.0002H90.6667V85.3335Z" fill="#F2F4F6"/>
<path d="M93.3332 85.3335H90.6665V88.0002H93.3332V85.3335Z" fill="#F2F4F6"/>
<path d="M96.0002 85.3335H93.3335V88.0002H96.0002V85.3335Z" fill="#F2F4F6"/>
<path d="M98.6667 85.3335H96V88.0002H98.6667V85.3335Z" fill="#F2F4F6"/>
<path d="M106.667 85.3335H104V88.0002H106.667V85.3335Z" fill="#F2F4F6"/>
<path d="M112 85.3335H109.333V88.0002H112V85.3335Z" fill="#F2F4F6"/>
<path d="M114.667 85.3335H112V88.0002H114.667V85.3335Z" fill="#F2F4F6"/>
<path d="M2.66667 88H0V90.6667H2.66667V88Z" fill="#F2F4F6"/>
<path d="M5.33317 88H2.6665V90.6667H5.33317V88Z" fill="#F2F4F6"/>
<path d="M8.00016 88H5.3335V90.6667H8.00016V88Z" fill="#F2F4F6"/>
<path d="M16.0002 88H13.3335V90.6667H16.0002V88Z" fill="#F2F4F6"/>
<path d="M24.0002 88H21.3335V90.6667H24.0002V88Z" fill="#F2F4F6"/>
<path d="M29.3332 88H26.6665V90.6667H29.3332V88Z" fill="#F2F4F6"/>
<path d="M32.0002 88H29.3335V90.6667H32.0002V88Z" fill="#F2F4F6"/>
<path d="M34.6667 88H32V90.6667H34.6667V88Z" fill="#F2F4F6"/>
<path d="M42.6667 88H40V90.6667H42.6667V88Z" fill="#F2F4F6"/>
<path d="M50.6667 88H48V90.6667H50.6667V88Z" fill="#F2F4F6"/>
<path d="M53.3332 88H50.6665V90.6667H53.3332V88Z" fill="#F2F4F6"/>
<path d="M56.0002 88H53.3335V90.6667H56.0002V88Z" fill="#F2F4F6"/>
<path d="M61.3332 88H58.6665V90.6667H61.3332V88Z" fill="#F2F4F6"/>
<path d="M66.6667 88H64V90.6667H66.6667V88Z" fill="#F2F4F6"/>
<path d="M69.3332 88H66.6665V90.6667H69.3332V88Z" fill="#F2F4F6"/>
<path d="M82.6667 88H80V90.6667H82.6667V88Z" fill="#F2F4F6"/>
<path d="M88.0002 88H85.3335V90.6667H88.0002V88Z" fill="#F2F4F6"/>
<path d="M90.6667 88H88V90.6667H90.6667V88Z" fill="#F2F4F6"/>
<path d="M96.0002 88H93.3335V90.6667H96.0002V88Z" fill="#F2F4F6"/>
<path d="M101.333 88H98.6665V90.6667H101.333V88Z" fill="#F2F4F6"/>
<path d="M104 88H101.333V90.6667H104V88Z" fill="#F2F4F6"/>
<path d="M112 88H109.333V90.6667H112V88Z" fill="#F2F4F6"/>
<path d="M114.667 88H112V90.6667H114.667V88Z" fill="#F2F4F6"/>
<path d="M120 88H117.333V90.6667H120V88Z" fill="#F2F4F6"/>
<path d="M13.3332 90.6665H10.6665V93.3332H13.3332V90.6665Z" fill="#F2F4F6"/>
<path d="M18.6667 90.6665H16V93.3332H18.6667V90.6665Z" fill="#F2F4F6"/>
<path d="M21.3332 90.6665H18.6665V93.3332H21.3332V90.6665Z" fill="#F2F4F6"/>
<path d="M24.0002 90.6665H21.3335V93.3332H24.0002V90.6665Z" fill="#F2F4F6"/>
<path d="M32.0002 90.6665H29.3335V93.3332H32.0002V90.6665Z" fill="#F2F4F6"/>
<path d="M37.3332 90.6665H34.6665V93.3332H37.3332V90.6665Z" fill="#F2F4F6"/>
<path d="M45.3332 90.6665H42.6665V93.3332H45.3332V90.6665Z" fill="#F2F4F6"/>
<path d="M48.0002 90.6665H45.3335V93.3332H48.0002V90.6665Z" fill="#F2F4F6"/>
<path d="M56.0002 90.6665H53.3335V93.3332H56.0002V90.6665Z" fill="#F2F4F6"/>
<path d="M58.6667 90.6665H56V93.3332H58.6667V90.6665Z" fill="#F2F4F6"/>
<path d="M61.3332 90.6665H58.6665V93.3332H61.3332V90.6665Z" fill="#F2F4F6"/>
<path d="M64.0002 90.6665H61.3335V93.3332H64.0002V90.6665Z" fill="#F2F4F6"/>
<path d="M66.6667 90.6665H64V93.3332H66.6667V90.6665Z" fill="#F2F4F6"/>
<path d="M72.0002 90.6665H69.3335V93.3332H72.0002V90.6665Z" fill="#F2F4F6"/>
<path d="M74.6667 90.6665H72V93.3332H74.6667V90.6665Z" fill="#F2F4F6"/>
<path d="M77.3332 90.6665H74.6665V93.3332H77.3332V90.6665Z" fill="#F2F4F6"/>
<path d="M82.6667 90.6665H80V93.3332H82.6667V90.6665Z" fill="#F2F4F6"/>
<path d="M85.3332 90.6665H82.6665V93.3332H85.3332V90.6665Z" fill="#F2F4F6"/>
<path d="M93.3332 90.6665H90.6665V93.3332H93.3332V90.6665Z" fill="#F2F4F6"/>
<path d="M104 90.6665H101.333V93.3332H104V90.6665Z" fill="#F2F4F6"/>
<path d="M106.667 90.6665H104V93.3332H106.667V90.6665Z" fill="#F2F4F6"/>
<path d="M109.333 90.6665H106.667V93.3332H109.333V90.6665Z" fill="#F2F4F6"/>
<path d="M5.33317 93.3335H2.6665V96.0002H5.33317V93.3335Z" fill="#F2F4F6"/>
<path d="M8.00016 93.3335H5.3335V96.0002H8.00016V93.3335Z" fill="#F2F4F6"/>
<path d="M10.6667 93.3335H8V96.0002H10.6667V93.3335Z" fill="#F2F4F6"/>
<path d="M13.3332 93.3335H10.6665V96.0002H13.3332V93.3335Z" fill="#F2F4F6"/>
<path d="M24.0002 93.3335H21.3335V96.0002H24.0002V93.3335Z" fill="#F2F4F6"/>
<path d="M29.3332 93.3335H26.6665V96.0002H29.3332V93.3335Z" fill="#F2F4F6"/>
<path d="M40.0002 93.3335H37.3335V96.0002H40.0002V93.3335Z" fill="#F2F4F6"/>
<path d="M48.0002 93.3335H45.3335V96.0002H48.0002V93.3335Z" fill="#F2F4F6"/>
<path d="M50.6667 93.3335H48V96.0002H50.6667V93.3335Z" fill="#F2F4F6"/>
<path d="M56.0002 93.3335H53.3335V96.0002H56.0002V93.3335Z" fill="#F2F4F6"/>
<path d="M58.6667 93.3335H56V96.0002H58.6667V93.3335Z" fill="#F2F4F6"/>
<path d="M64.0002 93.3335H61.3335V96.0002H64.0002V93.3335Z" fill="#F2F4F6"/>
<path d="M66.6667 93.3335H64V96.0002H66.6667V93.3335Z" fill="#F2F4F6"/>
<path d="M72.0002 93.3335H69.3335V96.0002H72.0002V93.3335Z" fill="#F2F4F6"/>
<path d="M74.6667 93.3335H72V96.0002H74.6667V93.3335Z" fill="#F2F4F6"/>
<path d="M82.6667 93.3335H80V96.0002H82.6667V93.3335Z" fill="#F2F4F6"/>
<path d="M85.3332 93.3335H82.6665V96.0002H85.3332V93.3335Z" fill="#F2F4F6"/>
<path d="M88.0002 93.3335H85.3335V96.0002H88.0002V93.3335Z" fill="#F2F4F6"/>
<path d="M96.0002 93.3335H93.3335V96.0002H96.0002V93.3335Z" fill="#F2F4F6"/>
<path d="M117.333 93.3335H114.667V96.0002H117.333V93.3335Z" fill="#F2F4F6"/>
<path d="M120 93.3335H117.333V96.0002H120V93.3335Z" fill="#F2F4F6"/>
<path d="M2.66667 96H0V98.6667H2.66667V96Z" fill="#F2F4F6"/>
<path d="M10.6667 96H8V98.6667H10.6667V96Z" fill="#F2F4F6"/>
<path d="M13.3332 96H10.6665V98.6667H13.3332V96Z" fill="#F2F4F6"/>
<path d="M18.6667 96H16V98.6667H18.6667V96Z" fill="#F2F4F6"/>
<path d="M26.6667 96H24V98.6667H26.6667V96Z" fill="#F2F4F6"/>
<path d="M32.0002 96H29.3335V98.6667H32.0002V96Z" fill="#F2F4F6"/>
<path d="M37.3332 96H34.6665V98.6667H37.3332V96Z" fill="#F2F4F6"/>
<path d="M40.0002 96H37.3335V98.6667H40.0002V96Z" fill="#F2F4F6"/>
<path d="M48.0002 96H45.3335V98.6667H48.0002V96Z" fill="#F2F4F6"/>
<path d="M53.3332 96H50.6665V98.6667H53.3332V96Z" fill="#F2F4F6"/>
<path d="M56.0002 96H53.3335V98.6667H56.0002V96Z" fill="#F2F4F6"/>
<path d="M58.6667 96H56V98.6667H58.6667V96Z" fill="#F2F4F6"/>
<path d="M61.3332 96H58.6665V98.6667H61.3332V96Z" fill="#F2F4F6"/>
<path d="M64.0002 96H61.3335V98.6667H64.0002V96Z" fill="#F2F4F6"/>
<path d="M66.6667 96H64V98.6667H66.6667V96Z" fill="#F2F4F6"/>
<path d="M72.0002 96H69.3335V98.6667H72.0002V96Z" fill="#F2F4F6"/>
<path d="M77.3332 96H74.6665V98.6667H77.3332V96Z" fill="#F2F4F6"/>
<path d="M85.3332 96H82.6665V98.6667H85.3332V96Z" fill="#F2F4F6"/>
<path d="M88.0002 96H85.3335V98.6667H88.0002V96Z" fill="#F2F4F6"/>
<path d="M90.6667 96H88V98.6667H90.6667V96Z" fill="#F2F4F6"/>
<path d="M93.3332 96H90.6665V98.6667H93.3332V96Z" fill="#F2F4F6"/>
<path d="M96.0002 96H93.3335V98.6667H96.0002V96Z" fill="#F2F4F6"/>
<path d="M98.6667 96H96V98.6667H98.6667V96Z" fill="#F2F4F6"/>
<path d="M101.333 96H98.6665V98.6667H101.333V96Z" fill="#F2F4F6"/>
<path d="M104 96H101.333V98.6667H104V96Z" fill="#F2F4F6"/>
<path d="M106.667 96H104V98.6667H106.667V96Z" fill="#F2F4F6"/>
<path d="M109.333 96H106.667V98.6667H109.333V96Z" fill="#F2F4F6"/>
<path d="M114.667 96H112V98.6667H114.667V96Z" fill="#F2F4F6"/>
<path d="M117.333 96H114.667V98.6667H117.333V96Z" fill="#F2F4F6"/>
<path d="M24.0002 98.6665H21.3335V101.333H24.0002V98.6665Z" fill="#F2F4F6"/>
<path d="M42.6667 98.6665H40V101.333H42.6667V98.6665Z" fill="#F2F4F6"/>
<path d="M48.0002 98.6665H45.3335V101.333H48.0002V98.6665Z" fill="#F2F4F6"/>
<path d="M50.6667 98.6665H48V101.333H50.6667V98.6665Z" fill="#F2F4F6"/>
<path d="M53.3332 98.6665H50.6665V101.333H53.3332V98.6665Z" fill="#F2F4F6"/>
<path d="M56.0002 98.6665H53.3335V101.333H56.0002V98.6665Z" fill="#F2F4F6"/>
<path d="M66.6667 98.6665H64V101.333H66.6667V98.6665Z" fill="#F2F4F6"/>
<path d="M69.3332 98.6665H66.6665V101.333H69.3332V98.6665Z" fill="#F2F4F6"/>
<path d="M77.3332 98.6665H74.6665V101.333H77.3332V98.6665Z" fill="#F2F4F6"/>
<path d="M80.0002 98.6665H77.3335V101.333H80.0002V98.6665Z" fill="#F2F4F6"/>
<path d="M88.0002 98.6665H85.3335V101.333H88.0002V98.6665Z" fill="#F2F4F6"/>
<path d="M93.3332 98.6665H90.6665V101.333H93.3332V98.6665Z" fill="#F2F4F6"/>
<path d="M98.6667 98.6665H96V101.333H98.6667V98.6665Z" fill="#F2F4F6"/>
<path d="M109.333 98.6665H106.667V101.333H109.333V98.6665Z" fill="#F2F4F6"/>
<path d="M112 98.6665H109.333V101.333H112V98.6665Z" fill="#F2F4F6"/>
<path d="M114.667 98.6665H112V101.333H114.667V98.6665Z" fill="#F2F4F6"/>
<path d="M2.66667 101.333H0V104H2.66667V101.333Z" fill="#F2F4F6"/>
<path d="M5.33317 101.333H2.6665V104H5.33317V101.333Z" fill="#F2F4F6"/>
<path d="M8.00016 101.333H5.3335V104H8.00016V101.333Z" fill="#F2F4F6"/>
<path d="M10.6667 101.333H8V104H10.6667V101.333Z" fill="#F2F4F6"/>
<path d="M13.3332 101.333H10.6665V104H13.3332V101.333Z" fill="#F2F4F6"/>
<path d="M16.0002 101.333H13.3335V104H16.0002V101.333Z" fill="#F2F4F6"/>
<path d="M18.6667 101.333H16V104H18.6667V101.333Z" fill="#F2F4F6"/>
<path d="M26.6667 101.333H24V104H26.6667V101.333Z" fill="#F2F4F6"/>
<path d="M29.3332 101.333H26.6665V104H29.3332V101.333Z" fill="#F2F4F6"/>
<path d="M37.3332 101.333H34.6665V104H37.3332V101.333Z" fill="#F2F4F6"/>
<path d="M40.0002 101.333H37.3335V104H40.0002V101.333Z" fill="#F2F4F6"/>
<path d="M50.6667 101.333H48V104H50.6667V101.333Z" fill="#F2F4F6"/>
<path d="M53.3332 101.333H50.6665V104H53.3332V101.333Z" fill="#F2F4F6"/>
<path d="M56.0002 101.333H53.3335V104H56.0002V101.333Z" fill="#F2F4F6"/>
<path d="M61.3332 101.333H58.6665V104H61.3332V101.333Z" fill="#F2F4F6"/>
<path d="M66.6667 101.333H64V104H66.6667V101.333Z" fill="#F2F4F6"/>
<path d="M77.3332 101.333H74.6665V104H77.3332V101.333Z" fill="#F2F4F6"/>
<path d="M85.3332 101.333H82.6665V104H85.3332V101.333Z" fill="#F2F4F6"/>
<path d="M93.3332 101.333H90.6665V104H93.3332V101.333Z" fill="#F2F4F6"/>
<path d="M96.0002 101.333H93.3335V104H96.0002V101.333Z" fill="#F2F4F6"/>
<path d="M98.6667 101.333H96V104H98.6667V101.333Z" fill="#F2F4F6"/>
<path d="M104 101.333H101.333V104H104V101.333Z" fill="#F2F4F6"/>
<path d="M109.333 101.333H106.667V104H109.333V101.333Z" fill="#F2F4F6"/>
<path d="M2.66667 104H0V106.667H2.66667V104Z" fill="#F2F4F6"/>
<path d="M18.6667 104H16V106.667H18.6667V104Z" fill="#F2F4F6"/>
<path d="M32.0002 104H29.3335V106.667H32.0002V104Z" fill="#F2F4F6"/>
<path d="M34.6667 104H32V106.667H34.6667V104Z" fill="#F2F4F6"/>
<path d="M56.0002 104H53.3335V106.667H56.0002V104Z" fill="#F2F4F6"/>
<path d="M66.6667 104H64V106.667H66.6667V104Z" fill="#F2F4F6"/>
<path d="M77.3332 104H74.6665V106.667H77.3332V104Z" fill="#F2F4F6"/>
<path d="M85.3332 104H82.6665V106.667H85.3332V104Z" fill="#F2F4F6"/>
<path d="M88.0002 104H85.3335V106.667H88.0002V104Z" fill="#F2F4F6"/>
<path d="M98.6667 104H96V106.667H98.6667V104Z" fill="#F2F4F6"/>
<path d="M109.333 104H106.667V106.667H109.333V104Z" fill="#F2F4F6"/>
<path d="M114.667 104H112V106.667H114.667V104Z" fill="#F2F4F6"/>
<path d="M117.333 104H114.667V106.667H117.333V104Z" fill="#F2F4F6"/>
<path d="M120 104H117.333V106.667H120V104Z" fill="#F2F4F6"/>
<path d="M2.66667 106.667H0V109.333H2.66667V106.667Z" fill="#F2F4F6"/>
<path d="M8.00016 106.667H5.3335V109.333H8.00016V106.667Z" fill="#F2F4F6"/>
<path d="M10.6667 106.667H8V109.333H10.6667V106.667Z" fill="#F2F4F6"/>
<path d="M13.3332 106.667H10.6665V109.333H13.3332V106.667Z" fill="#F2F4F6"/>
<path d="M18.6667 106.667H16V109.333H18.6667V106.667Z" fill="#F2F4F6"/>
<path d="M24.0002 106.667H21.3335V109.333H24.0002V106.667Z" fill="#F2F4F6"/>
<path d="M26.6667 106.667H24V109.333H26.6667V106.667Z" fill="#F2F4F6"/>
<path d="M32.0002 106.667H29.3335V109.333H32.0002V106.667Z" fill="#F2F4F6"/>
<path d="M37.3332 106.667H34.6665V109.333H37.3332V106.667Z" fill="#F2F4F6"/>
<path d="M40.0002 106.667H37.3335V109.333H40.0002V106.667Z" fill="#F2F4F6"/>
<path d="M50.6667 106.667H48V109.333H50.6667V106.667Z" fill="#F2F4F6"/>
<path d="M53.3332 106.667H50.6665V109.333H53.3332V106.667Z" fill="#F2F4F6"/>
<path d="M56.0002 106.667H53.3335V109.333H56.0002V106.667Z" fill="#F2F4F6"/>
<path d="M58.6667 106.667H56V109.333H58.6667V106.667Z" fill="#F2F4F6"/>
<path d="M61.3332 106.667H58.6665V109.333H61.3332V106.667Z" fill="#F2F4F6"/>
<path d="M64.0002 106.667H61.3335V109.333H64.0002V106.667Z" fill="#F2F4F6"/>
<path d="M66.6667 106.667H64V109.333H66.6667V106.667Z" fill="#F2F4F6"/>
<path d="M69.3332 106.667H66.6665V109.333H69.3332V106.667Z" fill="#F2F4F6"/>
<path d="M74.6667 106.667H72V109.333H74.6667V106.667Z" fill="#F2F4F6"/>
<path d="M85.3332 106.667H82.6665V109.333H85.3332V106.667Z" fill="#F2F4F6"/>
<path d="M88.0002 106.667H85.3335V109.333H88.0002V106.667Z" fill="#F2F4F6"/>
<path d="M90.6667 106.667H88V109.333H90.6667V106.667Z" fill="#F2F4F6"/>
<path d="M93.3332 106.667H90.6665V109.333H93.3332V106.667Z" fill="#F2F4F6"/>
<path d="M98.6667 106.667H96V109.333H98.6667V106.667Z" fill="#F2F4F6"/>
<path d="M101.333 106.667H98.6665V109.333H101.333V106.667Z" fill="#F2F4F6"/>
<path d="M104 106.667H101.333V109.333H104V106.667Z" fill="#F2F4F6"/>
<path d="M106.667 106.667H104V109.333H106.667V106.667Z" fill="#F2F4F6"/>
<path d="M109.333 106.667H106.667V109.333H109.333V106.667Z" fill="#F2F4F6"/>
<path d="M112 106.667H109.333V109.333H112V106.667Z" fill="#F2F4F6"/>
<path d="M114.667 106.667H112V109.333H114.667V106.667Z" fill="#F2F4F6"/>
<path d="M117.333 106.667H114.667V109.333H117.333V106.667Z" fill="#F2F4F6"/>
<path d="M2.66667 109.333H0V112H2.66667V109.333Z" fill="#F2F4F6"/>
<path d="M8.00016 109.333H5.3335V112H8.00016V109.333Z" fill="#F2F4F6"/>
<path d="M10.6667 109.333H8V112H10.6667V109.333Z" fill="#F2F4F6"/>
<path d="M13.3332 109.333H10.6665V112H13.3332V109.333Z" fill="#F2F4F6"/>
<path d="M18.6667 109.333H16V112H18.6667V109.333Z" fill="#F2F4F6"/>
<path d="M24.0002 109.333H21.3335V112H24.0002V109.333Z" fill="#F2F4F6"/>
<path d="M34.6667 109.333H32V112H34.6667V109.333Z" fill="#F2F4F6"/>
<path d="M40.0002 109.333H37.3335V112H40.0002V109.333Z" fill="#F2F4F6"/>
<path d="M42.6667 109.333H40V112H42.6667V109.333Z" fill="#F2F4F6"/>
<path d="M48.0002 109.333H45.3335V112H48.0002V109.333Z" fill="#F2F4F6"/>
<path d="M53.3332 109.333H50.6665V112H53.3332V109.333Z" fill="#F2F4F6"/>
<path d="M64.0002 109.333H61.3335V112H64.0002V109.333Z" fill="#F2F4F6"/>
<path d="M69.3332 109.333H66.6665V112H69.3332V109.333Z" fill="#F2F4F6"/>
<path d="M72.0002 109.333H69.3335V112H72.0002V109.333Z" fill="#F2F4F6"/>
<path d="M77.3332 109.333H74.6665V112H77.3332V109.333Z" fill="#F2F4F6"/>
<path d="M80.0002 109.333H77.3335V112H80.0002V109.333Z" fill="#F2F4F6"/>
<path d="M82.6667 109.333H80V112H82.6667V109.333Z" fill="#F2F4F6"/>
<path d="M88.0002 109.333H85.3335V112H88.0002V109.333Z" fill="#F2F4F6"/>
<path d="M90.6667 109.333H88V112H90.6667V109.333Z" fill="#F2F4F6"/>
<path d="M98.6667 109.333H96V112H98.6667V109.333Z" fill="#F2F4F6"/>
<path d="M101.333 109.333H98.6665V112H101.333V109.333Z" fill="#F2F4F6"/>
<path d="M106.667 109.333H104V112H106.667V109.333Z" fill="#F2F4F6"/>
<path d="M112 109.333H109.333V112H112V109.333Z" fill="#F2F4F6"/>
<path d="M114.667 109.333H112V112H114.667V109.333Z" fill="#F2F4F6"/>
<path d="M117.333 109.333H114.667V112H117.333V109.333Z" fill="#F2F4F6"/>
<path d="M2.66667 112H0V114.667H2.66667V112Z" fill="#F2F4F6"/>
<path d="M8.00016 112H5.3335V114.667H8.00016V112Z" fill="#F2F4F6"/>
<path d="M10.6667 112H8V114.667H10.6667V112Z" fill="#F2F4F6"/>
<path d="M13.3332 112H10.6665V114.667H13.3332V112Z" fill="#F2F4F6"/>
<path d="M18.6667 112H16V114.667H18.6667V112Z" fill="#F2F4F6"/>
<path d="M24.0002 112H21.3335V114.667H24.0002V112Z" fill="#F2F4F6"/>
<path d="M34.6667 112H32V114.667H34.6667V112Z" fill="#F2F4F6"/>
<path d="M37.3332 112H34.6665V114.667H37.3332V112Z" fill="#F2F4F6"/>
<path d="M50.6667 112H48V114.667H50.6667V112Z" fill="#F2F4F6"/>
<path d="M61.3332 112H58.6665V114.667H61.3332V112Z" fill="#F2F4F6"/>
<path d="M69.3332 112H66.6665V114.667H69.3332V112Z" fill="#F2F4F6"/>
<path d="M72.0002 112H69.3335V114.667H72.0002V112Z" fill="#F2F4F6"/>
<path d="M74.6667 112H72V114.667H74.6667V112Z" fill="#F2F4F6"/>
<path d="M80.0002 112H77.3335V114.667H80.0002V112Z" fill="#F2F4F6"/>
<path d="M82.6667 112H80V114.667H82.6667V112Z" fill="#F2F4F6"/>
<path d="M93.3332 112H90.6665V114.667H93.3332V112Z" fill="#F2F4F6"/>
<path d="M96.0002 112H93.3335V114.667H96.0002V112Z" fill="#F2F4F6"/>
<path d="M101.333 112H98.6665V114.667H101.333V112Z" fill="#F2F4F6"/>
<path d="M104 112H101.333V114.667H104V112Z" fill="#F2F4F6"/>
<path d="M2.66667 114.667H0V117.333H2.66667V114.667Z" fill="#F2F4F6"/>
<path d="M18.6667 114.667H16V117.333H18.6667V114.667Z" fill="#F2F4F6"/>
<path d="M26.6667 114.667H24V117.333H26.6667V114.667Z" fill="#F2F4F6"/>
<path d="M34.6667 114.667H32V117.333H34.6667V114.667Z" fill="#F2F4F6"/>
<path d="M37.3332 114.667H34.6665V117.333H37.3332V114.667Z" fill="#F2F4F6"/>
<path d="M40.0002 114.667H37.3335V117.333H40.0002V114.667Z" fill="#F2F4F6"/>
<path d="M42.6667 114.667H40V117.333H42.6667V114.667Z" fill="#F2F4F6"/>
<path d="M56.0002 114.667H53.3335V117.333H56.0002V114.667Z" fill="#F2F4F6"/>
<path d="M58.6667 114.667H56V117.333H58.6667V114.667Z" fill="#F2F4F6"/>
<path d="M69.3332 114.667H66.6665V117.333H69.3332V114.667Z" fill="#F2F4F6"/>
<path d="M72.0002 114.667H69.3335V117.333H72.0002V114.667Z" fill="#F2F4F6"/>
<path d="M82.6667 114.667H80V117.333H82.6667V114.667Z" fill="#F2F4F6"/>
<path d="M85.3332 114.667H82.6665V117.333H85.3332V114.667Z" fill="#F2F4F6"/>
<path d="M88.0002 114.667H85.3335V117.333H88.0002V114.667Z" fill="#F2F4F6"/>
<path d="M90.6667 114.667H88V117.333H90.6667V114.667Z" fill="#F2F4F6"/>
<path d="M109.333 114.667H106.667V117.333H109.333V114.667Z" fill="#F2F4F6"/>
<path d="M114.667 114.667H112V117.333H114.667V114.667Z" fill="#F2F4F6"/>
<path d="M117.333 114.667H114.667V117.333H117.333V114.667Z" fill="#F2F4F6"/>
<path d="M120 114.667H117.333V117.333H120V114.667Z" fill="#F2F4F6"/>
<path d="M2.66667 117.333H0V120H2.66667V117.333Z" fill="#F2F4F6"/>
<path d="M5.33317 117.333H2.6665V120H5.33317V117.333Z" fill="#F2F4F6"/>
<path d="M8.00016 117.333H5.3335V120H8.00016V117.333Z" fill="#F2F4F6"/>
<path d="M10.6667 117.333H8V120H10.6667V117.333Z" fill="#F2F4F6"/>
<path d="M13.3332 117.333H10.6665V120H13.3332V117.333Z" fill="#F2F4F6"/>
<path d="M16.0002 117.333H13.3335V120H16.0002V117.333Z" fill="#F2F4F6"/>
<path d="M18.6667 117.333H16V120H18.6667V117.333Z" fill="#F2F4F6"/>
<path d="M34.6667 117.333H32V120H34.6667V117.333Z" fill="#F2F4F6"/>
<path d="M37.3332 117.333H34.6665V120H37.3332V117.333Z" fill="#F2F4F6"/>
<path d="M42.6667 117.333H40V120H42.6667V117.333Z" fill="#F2F4F6"/>
<path d="M50.6667 117.333H48V120H50.6667V117.333Z" fill="#F2F4F6"/>
<path d="M56.0002 117.333H53.3335V120H56.0002V117.333Z" fill="#F2F4F6"/>
<path d="M61.3332 117.333H58.6665V120H61.3332V117.333Z" fill="#F2F4F6"/>
<path d="M69.3332 117.333H66.6665V120H69.3332V117.333Z" fill="#F2F4F6"/>
<path d="M72.0002 117.333H69.3335V120H72.0002V117.333Z" fill="#F2F4F6"/>
<path d="M74.6667 117.333H72V120H74.6667V117.333Z" fill="#F2F4F6"/>
<path d="M77.3332 117.333H74.6665V120H77.3332V117.333Z" fill="#F2F4F6"/>
<path d="M80.0002 117.333H77.3335V120H80.0002V117.333Z" fill="#F2F4F6"/>
<path d="M85.3332 117.333H82.6665V120H85.3332V117.333Z" fill="#F2F4F6"/>
<path d="M93.3332 117.333H90.6665V120H93.3332V117.333Z" fill="#F2F4F6"/>
<path d="M96.0002 117.333H93.3335V120H96.0002V117.333Z" fill="#F2F4F6"/>
<path d="M98.6667 117.333H96V120H98.6667V117.333Z" fill="#F2F4F6"/>
<path d="M112 117.333H109.333V120H112V117.333Z" fill="#F2F4F6"/>
<path d="M114.667 117.333H112V120H114.667V117.333Z" fill="#F2F4F6"/>
<path d="M117.333 117.333H114.667V120H117.333V117.333Z" fill="#F2F4F6"/>
</svg>
