<svg width="120" height="120" viewBox="0 0 120 120" fill="none" xmlns="http://www.w3.org/2000/svg"><path d="M120 0H0v120h120V0z" fill="#292A2F"/><path d="M2.667 0H0v2.667h2.667V0z" fill="#F2F4F6"/><path d="M5.333 0H2.666v2.667h2.667V0zM8 0H5.333v2.667H8V0zm2.667 0H8v2.667h2.667V0z" fill="#F2F4F6"/><path d="M13.333 0h-2.667v2.667h2.667V0zM16 0h-2.666v2.667H16V0zm2.667 0H16v2.667h2.667V0zM24 0h-2.666v2.667H24V0zm8 0h-2.666v2.667H32V0zm5.333 0h-2.666v2.667h2.666V0zM40 0h-2.666v2.667H40V0zm8 0h-2.666v2.667H48V0zm5.333 0h-2.666v2.667h2.666V0zm13.334 0H64v2.667h2.667V0zm16 0H80v2.667h2.667V0zm2.666 0h-2.666v2.667h2.666V0zM88 0h-2.666v2.667H88V0zm10.667 0H96v2.667h2.667V0zM104 0h-2.667v2.667H104V0zm2.667 0H104v2.667h2.667V0zm2.666 0h-2.666v2.667h2.666V0zM112 0h-2.667v2.667H112V0zm2.667 0H112v2.667h2.667V0zm2.666 0h-2.666v2.667h2.666V0zM120 0h-2.667v2.667H120V0zM2.667 2.667H0v2.666h2.667V2.666z" fill="#F2F4F6"/><path d="M18.667 2.667H16v2.666h2.667V2.666zm5.333 0h-2.666v2.666H24V2.666zm2.667 0H24v2.666h2.667V2.666zm5.333 0h-2.666v2.666H32V2.666zm8 0h-2.666v2.666H40V2.666zm2.667 0H40v2.666h2.667V2.666zm8 0H48v2.666h2.667V2.666zm13.333 0h-2.666v2.666H64V2.666zm8 0h-2.666v2.666H72V2.666zm5.333 0h-2.666v2.666h2.666V2.666zm5.334 0H80v2.666h2.667V2.666zm2.666 0h-2.666v2.666h2.666V2.666zm10.667 0h-2.666v2.666H96V2.666zm8 0h-2.667v2.666H104V2.666zm16 0h-2.667v2.666H120V2.666zM2.667 5.333H0V8h2.667V5.333zm5.333 0H5.333V8H8V5.333zm2.667 0H8V8h2.667V5.333z" fill="#F2F4F6"/><path d="M13.333 5.333h-2.667V8h2.667V5.333zm5.334 0H16V8h2.667V5.333zm5.333 0h-2.666V8H24V5.333zm10.667 0H32V8h2.667V5.333zm5.333 0h-2.666V8H40V5.333zm10.667 0H48V8h2.667V5.333zm8 0H56V8h2.667V5.333zm2.666 0h-2.666V8h2.666V5.333zm8 0h-2.666V8h2.666V5.333zm8 0h-2.666V8h2.666V5.333zm5.334 0H80V8h2.667V5.333zm8 0H88V8h2.667V5.333zm5.333 0h-2.666V8H96V5.333zm8 0h-2.667V8H104V5.333zm5.333 0h-2.666V8h2.666V5.333zm2.667 0h-2.667V8H112V5.333zm2.667 0H112V8h2.667V5.333zm5.333 0h-2.667V8H120V5.333zM2.667 8H0v2.667h2.667V8zM8 8H5.333v2.667H8V8zm2.667 0H8v2.667h2.667V8z" fill="#F2F4F6"/><path d="M13.333 8h-2.667v2.667h2.667V8zm5.334 0H16v2.667h2.667V8zM32 8h-2.666v2.667H32V8zm2.667 0H32v2.667h2.667V8zm2.666 0h-2.666v2.667h2.666V8zM40 8h-2.666v2.667H40V8zm5.333 0h-2.666v2.667h2.666V8zM48 8h-2.666v2.667H48V8zm5.333 0h-2.666v2.667h2.666V8zM56 8h-2.666v2.667H56V8zm8 0h-2.666v2.667H64V8zm10.667 0H72v2.667h2.667V8zM96 8h-2.666v2.667H96V8zm2.667 0H96v2.667h2.667V8zM104 8h-2.667v2.667H104V8zm5.333 0h-2.666v2.667h2.666V8zM112 8h-2.667v2.667H112V8zm2.667 0H112v2.667h2.667V8zM120 8h-2.667v2.667H120V8zM2.667 10.666H0v2.667h2.667v-2.667zm5.333 0H5.333v2.667H8v-2.667z" fill="#F2F4F6"/><path d="M10.667 10.666H8v2.667h2.667v-2.667z" fill="#F2F4F6"/><path d="M13.333 10.666h-2.667v2.667h2.667v-2.667zm5.334 0H16v2.667h2.667v-2.667zm8 0H24v2.667h2.667v-2.667z" fill="#F2F4F6"/><path d="M29.333 10.666h-2.666v2.667h2.666v-2.667zm8 0h-2.666v2.667h2.666v-2.667zm2.667 0h-2.666v2.667H40v-2.667zm2.667 0H40v2.667h2.667v-2.667zm5.333 0h-2.666v2.667H48v-2.667zm2.667 0H48v2.667h2.667v-2.667zm2.666 0h-2.666v2.667h2.666v-2.667zm2.667 0h-2.666v2.667H56v-2.667zm2.667 0H56v2.667h2.667v-2.667zm2.666 0h-2.666v2.667h2.666v-2.667zm2.667 0h-2.666v2.667H64v-2.667zm2.667 0H64v2.667h2.667v-2.667zm8 0H72v2.667h2.667v-2.667zm5.333 0h-2.666v2.667H80v-2.667zm5.333 0h-2.666v2.667h2.666v-2.667zm2.667 0h-2.666v2.667H88v-2.667zm2.667 0H88v2.667h2.667v-2.667zm2.666 0h-2.666v2.667h2.666v-2.667zm2.667 0h-2.666v2.667H96v-2.667zm2.667 0H96v2.667h2.667v-2.667zm5.333 0h-2.667v2.667H104v-2.667zm5.333 0h-2.666v2.667h2.666v-2.667zm2.667 0h-2.667v2.667H112v-2.667zm2.667 0H112v2.667h2.667v-2.667zm5.333 0h-2.667v2.667H120v-2.667zM2.667 13.334H0V16h2.667v-2.666zm16 0H16V16h2.667v-2.666zm5.333 0h-2.666V16H24v-2.666zm2.667 0H24V16h2.667v-2.666z" fill="#F2F4F6"/><path d="M29.333 13.334h-2.666V16h2.666v-2.666zm2.667 0h-2.666V16H32v-2.666zm5.333 0h-2.666V16h2.666v-2.666zm5.334 0H40V16h2.667v-2.666zm2.666 0h-2.666V16h2.666v-2.666zm2.667 0h-2.666V16H48v-2.666zm2.667 0H48V16h2.667v-2.666zm5.333 0h-2.666V16H56v-2.666zm10.667 0H64V16h2.667v-2.666zm2.666 0h-2.666V16h2.666v-2.666zm5.334 0H72V16h2.667v-2.666zm2.666 0h-2.666V16h2.666v-2.666zm2.667 0h-2.666V16H80v-2.666zm10.667 0H88V16h2.667v-2.666zm13.333 0h-2.667V16H104v-2.666zm16 0h-2.667V16H120v-2.666zM2.667 16H0v2.667h2.667V16z" fill="#F2F4F6"/><path d="M5.333 16H2.666v2.667h2.667V16zM8 16H5.333v2.667H8V16zm2.667 0H8v2.667h2.667V16z" fill="#F2F4F6"/><path d="M13.333 16h-2.667v2.667h2.667V16zM16 16h-2.666v2.667H16V16zm2.667 0H16v2.667h2.667V16zM24 16h-2.666v2.667H24V16zm5.333 0h-2.666v2.667h2.666V16zm5.334 0H32v2.667h2.667V16zM40 16h-2.666v2.667H40V16zm5.333 0h-2.666v2.667h2.666V16zm5.334 0H48v2.667h2.667V16zM56 16h-2.666v2.667H56V16zm5.333 0h-2.666v2.667h2.666V16zm5.334 0H64v2.667h2.667V16zM72 16h-2.666v2.667H72V16zm5.333 0h-2.666v2.667h2.666V16zm5.334 0H80v2.667h2.667V16zM88 16h-2.666v2.667H88V16zm5.333 0h-2.666v2.667h2.666V16zm5.334 0H96v2.667h2.667V16zM104 16h-2.667v2.667H104V16zm2.667 0H104v2.667h2.667V16zm2.666 0h-2.666v2.667h2.666V16zM112 16h-2.667v2.667H112V16zm2.667 0H112v2.667h2.667V16zm2.666 0h-2.666v2.667h2.666V16zM120 16h-2.667v2.667H120V16z" fill="#F2F4F6"/><path d="M24 18.666h-2.666v2.667H24v-2.666zm2.667 0H24v2.667h2.667v-2.666zm10.666 0h-2.666v2.667h2.666v-2.666zm2.667 0h-2.666v2.667H40v-2.666zm5.333 0h-2.666v2.667h2.666v-2.666zm5.334 0H48v2.667h2.667v-2.666zm5.333 0h-2.666v2.667H56v-2.666zm10.667 0H64v2.667h2.667v-2.666zm2.666 0h-2.666v2.667h2.666v-2.666zm2.667 0h-2.666v2.667H72v-2.666zm2.667 0H72v2.667h2.667v-2.666zm2.666 0h-2.666v2.667h2.666v-2.666zm2.667 0h-2.666v2.667H80v-2.666zm2.667 0H80v2.667h2.667v-2.666zm8 0H88v2.667h2.667v-2.666zm8 0H96v2.667h2.667v-2.666zM8 21.334H5.333V24H8v-2.666zm2.667 0H8V24h2.667v-2.666z" fill="#F2F4F6"/><path d="M13.333 21.334h-2.667V24h2.667v-2.666zm5.334 0H16V24h2.667v-2.666zm5.333 0h-2.666V24H24v-2.666zm2.667 0H24V24h2.667v-2.666zm5.333 0h-2.666V24H32v-2.666zm2.667 0H32V24h2.667v-2.666zm10.666 0h-2.666V24h2.666v-2.666zm8 0h-2.666V24h2.666v-2.666zm2.667 0h-2.666V24H56v-2.666zm2.667 0H56V24h2.667v-2.666zm2.666 0h-2.666V24h2.666v-2.666zm2.667 0h-2.666V24H64v-2.666zm2.667 0H64V24h2.667v-2.666zm8 0H72V24h2.667v-2.666zm2.666 0h-2.666V24h2.666v-2.666zm8 0h-2.666V24h2.666v-2.666zm8 0h-2.666V24h2.666v-2.666zm5.334 0H96V24h2.667v-2.666zm2.666 0h-2.666V24h2.666v-2.666zm2.667 0h-2.667V24H104v-2.666zm2.667 0H104V24h2.667v-2.666zm8 0H112V24h2.667v-2.666zm2.666 0h-2.666V24h2.666v-2.666zm2.667 0h-2.667V24H120v-2.666zM2.667 24H0v2.667h2.667V24z" fill="#F2F4F6"/><path d="M5.333 24H2.666v2.667h2.667V24zm8 0h-2.667v2.667h2.667V24zm13.334 0H24v2.667h2.667V24z" fill="#F2F4F6"/><path d="M29.333 24h-2.666v2.667h2.666V24zM40 24h-2.666v2.667H40V24zm2.667 0H40v2.667h2.667V24zM48 24h-2.666v2.667H48V24zm5.333 0h-2.666v2.667h2.666V24zm5.334 0H56v2.667h2.667V24zm2.666 0h-2.666v2.667h2.666V24zM64 24h-2.666v2.667H64V24zm2.667 0H64v2.667h2.667V24zM72 24h-2.666v2.667H72V24zm2.667 0H72v2.667h2.667V24zM80 24h-2.666v2.667H80V24zm2.667 0H80v2.667h2.667V24zm2.666 0h-2.666v2.667h2.666V24zM88 24h-2.666v2.667H88V24zm2.667 0H88v2.667h2.667V24zm2.666 0h-2.666v2.667h2.666V24zM96 24h-2.666v2.667H96V24zm2.667 0H96v2.667h2.667V24zm10.666 0h-2.666v2.667h2.666V24zm5.334 0H112v2.667h2.667V24zm2.666 0h-2.666v2.667h2.666V24zM2.667 26.666H0v2.667h2.667v-2.666zm16 0H16v2.667h2.667v-2.666z" fill="#F2F4F6"/><path d="M21.333 26.666h-2.666v2.667h2.666v-2.666zm13.334 0H32v2.667h2.667v-2.666zm13.333 0h-2.666v2.667H48v-2.666zm5.333 0h-2.666v2.667h2.666v-2.666zm5.334 0H56v2.667h2.667v-2.666zm2.666 0h-2.666v2.667h2.666v-2.666zm2.667 0h-2.666v2.667H64v-2.666zm2.667 0H64v2.667h2.667v-2.666zm5.333 0h-2.666v2.667H72v-2.666zm2.667 0H72v2.667h2.667v-2.666zm2.666 0h-2.666v2.667h2.666v-2.666zm2.667 0h-2.666v2.667H80v-2.666zm2.667 0H80v2.667h2.667v-2.666zm2.666 0h-2.666v2.667h2.666v-2.666zm5.334 0H88v2.667h2.667v-2.666zm2.666 0h-2.666v2.667h2.666v-2.666zm2.667 0h-2.666v2.667H96v-2.666zm5.333 0h-2.666v2.667h2.666v-2.666zm2.667 0h-2.667v2.667H104v-2.666zm2.667 0H104v2.667h2.667v-2.666zm-104 2.668H0V32h2.667v-2.666zm8 0H8V32h2.667v-2.666z" fill="#F2F4F6"/><path d="M13.333 29.334h-2.667V32h2.667v-2.666zm2.667 0h-2.666V32H16v-2.666zm5.333 0h-2.666V32h2.666v-2.666zm10.667 0h-2.666V32H32v-2.666zm13.333 0h-2.666V32h2.666v-2.666zm2.667 0h-2.666V32H48v-2.666zm2.667 0H48V32h2.667v-2.666zm2.666 0h-2.666V32h2.666v-2.666zm5.334 0H56V32h2.667v-2.666zm2.666 0h-2.666V32h2.666v-2.666zm2.667 0h-2.666V32H64v-2.666zm2.667 0H64V32h2.667v-2.666zm8 0H72V32h2.667v-2.666zm2.666 0h-2.666V32h2.666v-2.666zm2.667 0h-2.666V32H80v-2.666zm2.667 0H80V32h2.667v-2.666zm8 0H88V32h2.667v-2.666zm5.333 0h-2.666V32H96v-2.666zm2.667 0H96V32h2.667v-2.666zm2.666 0h-2.666V32h2.666v-2.666zm5.334 0H104V32h2.667v-2.666zm5.333 0h-2.667V32H112v-2.666zm8 0h-2.667V32H120v-2.666zM2.667 32H0v2.667h2.667V32zm10.666 0h-2.667v2.667h2.667V32zm5.334 0H16v2.667h2.667V32zm8 0H24v2.667h2.667V32z" fill="#F2F4F6"/><path d="M29.333 32h-2.666v2.667h2.666V32zM32 32h-2.666v2.667H32V32zm2.667 0H32v2.667h2.667V32zM40 32h-2.666v2.667H40V32zm5.333 0h-2.666v2.667h2.666V32zm5.334 0H48v2.667h2.667V32zm2.666 0h-2.666v2.667h2.666V32zm8 0h-2.666v2.667h2.666V32zM64 32h-2.666v2.667H64V32zm2.667 0H64v2.667h2.667V32zm10.666 0h-2.666v2.667h2.666V32zm8 0h-2.666v2.667h2.666V32zM88 32h-2.666v2.667H88V32zm2.667 0H88v2.667h2.667V32zm2.666 0h-2.666v2.667h2.666V32zM96 32h-2.666v2.667H96V32zm5.333 0h-2.666v2.667h2.666V32zM104 32h-2.667v2.667H104V32zm2.667 0H104v2.667h2.667V32zm2.666 0h-2.666v2.667h2.666V32zM112 32h-2.667v2.667H112V32zm5.333 0h-2.666v2.667h2.666V32zM2.667 34.666H0v2.667h2.667v-2.666z" fill="#F2F4F6"/><path d="M5.333 34.666H2.666v2.667h2.667v-2.666zm10.667 0h-2.666v2.667H16v-2.666zm5.333 0h-2.666v2.667h2.666v-2.666zm5.334 0H24v2.667h2.667v-2.666z" fill="#F2F4F6"/><path d="M29.333 34.666h-2.666v2.667h2.666v-2.666zm8 0h-2.666v2.667h2.666v-2.666zm2.667 0h-2.666v2.667H40v-2.666zm2.667 0H40v2.667h2.667v-2.666zm2.666 0h-2.666v2.667h2.666v-2.666zm10.667 0h-2.666v2.667H56v-2.666zm2.667 0H56v2.667h2.667v-2.666zm2.666 0h-2.666v2.667h2.666v-2.666zm8 0h-2.666v2.667h2.666v-2.666zm2.667 0h-2.666v2.667H72v-2.666zm5.333 0h-2.666v2.667h2.666v-2.666zm2.667 0h-2.666v2.667H80v-2.666zm8 0h-2.666v2.667H88v-2.666zm5.333 0h-2.666v2.667h2.666v-2.666zm2.667 0h-2.666v2.667H96v-2.666zm2.667 0H96v2.667h2.667v-2.666zm2.666 0h-2.666v2.667h2.666v-2.666zm5.334 0H104v2.667h2.667v-2.666zm2.666 0h-2.666v2.667h2.666v-2.666zm5.334 0H112v2.667h2.667v-2.666zm2.666 0h-2.666v2.667h2.666v-2.666zm-112 2.668H2.666V40h2.667v-2.666zm2.667 0H5.333V40H8v-2.666zm10.667 0H16V40h2.667v-2.666z" fill="#F2F4F6"/><path d="M21.333 37.334h-2.666V40h2.666v-2.666zm2.667 0h-2.666V40H24v-2.666zm2.667 0H24V40h2.667v-2.666zm10.666 0h-2.666V40h2.666v-2.666zm5.334 0H40V40h2.667v-2.666zm2.666 0h-2.666V40h2.666v-2.666zm5.334 0H48V40h2.667v-2.666zm5.333 0h-2.666V40H56v-2.666zm2.667 0H56V40h2.667v-2.666zm2.666 0h-2.666V40h2.666v-2.666zm13.334 0H72V40h2.667v-2.666zm5.333 0h-2.666V40H80v-2.666zm5.333 0h-2.666V40h2.666v-2.666zm5.334 0H88V40h2.667v-2.666zm2.666 0h-2.666V40h2.666v-2.666zm18.667 0h-2.667V40H112v-2.666zm5.333 0h-2.666V40h2.666v-2.666zM2.667 40H0v2.667h2.667V40zM8 40H5.333v2.667H8V40zm2.667 0H8v2.667h2.667V40z" fill="#F2F4F6"/><path d="M13.333 40h-2.667v2.667h2.667V40zM16 40h-2.666v2.667H16V40zm5.333 0h-2.666v2.667h2.666V40zm5.334 0H24v2.667h2.667V40zm10.666 0h-2.666v2.667h2.666V40zm5.334 0H40v2.667h2.667V40zm2.666 0h-2.666v2.667h2.666V40zM48 40h-2.666v2.667H48V40zm2.667 0H48v2.667h2.667V40zm2.666 0h-2.666v2.667h2.666V40zM56 40h-2.666v2.667H56V40zm2.667 0H56v2.667h2.667V40zM64 40h-2.666v2.667H64V40zm2.667 0H64v2.667h2.667V40zm2.666 0h-2.666v2.667h2.666V40zm13.334 0H80v2.667h2.667V40zm2.666 0h-2.666v2.667h2.666V40zM96 40h-2.666v2.667H96V40zm2.667 0H96v2.667h2.667V40zm2.666 0h-2.666v2.667h2.666V40zm5.334 0H104v2.667h2.667V40zM112 40h-2.667v2.667H112V40zm5.333 0h-2.666v2.667h2.666V40zM120 40h-2.667v2.667H120V40zM5.333 42.666H2.666v2.667h2.667v-2.666zm2.667 0H5.333v2.667H8v-2.666z" fill="#F2F4F6"/><path d="M16 42.666h-2.666v2.667H16v-2.666zm2.667 0H16v2.667h2.667v-2.666zm5.333 0h-2.666v2.667H24v-2.666zm2.667 0H24v2.667h2.667v-2.666z" fill="#F2F4F6"/><path d="M29.333 42.666h-2.666v2.667h2.666v-2.666zm5.334 0H32v2.667h2.667v-2.666zm8 0H40v2.667h2.667v-2.666zm2.666 0h-2.666v2.667h2.666v-2.666zm2.667 0h-2.666v2.667H48v-2.666zm5.333 0h-2.666v2.667h2.666v-2.666zm5.334 0H56v2.667h2.667v-2.666zm2.666 0h-2.666v2.667h2.666v-2.666zm2.667 0h-2.666v2.667H64v-2.666zm8 0h-2.666v2.667H72v-2.666zm2.667 0H72v2.667h2.667v-2.666zm5.333 0h-2.666v2.667H80v-2.666zm5.333 0h-2.666v2.667h2.666v-2.666zm2.667 0h-2.666v2.667H88v-2.666zm2.667 0H88v2.667h2.667v-2.666zm2.666 0h-2.666v2.667h2.666v-2.666zm2.667 0h-2.666v2.667H96v-2.666zm2.667 0H96v2.667h2.667v-2.666zm2.666 0h-2.666v2.667h2.666v-2.666zm2.667 0h-2.667v2.667H104v-2.666zm2.667 0H104v2.667h2.667v-2.666zm10.666 0h-2.666v2.667h2.666v-2.666zM2.667 45.334H0V48h2.667v-2.666zm5.333 0H5.333V48H8v-2.666zm8 0h-2.666V48H16v-2.666zm5.333 0h-2.666V48h2.666v-2.666zm2.667 0h-2.666V48H24v-2.666zm8 0h-2.666V48H32v-2.666zm5.333 0h-2.666V48h2.666v-2.666zm2.667 0h-2.666V48H40v-2.666zm2.667 0H40V48h2.667v-2.666zm8 0H48V48h2.667v-2.666zm5.333 0h-2.666V48H56v-2.666zm13.333 0h-2.666V48h2.666v-2.666zm8 0h-2.666V48h2.666v-2.666zm2.667 0h-2.666V48H80v-2.666zm2.667 0H80V48h2.667v-2.666zm5.333 0h-2.666V48H88v-2.666zm5.333 0h-2.666V48h2.666v-2.666zm2.667 0h-2.666V48H96v-2.666zm2.667 0H96V48h2.667v-2.666zm10.666 0h-2.666V48h2.666v-2.666zm5.334 0H112V48h2.667v-2.666zm2.666 0h-2.666V48h2.666v-2.666zm2.667 0h-2.667V48H120v-2.666zM13.333 48h-2.667v2.667h2.667V48zm5.334 0H16v2.667h2.667V48z" fill="#F2F4F6"/><path d="M21.333 48h-2.666v2.667h2.666V48zM40 48h-2.666v2.667H40V48zm2.667 0H40v2.667h2.667V48zm2.666 0h-2.666v2.667h2.666V48zM48 48h-2.666v2.667H48V48zm5.333 0h-2.666v2.667h2.666V48zM56 48h-2.666v2.667H56V48zm13.333 0h-2.666v2.667h2.666V48zM80 48h-2.666v2.667H80V48zm2.667 0H80v2.667h2.667V48zm2.666 0h-2.666v2.667h2.666V48zm8 0h-2.666v2.667h2.666V48zM2.667 50.666H0v2.667h2.667v-2.666z" fill="#F2F4F6"/><path d="M5.333 50.666H2.666v2.667h2.667v-2.666zm5.334 0H8v2.667h2.667v-2.666z" fill="#F2F4F6"/><path d="M13.333 50.666h-2.667v2.667h2.667v-2.666zm2.667 0h-2.666v2.667H16v-2.666zm5.333 0h-2.666v2.667h2.666v-2.666zm2.667 0h-2.666v2.667H24v-2.666zm10.667 0H32v2.667h2.667v-2.666zm2.666 0h-2.666v2.667h2.666v-2.666zm2.667 0h-2.666v2.667H40v-2.666zm2.667 0H40v2.667h2.667v-2.666zm5.333 0h-2.666v2.667H48v-2.666zm5.333 0h-2.666v2.667h2.666v-2.666zm5.334 0H56v2.667h2.667v-2.666zm13.333 0h-2.666v2.667H72v-2.666zm10.667 0H80v2.667h2.667v-2.666zm2.666 0h-2.666v2.667h2.666v-2.666zm10.667 0h-2.666v2.667H96v-2.666zm2.667 0H96v2.667h2.667v-2.666zm2.666 0h-2.666v2.667h2.666v-2.666zm5.334 0H104v2.667h2.667v-2.666zm5.333 0h-2.667v2.667H112v-2.666zm5.333 0h-2.666v2.667h2.666v-2.666zm2.667 0h-2.667v2.667H120v-2.666zM5.333 53.334H2.666V56h2.667v-2.666zm5.334 0H8V56h2.667v-2.666z" fill="#F2F4F6"/><path d="M13.333 53.334h-2.667V56h2.667v-2.666zm2.667 0h-2.666V56H16v-2.666zm2.667 0H16V56h2.667v-2.666z" fill="#F2F4F6"/><path d="M21.333 53.334h-2.666V56h2.666v-2.666zm2.667 0h-2.666V56H24v-2.666zm16 0h-2.666V56H40v-2.666zm5.333 0h-2.666V56h2.666v-2.666zm8 0h-2.666V56h2.666v-2.666zm2.667 0h-2.666V56H56v-2.666zm2.667 0H56V56h2.667v-2.666zm2.666 0h-2.666V56h2.666v-2.666zm2.667 0h-2.666V56H64v-2.666zm2.667 0H64V56h2.667v-2.666zm2.666 0h-2.666V56h2.666v-2.666zm8 0h-2.666V56h2.666v-2.666zm5.334 0H80V56h2.667v-2.666zm8 0H88V56h2.667v-2.666zm2.666 0h-2.666V56h2.666v-2.666zm2.667 0h-2.666V56H96v-2.666zm2.667 0H96V56h2.667v-2.666zm2.666 0h-2.666V56h2.666v-2.666zm2.667 0h-2.667V56H104v-2.666zm2.667 0H104V56h2.667v-2.666zm2.666 0h-2.666V56h2.666v-2.666zm8 0h-2.666V56h2.666v-2.666zM8 56H5.333v2.667H8V56zm2.667 0H8v2.667h2.667V56z" fill="#F2F4F6"/><path d="M13.333 56h-2.667v2.667h2.667V56zM24 56h-2.666v2.667H24V56zm5.333 0h-2.666v2.667h2.666V56zm13.334 0H40v2.667h2.667V56zm2.666 0h-2.666v2.667h2.666V56zM48 56h-2.666v2.667H48V56zm8 0h-2.666v2.667H56V56zm10.667 0H64v2.667h2.667V56zm2.666 0h-2.666v2.667h2.666V56zm5.334 0H72v2.667h2.667V56zm2.666 0h-2.666v2.667h2.666V56zm5.334 0H80v2.667h2.667V56zM88 56h-2.666v2.667H88V56zm2.667 0H88v2.667h2.667V56zm2.666 0h-2.666v2.667h2.666V56zM96 56h-2.666v2.667H96V56zm2.667 0H96v2.667h2.667V56zm10.666 0h-2.666v2.667h2.666V56zm5.334 0H112v2.667h2.667V56zm-112 2.666H0v2.667h2.667v-2.666zm5.333 0H5.333v2.667H8v-2.666z" fill="#F2F4F6"/><path d="M13.333 58.666h-2.667v2.667h2.667v-2.666zm5.334 0H16v2.667h2.667v-2.666zm5.333 0h-2.666v2.667H24v-2.666zm2.667 0H24v2.667h2.667v-2.666z" fill="#F2F4F6"/><path d="M29.333 58.666h-2.666v2.667h2.666v-2.666zm2.667 0h-2.666v2.667H32v-2.666zm5.333 0h-2.666v2.667h2.666v-2.666zm8 0h-2.666v2.667h2.666v-2.666zm2.667 0h-2.666v2.667H48v-2.666zm2.667 0H48v2.667h2.667v-2.666zm2.666 0h-2.666v2.667h2.666v-2.666zm2.667 0h-2.666v2.667H56v-2.666zm5.333 0h-2.666v2.667h2.666v-2.666zm5.334 0H64v2.667h2.667v-2.666zm8 0H72v2.667h2.667v-2.666zm2.666 0h-2.666v2.667h2.666v-2.666zm5.334 0H80v2.667h2.667v-2.666zm2.666 0h-2.666v2.667h2.666v-2.666zm13.334 0H96v2.667h2.667v-2.666zm5.333 0h-2.667v2.667H104v-2.666zm5.333 0h-2.666v2.667h2.666v-2.666zm8 0h-2.666v2.667h2.666v-2.666zM10.667 61.334H8V64h2.667v-2.666z" fill="#F2F4F6"/><path d="M13.333 61.334h-2.667V64h2.667v-2.666zm10.667 0h-2.666V64H24v-2.666zm2.667 0H24V64h2.667v-2.666zm10.666 0h-2.666V64h2.666v-2.666zm5.334 0H40V64h2.667v-2.666zm5.333 0h-2.666V64H48v-2.666zm2.667 0H48V64h2.667v-2.666zm5.333 0h-2.666V64H56v-2.666zm10.667 0H64V64h2.667v-2.666zm5.333 0h-2.666V64H72v-2.666zm2.667 0H72V64h2.667v-2.666zm2.666 0h-2.666V64h2.666v-2.666zm10.667 0h-2.666V64H88v-2.666zm2.667 0H88V64h2.667v-2.666zm8 0H96V64h2.667v-2.666zm10.666 0h-2.666V64h2.666v-2.666zm2.667 0h-2.667V64H112v-2.666zm8 0h-2.667V64H120v-2.666zM5.333 64H2.666v2.667h2.667V64zm5.334 0H8v2.667h2.667V64z" fill="#F2F4F6"/><path d="M13.333 64h-2.667v2.667h2.667V64zM16 64h-2.666v2.667H16V64zm2.667 0H16v2.667h2.667V64z" fill="#F2F4F6"/><path d="M21.333 64h-2.666v2.667h2.666V64zM24 64h-2.666v2.667H24V64zm2.667 0H24v2.667h2.667V64z" fill="#F2F4F6"/><path d="M29.333 64h-2.666v2.667h2.666V64zm5.334 0H32v2.667h2.667V64zm2.666 0h-2.666v2.667h2.666V64zM40 64h-2.666v2.667H40V64zm2.667 0H40v2.667h2.667V64zM48 64h-2.666v2.667H48V64zm2.667 0H48v2.667h2.667V64zM56 64h-2.666v2.667H56V64zm2.667 0H56v2.667h2.667V64zm2.666 0h-2.666v2.667h2.666V64zM64 64h-2.666v2.667H64V64zm2.667 0H64v2.667h2.667V64zM72 64h-2.666v2.667H72V64zm5.333 0h-2.666v2.667h2.666V64zm5.334 0H80v2.667h2.667V64zm2.666 0h-2.666v2.667h2.666V64zm8 0h-2.666v2.667h2.666V64zM96 64h-2.666v2.667H96V64zm2.667 0H96v2.667h2.667V64zm2.666 0h-2.666v2.667h2.666V64zM104 64h-2.667v2.667H104V64zm2.667 0H104v2.667h2.667V64zm2.666 0h-2.666v2.667h2.666V64zM112 64h-2.667v2.667H112V64zm8 0h-2.667v2.667H120V64zM2.667 66.666H0v2.667h2.667v-2.666z" fill="#F2F4F6"/><path d="M5.333 66.666H2.666v2.667h2.667v-2.666zm2.667 0H5.333v2.667H8v-2.666zm2.667 0H8v2.667h2.667v-2.666z" fill="#F2F4F6"/><path d="M13.333 66.666h-2.667v2.667h2.667v-2.666zm18.667 0h-2.666v2.667H32v-2.666zm8 0h-2.666v2.667H40v-2.666zm8 0h-2.666v2.667H48v-2.666zm2.667 0H48v2.667h2.667v-2.666zm2.666 0h-2.666v2.667h2.666v-2.666zm2.667 0h-2.666v2.667H56v-2.666zm5.333 0h-2.666v2.667h2.666v-2.666zm2.667 0h-2.666v2.667H64v-2.666zm2.667 0H64v2.667h2.667v-2.666zm2.666 0h-2.666v2.667h2.666v-2.666zm2.667 0h-2.666v2.667H72v-2.666zm5.333 0h-2.666v2.667h2.666v-2.666zm8 0h-2.666v2.667h2.666v-2.666zm2.667 0h-2.666v2.667H88v-2.666zm2.667 0H88v2.667h2.667v-2.666zm2.666 0h-2.666v2.667h2.666v-2.666zm2.667 0h-2.666v2.667H96v-2.666zm5.333 0h-2.666v2.667h2.666v-2.666zm2.667 0h-2.667v2.667H104v-2.666zm2.667 0H104v2.667h2.667v-2.666zm5.333 0h-2.667v2.667H112v-2.666zm2.667 0H112v2.667h2.667v-2.666zm5.333 0h-2.667v2.667H120v-2.666zM2.667 69.334H0V72h2.667v-2.666zm5.333 0H5.333V72H8v-2.666zm2.667 0H8V72h2.667v-2.666z" fill="#F2F4F6"/><path d="M13.333 69.334h-2.667V72h2.667v-2.666zm2.667 0h-2.666V72H16v-2.666zm2.667 0H16V72h2.667v-2.666zm5.333 0h-2.666V72H24v-2.666zm2.667 0H24V72h2.667v-2.666z" fill="#F2F4F6"/><path d="M29.333 69.334h-2.666V72h2.666v-2.666zm2.667 0h-2.666V72H32v-2.666zm2.667 0H32V72h2.667v-2.666zm2.666 0h-2.666V72h2.666v-2.666zm2.667 0h-2.666V72H40v-2.666zm16 0h-2.666V72H56v-2.666zm2.667 0H56V72h2.667v-2.666zm5.333 0h-2.666V72H64v-2.666zm5.333 0h-2.666V72h2.666v-2.666zm5.334 0H72V72h2.667v-2.666zm5.333 0h-2.666V72H80v-2.666zm18.667 0H96V72h2.667v-2.666zm10.666 0h-2.666V72h2.666v-2.666zm2.667 0h-2.667V72H112v-2.666zM5.333 72H2.666v2.667h2.667V72zM8 72H5.333v2.667H8V72zm5.333 0h-2.667v2.667h2.667V72zm13.334 0H24v2.667h2.667V72z" fill="#F2F4F6"/><path d="M29.333 72h-2.666v2.667h2.666V72zM32 72h-2.666v2.667H32V72zm5.333 0h-2.666v2.667h2.666V72zm13.334 0H48v2.667h2.667V72zm2.666 0h-2.666v2.667h2.666V72zM56 72h-2.666v2.667H56V72zm2.667 0H56v2.667h2.667V72zM64 72h-2.666v2.667H64V72zm2.667 0H64v2.667h2.667V72zM72 72h-2.666v2.667H72V72zm5.333 0h-2.666v2.667h2.666V72zM80 72h-2.666v2.667H80V72zm5.333 0h-2.666v2.667h2.666V72zm5.334 0H88v2.667h2.667V72zm8 0H96v2.667h2.667V72zM112 72h-2.667v2.667H112V72zm2.667 0H112v2.667h2.667V72zm2.666 0h-2.666v2.667h2.666V72zM120 72h-2.667v2.667H120V72zM8 74.666H5.333v2.667H8v-2.666zm2.667 0H8v2.667h2.667v-2.666zm8 0H16v2.667h2.667v-2.666z" fill="#F2F4F6"/><path d="M21.333 74.666h-2.666v2.667h2.666v-2.666zm5.334 0H24v2.667h2.667v-2.666z" fill="#F2F4F6"/><path d="M29.333 74.666h-2.666v2.667h2.666v-2.666zm2.667 0h-2.666v2.667H32v-2.666zm2.667 0H32v2.667h2.667v-2.666zm5.333 0h-2.666v2.667H40v-2.666zm10.667 0H48v2.667h2.667v-2.666zm2.666 0h-2.666v2.667h2.666v-2.666zm2.667 0h-2.666v2.667H56v-2.666zm2.667 0H56v2.667h2.667v-2.666zm5.333 0h-2.666v2.667H64v-2.666zm5.333 0h-2.666v2.667h2.666v-2.666zm5.334 0H72v2.667h2.667v-2.666zm5.333 0h-2.666v2.667H80v-2.666zm10.667 0H88v2.667h2.667v-2.666zm2.666 0h-2.666v2.667h2.666v-2.666zm2.667 0h-2.666v2.667H96v-2.666zm5.333 0h-2.666v2.667h2.666v-2.666zm5.334 0H104v2.667h2.667v-2.666zm5.333 0h-2.667v2.667H112v-2.666zm2.667 0H112v2.667h2.667v-2.666zm2.666 0h-2.666v2.667h2.666v-2.666zM10.667 77.334H8V80h2.667v-2.666z" fill="#F2F4F6"/><path d="M13.333 77.334h-2.667V80h2.667v-2.666zm18.667 0h-2.666V80H32v-2.666zm5.333 0h-2.666V80h2.666v-2.666zm2.667 0h-2.666V80H40v-2.666zm5.333 0h-2.666V80h2.666v-2.666zm10.667 0h-2.666V80H56v-2.666zm5.333 0h-2.666V80h2.666v-2.666zm13.334 0H72V80h2.667v-2.666zm5.333 0h-2.666V80H80v-2.666zm8 0h-2.666V80H88v-2.666zm5.333 0h-2.666V80h2.666v-2.666zm2.667 0h-2.666V80H96v-2.666zm2.667 0H96V80h2.667v-2.666zm5.333 0h-2.667V80H104v-2.666zm8 0h-2.667V80H112v-2.666zm2.667 0H112V80h2.667v-2.666zm2.666 0h-2.666V80h2.666v-2.666zM16 80h-2.666v2.667H16V80zm2.667 0H16v2.667h2.667V80zm10.666 0h-2.666v2.667h2.666V80zm13.334 0H40v2.667h2.667V80zm16 0H56v2.667h2.667V80zm2.666 0h-2.666v2.667h2.666V80zM64 80h-2.666v2.667H64V80zm13.333 0h-2.666v2.667h2.666V80zM80 80h-2.666v2.667H80V80zm2.667 0H80v2.667h2.667V80zm2.666 0h-2.666v2.667h2.666V80zm8 0h-2.666v2.667h2.666V80zm5.334 0H96v2.667h2.667V80zm2.666 0h-2.666v2.667h2.666V80zm8 0h-2.666v2.667h2.666V80zm8 0h-2.666v2.667h2.666V80zM120 80h-2.667v2.667H120V80zM2.667 82.666H0v2.667h2.667v-2.666z" fill="#F2F4F6"/><path d="M16 82.666h-2.666v2.667H16v-2.666zm5.333 0h-2.666v2.667h2.666v-2.666zm5.334 0H24v2.667h2.667v-2.666zm5.333 0h-2.666v2.667H32v-2.666zm2.667 0H32v2.667h2.667v-2.666zm2.666 0h-2.666v2.667h2.666v-2.666zm2.667 0h-2.666v2.667H40v-2.666zm2.667 0H40v2.667h2.667v-2.666zm2.666 0h-2.666v2.667h2.666v-2.666zm2.667 0h-2.666v2.667H48v-2.666zm2.667 0H48v2.667h2.667v-2.666zm5.333 0h-2.666v2.667H56v-2.666zm2.667 0H56v2.667h2.667v-2.666zm5.333 0h-2.666v2.667H64v-2.666zm5.333 0h-2.666v2.667h2.666v-2.666zm2.667 0h-2.666v2.667H72v-2.666zm2.667 0H72v2.667h2.667v-2.666zm2.666 0h-2.666v2.667h2.666v-2.666zm5.334 0H80v2.667h2.667v-2.666zm2.666 0h-2.666v2.667h2.666v-2.666zm2.667 0h-2.666v2.667H88v-2.666zm8 0h-2.666v2.667H96v-2.666zm5.333 0h-2.666v2.667h2.666v-2.666zm18.667 0h-2.667v2.667H120v-2.666zM2.667 85.334H0V88h2.667v-2.666z" fill="#F2F4F6"/><path d="M5.333 85.334H2.666V88h2.667v-2.666zm2.667 0H5.333V88H8v-2.666zm2.667 0H8V88h2.667v-2.666zm5.333 0h-2.666V88H16v-2.666zm2.667 0H16V88h2.667v-2.666z" fill="#F2F4F6"/><path d="M21.333 85.334h-2.666V88h2.666v-2.666zm10.667 0h-2.666V88H32v-2.666zm13.333 0h-2.666V88h2.666v-2.666zm5.334 0H48V88h2.667v-2.666zm2.666 0h-2.666V88h2.666v-2.666zm10.667 0h-2.666V88H64v-2.666zm8 0h-2.666V88H72v-2.666zm2.667 0H72V88h2.667v-2.666zm2.666 0h-2.666V88h2.666v-2.666zm2.667 0h-2.666V88H80v-2.666zm2.667 0H80V88h2.667v-2.666zm2.666 0h-2.666V88h2.666v-2.666zm5.334 0H88V88h2.667v-2.666zm2.666 0h-2.666V88h2.666v-2.666zm2.667 0h-2.666V88H96v-2.666zm2.667 0H96V88h2.667v-2.666zm8 0H104V88h2.667v-2.666zm5.333 0h-2.667V88H112v-2.666zm2.667 0H112V88h2.667v-2.666zM2.667 88H0v2.667h2.667V88z" fill="#F2F4F6"/><path d="M5.333 88H2.666v2.667h2.667V88zM8 88H5.333v2.667H8V88zm8 0h-2.666v2.667H16V88zm8 0h-2.666v2.667H24V88zm5.333 0h-2.666v2.667h2.666V88zM32 88h-2.666v2.667H32V88zm2.667 0H32v2.667h2.667V88zm8 0H40v2.667h2.667V88zm8 0H48v2.667h2.667V88zm2.666 0h-2.666v2.667h2.666V88zM56 88h-2.666v2.667H56V88zm5.333 0h-2.666v2.667h2.666V88zm5.334 0H64v2.667h2.667V88zm2.666 0h-2.666v2.667h2.666V88zm13.334 0H80v2.667h2.667V88zM88 88h-2.666v2.667H88V88zm2.667 0H88v2.667h2.667V88zM96 88h-2.666v2.667H96V88zm5.333 0h-2.666v2.667h2.666V88zM104 88h-2.667v2.667H104V88zm8 0h-2.667v2.667H112V88zm2.667 0H112v2.667h2.667V88zM120 88h-2.667v2.667H120V88zM13.333 90.666h-2.667v2.667h2.667v-2.666zm5.334 0H16v2.667h2.667v-2.666z" fill="#F2F4F6"/><path d="M21.333 90.666h-2.666v2.667h2.666v-2.666zm2.667 0h-2.666v2.667H24v-2.666zm8 0h-2.666v2.667H32v-2.666zm5.333 0h-2.666v2.667h2.666v-2.666zm8 0h-2.666v2.667h2.666v-2.666zm2.667 0h-2.666v2.667H48v-2.666zm8 0h-2.666v2.667H56v-2.666zm2.667 0H56v2.667h2.667v-2.666zm2.666 0h-2.666v2.667h2.666v-2.666zm2.667 0h-2.666v2.667H64v-2.666zm2.667 0H64v2.667h2.667v-2.666zm5.333 0h-2.666v2.667H72v-2.666zm2.667 0H72v2.667h2.667v-2.666zm2.666 0h-2.666v2.667h2.666v-2.666zm5.334 0H80v2.667h2.667v-2.666zm2.666 0h-2.666v2.667h2.666v-2.666zm8 0h-2.666v2.667h2.666v-2.666zm10.667 0h-2.667v2.667H104v-2.666zm2.667 0H104v2.667h2.667v-2.666zm2.666 0h-2.666v2.667h2.666v-2.666zm-104 2.668H2.666V96h2.667v-2.666zm2.667 0H5.333V96H8v-2.666zm2.667 0H8V96h2.667v-2.666z" fill="#F2F4F6"/><path d="M13.333 93.334h-2.667V96h2.667v-2.666zm10.667 0h-2.666V96H24v-2.666zm5.333 0h-2.666V96h2.666v-2.666zm10.667 0h-2.666V96H40v-2.666zm8 0h-2.666V96H48v-2.666zm2.667 0H48V96h2.667v-2.666zm5.333 0h-2.666V96H56v-2.666zm2.667 0H56V96h2.667v-2.666zm5.333 0h-2.666V96H64v-2.666zm2.667 0H64V96h2.667v-2.666zm5.333 0h-2.666V96H72v-2.666zm2.667 0H72V96h2.667v-2.666zm8 0H80V96h2.667v-2.666zm2.666 0h-2.666V96h2.666v-2.666zm2.667 0h-2.666V96H88v-2.666zm8 0h-2.666V96H96v-2.666zm21.333 0h-2.666V96h2.666v-2.666zm2.667 0h-2.667V96H120v-2.666zM2.667 96H0v2.667h2.667V96zm8 0H8v2.667h2.667V96z" fill="#F2F4F6"/><path d="M13.333 96h-2.667v2.667h2.667V96zm5.334 0H16v2.667h2.667V96zm8 0H24v2.667h2.667V96zM32 96h-2.666v2.667H32V96zm5.333 0h-2.666v2.667h2.666V96zM40 96h-2.666v2.667H40V96zm8 0h-2.666v2.667H48V96zm5.333 0h-2.666v2.667h2.666V96zM56 96h-2.666v2.667H56V96zm2.667 0H56v2.667h2.667V96zm2.666 0h-2.666v2.667h2.666V96zM64 96h-2.666v2.667H64V96zm2.667 0H64v2.667h2.667V96zM72 96h-2.666v2.667H72V96zm5.333 0h-2.666v2.667h2.666V96zm8 0h-2.666v2.667h2.666V96zM88 96h-2.666v2.667H88V96zm2.667 0H88v2.667h2.667V96zm2.666 0h-2.666v2.667h2.666V96zM96 96h-2.666v2.667H96V96zm2.667 0H96v2.667h2.667V96zm2.666 0h-2.666v2.667h2.666V96zM104 96h-2.667v2.667H104V96zm2.667 0H104v2.667h2.667V96zm2.666 0h-2.666v2.667h2.666V96zm5.334 0H112v2.667h2.667V96zm2.666 0h-2.666v2.667h2.666V96zM24 98.666h-2.666v2.667H24v-2.666zm18.667 0H40v2.667h2.667v-2.666z" fill="#F2F4F6"/><path d="M48 98.666h-2.666v2.667H48v-2.666zm2.667 0H48v2.667h2.667v-2.666zm2.666 0h-2.666v2.667h2.666v-2.666zm2.667 0h-2.666v2.667H56v-2.666zm10.667 0H64v2.667h2.667v-2.666zm2.666 0h-2.666v2.667h2.666v-2.666zm8 0h-2.666v2.667h2.666v-2.666zm2.667 0h-2.666v2.667H80v-2.666zm8 0h-2.666v2.667H88v-2.666zm5.333 0h-2.666v2.667h2.666v-2.666zm5.334 0H96v2.667h2.667v-2.666zm10.666 0h-2.666v2.667h2.666v-2.666zm2.667 0h-2.667v2.667H112v-2.666zm2.667 0H112v2.667h2.667v-2.666zm-112 2.667H0V104h2.667v-2.667z" fill="#F2F4F6"/><path d="M5.333 101.333H2.666V104h2.667v-2.667zm2.667 0H5.333V104H8v-2.667zm2.667 0H8V104h2.667v-2.667z" fill="#F2F4F6"/><path d="M13.333 101.333h-2.667V104h2.667v-2.667zm2.667 0h-2.666V104H16v-2.667zm2.667 0H16V104h2.667v-2.667zm8 0H24V104h2.667v-2.667z" fill="#F2F4F6"/><path d="M29.333 101.333h-2.666V104h2.666v-2.667zm8 0h-2.666V104h2.666v-2.667zm2.667 0h-2.666V104H40v-2.667zm10.667 0H48V104h2.667v-2.667zm2.666 0h-2.666V104h2.666v-2.667zm2.667 0h-2.666V104H56v-2.667zm5.333 0h-2.666V104h2.666v-2.667zm5.334 0H64V104h2.667v-2.667zm10.666 0h-2.666V104h2.666v-2.667zm8 0h-2.666V104h2.666v-2.667zm8 0h-2.666V104h2.666v-2.667zm2.667 0h-2.666V104H96v-2.667zm2.667 0H96V104h2.667v-2.667zm5.333 0h-2.667V104H104v-2.667zm5.333 0h-2.666V104h2.666v-2.667zM2.667 104H0v2.667h2.667V104zm16 0H16v2.667h2.667V104zM32 104h-2.666v2.667H32V104zm2.667 0H32v2.667h2.667V104zM56 104h-2.666v2.667H56V104zm10.667 0H64v2.667h2.667V104zm10.666 0h-2.666v2.667h2.666V104zm8 0h-2.666v2.667h2.666V104zM88 104h-2.666v2.667H88V104zm10.667 0H96v2.667h2.667V104zm10.666 0h-2.666v2.667h2.666V104zm5.334 0H112v2.667h2.667V104zm2.666 0h-2.666v2.667h2.666V104zm2.667 0h-2.667v2.667H120V104zM2.667 106.667H0v2.666h2.667v-2.666zm5.333 0H5.333v2.666H8v-2.666zm2.667 0H8v2.666h2.667v-2.666z" fill="#F2F4F6"/><path d="M13.333 106.667h-2.667v2.666h2.667v-2.666zm5.334 0H16v2.666h2.667v-2.666zm5.333 0h-2.666v2.666H24v-2.666zm2.667 0H24v2.666h2.667v-2.666zm5.333 0h-2.666v2.666H32v-2.666zm5.333 0h-2.666v2.666h2.666v-2.666zm2.667 0h-2.666v2.666H40v-2.666zm10.667 0H48v2.666h2.667v-2.666zm2.666 0h-2.666v2.666h2.666v-2.666zm2.667 0h-2.666v2.666H56v-2.666zm2.667 0H56v2.666h2.667v-2.666zm2.666 0h-2.666v2.666h2.666v-2.666zm2.667 0h-2.666v2.666H64v-2.666zm2.667 0H64v2.666h2.667v-2.666zm2.666 0h-2.666v2.666h2.666v-2.666zm5.334 0H72v2.666h2.667v-2.666zm10.666 0h-2.666v2.666h2.666v-2.666zm2.667 0h-2.666v2.666H88v-2.666zm2.667 0H88v2.666h2.667v-2.666zm2.666 0h-2.666v2.666h2.666v-2.666zm5.334 0H96v2.666h2.667v-2.666zm2.666 0h-2.666v2.666h2.666v-2.666zm2.667 0h-2.667v2.666H104v-2.666zm2.667 0H104v2.666h2.667v-2.666zm2.666 0h-2.666v2.666h2.666v-2.666zm2.667 0h-2.667v2.666H112v-2.666zm2.667 0H112v2.666h2.667v-2.666zm2.666 0h-2.666v2.666h2.666v-2.666zM2.667 109.333H0V112h2.667v-2.667zm5.333 0H5.333V112H8v-2.667zm2.667 0H8V112h2.667v-2.667z" fill="#F2F4F6"/><path d="M13.333 109.333h-2.667V112h2.667v-2.667zm5.334 0H16V112h2.667v-2.667zm5.333 0h-2.666V112H24v-2.667zm10.667 0H32V112h2.667v-2.667zm5.333 0h-2.666V112H40v-2.667zm2.667 0H40V112h2.667v-2.667zm5.333 0h-2.666V112H48v-2.667zm5.333 0h-2.666V112h2.666v-2.667zm10.667 0h-2.666V112H64v-2.667zm5.333 0h-2.666V112h2.666v-2.667zm2.667 0h-2.666V112H72v-2.667zm5.333 0h-2.666V112h2.666v-2.667zm2.667 0h-2.666V112H80v-2.667zm2.667 0H80V112h2.667v-2.667zm5.333 0h-2.666V112H88v-2.667zm2.667 0H88V112h2.667v-2.667zm8 0H96V112h2.667v-2.667zm2.666 0h-2.666V112h2.666v-2.667zm5.334 0H104V112h2.667v-2.667zm5.333 0h-2.667V112H112v-2.667zm2.667 0H112V112h2.667v-2.667zm2.666 0h-2.666V112h2.666v-2.667zM2.667 112H0v2.667h2.667V112zM8 112H5.333v2.667H8V112zm2.667 0H8v2.667h2.667V112z" fill="#F2F4F6"/><path d="M13.333 112h-2.667v2.667h2.667V112zm5.334 0H16v2.667h2.667V112zM24 112h-2.666v2.667H24V112zm10.667 0H32v2.667h2.667V112zm2.666 0h-2.666v2.667h2.666V112zm13.334 0H48v2.667h2.667V112zm10.666 0h-2.666v2.667h2.666V112zm8 0h-2.666v2.667h2.666V112zM72 112h-2.666v2.667H72V112zm2.667 0H72v2.667h2.667V112zM80 112h-2.666v2.667H80V112zm2.667 0H80v2.667h2.667V112zm10.666 0h-2.666v2.667h2.666V112zM96 112h-2.666v2.667H96V112zm5.333 0h-2.666v2.667h2.666V112zm2.667 0h-2.667v2.667H104V112zM2.667 114.667H0v2.666h2.667v-2.666zm16 0H16v2.666h2.667v-2.666zm8 0H24v2.666h2.667v-2.666zm8 0H32v2.666h2.667v-2.666zm2.666 0h-2.666v2.666h2.666v-2.666zm2.667 0h-2.666v2.666H40v-2.666zm2.667 0H40v2.666h2.667v-2.666zm13.333 0h-2.666v2.666H56v-2.666zm2.667 0H56v2.666h2.667v-2.666zm10.666 0h-2.666v2.666h2.666v-2.666zm2.667 0h-2.666v2.666H72v-2.666zm10.667 0H80v2.666h2.667v-2.666zm2.666 0h-2.666v2.666h2.666v-2.666zm2.667 0h-2.666v2.666H88v-2.666zm2.667 0H88v2.666h2.667v-2.666zm18.666 0h-2.666v2.666h2.666v-2.666zm5.334 0H112v2.666h2.667v-2.666zm2.666 0h-2.666v2.666h2.666v-2.666zm2.667 0h-2.667v2.666H120v-2.666zM2.667 117.333H0V120h2.667v-2.667z" fill="#F2F4F6"/><path d="M5.333 117.333H2.666V120h2.667v-2.667zm2.667 0H5.333V120H8v-2.667zm2.667 0H8V120h2.667v-2.667z" fill="#F2F4F6"/><path d="M13.333 117.333h-2.667V120h2.667v-2.667zm2.667 0h-2.666V120H16v-2.667zm2.667 0H16V120h2.667v-2.667zm16 0H32V120h2.667v-2.667zm2.666 0h-2.666V120h2.666v-2.667zm5.334 0H40V120h2.667v-2.667zm8 0H48V120h2.667v-2.667zm5.333 0h-2.666V120H56v-2.667zm5.333 0h-2.666V120h2.666v-2.667zm8 0h-2.666V120h2.666v-2.667zm2.667 0h-2.666V120H72v-2.667zm2.667 0H72V120h2.667v-2.667zm2.666 0h-2.666V120h2.666v-2.667zm2.667 0h-2.666V120H80v-2.667zm5.333 0h-2.666V120h2.666v-2.667zm8 0h-2.666V120h2.666v-2.667zm2.667 0h-2.666V120H96v-2.667zm2.667 0H96V120h2.667v-2.667zm13.333 0h-2.667V120H112v-2.667zm2.667 0H112V120h2.667v-2.667zm2.666 0h-2.666V120h2.666v-2.667z" fill="#F2F4F6"/></svg>