<svg width="24" height="24" viewBox="0 0 24 24" fill="none" xmlns="http://www.w3.org/2000/svg"><g clip-path="url(#clip0_813_3034)"><path d="M13.341 3.07a3 3 0 00-2.683 0L4.8 6v8.028C4.8 16.2 7.362 18.67 12 21.6c4.637-2.929 7.2-4.8 7.2-7.572V6l-5.86-2.93z" stroke="#F2F4F6" stroke-width="2" stroke-linejoin="round"/><path d="M15.22 15h-1.61l-1.39-2.64h-1V15H9.83V9.41c0-.533.123-.92.37-1.16.247-.247.66-.37 1.24-.37h1.18c.707 0 1.267.217 1.68.65.42.427.63.97.63 1.63 0 .48-.127.897-.38 1.25a1.924 1.924 0 01-.92.72L15.22 15zm-2.69-3.8a.94.94 0 00.72-.3c.193-.207.29-.46.29-.76 0-.307-.093-.553-.28-.74-.18-.187-.423-.28-.73-.28h-.69c-.413 0-.62.21-.62.63v1.45h1.31z" fill="#fff"/></g><defs><clipPath id="clip0_813_3034"><path fill="#fff" d="M0 0h24v24H0z"/></clipPath></defs></svg>