<svg width="24" height="24" viewBox="0 0 24 24" fill="none" xmlns="http://www.w3.org/2000/svg"><path fill-rule="evenodd" clip-rule="evenodd" d="M5.205 9.795a1.125 1.125 0 011.59 1.591l-1.09 1.091a4.115 4.115 0 005.818 5.819l1.09-1.091a1.125 1.125 0 011.59 1.59l-1.088 1.09a6.364 6.364 0 01-9-9l1.09-1.09zm12 2.819a1.125 1.125 0 001.59 1.59l1.09-1.09a6.364 6.364 0 00-9-9l-1.09 1.091a1.125 1.125 0 001.591 1.59l1.091-1.09a4.115 4.115 0 015.819 5.818l-1.091 1.09zm-1.41-2.819a1.124 1.124 0 10-1.59-1.59l-6 6a1.125 1.125 0 101.59 1.59l6-6z" fill="#F2F4F6"/></svg>