<svg width="93" height="87" viewBox="0 0 93 87" fill="none" xmlns="http://www.w3.org/2000/svg"><path d="M58.329 39.659c-.123 1.578 1.356 2.962 2.594 3.718 1.455.884 3.402-.123 4.57-1.086a101.178 101.178 0 004.861-4.286c4.187-3.922 7.932-7.313 11.237-10.173 2.891-2.5 6.123-1.446 7.451 1.984.534 1.38-.17 3.043-1.106 4.03-1.222 1.292-2.824 2.822-4.805 4.589a7476.121 7476.121 0 00-46.405 41.807c-4.864 4.42-10.458 6.494-16.784 6.223a20.405 20.405 0 01-4.99-.822c-4.683-1.389-8.39-4.032-11.122-7.928-1.252-1.787-1.762-3.559-2.778-5.354a6.279 6.279 0 01-.747-2.25c-.318-2.305-.387-4.51-.208-6.614.504-5.92 3.057-10.917 7.66-14.993a1995.259 1995.259 0 0026.271-23.687c1.096-1.006 2.85-2.74 4.38-2.717a10.15 10.15 0 012.51.355c1.083.296 1.771 1.063 2.064 2.3.488 2.08-.028 3.784-1.55 5.113-1.828 1.593-3.799 3.03-5.17 5.06-.673 1.006-.83 2.042-.472 3.11 1.012 2.996 4.088 4.097 6.691 2.103a59.617 59.617 0 003.681-3.1A53696.604 53696.604 0 0183.679 3.072 41.681 41.681 0 0186.353.847c1.777-1.356 3.634-.832 5.16.416 2.349 1.923 1.678 5.013-.364 6.842a14502.79 14502.79 0 00-25.458 22.86 196.316 196.316 0 00-6.247 5.882c-.642.633-1.014 1.57-1.115 2.812zm-22.151 25.52a14.462 14.462 0 00-24.69-10.227 14.463 14.463 0 1024.69 10.227z" fill="#B5B1FD"/><path d="M58.49 2.817l-11.195 10.08a4.21 4.21 0 00-.311 5.945l.164.183a4.21 4.21 0 005.946.312l11.194-10.08a4.21 4.21 0 00.312-5.946l-.165-.182a4.21 4.21 0 00-5.945-.312z" fill="#B5B1FD"/><path d="M31.872 59.212c3.345 5.567 1.543 12.793-4.026 16.14-5.566 3.344-12.793 1.542-16.137-4.025-3.346-5.568-1.544-12.794 4.023-16.14 5.568-3.345 12.794-1.543 16.14 4.025z" fill="#7E40D6"/><path d="M24.273 60.415c-.941-1.273-2.38-1.025-3.929-.27l-1.125-1.873-1.14.686 1.095 1.824c-.3.18-.602.37-.903.56l-1.103-1.837-1.14.685 1.125 1.873c-.244.153-.484.304-.72.446l-.004-.006-1.573.945.732 1.217s.833-.522.828-.498c.462-.277.773-.1.956.106l1.283 2.134a1.05 1.05 0 01.125-.064l-.12.072 1.796 2.99c.067.158.12.441-.202.635.023.005-.829.498-.829.498l.592 1.499 1.484-.892c.276-.166.55-.325.819-.483l1.139 1.894 1.139-.684-1.127-1.875c.317-.181.621-.36.917-.539l1.12 1.867 1.141-.686-1.136-1.891c1.851-1.263 2.903-2.552 1.988-4.453-.737-1.53-1.807-1.767-3.053-1.374.46-.734.516-1.576-.174-2.506zm.839 5.01c.851 1.416-1.67 2.712-2.443 3.177l-1.508-2.51c.773-.465 3.064-2.144 3.95-.667zm-2.659-3.223c.774 1.288-1.338 2.353-1.982 2.74l-1.368-2.277c.644-.387 2.543-1.807 3.35-.463z" fill="#B5B1FD"/><path d="M36.285 65.555a14.465 14.465 0 00-24.69-10.227 14.463 14.463 0 1024.69 10.227z" stroke="#665DA6" stroke-width="2"/><path d="M33.767 65.564a11.926 11.926 0 10-23.852 0 11.926 11.926 0 0023.852 0z" stroke="#4A2492" stroke-width="2"/><path d="M36.285 65.555a14.465 14.465 0 11-28.929 0 14.465 14.465 0 0128.93 0zm-2.518.01a11.926 11.926 0 10-23.852 0 11.926 11.926 0 0023.852 0z" fill="#16084E"/></svg>