<svg width="60" height="21" viewBox="0 0 60 21" fill="none" xmlns="http://www.w3.org/2000/svg"><circle cx="18.45" cy="7.5" r="2.1" fill="#fff"/><circle cx="19.05" cy="6.9" r="2.1" fill="#002738"/><path d="M12.075 3.3l.124.303.2.26-.324-.045-.325.045.201-.26.124-.303zm6.6-1.2l.124.303.2.26-.324-.045-.325.044.2-.259.125-.303zm5.775-.45l.149.364.24.311-.389-.053-.39.053.241-.31.149-.365zm1.95 4.8l.149.364.24.311-.389-.053-.39.053.241-.311.149-.364zm-15.525.75l.174.425.28.362-.454-.062-.455.062.281-.362.174-.425z" fill="#C4C4C4"/><mask id="mask0_437_375" style="mask-type:alpha" maskUnits="userSpaceOnUse" x="0" y="0" width="60" height="21"><rect width="60" height="21" rx="10.5" fill="#111412"/></mask><g mask="url(#mask0_437_375)"><path d="M17.7 12.145c-5.28-2.64-14.8 0-18.9 1.65v8.775c14.925-.25 44.43-1.035 43.05-2.175-1.725-1.425-6.825-2.85-8.625-3.15-1.44-.24-4.75.95-6.225 1.575-.9-1.125-4.02-4.035-9.3-6.675z" fill="#004D56"/><path d="M1.875 5.095c.96 3.48.4 10.85 0 14.1 1.125.7 3.24 1.86 2.7.9-.675-1.2-.975-6-.675-9.675.24-2.94 2.3-4.775 3.3-5.325V3.97C6.075 4.995 3.975 6.745 4.575 5.545c.6-1.2 3.75-5.65 5.25-7.725-.8-.425-2.76-.525-4.2 2.475-1.8 3.75-2.175 2.925-2.925-.6s-2.025 1.05-.825 5.4z" fill="#000"/><path d="M33.6 15.295l.9 7.05h-2.025l1.125-7.05zM13.492 9.97l1.733 13.65h-3.9l2.167-13.65z" fill="#C16337" stroke="#D48B68"/><path d="M8.7 20.4c.111.105.225.201.343.289v2.476a.649.649 0 01-.1.355c-.065.094-.152.147-.243.147-.09 0-.177-.053-.242-.147a.638.638 0 01-.1-.355V20.69c.117-.088.232-.184.342-.288z" fill="#A1A121"/><path d="M5.702 12.545c.247-.867.664-1.606 1.198-2.127.533-.52 1.16-.797 1.8-.797.641 0 1.268.277 1.801.797.534.52.95 1.26 1.198 2.127.532.361.984.938 1.301 1.662.318.724.488 1.565.491 2.425.004 2.433-1.343 4.464-2.998 4.527-.503.02-1-.142-1.45-.47v-2.232l1.864-1.36a.494.494 0 00.173-.292.727.727 0 00-.019-.386.528.528 0 00-.082-.155.343.343 0 00-.117-.098.247.247 0 00-.262.028L9.043 17.34v-3.204a.639.639 0 00-.1-.354c-.065-.095-.152-.147-.243-.147-.09 0-.177.053-.242.147a.639.639 0 00-.1.354v1.7l-1.557-1.148a.247.247 0 00-.263-.027.426.426 0 00-.199.253.722.722 0 00-.018.385.494.494 0 00.172.292l1.865 1.36v3.737c-.425.31-.894.47-1.369.47h-.08c-1.656-.063-3.004-2.094-3-4.526a6.158 6.158 0 01.492-2.426c.317-.724.768-1.3 1.3-1.662z" fill="#A1A121"/><path d="M20.175 21.601c-.7-4.172-2.317-11.166-3.193-5.763-.658 4.058-.91 5.458-.983 5.763h-.02c-.008.082-.004.101.02 0h4.176z" fill="#000617"/><path d="M18.452 16.398a3.251 3.251 0 015.997 0 3.092 3.092 0 011.792 2.788c.004 1.66-1.343 3.046-2.998 3.089-.503.013-1-.097-1.45-.321V20.43l1.864-.928a.344.344 0 10-.308-.616l-1.556.783v-2.186a.342.342 0 10-.685 0v1.16l-1.557-.784a.345.345 0 00-.308.617l1.865.928v2.549a3.08 3.08 0 01-1.369.32h-.08c-1.656-.042-3.004-1.428-3-3.088a3.092 3.092 0 011.793-2.788z" fill="#A1A121"/><path d="M5.775 19.464C4.701 13.045 2.217 2.285.872 10.597c-1.01 6.244-1.4 8.397-1.51 8.867H-.67c-.011.126-.005.156.032 0h6.413z" fill="#11825A"/><path d="M5.775 19.464C4.701 13.045 2.217 2.285.872 10.597-.473 18.91-.716 19.972-.67 19.464h6.445z" stroke="#A1A121"/><path d="M19.725 26.814c-1.074-6.419-3.558-17.179-4.903-8.867-1.01 6.244-1.4 8.397-1.51 8.867h-.032c-.011.126-.005.156.032 0h6.413z" fill="#11825A"/><path d="M19.725 26.814c-1.074-6.419-3.558-17.179-4.903-8.867-1.345 8.313-1.588 9.375-1.542 8.867h6.445z" stroke="#A1A121"/><path d="M29.19 21.586a.15.15 0 00.135.084h1.65v.75a.15.15 0 00.3 0v-.75h1.65a.15.15 0 00.118-.242l-.86-1.108h.442a.15.15 0 00.118-.242l-1.5-1.95a.152.152 0 00-.118-.057.15.15 0 00-.118.057l-1.5 1.95a.15.15 0 00.118.242h.443l-.861 1.108a.15.15 0 00-.017.158z" fill="#000"/><path d="M21.39 19.311a.4.4 0 00.055.145c.024.035.052.053.08.053h1.65v1.758c0 .093.016.183.044.249.028.066.066.103.106.103.04 0 .078-.038.106-.103a.659.659 0 00.044-.249v-1.758h1.65c.028 0 .055-.019.08-.053a.407.407 0 00.054-.144.779.779 0 00-.016-.37l-.86-2.597h.442c.028 0 .055-.019.08-.054a.407.407 0 00.054-.143.778.778 0 00-.016-.37l-1.5-4.57a.292.292 0 00-.052-.1c-.02-.023-.043-.035-.066-.035-.023 0-.045.012-.066.035a.294.294 0 00-.052.1l-1.5 4.57a.778.778 0 00-.016.37.409.409 0 00.055.143c.024.035.05.054.079.054h.442l-.86 2.597a.784.784 0 00-.017.37zm13.821-.517a1.425 1.425 0 012.629 0 1.355 1.355 0 01.785 1.222 1.359 1.359 0 01-1.314 1.354 1.349 1.349 0 01-.636-.14v-.668l.818-.407a.151.151 0 00-.135-.27l-.683.343v-.958a.15.15 0 10-.3 0v.508l-.682-.343a.15.15 0 10-.135.27l.817.407v1.117a1.35 1.35 0 01-.6.141h-.035a1.359 1.359 0 01-1.315-1.354 1.356 1.356 0 01.786-1.222z" fill="#11825A"/><path d="M26.25 20.624c.068.044.139.085.211.122v1.041a.21.21 0 11-.422 0v-1.041a2.42 2.42 0 00.211-.122z" fill="#C16337"/><path d="M24.402 17.32a2.004 2.004 0 013.697 0 1.906 1.906 0 011.104 1.72 1.91 1.91 0 01-1.848 1.903c-.31.008-.617-.06-.894-.197v-.939l1.15-.572a.212.212 0 00-.19-.38l-.96.483V17.99a.21.21 0 10-.422 0v.715l-.96-.483a.212.212 0 10-.19.38l1.15.572v1.572c-.262.13-.55.198-.844.197h-.05a1.91 1.91 0 01-1.848-1.903 1.906 1.906 0 011.105-1.72zm37.82 10.575c-.96 3.48-.4 10.85 0 14.1-1.125.7-3.24 1.86-2.7.9.675-1.2.975-6 .675-9.675-.24-2.94-2.3-4.775-3.3-5.325V26.77c1.125 1.025 3.225 2.775 2.625 1.575-.6-1.2-3.75-5.65-5.25-7.725.8-.425 2.76-.525 4.2 2.475 1.8 3.75 2.175 2.925 2.925-.6s2.025 1.05.825 5.4z" fill="#C16337"/></g></svg>