<svg width="60" height="21" viewBox="0 0 60 21" fill="none" xmlns="http://www.w3.org/2000/svg"><circle cx="39.869" cy="4.514" r="2.1" transform="rotate(71.017 39.869 4.514)" fill="#FFE146"/><mask id="mask0_437_292" style="mask-type:alpha" maskUnits="userSpaceOnUse" x="0" y="0" width="60" height="21"><rect width="60" height="21" rx="10.5" fill="#002738"/></mask><g mask="url(#mask0_437_292)"><path d="M.492 28.495c.96 3.48.4 10.85 0 14.1 1.125.7 3.24 1.86 2.7.9-.675-1.2-.975-6-.675-9.675.24-2.94 2.3-4.775 3.3-5.325V27.37c-1.125 1.025-3.225 2.775-2.625 1.575.6-1.2 3.75-5.65 5.25-7.725-.8-.425-2.76-.525-4.2 2.475-1.8 3.75-2.175 2.925-2.925-.6s-2.025 1.05-.825 5.4z" fill="#000"/><path d="M6.976 23.725c.248-.867.664-1.606 1.198-2.127.533-.52 1.16-.797 1.8-.797.641 0 1.268.277 1.801.797.534.52.95 1.26 1.198 2.127.532.361.984.938 1.301 1.662.318.724.488 1.565.491 2.425.004 2.433-1.343 4.464-2.998 4.527-.503.02-1-.142-1.45-.47v-2.232l1.864-1.36a.494.494 0 00.173-.293.726.726 0 00-.018-.385.528.528 0 00-.083-.155.34.34 0 00-.117-.098.247.247 0 00-.262.027l-1.557 1.148v-3.204a.638.638 0 00-.1-.355c-.065-.094-.152-.146-.243-.146-.09 0-.177.052-.242.146a.638.638 0 00-.1.355v1.7l-1.557-1.148a.247.247 0 00-.263-.027.425.425 0 00-.199.253.722.722 0 00-.018.385.494.494 0 00.172.292l1.865 1.36v3.737c-.425.31-.894.47-1.368.47h-.082c-1.655-.063-3.002-2.094-2.998-4.527.003-.86.173-1.701.49-2.425.318-.724.77-1.3 1.302-1.662z" fill="#A1A121"/><path d="M5.85 32.894c-1.075-6.42-3.56-17.18-4.904-8.867-1.01 6.244-1.399 8.397-1.51 8.867h-.031c-.012.126-.005.156.031 0H5.85z" fill="#11825A"/><path d="M5.85 32.894c-1.075-6.42-3.56-17.18-4.904-8.867-1.345 8.313-1.588 9.375-1.541 8.867H5.85z" stroke="#A1A121"/><path d="M21.6 36.344c-1.075-6.42-3.56-17.18-4.904-8.867-1.01 6.244-1.399 8.397-1.51 8.867h-.031c-.012.126-.005.155.031 0H21.6z" fill="#11825A"/><path d="M21.6 36.344c-1.075-6.42-3.56-17.18-4.904-8.867-1.345 8.313-1.588 9.375-1.541 8.867h6.444z" stroke="#A1A121"/><path d="M46.397 12.595c5.28-2.64 14.8 0 18.9 1.65v8.775c-14.925-.25-44.43-1.035-43.05-2.175 1.725-1.425 6.825-2.85 8.625-3.15 1.44-.24 4.75.95 6.225 1.575.9-1.125 4.02-4.035 9.3-6.675z" fill="#14B254"/><path d="M59.222 9.895c-.96 3.48-.4 10.85 0 14.1-1.125.7-3.24 1.86-2.7.9.675-1.2.975-6 .675-9.675-.24-2.94-2.3-4.775-3.3-5.325V8.77c1.125 1.025 3.225 2.775 2.625 1.575-.6-1.2-3.75-5.65-5.25-7.725.8-.425 2.76-.525 4.2 2.475 1.8 3.75 2.175 2.925 2.925-.6s2.025 1.05.825 5.4z" fill="#C16337"/><path d="M30.497 14.245l-.9 7.05h2.025l-1.125-7.05zM50.605 8.47l-1.733 13.65h3.9L50.605 8.47z" fill="#fff"/><path d="M50.822 20.964c1.074-6.419 3.558-17.179 4.903-8.867 1.01 6.244 1.4 8.397 1.51 8.867h.032c.011.126.005.156-.032 0h-6.413z" fill="#1B8F10"/><path d="M50.822 20.964c1.074-6.419 3.558-17.179 4.903-8.867 1.345 8.313 1.588 9.375 1.541 8.867h-6.444z" stroke="#C7CB10"/><path d="M56.895 14.345c-.248-.867-.664-1.606-1.198-2.127-.533-.52-1.16-.797-1.8-.797-.641 0-1.268.277-1.801.798-.534.52-.95 1.26-1.198 2.126-.533.362-.984.938-1.301 1.662a6.153 6.153 0 00-.491 2.425c-.004 2.433 1.343 4.464 2.998 4.527.503.02 1-.142 1.45-.47v-2.232l-1.865-1.36a.494.494 0 01-.172-.292.723.723 0 01.018-.386.527.527 0 01.083-.155.341.341 0 01.116-.098.247.247 0 01.263.028l1.557 1.147v-3.204c0-.133.036-.26.1-.354.065-.095.152-.147.242-.147.091 0 .178.053.242.147a.63.63 0 01.1.354v1.7l1.558-1.148a.247.247 0 01.263-.027.425.425 0 01.199.253c.04.12.047.258.018.385a.494.494 0 01-.172.292l-1.865 1.36v3.737c.425.31.894.47 1.369.47h.08c1.656-.063 3.003-2.094 3-4.526a6.155 6.155 0 00-.492-2.426c-.317-.724-.768-1.3-1.301-1.662z" fill="#C7CB10"/><path d="M43.922 23.401c.7-4.172 2.317-11.166 3.193-5.763.658 4.058.91 5.458.983 5.763h.02c.008.082.004.101-.02 0h-4.176z" fill="#CAE299"/><path d="M45.645 18.198a3.25 3.25 0 00-5.997 0 3.092 3.092 0 00-1.792 2.789 3.1 3.1 0 002.998 3.088c.503.013 1-.097 1.45-.321v-1.523l-1.865-.928a.344.344 0 01.308-.616l1.557.783v-2.186a.342.342 0 01.685 0v1.16l1.557-.783a.344.344 0 11.308.615l-1.865.929v2.549c.425.211.894.32 1.369.32h.08c1.656-.042 3.003-1.428 3-3.087a3.093 3.093 0 00-1.793-2.79z" fill="#C7CB10"/><path d="M44.372 27.114c1.074-6.419 3.558-17.179 4.903-8.867 1.01 6.244 1.399 8.397 1.51 8.867h.031c.012.127.006.156-.031 0h-6.413z" fill="#1B8F10"/><path d="M44.372 27.114c1.074-6.419 3.558-17.179 4.903-8.867 1.345 8.313 1.588 9.375 1.541 8.867h-6.444z" stroke="#C7CB10"/><path d="M34.907 20.536a.15.15 0 01-.135.084h-1.65v.75a.15.15 0 01-.3 0v-.75h-1.65a.151.151 0 01-.135-.084.15.15 0 01.017-.158l.86-1.108h-.442a.151.151 0 01-.135-.084.15.15 0 01.017-.158l1.5-1.95a.15.15 0 01.236 0l1.5 1.95a.15.15 0 01-.118.242h-.443l.86 1.108a.15.15 0 01.018.158z" fill="#C16337"/><path d="M42.707 20.211a.406.406 0 01-.056.145c-.023.035-.051.053-.08.053h-1.65v1.758a.659.659 0 01-.043.249c-.028.066-.066.103-.106.103-.04 0-.078-.037-.106-.103a.657.657 0 01-.044-.249v-1.758h-1.65c-.028 0-.056-.019-.08-.053a.409.409 0 01-.055-.144.778.778 0 01.017-.37l.86-2.597h-.442c-.028 0-.056-.019-.08-.053a.41.41 0 01-.054-.144.778.778 0 01.016-.37l1.5-4.57a.294.294 0 01.052-.1c.02-.023.043-.035.066-.035.023 0 .045.012.066.035a.31.31 0 01.052.1l1.5 4.57a.778.778 0 01.016.37.408.408 0 01-.055.143c-.024.035-.051.054-.08.054h-.442l.86 2.597a.78.78 0 01.017.37zm-15.135.032c-.049.031-.1.06-.15.086v.741a.15.15 0 10.3 0v-.74a1.727 1.727 0 01-.15-.087z" fill="#1B8F10"/><path d="M28.886 17.894a1.425 1.425 0 00-2.629 0 1.355 1.355 0 00-.786 1.222 1.359 1.359 0 001.315 1.354c.22.006.438-.043.635-.14v-.668l-.817-.407a.15.15 0 11.135-.27l.682.343v-.958a.15.15 0 01.3 0v.508l.683-.343a.15.15 0 01.135.27l-.818.407v1.117c.187.093.392.141.6.141h.036a1.359 1.359 0 001.314-1.354 1.356 1.356 0 00-.785-1.222z" fill="#1B8F10"/><path d="M37.847 20.325a2.45 2.45 0 01-.211.12v1.042a.21.21 0 10.421 0v-1.041a2.434 2.434 0 01-.21-.122z" fill="#fff"/><path d="M39.695 17.02a2.003 2.003 0 00-3.697 0 1.907 1.907 0 00-1.105 1.72 1.91 1.91 0 001.849 1.904c.31.008.616-.06.894-.198v-.939l-1.15-.572a.212.212 0 11.19-.38l.96.483V17.69a.211.211 0 01.421 0v.715l.96-.483a.212.212 0 01.19.38l-1.15.572v1.572c.263.13.551.197.844.197h.05A1.91 1.91 0 0040.8 18.74a1.907 1.907 0 00-1.105-1.72zM22.652 1.8a1.652 1.652 0 00-1.478.913 1.623 1.623 0 00-.174.731.154.154 0 01-.139.156.15.15 0 01-.161-.15c0-.21.034-.418.1-.617a.075.075 0 00-.05-.096.075.075 0 00-.039-.001A1.2 1.2 0 0019.8 3.9c0 .66.559 1.2 1.217 1.2h1.633a1.65 1.65 0 00.002-3.3zm23.55.75a1.651 1.651 0 00-1.478.913 1.625 1.625 0 00-.174.731.154.154 0 01-.139.156.15.15 0 01-.161-.15c0-.21.033-.418.1-.617a.075.075 0 00-.05-.096.075.075 0 00-.039-.001 1.2 1.2 0 00-.911 1.164c0 .66.558 1.2 1.217 1.2H46.2a1.65 1.65 0 00.002-3.3zm-17.25 2.4a1.652 1.652 0 00-1.478.913 1.625 1.625 0 00-.174.731.154.154 0 01-.139.156A.15.15 0 0127 6.6c0-.21.033-.418.1-.617a.075.075 0 00-.05-.096.075.075 0 00-.039-.001A1.2 1.2 0 0026.1 7.05c0 .66.558 1.2 1.217 1.2h1.633a1.65 1.65 0 00.002-3.3z" fill="#fff"/></g></svg>