<svg width="60" height="21" viewBox="0 0 60 21" fill="none" xmlns="http://www.w3.org/2000/svg">
<circle cx="39.8689" cy="4.5141" r="2.1" transform="rotate(71.0174 39.8689 4.5141)" fill="#FFE146"/>
<mask id="mask0_437_292" style="mask-type:alpha" maskUnits="userSpaceOnUse" x="0" y="0" width="60" height="21">
<rect width="60" height="21" rx="10.5" fill="#002738"/>
</mask>
<g mask="url(#mask0_437_292)">
<path d="M0.492491 28.4951C1.45249 31.9751 0.892491 39.3451 0.492491 42.5951C1.61749 43.2951 3.73248 44.4551 3.19248 43.4951C2.51748 42.2951 2.21748 37.4951 2.51748 33.8201C2.75748 30.8801 4.81748 29.0451 5.81748 28.4951V27.3701C4.69248 28.3951 2.59248 30.1451 3.19248 28.9451C3.79248 27.7451 6.94248 23.2951 8.44248 21.2201C7.64248 20.7951 5.68248 20.6951 4.24248 23.6951C2.44248 27.4451 2.06749 26.6201 1.31749 23.0951C0.567491 19.5701 -0.707509 24.1451 0.492491 28.4951Z" fill="black"/>
<path d="M6.97602 23.7247C7.22356 22.8584 7.64024 22.1186 8.17372 21.5984C8.7072 21.0781 9.33367 20.8005 9.97444 20.8005C10.6152 20.8005 11.2417 21.0781 11.7752 21.5984C12.3086 22.1186 12.7253 22.8584 12.9729 23.7247C13.5055 24.0864 13.9568 24.663 14.2742 25.3868C14.5916 26.1107 14.7618 26.952 14.7651 27.8124C14.7693 30.245 13.422 32.2763 11.7666 32.339C11.2644 32.3582 10.7665 32.1968 10.3166 31.8688V29.6368L12.1815 28.2763C12.2632 28.2165 12.3253 28.1115 12.3542 27.9845C12.3685 27.9217 12.3742 27.8553 12.371 27.7892C12.3678 27.7231 12.3558 27.6585 12.3355 27.5992C12.3153 27.54 12.2873 27.4871 12.2532 27.4437C12.219 27.4002 12.1793 27.3671 12.1364 27.3462C12.0498 27.3038 11.9553 27.3137 11.8736 27.3735L10.3166 28.5209V25.3171C10.3166 25.1841 10.2806 25.0565 10.2164 24.9625C10.1522 24.8684 10.0652 24.8156 9.97444 24.8156C9.88369 24.8156 9.79665 24.8684 9.73248 24.9625C9.6683 25.0565 9.63225 25.1841 9.63225 25.3171V27.0162L8.0753 25.8688C7.99362 25.809 7.89907 25.7991 7.81243 25.8415C7.7258 25.8838 7.65419 25.9748 7.61335 26.0946C7.57251 26.2143 7.56579 26.3529 7.59467 26.4799C7.62354 26.6068 7.68565 26.7118 7.76733 26.7717L9.63225 28.1321V31.8688C9.20684 32.1781 8.73838 32.339 8.2635 32.339H8.18223C6.5269 32.2763 5.17954 30.245 5.18382 27.8124C5.18705 26.952 5.3573 26.1107 5.67467 25.3868C5.99203 24.663 6.4434 24.0864 6.97602 23.7247V23.7247Z" fill="#A1A121"/>
<path d="M5.84955 32.894C4.77543 26.4749 2.29094 15.7149 0.945959 24.0274C-0.0643234 30.2712 -0.452753 32.4243 -0.563719 32.894H-0.59517C-0.606791 33.0204 -0.600482 33.0496 -0.563719 32.894H5.84955Z" fill="#11825A"/>
<path d="M5.84955 32.894C4.77543 26.4749 2.29094 15.7149 0.945959 24.0274C-0.399026 32.3398 -0.641871 33.4019 -0.59517 32.894H5.84955Z" stroke="#A1A121"/>
<path d="M21.5995 36.3439C20.5254 29.9249 18.0409 19.1649 16.696 27.4773C15.6857 33.7212 15.2972 35.8743 15.1863 36.3439H15.1548C15.1432 36.4703 15.1495 36.4995 15.1863 36.3439H21.5995Z" fill="#11825A"/>
<path d="M21.5995 36.3439C20.5254 29.9249 18.0409 19.1649 16.696 27.4773C15.351 35.7898 15.1081 36.8519 15.1548 36.3439H21.5995Z" stroke="#A1A121"/>
<path d="M46.3967 12.5951C51.6767 9.95508 61.1967 12.5951 65.2967 14.2451V23.0201C50.3717 22.7701 20.8667 21.9851 22.2467 20.8451C23.9717 19.4201 29.0717 17.9951 30.8717 17.6951C32.3117 17.4551 35.6217 18.6451 37.0967 19.2701C37.9967 18.1451 41.1167 15.2351 46.3967 12.5951Z" fill="#14B254"/>
<path d="M59.2217 9.8951C58.2617 13.3751 58.8217 20.7451 59.2217 23.9951C58.0967 24.6951 55.9818 25.8551 56.5218 24.8951C57.1968 23.6951 57.4968 18.8951 57.1968 15.2201C56.9568 12.2801 54.8968 10.4451 53.8968 9.8951V8.7701C55.0218 9.7951 57.1218 11.5451 56.5218 10.3451C55.9218 9.1451 52.7718 4.6951 51.2718 2.6201C52.0718 2.1951 54.0318 2.0951 55.4718 5.0951C57.2718 8.8451 57.6467 8.0201 58.3967 4.4951C59.1467 0.970102 60.4217 5.5451 59.2217 9.8951Z" fill="#C16337"/>
<path d="M30.4966 14.2451L29.5966 21.2951H31.6216L30.4966 14.2451Z" fill="white"/>
<path d="M50.605 8.47009L48.8717 22.1201H52.7717L50.605 8.47009Z" fill="white"/>
<path d="M50.8218 20.964C51.8959 14.545 54.3804 3.78498 55.7254 12.0974C56.7356 18.3413 57.1241 20.4944 57.235 20.964H57.2665C57.2781 21.0904 57.2718 21.1196 57.235 20.964H50.8218Z" fill="#1B8F10"/>
<path d="M50.8218 20.964C51.8959 14.545 54.3804 3.78498 55.7254 12.0974C57.0704 20.4099 57.3132 21.472 57.2665 20.964H50.8218Z" stroke="#C7CB10"/>
<path d="M56.8949 14.3448C56.6474 13.4785 56.2307 12.7387 55.6973 12.2185C55.1638 11.6982 54.5373 11.4207 53.8965 11.4207C53.2558 11.4207 52.6293 11.6982 52.0958 12.2185C51.5623 12.7387 51.1456 13.4785 50.8981 14.3448C50.3655 14.7066 49.9141 15.2831 49.5968 16.0069C49.2794 16.7308 49.1091 17.5721 49.1059 18.4325C49.1016 20.8651 50.449 22.8964 52.1043 22.9591C52.6066 22.9784 53.1045 22.8169 53.5543 22.4889V20.257L51.6894 18.8965C51.6077 18.8366 51.5456 18.7316 51.5168 18.6047C51.5025 18.5418 51.4967 18.4754 51.5 18.4093C51.5032 18.3432 51.5152 18.2786 51.5354 18.2194C51.5557 18.1601 51.5836 18.1072 51.6178 18.0638C51.652 18.0204 51.6916 17.9872 51.7345 17.9663C51.8212 17.9239 51.9157 17.9338 51.9974 17.9937L53.5543 19.141V15.9372C53.5543 15.8042 53.5904 15.6766 53.6546 15.5826C53.7187 15.4885 53.8058 15.4357 53.8965 15.4357C53.9873 15.4357 54.0743 15.4885 54.1385 15.5826C54.2027 15.6766 54.2387 15.8042 54.2387 15.9372V17.6363L55.7957 16.489C55.8774 16.4291 55.9719 16.4193 56.0585 16.4616C56.1452 16.5039 56.2168 16.5949 56.2576 16.7147C56.2985 16.8344 56.3052 16.973 56.2763 17.1C56.2474 17.227 56.1853 17.3319 56.1036 17.3918L54.2387 18.7523V22.4889C54.6641 22.7982 55.1326 22.9592 55.6075 22.9591H55.6887C57.3441 22.8964 58.6914 20.8651 58.6872 18.4325C58.6839 17.5721 58.5137 16.7308 58.1963 16.0069C57.8789 15.2831 57.4276 14.7066 56.8949 14.3448V14.3448Z" fill="#C7CB10"/>
<path d="M43.9217 23.4011C44.6211 19.2287 46.2389 12.2347 47.1147 17.6378C47.7726 21.6963 48.0255 23.0959 48.0978 23.4011H48.1183C48.1258 23.4833 48.1217 23.5023 48.0978 23.4011H43.9217Z" fill="#CAE299"/>
<path d="M45.6449 18.1977C45.3974 17.6067 44.9807 17.102 44.4473 16.7471C43.9138 16.3921 43.2873 16.2028 42.6465 16.2028C42.0058 16.2028 41.3793 16.3921 40.8458 16.7471C40.3123 17.102 39.8956 17.6067 39.6481 18.1977C39.1155 18.4445 38.6641 18.8379 38.3468 19.3317C38.0294 19.8256 37.8591 20.3995 37.8559 20.9866C37.8516 22.6462 39.199 24.032 40.8543 24.0748C41.3566 24.0879 41.8545 23.9778 42.3043 23.754V22.2313L40.4394 21.3031C40.3577 21.2622 40.2956 21.1906 40.2668 21.104C40.2525 21.0611 40.2467 21.0158 40.25 20.9707C40.2532 20.9256 40.2652 20.8816 40.2854 20.8411C40.3057 20.8007 40.3336 20.7646 40.3678 20.735C40.402 20.7054 40.4416 20.6828 40.4845 20.6685C40.5712 20.6396 40.6657 20.6463 40.7474 20.6871L42.3043 21.4699V19.2842C42.3043 19.1934 42.3404 19.1064 42.4046 19.0422C42.4687 18.978 42.5558 18.942 42.6465 18.942C42.7373 18.942 42.8243 18.978 42.8885 19.0422C42.9527 19.1064 42.9887 19.1934 42.9887 19.2842V20.4433L44.5457 19.6606C44.6274 19.6197 44.7219 19.613 44.8085 19.6419C44.8952 19.6708 44.9668 19.7329 45.0076 19.8146C45.0485 19.8962 45.0552 19.9908 45.0263 20.0774C44.9974 20.1641 44.9353 20.2357 44.8536 20.2765L42.9887 21.2047V23.754C43.4141 23.965 43.8826 24.0748 44.3575 24.0748H44.4387C46.0941 24.032 47.4414 22.6462 47.4372 20.9866C47.4339 20.3995 47.2637 19.8256 46.9463 19.3317C46.6289 18.8379 46.1776 18.4445 45.6449 18.1977V18.1977Z" fill="#C7CB10"/>
<path d="M44.3717 27.1141C45.4458 20.695 47.9303 9.93501 49.2753 18.2475C50.2856 24.4913 50.674 26.6444 50.785 27.1141H50.8164C50.828 27.2405 50.8217 27.2697 50.785 27.1141H44.3717Z" fill="#1B8F10"/>
<path d="M44.3717 27.1141C45.4458 20.695 47.9303 9.93501 49.2753 18.2475C50.6203 26.5599 50.8631 27.622 50.8164 27.1141H44.3717Z" stroke="#C7CB10"/>
<path d="M34.9067 20.5357C34.8944 20.561 34.8752 20.5823 34.8513 20.5973C34.8275 20.6122 34.7999 20.6201 34.7717 20.6201H33.1217V21.3701C33.1217 21.4098 33.1059 21.448 33.0778 21.4761C33.0496 21.5043 33.0115 21.5201 32.9717 21.5201C32.9319 21.5201 32.8938 21.5043 32.8656 21.4761C32.8375 21.448 32.8217 21.4098 32.8217 21.3701V20.6201H31.1717C31.1437 20.62 31.1163 20.612 31.0925 20.5972C31.0688 20.5823 31.0497 20.5611 31.0374 20.5359C31.0251 20.5107 31.0201 20.4826 31.0229 20.4547C31.0258 20.4268 31.0364 20.4003 31.0536 20.3782L31.9142 19.2701H31.4717C31.4437 19.27 31.4163 19.262 31.3925 19.2472C31.3688 19.2323 31.3497 19.2111 31.3374 19.1859C31.3251 19.1607 31.3201 19.1326 31.3229 19.1047C31.3258 19.0768 31.3364 19.0503 31.3536 19.0282L32.8536 17.0782C32.8676 17.0603 32.8855 17.0458 32.906 17.0358C32.9265 17.0258 32.9489 17.0206 32.9717 17.0206C32.9945 17.0206 33.0169 17.0258 33.0374 17.0358C33.0579 17.0458 33.0758 17.0603 33.0898 17.0782L34.5898 19.0282C34.607 19.0503 34.6176 19.0768 34.6205 19.1047C34.6233 19.1326 34.6183 19.1607 34.6061 19.1859C34.5938 19.2111 34.5747 19.2323 34.5509 19.2472C34.5272 19.262 34.4997 19.27 34.4717 19.2701H34.0292L34.8898 20.3782C34.9071 20.4002 34.9178 20.4267 34.9208 20.4545C34.9237 20.4824 34.9189 20.5105 34.9067 20.5357Z" fill="#C16337"/>
<path d="M42.7068 20.2114C42.6945 20.2708 42.6753 20.3208 42.6514 20.3557C42.6276 20.3907 42.6 20.4092 42.5718 20.4092H40.9218V22.167C40.9218 22.2602 40.906 22.3497 40.8779 22.4156C40.8498 22.4815 40.8116 22.5186 40.7718 22.5186C40.732 22.5186 40.6939 22.4815 40.6658 22.4156C40.6376 22.3497 40.6218 22.2602 40.6218 22.167V20.4092H38.9718C38.9438 20.409 38.9164 20.3904 38.8926 20.3555C38.8689 20.3207 38.8498 20.2709 38.8375 20.2119C38.8252 20.1529 38.8202 20.087 38.8231 20.0217C38.8259 19.9563 38.8365 19.8942 38.8537 19.8423L39.7143 17.2451H39.2718C39.2438 17.2449 39.2164 17.2263 39.1926 17.1915C39.1689 17.1566 39.1498 17.1068 39.1375 17.0478C39.1252 16.9888 39.1202 16.9229 39.1231 16.8576C39.1259 16.7923 39.1365 16.7301 39.1537 16.6782L40.6537 12.1079C40.6677 12.0659 40.6857 12.0319 40.7061 12.0085C40.7266 11.9852 40.7491 11.973 40.7718 11.973C40.7946 11.973 40.8171 11.9852 40.8375 12.0085C40.858 12.0319 40.8759 12.0659 40.8899 12.1079L42.3899 16.6782C42.4071 16.7301 42.4177 16.7923 42.4206 16.8576C42.4235 16.9229 42.4185 16.9888 42.4062 17.0478C42.3939 17.1068 42.3748 17.1566 42.351 17.1915C42.3273 17.2263 42.2998 17.2449 42.2718 17.2451H41.8293L42.6899 19.8423C42.7072 19.894 42.7179 19.956 42.7209 20.0212C42.7239 20.0864 42.719 20.1523 42.7068 20.2114Z" fill="#1B8F10"/>
<path d="M27.5715 20.2432C27.523 20.2744 27.4729 20.3032 27.4215 20.3294V21.07C27.4215 21.1098 27.4373 21.148 27.4654 21.1761C27.4936 21.2042 27.5317 21.22 27.5715 21.22C27.6113 21.22 27.6494 21.2042 27.6776 21.1761C27.7057 21.148 27.7215 21.1098 27.7215 21.07V20.3294C27.6701 20.3032 27.62 20.2744 27.5715 20.2432V20.2432Z" fill="#1B8F10"/>
<path d="M28.8858 17.8938C28.7773 17.6347 28.5947 17.4135 28.3608 17.2579C28.1269 17.1023 27.8523 17.0193 27.5714 17.0193C27.2906 17.0193 27.0159 17.1023 26.7821 17.2579C26.5482 17.4135 26.3656 17.6347 26.2571 17.8938C26.0236 18.002 25.8257 18.1744 25.6866 18.3909C25.5475 18.6074 25.4729 18.859 25.4714 19.1163C25.4696 19.8438 26.0602 20.4513 26.7858 20.47C27.006 20.4758 27.2242 20.4275 27.4214 20.3294V19.6619L26.6039 19.255C26.5681 19.2371 26.5409 19.2057 26.5283 19.1678C26.522 19.149 26.5195 19.1291 26.5209 19.1093C26.5223 19.0896 26.5276 19.0703 26.5364 19.0525C26.5453 19.0348 26.5576 19.019 26.5725 19.006C26.5875 18.993 26.6049 18.9831 26.6237 18.9769C26.6617 18.9642 26.7031 18.9671 26.7389 18.985L27.4214 19.3282V18.37C27.4214 18.3303 27.4372 18.2921 27.4654 18.264C27.4935 18.2358 27.5317 18.22 27.5714 18.22C27.6112 18.22 27.6494 18.2358 27.6775 18.264C27.7056 18.2921 27.7214 18.3303 27.7214 18.37V18.8782L28.4039 18.535C28.4397 18.5171 28.4812 18.5142 28.5192 18.5269C28.5571 18.5395 28.5885 18.5667 28.6064 18.6025C28.6243 18.6383 28.6273 18.6798 28.6146 18.7178C28.602 18.7557 28.5747 18.7871 28.5389 18.805L27.7214 19.2119V20.3294C27.9079 20.4219 28.1133 20.4701 28.3214 20.47H28.3571C29.0827 20.4513 29.6733 19.8438 29.6714 19.1163C29.67 18.859 29.5954 18.6074 29.4563 18.3909C29.3172 18.1744 29.1193 18.002 28.8858 17.8938V17.8938Z" fill="#1B8F10"/>
<path d="M37.8466 20.3245C37.7783 20.3684 37.7079 20.4089 37.6356 20.4458V21.4873C37.6356 21.5432 37.6578 21.5969 37.6974 21.6364C37.737 21.676 37.7906 21.6982 37.8466 21.6982C37.9025 21.6982 37.9562 21.676 37.9957 21.6364C38.0353 21.5969 38.0575 21.5432 38.0575 21.4873V20.4458C37.9852 20.4089 37.9148 20.3684 37.8466 20.3245V20.3245Z" fill="white"/>
<path d="M39.6949 17.0207C39.5423 16.6563 39.2855 16.3452 38.9566 16.1264C38.6277 15.9076 38.2416 15.7909 37.8466 15.7909C37.4516 15.7909 37.0654 15.9076 36.7365 16.1264C36.4077 16.3452 36.1508 16.6563 35.9982 17.0207C35.6699 17.1728 35.3917 17.4153 35.196 17.7197C35.0004 18.0241 34.8954 18.3779 34.8934 18.7398C34.8908 19.7629 35.7214 20.6172 36.7418 20.6435C37.0514 20.6516 37.3583 20.5837 37.6356 20.4458V19.5071L36.486 18.9349C36.4357 18.9098 36.3974 18.8656 36.3796 18.8122C36.3708 18.7858 36.3672 18.7578 36.3692 18.73C36.3712 18.7022 36.3786 18.6751 36.3911 18.6502C36.4036 18.6252 36.4208 18.603 36.4419 18.5847C36.4629 18.5665 36.4874 18.5525 36.5138 18.5437C36.5672 18.5259 36.6255 18.5301 36.6759 18.5552L37.6356 19.0378V17.6904C37.6356 17.6345 37.6579 17.5808 37.6974 17.5412C37.737 17.5017 37.7906 17.4795 37.8466 17.4795C37.9025 17.4795 37.9562 17.5017 37.9957 17.5412C38.0353 17.5808 38.0575 17.6345 38.0575 17.6904V18.4049L39.0173 17.9224C39.0676 17.8973 39.1259 17.8931 39.1793 17.9109C39.2327 17.9287 39.2769 17.967 39.302 18.0173C39.3272 18.0677 39.3313 18.126 39.3135 18.1794C39.2957 18.2328 39.2575 18.2769 39.2071 18.3021L38.0575 18.8743V20.4458C38.3197 20.5759 38.6085 20.6435 38.9013 20.6435H38.9513C39.9718 20.6172 40.8023 19.7629 40.7997 18.7398C40.7977 18.3779 40.6927 18.0241 40.4971 17.7197C40.3015 17.4153 40.0232 17.1728 39.6949 17.0207V17.0207Z" fill="white"/>
<path d="M22.6519 1.80005C22.3451 1.80004 22.0444 1.88547 21.7834 2.04675C21.5225 2.20802 21.3116 2.43879 21.1744 2.71317V2.71317C21.0598 2.93993 21.0001 3.19039 21 3.44442C21.0006 3.48305 20.9867 3.52051 20.961 3.54935C20.9353 3.57818 20.8997 3.59629 20.8612 3.60005C20.8406 3.6016 20.8199 3.59887 20.8004 3.59203C20.7809 3.58519 20.763 3.57439 20.7478 3.5603C20.7327 3.54621 20.7206 3.52915 20.7124 3.51017C20.7041 3.4912 20.6999 3.47073 20.7 3.45005C20.7001 3.24044 20.7336 3.0322 20.7994 2.83317C20.8038 2.82048 20.8047 2.80685 20.802 2.79369C20.7993 2.78053 20.7931 2.76834 20.7841 2.75837C20.7751 2.74841 20.7636 2.74105 20.7508 2.73706C20.738 2.73306 20.7243 2.73259 20.7112 2.73567C20.4512 2.80015 20.2201 2.94983 20.055 3.16085C19.8898 3.37187 19.8001 3.63209 19.8 3.90005C19.8 4.56005 20.3587 5.10005 21.0169 5.10005H22.65C23.0876 5.1003 23.5074 4.9267 23.817 4.61744C24.1266 4.30818 24.3007 3.88859 24.3009 3.45099C24.3012 3.01338 24.1276 2.5936 23.8183 2.28399C23.5091 1.97437 23.0895 1.8003 22.6519 1.80005V1.80005Z" fill="white"/>
<path d="M46.2016 2.55005C45.8948 2.55004 45.5941 2.63547 45.3332 2.79675C45.0722 2.95802 44.8613 3.18879 44.7241 3.46317V3.46317C44.6096 3.68993 44.5499 3.94039 44.5497 4.19442C44.5504 4.23305 44.5365 4.27051 44.5108 4.29935C44.4851 4.32818 44.4494 4.34629 44.411 4.35005C44.3904 4.3516 44.3696 4.34887 44.3501 4.34203C44.3306 4.33519 44.3127 4.32439 44.2976 4.3103C44.2824 4.29621 44.2704 4.27915 44.2621 4.26017C44.2539 4.2412 44.2497 4.22073 44.2497 4.20005C44.2498 3.99044 44.2834 3.7822 44.3491 3.58317C44.3535 3.57048 44.3544 3.55685 44.3517 3.54369C44.349 3.53053 44.3429 3.51834 44.3339 3.50837C44.3249 3.49841 44.3133 3.49105 44.3005 3.48706C44.2877 3.48306 44.274 3.48259 44.261 3.48567C44.0009 3.55015 43.7699 3.69983 43.6047 3.91085C43.4396 4.12187 43.3498 4.38209 43.3497 4.65005C43.3497 5.31005 43.9085 5.85005 44.5666 5.85005H46.1997C46.6373 5.8503 47.0571 5.6767 47.3667 5.36744C47.6763 5.05818 47.8504 4.63859 47.8507 4.20099C47.8509 3.76338 47.6773 3.3436 47.3681 3.03399C47.0588 2.72437 46.6392 2.5503 46.2016 2.55005V2.55005Z" fill="white"/>
<path d="M28.9516 4.94995C28.6448 4.94995 28.3441 5.03537 28.0832 5.19665C27.8222 5.35793 27.6113 5.58869 27.4741 5.86308V5.86308C27.3596 6.08983 27.2999 6.34029 27.2997 6.59433C27.3004 6.63295 27.2865 6.67041 27.2608 6.69925C27.2351 6.72809 27.1994 6.74619 27.161 6.74995C27.1404 6.7515 27.1196 6.74877 27.1001 6.74193C27.0806 6.73509 27.0627 6.72429 27.0476 6.7102C27.0324 6.69612 27.0204 6.67905 27.0121 6.66008C27.0039 6.6411 26.9997 6.62063 26.9997 6.59995C26.9998 6.39035 27.0334 6.1821 27.0991 5.98308C27.1035 5.97039 27.1044 5.95675 27.1017 5.94359C27.099 5.93043 27.0929 5.91824 27.0839 5.90828C27.0749 5.89831 27.0633 5.89095 27.0505 5.88696C27.0377 5.88297 27.024 5.88249 27.011 5.88558C26.7509 5.95005 26.5199 6.09973 26.3547 6.31075C26.1896 6.52177 26.0998 6.78199 26.0997 7.04995C26.0997 7.70995 26.6585 8.24995 27.3166 8.24995H28.9497C29.3873 8.2502 29.8071 8.0766 30.1167 7.76734C30.4263 7.45808 30.6004 7.0385 30.6007 6.60089C30.6009 6.16328 30.4273 5.7435 30.1181 5.43389C29.8088 5.12428 29.3892 4.9502 28.9516 4.94995V4.94995Z" fill="white"/>
</g>
</svg>
