<svg width="487" height="123" viewBox="0 0 487 123" fill="none" xmlns="http://www.w3.org/2000/svg">
<path d="M139.052 89.2966L128.328 73.8073H127.693H116.496V89.2966H103.628V33.7036H127.693C132.616 33.7036 136.891 34.5233 140.521 36.1672C144.146 37.8112 146.939 40.1398 148.898 43.1575C150.857 46.1752 151.835 49.7513 151.835 53.877C151.835 58.0072 150.844 61.5699 148.858 64.5605C146.871 67.5512 144.052 69.8437 140.399 71.4291L152.866 89.3011H139.052V89.2966ZM135.796 46.6886C133.783 45.0221 130.846 44.1889 126.982 44.1889H116.496V63.5696H126.982C130.846 63.5696 133.783 62.7229 135.796 61.0294C137.809 59.3359 138.814 56.9533 138.814 53.8815C138.814 50.7512 137.805 48.3551 135.796 46.6886Z" fill="white"/>
<path d="M162 33.7036H174.868V89.2966H162V33.7036Z" fill="white"/>
<path d="M271.763 33.7036L253.576 89.2966H239.758L227.525 51.652L214.895 89.2966H201.154L182.89 33.7036H196.231L208.779 72.7803L221.886 33.7036H233.799L246.505 73.0956L259.449 33.7036H271.763Z" fill="white"/>
<path d="M313.695 77.3834H287.883L282.96 89.2966H269.777L294.558 33.7036H307.264L332.121 89.2966H318.618L313.695 77.3834ZM309.646 67.6142L300.832 46.3283L292.018 67.6142H309.646Z" fill="white"/>
<path d="M346.656 44.1844H328.865V33.7036H377.31V44.1844H359.519V89.2966H346.651V44.1844H346.656Z" fill="white"/>
<path d="M427.268 78.9734V89.2966H384.224V33.7036H426.237V44.0267H397.011V56.0975H422.823V66.1054H397.011V78.9734H427.268Z" fill="white"/>
<path d="M471.984 89.2966L458.562 69.9969L445.379 89.2966H430.606L451.176 61.0249L431.637 33.7036H446.253L459.04 51.7331L471.588 33.7036H485.483L466.102 60.5475L486.83 89.2966H471.984Z" fill="white"/>
<path d="M36.7572 92.5123L36.4464 92.2511L5.10303 118.694C7.96758 121.365 11.805 123 16.0298 123H28.5959H85.0222L36.7572 92.5123Z" fill="url(#paint0_linear_313_5823)"/>
<path d="M58.1017 49.0217L0 0V36.7572L24.5063 57.4306C27.0286 59.5565 27.0286 63.439 24.5063 65.5694L0 86.2428V106.966C0 111.596 1.96375 115.762 5.10304 118.69L36.7572 91.9854L58.1017 73.9784C65.8351 67.4566 65.8351 55.5435 58.1017 49.0217Z" fill="white"/>
<defs>
<linearGradient id="paint0_linear_313_5823" x1="11.578" y1="91.2683" x2="57.6489" y2="131.964" gradientUnits="userSpaceOnUse">
<stop stop-color="#0EB69D"/>
<stop offset="1" stop-color="#85E047"/>
</linearGradient>
</defs>
</svg>
