<svg width="487" height="123" viewBox="0 0 487 123" fill="none" xmlns="http://www.w3.org/2000/svg"><path d="M139.052 89.296l-10.724-15.489h-11.832v15.49h-12.868V33.703h24.065c4.923 0 9.198.82 12.828 2.463 3.625 1.644 6.418 3.973 8.377 6.99 1.959 3.018 2.937 6.594 2.937 10.72 0 4.13-.991 7.693-2.977 10.684-1.987 2.99-4.806 5.283-8.459 6.868L152.866 89.3h-13.814v-.005zm-3.256-42.607c-2.013-1.667-4.95-2.5-8.814-2.5h-10.486v19.38h10.486c3.864 0 6.801-.846 8.814-2.54 2.013-1.693 3.018-4.076 3.018-7.148 0-3.13-1.009-5.526-3.018-7.192zM162 33.703h12.868v55.593H162V33.703zm109.763 0l-18.187 55.593h-13.818l-12.233-37.644-12.63 37.644h-13.741L182.89 33.703h13.341l12.548 39.077 13.107-39.077h11.913l12.706 39.393 12.944-39.393h12.314zm41.932 43.68h-25.812l-4.923 11.913h-13.183l24.781-55.593h12.706l24.857 55.593h-13.503l-4.923-11.913zm-4.049-9.769l-8.814-21.286-8.814 21.286h17.628zm37.01-23.43h-17.791v-10.48h48.445v10.48h-17.791v45.112h-12.868V44.184h.005zm80.612 34.789v10.323h-43.044V33.703h42.013v10.324h-29.226v12.07h25.812v10.008h-25.812v12.868h30.257zm44.716 10.323l-13.422-19.3-13.183 19.3h-14.773l20.57-28.271-19.539-27.322h14.616l12.787 18.03 12.548-18.03h13.895l-19.381 26.844 20.728 28.75h-14.846z" fill="#000"/><path d="M36.757 92.512l-.31-.26-31.344 26.442A15.964 15.964 0 0016.03 123h68.992L36.757 92.512z" fill="url(#paint0_linear_313_5133)"/><path d="M58.102 49.022L0 0v36.757l24.506 20.674c2.523 2.126 2.523 6.008 0 8.138L0 86.243v20.723a15.98 15.98 0 005.103 11.724l31.654-26.705 21.345-18.007c7.733-6.521 7.733-18.434 0-24.956z" fill="url(#paint1_linear_313_5133)"/><defs><linearGradient id="paint0_linear_313_5133" x1="11.578" y1="91.268" x2="57.649" y2="131.964" gradientUnits="userSpaceOnUse"><stop stop-color="#0EB69D"/><stop offset="1" stop-color="#85E047"/></linearGradient><linearGradient id="paint1_linear_313_5133" x1=".002" y1="59.346" x2="63.901" y2="59.346" gradientUnits="userSpaceOnUse"><stop stop-color="#551EAA"/><stop offset="1" stop-color="#4E1FFF"/></linearGradient></defs></svg>