<svg width="454" height="369" viewBox="0 0 454 369" fill="none" xmlns="http://www.w3.org/2000/svg"><path d="M405.41 107.524c-.1 2.133-.007 4.282-.204 6.404-.104 1.134-.126 2.189-.465 3.271a.153.153 0 00.012.111.146.146 0 00.085.071l.134.041c.131.042.21-.005.238-.141.587-3.142.738-6.345.453-9.609" stroke="#7B7988" stroke-width="2"/><path d="M409.086 125.484c-.299.032-.626.053-.981.063-2.755.065-5.51.032-8.263-.096a74.252 74.252 0 00-3.549-.093c-1.272.002-2.451-.007-3.539-.026" stroke="#706D9F" stroke-width="2"/><path d="M393.193 115.348c.401.538 1.096.994 2.085 1.368 1.534.58 2.737 1.743 3.609 3.49a.104.104 0 00.031.038.098.098 0 00.043.022.116.116 0 00.094-.019l.092-.071a.242.242 0 00.067-.308c-.832-1.497-1.963-2.621-3.393-3.371a75.797 75.797 0 00-1.115-.402c-.508-.183-.89-.49-1.145-.922m3.799-5.898l-.655 5.389a.242.242 0 00.047.172.243.243 0 00.154.092l.13.022c.114.018.176-.032.186-.148l.472-5.438m3.438-2.602a44.698 44.698 0 00-.204 5.133c.007.357-.018.711-.075 1.063-.059.364-.135.733-.226 1.108a.196.196 0 00.023.151c.027.046.073.08.125.094l.164.041c.139.035.217-.02.234-.164.323-2.453.212-4.876.405-7.326a1.357 1.357 0 00-.085-.58" stroke="#7B7988" stroke-width="2"/><path d="M412.941 131.877a99.33 99.33 0 00-11.433-.401c-2.723.062-5.443.099-8.159.111" stroke="#4A2492" stroke-width="2"/><path d="M393.349 131.587l-.628.246" stroke="#366F7C" stroke-width="2"/><path d="M392.721 131.833l-.606.003m-2.899.015c-.228.065-.557.066-.985.004" stroke="#4A2492" stroke-width="2"/><path d="M413.521 154.413c-1.779-.704-3.265-1.482-4.457-2.334-2.113-1.509-4.352-3.431-6.716-5.765-.398-.39-.87-.688-1.253-1.104-1.353-1.479-2.732-2.903-3.895-4.538a44.693 44.693 0 01-4.204-7.274c-.149-.33-.24-.852-.275-1.565" stroke="#6A8BC0" stroke-width="2"/><path d="M413.566 153.216c-.154.134-.302.169-.443.104a22.614 22.614 0 01-4.319-2.55 59.398 59.398 0 01-9.497-8.902c-2.574-3.008-4.56-6.435-5.958-10.281" stroke="#6A8BC0" stroke-width="2"/><path d="M412.926 166.987c-1.474-.324-2.832-.198-4.074.38" stroke="#4A2492" stroke-width="2"/><path d="M408.852 167.367c-1.796-2.617-3.105-4.349-3.925-5.197a49.682 49.682 0 01-2.877-3.256c-.622-.768-2.173-2.129-4.653-4.085-1.324-1.04-2.682-1.792-4.074-2.256-.741-.245-1.593-.381-2.557-.409a79.807 79.807 0 00-2.547-.033" stroke="#6A8BC0" stroke-width="2"/><path d="M408.852 167.367l-.635.416" stroke="#366F7C" stroke-width="2"/><path d="M366.791 164.486c-.607 4.507-2.16 8.511-4.661 12.009a.396.396 0 00.109.561c.06.038.129.059.2.06 1.63.04 3.257-.037 4.88-.23 1.066-.127 1.771-.335 2.115-.625 3.873-3.263 7.787-6.564 11.742-9.902.282-.238.46-.457.531-.658" stroke="#BE3FAC" stroke-width="2"/><path d="M381.707 165.701c-.034 4.01.879 7.813 2.74 11.411 1.051 2.03 2.334 3.634 3.851 4.814.426.329.565.235.416-.283-.097-.334-.379-.769-.628-1.011-1.395-1.372-2.445-2.815-3.148-4.326a25.52 25.52 0 01-2.416-10.527c-.005-.371-.149-.543-.432-.516" stroke="#6A8BC0" stroke-width="2"/><path d="M382.09 165.263c.087-.186.117-.343.09-.472" stroke="#BE3FAC" stroke-width="2"/><path d="M388.194 153.253c2.507-.659 4.797-.313 6.869 1.037 2.624 1.715 5.265 4.09 7.924 7.126 1.043 1.192 2.787 3.314 5.23 6.367" stroke="#6A8BC0" stroke-width="2"/><path d="M408.217 167.783c-2.225 1.559-2.911 3.692-2.056 6.401.196.624.439 1.23.729 1.817.109.218.358.39.747.517" stroke="#4A2492" stroke-width="2"/><path d="M387.878 194.303a.451.451 0 00-.48.108 208.433 208.433 0 01-7.397 6.709c-1.675 1.445-3.3 2.603-4.876 3.476a50.83 50.83 0 01-5.412 2.609.511.511 0 00-.324.483l.034 4.096" stroke="#BE3FAC" stroke-width="2"/><path d="M369.423 211.784c-.109-.035-.228-.125-.357-.271-2.56-2.917-4.315-6.028-5.267-9.333-.523-1.819-.762-3.997-.717-6.535.017-.989.166-1.95.446-2.884a.292.292 0 00-.012-.202.285.285 0 00-.14-.144c-.139-.067-.262-.072-.368-.015-.308.166-.481.386-.521.658-.533 3.591-.42 6.636.339 9.136 1.184 3.911 3.289 7.478 6.315 10.702a.261.261 0 00.141.074.318.318 0 00.182-.008" stroke="#6A8BC0" stroke-width="2"/><path d="M369.464 212.963l.316 10.362" stroke="#BE3FAC" stroke-width="2"/><path d="M351.459 223.861c-1.554-.875-3.548-1.627-5.984-2.257-5.296-1.37-10.126-.752-14.493 1.855m-26.364-.19l-1.07-1.717m3.196-19.774c.999-.3 1.809-.67 2.431-1.111.691-.486.615-.703-.23-.651-.446.028-1.13.215-2.052.562m-15.24-.993c-2.944-3.97-2.393-7.962-1.431-12.31.647-2.917 2.058-5.472 4.234-7.665.793-.803 2.42-1.707 4.88-2.713m14.671.037c-1.001 2.2-2.617 3.904-4.847 5.111-.248.134-.375.362-.383.684-.002.161.076.224.235.189 2.587-.568 4.947-3.702 6.17-6.055m4.464.023c.814.918 1.494 1.851 2.423 2.672a652.361 652.361 0 014.698 4.2c1.579 1.423 3.451 2.682 5.616 3.777.806.409 1.818.759 3.037 1.052a19.49 19.49 0 003.108.505.42.42 0 01.194.066.414.414 0 01.142.149c.035.06.054.128.056.197a.44.44 0 01-.043.202 7.257 7.257 0 00-.435 1.107c-1.078 3.593-1.571 7.119-1.479 10.579.101 3.821.966 7.593 2.594 11.318a.448.448 0 00.182.203.43.43 0 00.264.057c.181-.017.265-.113.253-.286a2.577 2.577 0 00-.16-.77c-1.459-3.722-2.204-7.25-2.234-10.586-.029-3.635.309-7.448 1.569-10.812.293-.777.067-1.606 1.308-1.572a4.31 4.31 0 001.219-.145c4.039-1.096 6.678-3.659 7.917-7.691.047-.151.148-.213.302-.186 5.26.925 9.851 3.166 13.771 6.724.547.496 1.09.977 1.628 1.442 1.312 1.142 2.204 2.573 3.457 3.773.161.154.266.122.315-.096.067-.288.017-.589-.152-.904a1.161 1.161 0 00-.134-.197c-2.024-2.371-3.71-4.114-5.058-5.229-3.975-3.279-8.572-5.374-13.79-6.286a.175.175 0 01-.142-.197l.495-3.167" stroke="#6A8BC0" stroke-width="2"/><path d="M349.455 176.797c.194.255.243.669.149 1.241-.096.58-.196 1.194-.297 1.844-.03.203-.148.313-.353.331-2.491.23-4.556 1.242-6.196 3.036a17.373 17.373 0 00-3.004 4.587.826.826 0 01-.873.476c-2.275-.339-4.267-.524-6.36-1.602-2.617-1.343-5.164-3.222-7.642-5.635-1.853-1.807-3.115-3.155-3.784-4.044m27.94 46.83c-1.712-.808-3.604-1.408-5.675-1.799-3.085-.583-6.047-.33-8.884.758a3.416 3.416 0 00-1.018.647" stroke="#6A8BC0" stroke-width="2"/><path d="M382.09 165.263l-.382.438m-12.285 46.083c.094.374.108.767.041 1.178" stroke="#AA8A95" stroke-width="2"/><path d="M296.567 176.956c-2.463 1.616-4.324 3.577-5.583 5.884-.651 1.2-1.106 2.265-1.364 3.197-.743 2.68-1.226 5.505-.989 8.263.142 1.655.785 3.413 1.93 5.274" stroke="#6A8BC0" stroke-width="2"/><path d="M285.944 199.477c.186-2.522-.648-4.446-2.502-5.772" stroke="#4A2492" stroke-width="2"/><path d="M283.442 193.705c-.493-1.784-1.191-3.346-2.096-4.687-3.021-4.473-6.901-8.144-11.641-11.013-1.946-1.18-4.378-2.384-7.297-3.613-.934-.392-1.758-.571-2.471-.539m21.439-9.419c-1.764 2.015-3.452 3.504-5.063 4.468-1.402.842-2.969 1.342-4.701 1.498-1.316.119-2.919-.034-4.81-.458a43.92 43.92 0 01-7.07-2.241" stroke="#6A8BC0" stroke-width="2"/><path d="M274.306 155.896l-.75.561" stroke="#4A2492" stroke-width="2"/><path d="M272.072 157.301l-1.115 1.004c-.044.037-.048.079-.011.126.02.023.051.04.093.052" stroke="#211438" stroke-width="2"/><path d="M271.039 158.483c-.191.255-.386.418-.587.487" stroke="#4A2492" stroke-width="2"/><path d="M270.452 158.97c-.922.459-1.855 1.104-2.799 1.937-.786.691-1.995 1.647-3.628 2.869a7.675 7.675 0 00-1.672 1.691" stroke="#211438" stroke-width="2"/><path d="M262.353 165.467l-1.777 1.591" stroke="#4A2492" stroke-width="2"/><path d="M260.576 167.058l-.844.643" stroke="#366F7C" stroke-width="2"/><path d="M259.732 167.701l-2.765 2.078" stroke="#4A2492" stroke-width="2"/><path d="M283.442 193.705l-.932-.45" stroke="#366F7C" stroke-width="2"/><path d="M282.51 193.255a22.918 22.918 0 00-2.565-4.784c-2.52-3.586-5.761-6.393-9.292-8.928-2.283-1.638-4.867-2.964-7.754-3.98l-.628-.276c-.451-.195-.781-.143-.989.157m19.499-11.779a33.376 33.376 0 01-2.141 2.367c-2.691 2.714-5.967 3.844-9.827 3.39a26.686 26.686 0 01-8.237-2.364" stroke="#6A8BC0" stroke-width="2"/><path d="M262.353 165.467l8.099-6.497m.587-.487l1.223-1.16" stroke="#55307C" stroke-width="2"/><path d="M254.101 142.274l1.933 2.642a.871.871 0 01.149.324c.188.847.474 1.551.858 2.111a35.134 35.134 0 004.271 5.137.495.495 0 01.052.639c-1.03 1.427-1.888 3.104-1.747 4.947.003.025.016.04.041.045l.1.011c.082.007.127-.03.134-.112.122-1.63.709-3.121 1.762-4.471.357-.457.227-.989-.145-1.379-1.323-1.378-2.645-2.991-3.966-4.839-.481-.672-.737-1.387-.769-2.145a.5.5 0 00-.112-.297l-2.405-3.015m12.255 8.876c-.139.245-.322.223-.55-.067-1.313-1.67-2.619-2.962-3.918-3.877-1.524-1.075-3.149-1.751-4.876-2.029-.05-.007-.08.014-.09.063l-.048.182c-.015.062.01.099.074.112 3.766.717 6.587 3.193 8.947 6.036.257.305.528.342.896.301" stroke="#7B7988" stroke-width="2"/><path d="M268.348 153.346a.583.583 0 01-.245.48c-3.487 2.577-6.962 5.17-10.426 7.779a9.355 9.355 0 01-1.472.9c-.533.263-1.045.528-1.535.795" stroke="#706D9F" stroke-width="2"/><path d="M248.678 148.232l3.509 3.917a.07.07 0 00.059.023.112.112 0 00.089-.06.128.128 0 00-.014-.16l-3.264-3.843m.625-4.713l3.962 5.107c.042.055.092.062.149.022l.152-.104c.057-.037.064-.083.022-.137l-3.977-5.182" stroke="#7B7988" stroke-width="2"/><path d="M282.51 193.255c-1.543-.189-2.61-.535-4.111.521-.387.27-.781.538-1.182.806m-137.096-38.574c1.743.985 3.486 2.724 4.557 3.575a868.932 868.932 0 0112.273 9.891M137.24 194.4c-.954-.748-1.904-1.218-2.851-1.409m-1.431-.018c-3.112.758-4.636 2.925-4.572 6.501" stroke="#4A2492" stroke-width="2"/><path d="M101.056 223.567c-4.795.004-9.69-.156-14.485.212" stroke="#937AD1" stroke-width="2"/><path d="M86.571 223.779l-12.753.022" stroke="#A489E3" stroke-width="2"/><path d="M73.818 223.801a280.933 280.933 0 00-19.008-.033 5.388 5.388 0 01-.528-.004.074.074 0 01-.034-.008c-.022-.012-.037-.006-.044.019-.008.03.003.046.033.048 1.393.038 2.788.052 4.185.045" stroke="#4A2492" stroke-width="2"/><path d="M58.422 223.868l-6.735.178" stroke="#A489E3" stroke-width="2"/><path d="M51.687 224.046c.308-.312.078-.379-.687-.2" stroke="#5D2FAF" stroke-width="2"/><path d="M44.577 223.266l.58-18.626a.161.161 0 00-.185-.166.164.164 0 00-.087.036 97.21 97.21 0 00-6.155 5.576 76.967 76.967 0 01-4.29 3.891 103.811 103.811 0 00-7.013 6.516" stroke="#6A8BC0" stroke-width="2"/><path d="M1.847 215.025c.133.075.252.072.357-.007m2.556-.301c1.926-.582 3.191-1.766 3.796-3.55.33-.979.358-2.006.085-3.081a10.427 10.427 0 00-1.267-2.907" stroke="#4A2492" stroke-width="2"/><path d="M26.613 187.49a.522.522 0 00.275-.104 492.47 492.47 0 008.824-7.995 5.747 5.747 0 012.04-1.249 27.942 27.942 0 016.193-1.357c2.72-.293 5.475.026 8.263-.055.18-.005.22-.082.119-.231-2.375-3.501-3.944-7.211-4.498-11.422-.026-.219-.141-.294-.208-.491" stroke="#6A8BC0" stroke-width="2"/><path d="M51.687 224.046l-.777-.007" stroke="#8378BC" stroke-width="2"/><path d="M73.818 223.801l-15.396.067" stroke="#706D9F" stroke-width="2"/><path d="M185.174 308.967l-.911.595" stroke="#7268AA" stroke-width="2"/><path d="M144.38 304.102a314.91 314.91 0 017.457-3.65c2.537-1.202 5.036-3.28 7.497-6.233.732-.881.97-1.896 1.628-2.81.456-.632.8-1.352 1.033-2.16a89.09 89.09 0 00.996-3.717c.706-2.962-.182-6.088-1.293-8.958-1.105-2.854-2.694-5.158-4.765-6.91-2.766-2.341-6.194-4.425-10.285-6.252-1.1-.49-1.97-1.278-3.033-1.847a9846.564 9846.564 0 01-48.938-26.29c-1.208-.65-2.53-1.152-3.46-2.122-2.111-2.201-3.354-4.852-3.728-7.954-.09-.746-.395-1.22-.918-1.42" stroke="#B9C3DE" stroke-width="2"/><path d="M165.757 143.849l-4.074 4.561a.129.129 0 00-.034.083c0 .031.01.061.03.084l.119.142c.01.01.021.018.034.024a.093.093 0 00.081 0 .116.116 0 00.034-.024l4.263-4.847m.29 4.969l-3.646 3.36c-.104.097-.087.155.052.175l.305.048a.144.144 0 00.126-.04l3.468-3.424" stroke="#7B7988" stroke-width="2"/><path d="M159.731 163.408c-.495-.498-1.161-1.027-1.996-1.587-2.644-1.774-6.595-4.483-11.853-8.125" stroke="#706D9F" stroke-width="2"/><path d="M159.007 145.552c-.055.399-.169.719-.342.959-1.311 1.784-2.915 3.522-4.814 5.215-.572.509-.698 1.148-.264 1.791.863 1.264 1.264 2.67 1.205 4.219a.12.12 0 00.011.056.12.12 0 00.086.068.115.115 0 00.055-.005l.115-.037a.228.228 0 00.16-.219c.013-1.646-.397-3.078-1.23-4.297-.31-.451-.263-.86.141-1.227a45.494 45.494 0 004.394-4.65c.351-.426.62-.897.806-1.412.213-.587.461-1.032.744-1.334a18.983 18.983 0 001.817-2.264" stroke="#7B7988" stroke-width="2"/><path d="M214.504 323.233c-1.092.942-1.915 1.608-2.468 2-4.807 3.385-14.425 10.09-28.854 20.116-1.457 1.013-2.724 1.718-3.799 2.115" stroke="#5D2FAF" stroke-width="2"/><path d="M161.646 142.151l-2.639 3.401" stroke="#7B7988" stroke-width="2"/><path d="M297.009 236.361a3.352 3.352 0 01-.706 1.081c-.423.449-.702.766-.836.952a41.688 41.688 0 01-3.089 3.78" stroke="#CDE9ED" stroke-width="2"/><path d="M433.867 324.352c-.503 1.147-.994 2.041-1.475 2.68-4.314 5.764-8.6 11.521-12.857 17.273" stroke="#8378BC" stroke-width="2"/><path d="M319.478 264.528a8.984 8.984 0 00-2.676 2.063m-.795.791a13.175 13.175 0 00-3.606 3.769c-.448.702-.597 1.363-.446 1.985m.64 2.457c-.223.268-.261.553-.112.855.309.617.546 1.227 1.026 1.743.835.907 1.456 1.543 1.862 1.907.084.079.191.097.32.052" stroke="#CDE9ED" stroke-width="2"/><path d="M359.777 327.351c-.314 1.542-1.003 2.839-2.066 3.892-2.275 2.26-6.79 6.564-13.545 12.913" stroke="#8378BC" stroke-width="2"/><path d="M292.642 305.321c-.094-.297-.196-.51-.305-.639-.53-.63-1.057-1.25-1.579-1.862m-20.313-22.02c-1.197-3.501-1.083-6.95.342-10.348.092-.226.04-.349.048-.579m15.827-20.191a6.527 6.527 0 01-.878 1.227 15.94 15.94 0 00-.955 1.152 29.677 29.677 0 01-2.925 3.446m-.747.936a31.464 31.464 0 01-4.621 5.799" stroke="#CDE9ED" stroke-width="2"/><path d="M449.289 335.12l-24.223 30.353" stroke="#5D2FAF" stroke-width="2"/><path d="M302.458 228.808l-.029.405a.556.556 0 01-.127.323c-1.863 2.387-3.063 3.953-3.598 4.698-.451.632-.862.959-1.234.982m-21.577 28.185l-4.393 5.531m20.22-25.937c.008.194-.022.334-.089.42a90.951 90.951 0 01-4.208 5.145m17.477-23.079l-1.754 2.465" stroke="#CDE9ED" stroke-width="2"/><path d="M371.099 338.684c.005.323-.16.655-.494.997a857.477 857.477 0 01-11.905 11.916 171.3 171.3 0 00-5.148 5.319 167.697 167.697 0 01-5.996 6.092c-.324.315-.674.611-1.048.888-.409.305-.743.6-1.004.885" stroke="#5D2FAF" stroke-width="2"/><path d="M57.296 148.689a12.01 12.01 0 01-.3.554 3.323 3.323 0 00-.261.569 19.921 19.921 0 00-1.09 6.211 86.18 86.18 0 01-.14 3.702 34.995 34.995 0 00-.034 3.705" stroke="#55307C" stroke-width="2"/><path d="M81.285 155.707l-7.78-1.721a.762.762 0 00-.743.245c-3.211 3.683-7.18 6.125-11.697 8.181-.654.301-1.2.71-1.788 1.104" stroke="#7F473F" stroke-width="2"/><path d="M360.777 176.7a.442.442 0 00-.625-.016l-.016.015a.443.443 0 00-.017.625l4.063 4.282a.444.444 0 00.626.016l.016-.015a.442.442 0 00.016-.625l-4.063-4.282zm-45.35 19.607c2.27 1.883 4.699 4.417 7.289 7.601a151.928 151.928 0 015.397 7.003.971.971 0 00.613.397c.181.038.273-.006.275-.13 0-.401-.083-.711-.249-.929a258.31 258.31 0 00-5.263-6.765c-.855-1.063-1.832-2.044-2.665-3.092a25.507 25.507 0 00-2.044-2.268c-2.005-1.987-3.914-3.536-5.728-4.646-1.948-1.192-4.221-1.654-6.821-1.386a.67.67 0 00-.587.435c-.05.124-.019.255.093.394a.318.318 0 00.245.122c.996.034 1.859-.409 2.873-.212 2.625.51 4.587 1.829 6.572 3.476zm-2.178 21.38c1.111-2.227 2.468-3.933 4.535-5.174.235-.141.405-.338.509-.591a.2.2 0 00-.024-.198.206.206 0 00-.188-.077c-2.416.342-4.728 3.847-5.869 6.084a.196.196 0 00.008.187.188.188 0 00.07.067c.028.016.06.025.093.025h.342a.587.587 0 00.524-.323z" stroke="#6A8BC0" stroke-width="2"/><path d="M352.934 167.304a10.594 10.594 0 00-1.523-.22c-.655-.048-1.138-.286-1.584-.751-3.914-4.051-8.958-6.181-14.139-8.355a7.734 7.734 0 01-2.49-1.662.435.435 0 00-.35-.115" stroke="#8B6174" stroke-width="2"/><path d="M348.906 180.997a.907.907 0 00-.465 0c-3.959.836-6.003 3.364-7.824 6.705-.251.461-.119.635.394.521 3.982-.89 6.661-3.204 8.036-6.944a.224.224 0 00-.065-.24.218.218 0 00-.076-.042z" stroke="#6A8BC0" stroke-width="2"/><path d="M48.531 235.925a.38.38 0 00-.052-.179.487.487 0 00-.137-.149.658.658 0 00-.2-.096.763.763 0 00-.661.123.483.483 0 00-.128.158.38.38 0 00.012.361.488.488 0 00.137.149.659.659 0 00.2.096.763.763 0 00.661-.124.48.48 0 00.127-.157.38.38 0 00.041-.182z" stroke="#E3C6A4" stroke-width="2"/><path d="M4.252 270.939l.197.216c.012.013.028.02.045.021a.073.073 0 00.047-.017l2.77-2.494c.089-.08.174-.162.251-.242a3.12 3.12 0 00.2-.221 1.11 1.11 0 00.114-.167c.022-.044.027-.074.014-.088l-.089-.1c-.026-.028-.122.009-.267.103a4.373 4.373 0 00-.506.399l-2.769 2.494a.071.071 0 00-.017.021.063.063 0 00-.007.026.057.057 0 00.003.026.057.057 0 00.014.023zm7.969-.873a.11.11 0 00-.036-.026.111.111 0 00-.088-.004.102.102 0 00-.039.024l-3.349 3.09a.12.12 0 00-.026.036.118.118 0 00-.004.088.11.11 0 00.024.039l.09.098a.13.13 0 00.037.027.13.13 0 00.043.01.115.115 0 00.083-.03l3.35-3.091a.11.11 0 00.026-.036.12.12 0 00.003-.088.13.13 0 00-.023-.039l-.091-.098z" stroke="#7B7988" stroke-width="2"/><path d="M133.653 52.33l2.052.752c1.011.371.98.607-.093.706-.632.06-1.283.19-1.955.39a.465.465 0 00-.271.208 3.07 3.07 0 00-.312.721 35.887 35.887 0 00-.848 3.52c-.149.803-.305.804-.468.004l-.766-3.74a.861.861 0 00-.654-.668l-2.665-.606c-.342-.077-.353-.188-.034-.334.982-.447 2.323-.666 3.126-1.387a.598.598 0 00.182-.309c.268-1.107.494-2.201.677-3.282.228-1.335.466-1.338.714-.007.233 1.246.581 2.5 1.044 3.762.05.13.14.221.271.27z" fill="#FCB958"/><path d="M79.843 13.579a175.704 175.704 0 01-3.553-.498 27.384 27.384 0 00-3.516-.316c-6.02-.127-11.654 1.012-16.905 3.415-10.658 4.884-18.063 12.963-22.216 24.235-1.378 3.732-2.154 7.748-2.327 12.05-.005.127-.063.316-.175.569.01-.141-.036-.24-.137-.294a141.25 141.25 0 01-10.757-6.434.947.947 0 01-.364-.45c.297-1.479.457-3.13.758-4.445a38.71 38.71 0 013.17-8.835c1.314-1.705 2.276-3.182 2.888-4.43.147-.298.098-.489-.145-.573 5.87-8.586 13.582-14.234 23.135-16.942C59.953 7.721 70 8.704 79.843 13.578z" fill="#928DED"/><path d="M79.843 12.823c14.931 7.683 23.759 23.235 22.637 39.898-.528 7.8-3.166 15.02-7.914 21.659-.09.094-.3.121-.636.082-10.248-1.262-20.358-3.65-30.33-7.163a448.505 448.505 0 01-6.991-2.542A210.042 210.042 0 0130.757 53.1l.394-.821c.112-.253.17-.443.175-.569.174-4.302.95-8.318 2.327-12.05 4.153-11.272 11.558-19.35 22.216-24.235 5.25-2.403 10.886-3.542 16.905-3.416 1.095.023 2.267.128 3.516.316a175.7 175.7 0 003.553.498zm2.58 14.597a3.339 3.339 0 10-6.678 0 3.339 3.339 0 006.678 0zM73.48 38.626a3.349 3.349 0 10-6.698 0 3.349 3.349 0 006.698 0z" fill="#B5B1FD"/><path d="M26.374 27.5c.243.085.291.276.145.573-.612 1.249-1.575 2.726-2.888 4.43-2.141-.205-3.86-.34-5.156-.401-2.634-.124-5.158.171-7.571.885-.459.136-.944.395-1.457.776-1.335.993.35 3.32 1.033 4.182 2.427 3.074 5.78 5.683 9.084 7.891a.121.121 0 00.082.022c.042-.005.06-.03.056-.074.077.19.198.34.364.45a141.215 141.215 0 0010.757 6.434c.102.054.148.152.138.294l-.394.82a15.742 15.742 0 00.1 4.48 101.22 101.22 0 01-10.995-6.237.294.294 0 00-.305-.023c-.123-.22-.242-.366-.356-.438a60.465 60.465 0 01-10.058-7.746c-2.617-2.502-5.208-5.91-4.933-9.813.271-3.87 4.059-5.798 7.378-6.445 2.602-.508 5.33-.67 8.185-.487 2.33.151 4.593.294 6.79.427z" fill="#152647"/><path d="M19 50.032a.294.294 0 01.305.023 101.22 101.22 0 0010.994 6.237c.142 1.244.448 1.944.919 2.1.807 5.313 2.413 10.085 4.817 14.317 3.789 6.664 9.074 12.022 15.856 16.076a.282.282 0 01.134.283l-.06.409c-4.157-.766-7.886-2.088-11.184-3.966-11.225-6.398-18.204-16.02-20.937-28.866-.226-1.063-.507-3.267-.844-6.613z" fill="#928DED"/><path d="M30.114 52a210.026 210.026 0 0025.852 11.656 449.056 449.056 0 006.991 2.543c9.972 3.514 20.082 5.901 30.33 7.162.335.04.547.013.636-.082 2.885.303 5.754.374 8.609.212 1.628-.093 4.118-.48 5.203-1.791.722-.877-.512-2.844-1.129-3.695-1.346-1.85-3.045-3.595-5.096-5.233-.427-.34-.588-.756-.484-1.25.3-1.429.546-2.953.736-4.571a.46.46 0 01.273-.364.448.448 0 01.448.055c3.851 2.942 6.752 5.895 8.702 8.862.896 1.364 1.803 3.218 1.873 4.82.361 8.055-9.389 8.735-15.046 8.669a60.188 60.188 0 01-7.884-.606 1.23 1.23 0 00-.728.126c-.32-.164-.506-.327-.877-.383a144.757 144.757 0 01-21.533-5.04c-7.902-2.495-13.86-4.56-17.874-6.196-3.89-1.586-9.885-4.358-17.983-8.315-.47-.156-.777-.856-.918-2.1a15.75 15.75 0 01-.1-4.479z" fill="#7E40D6"/><path d="M30.776 58c8.098 4.083 14.092 6.942 17.982 8.578 4.014 1.687 9.973 3.818 17.875 6.392a141.036 141.036 0 0021.532 5.2c.372.058.558.226.877.395-9.713 9.338-21.206 13.24-34.478 11.703-.32-.038-.824-.049-1.513-.03a5.533 5.533 0 01-1.527-.17l.06-.421a.304.304 0 00-.026-.167.287.287 0 00-.109-.124c-6.782-4.183-12.067-9.711-15.856-16.585-2.404-4.367-4.01-9.29-4.817-14.771z" fill="#B5B1FD"/><path d="M405.41 107.524c-.1 2.133-.007 4.282-.204 6.404-.104 1.134-.126 2.189-.465 3.271a.153.153 0 00.012.111.146.146 0 00.085.071l.134.041c.131.042.21-.005.238-.141.587-3.142.738-6.345.453-9.608a3.65 3.65 0 011.628-1.483.358.358 0 01.342.003c.416.223.695.571.836 1.045a34.992 34.992 0 011.424 12.169c-.049.85-.318 2.876-.806 6.077-.3.032-.627.053-.982.063-2.755.065-5.51.033-8.263-.096a74.252 74.252 0 00-3.549-.093c-1.271.002-2.451-.006-3.539-.026a34.331 34.331 0 00-2.958-8.85c-.595-1.212-.919-2.238-.435-3.401a.913.913 0 01.526-.503.905.905 0 01.726.046c1.134.583 1.814 1.709 2.58 2.724.401.538 1.096.994 2.085 1.368 1.534.58 2.737 1.743 3.609 3.49a.104.104 0 00.031.038.098.098 0 00.043.022.116.116 0 00.049.001.104.104 0 00.044-.02l.093-.071a.242.242 0 00.067-.308c-.832-1.497-1.964-2.621-3.393-3.371a75.797 75.797 0 00-1.115-.402c-.508-.183-.89-.49-1.145-.922.161-2.195.323-4.376.487-6.541.086-1.13.597-1.954 1.531-2.472a.349.349 0 01.179-.046.372.372 0 01.178.049c.929.558 1.312 2.197 1.424 3.112l-.655 5.389a.242.242 0 00.047.172.245.245 0 00.154.092l.13.022c.114.018.176-.032.186-.148l.472-5.438c.104-1.543.665-5.189 2.661-4.75a.359.359 0 01.264.215c.29.61.461 1.254.513 1.933a44.698 44.698 0 00-.204 5.133c.007.357-.018.711-.075 1.063-.059.364-.135.734-.226 1.108a.196.196 0 00.023.151c.028.046.073.08.125.094l.164.041c.139.035.217-.02.234-.164.323-2.453.212-4.876.405-7.326a1.357 1.357 0 00-.085-.58c.424-1.36.665-2.929 1.832-3.876a.869.869 0 01.988-.069c.101.06.189.141.257.236.263.362.458.769.584 1.223.156.552.242 1.795.256 3.728z" fill="#CAD2EF"/><path d="M401.493 106.282c.072.196.1.389.085.58-.193 2.45-.081 4.873-.405 7.326-.017.144-.095.199-.234.164l-.163-.041a.21.21 0 01-.126-.094.196.196 0 01-.023-.151c.092-.375.167-.744.227-1.108.057-.352.081-.706.074-1.063-.03-1.725.038-3.436.204-5.133l.361-.48zm3.918 1.242c.101.101.185.151.252.148a35.344 35.344 0 01-.453 9.609c-.027.136-.107.183-.238.141l-.134-.041a.148.148 0 01-.096-.182c.338-1.082.36-2.137.464-3.271.197-2.122.104-4.271.205-6.404zm-8.051 1.751l.085.137c.04.06.085.064.138.015.039-.04.076-.061.111-.063l-.472 5.438c-.01.116-.072.166-.186.148l-.13-.022a.243.243 0 01-.154-.092.242.242 0 01-.047-.172l.655-5.389zm-3.799 5.898c.255.431.637.739 1.145.922.728.26 1.1.394 1.115.401 1.43.751 2.561 1.875 3.393 3.372a.24.24 0 01-.067.308l-.092.071a.113.113 0 01-.094.019.098.098 0 01-.043-.022.104.104 0 01-.031-.038c-.872-1.747-2.075-2.91-3.609-3.49-.989-.374-1.684-.83-2.085-1.368l.368-.175z" fill="#2B1F21"/><path d="M392.754 125.332c1.088.02 2.268.028 3.539.026 1.078 0 2.261.031 3.55.093 2.753.129 5.507.161 8.262.096.355-.01.682-.031.982-.063l3.624.115a.3.3 0 01.293.301l-.063 5.977a99.33 99.33 0 00-11.433-.401c-2.723.062-5.443.099-8.159.111l-.628.246-.606.003c.05-.109.161-.146.335-.111 0-.005-.002-.005-.004 0a10.907 10.907 0 00-3.23.126c-.228.065-.556.066-.985.004-.31-1.487-.434-2.478-.372-2.974.102-.817.172-1.625.212-2.423a.897.897 0 01.68-.829c1.076-.27 2.41-.369 4.003-.297z" fill="#16084E"/><path d="M144.341 129.278l2.163.444a.142.142 0 01.081.055.157.157 0 01.033.096.16.16 0 01-.03.097.148.148 0 01-.08.057l-2.154.495a.148.148 0 00-.117.125l-.418 2.298a.167.167 0 01-.051.087.147.147 0 01-.091.035.15.15 0 01-.092-.032.163.163 0 01-.053-.085l-.466-2.289a.164.164 0 00-.041-.082.145.145 0 00-.077-.043l-2.162-.444a.15.15 0 01-.082-.054.167.167 0 01-.003-.194.148.148 0 01.08-.057l2.154-.495a.148.148 0 00.077-.043.164.164 0 00.041-.082l.418-2.297a.152.152 0 01.051-.087.14.14 0 01.182-.003.157.157 0 01.054.085l.465 2.289c.006.03.02.059.041.081a.148.148 0 00.077.043z" fill="#FCB958"/><path d="M412.941 131.877l.625 21.339c-.154.134-.302.169-.443.104a22.661 22.661 0 01-4.319-2.549 59.45 59.45 0 01-9.497-8.903c-2.574-3.008-4.56-6.435-5.958-10.281 2.716-.012 5.436-.049 8.159-.111a99.33 99.33 0 0111.433.401z" fill="#7E40D6"/><path d="M393.349 131.587c1.398 3.846 3.384 7.273 5.958 10.281a59.45 59.45 0 009.497 8.903 22.661 22.661 0 004.319 2.549c.142.065.289.03.443-.104.049.429.034.828-.045 1.197-1.779-.704-3.265-1.482-4.457-2.334-2.113-1.509-4.352-3.431-6.716-5.765-.398-.39-.87-.688-1.253-1.104-1.353-1.479-2.732-2.903-3.895-4.538a44.693 44.693 0 01-4.204-7.274c-.149-.33-.24-.852-.275-1.565l.628-.246z" fill="#56D6A9"/><path d="M388.231 131.855c.429.062.757.061.985-.004l2.899-.015.606-.003c.035.713.126 1.235.275 1.564a44.702 44.702 0 004.204 7.275c1.163 1.635 2.542 3.059 3.895 4.538.383.416.855.714 1.253 1.104 2.364 2.334 4.603 4.256 6.716 5.765 1.192.852 2.678 1.63 4.457 2.334l-.595 12.575c-1.474-.325-2.832-.199-4.074.379-1.796-2.617-3.104-4.349-3.925-5.197a49.682 49.682 0 01-2.877-3.256c-.621-.768-2.173-2.129-4.653-4.085-1.323-1.04-2.681-1.792-4.074-2.256-.741-.245-1.593-.381-2.557-.409a79.783 79.783 0 00-2.546-.033l.011-20.276z" fill="#7E40D6"/><path d="M366.791 164.486c-.607 4.507-2.16 8.511-4.661 12.009a.396.396 0 00.109.561c.06.038.129.059.2.06 1.63.04 3.257-.037 4.88-.23 1.066-.127 1.771-.335 2.115-.625 3.873-3.263 7.787-6.564 11.742-9.902.282-.238.46-.457.531-.658-.034 4.01.879 7.813 2.74 11.411 1.051 2.03 2.334 3.634 3.851 4.814.426.329.565.235.416-.283-.097-.334-.379-.769-.628-1.011-1.395-1.372-2.445-2.815-3.148-4.326a25.52 25.52 0 01-2.417-10.527c-.004-.371-.148-.543-.431-.516.087-.186.117-.343.09-.472.433.067.828-.046 1.185-.338a131.244 131.244 0 003.762-3.212c.635-.561 1.067-.881 1.078-1.825.019-1.997.016-4.051-.011-6.163 2.507-.659 4.797-.313 6.868 1.037 2.625 1.715 5.266 4.09 7.925 7.126 1.043 1.192 2.786 3.314 5.23 6.367-2.225 1.559-2.911 3.692-2.056 6.4.196.625.439 1.231.729 1.818.109.218.358.39.747.517-1.913 1.868-3.189 3.051-3.829 3.549-5.616 4.372-10.072 8.676-15.035 13.121a4.452 4.452 0 00-.895 1.115.451.451 0 00-.48.108 208.433 208.433 0 01-7.397 6.709c-1.675 1.445-3.3 2.603-4.876 3.476a50.83 50.83 0 01-5.412 2.609.511.511 0 00-.324.483l.034 4.096c-.109-.035-.228-.125-.357-.271-2.56-2.917-4.315-6.028-5.267-9.333-.523-1.819-.762-3.997-.717-6.535.017-.989.166-1.95.446-2.884a.292.292 0 00-.012-.202.283.283 0 00-.141-.144c-.138-.067-.261-.072-.367-.015-.308.166-.481.386-.521.658-.533 3.591-.42 6.636.338 9.136 1.185 3.911 3.29 7.478 6.315 10.702.04.039.087.064.142.074a.318.318 0 00.182-.008l.316 10.363c-.342.345-.793.521-1.353.528-.959.015-1.919.026-2.881.034-4.807.034-9.503.026-14.087-.027-1.554-.874-3.548-1.626-5.984-2.256-5.296-1.37-10.127-.752-14.493 1.855l-26.364-.19-1.07-1.717a362.492 362.492 0 013.196-19.774c.999-.3 1.809-.67 2.431-1.111.691-.486.614-.703-.23-.651-.447.028-1.13.215-2.052.562.104-.667-.045-1-.446-1-4.926-.015-9.858-.013-14.794.007-2.944-3.97-2.393-7.962-1.431-12.31.647-2.917 2.058-5.472 4.234-7.665.793-.803 2.42-1.707 4.88-2.713l14.671.037c-1.001 2.2-2.617 3.904-4.847 5.111-.248.134-.375.362-.383.684-.002.161.076.224.234.189 2.587-.568 4.948-3.702 6.171-6.055l4.464.023c.814.918 1.494 1.851 2.423 2.672a652.361 652.361 0 014.698 4.2c1.579 1.423 3.451 2.682 5.617 3.777.805.409 1.817.759 3.036 1.052a19.49 19.49 0 003.108.505.428.428 0 01.349.613 7.309 7.309 0 00-.435 1.108c-1.078 3.593-1.571 7.119-1.479 10.579.101 3.821.966 7.593 2.594 11.318a.448.448 0 00.182.203.43.43 0 00.264.057c.181-.018.265-.113.253-.286a2.577 2.577 0 00-.16-.77c-1.459-3.722-2.204-7.25-2.234-10.586-.029-3.635.309-7.448 1.569-10.812.294-.777.067-1.606 1.308-1.572a4.31 4.31 0 001.219-.145c4.04-1.096 6.679-3.659 7.918-7.691.047-.151.147-.213.301-.186 5.26.925 9.851 3.166 13.771 6.724.548.496 1.09.977 1.628 1.442 1.312 1.142 2.204 2.573 3.457 3.773.161.154.266.122.316-.096.067-.288.016-.589-.153-.904a1.161 1.161 0 00-.134-.197c-2.024-2.371-3.71-4.114-5.058-5.229-3.975-3.279-8.572-5.374-13.79-6.286a.174.174 0 01-.141-.197l.494-3.167 7.534.034a.63.63 0 00.632-.636 228.59 228.59 0 01.059-9.943c.11-3.808.128-7.279.056-10.411-.134-5.973-3.65-13.21-9.746-15.187-7.887-2.557-16.559-.569-22.454 5.107-3.598 3.467-5.815 7.711-6.653 12.734-1.067 6.397.833 12.85 4.951 17.882.307.377.707.564 1.201.562 7.77-.038 15.54-.081 23.309-.13.193.255.242.669.148 1.241-.096.58-.196 1.194-.297 1.844-.03.203-.148.313-.353.33-2.491.231-4.556 1.243-6.196 3.037a17.373 17.373 0 00-3.004 4.587.826.826 0 01-.873.476c-2.275-.339-4.267-.524-6.36-1.602-2.617-1.343-5.164-3.222-7.642-5.635-1.853-1.807-3.115-3.155-3.784-4.044.511.01.863-.024 1.056-.101.114-.044.136-.116.067-.215-3.298-4.654-4.907-9.693-4.825-15.117a24.795 24.795 0 018.913-18.663c9.148-7.638 22.585-7.623 31.613.008 4.849 4.096 7.752 9.382 8.709 15.86.126.862.056 1.706.212 2.568.074.412.06.915-.041 1.509a4.736 4.736 0 00-.008 1.606zm-6.014 12.214a.442.442 0 00-.625-.016l-.016.015a.443.443 0 00-.017.625l4.063 4.282a.444.444 0 00.626.016l.016-.015a.442.442 0 00.016-.625l-4.063-4.282zm-45.35 19.607c2.27 1.883 4.699 4.417 7.289 7.601a153.347 153.347 0 015.397 7.003.969.969 0 00.613.397c.181.038.273-.006.275-.13 0-.401-.083-.711-.249-.929a258.31 258.31 0 00-5.263-6.765c-.855-1.063-1.833-2.044-2.665-3.092a25.507 25.507 0 00-2.044-2.268c-2.005-1.987-3.914-3.536-5.728-4.646-1.948-1.192-4.221-1.654-6.821-1.386a.67.67 0 00-.587.435c-.05.124-.019.255.093.394a.318.318 0 00.245.122c.996.034 1.859-.409 2.873-.212 2.624.51 4.587 1.829 6.572 3.476zm-2.178 21.38c1.111-2.227 2.468-3.933 4.534-5.174.236-.142.406-.339.51-.591a.201.201 0 00-.024-.199.206.206 0 00-.188-.076c-2.416.342-4.728 3.847-5.869 6.084a.185.185 0 00-.02.095.19.19 0 00.098.159c.028.016.06.025.093.025h.342a.587.587 0 00.524-.323z" fill="#7E40D6"/><path d="M254.101 142.274l1.933 2.642a.854.854 0 01.148.324c.189.847.475 1.551.859 2.111a35.134 35.134 0 004.271 5.137.495.495 0 01.052.639c-1.03 1.427-1.888 3.104-1.747 4.947.002.025.016.04.041.045l.1.011c.082.007.127-.03.134-.111.121-1.631.709-3.121 1.762-4.472.357-.457.227-.989-.145-1.379-1.323-1.378-2.645-2.991-3.966-4.839-.481-.672-.737-1.387-.77-2.145a.492.492 0 00-.111-.297l-2.405-3.015c-.442-.855-.951-2.029-.163-2.732.996-.888 3.616 1.602 4.326 2.275a64.05 64.05 0 018.092 9.333c-.139.246-.322.223-.55-.067-1.314-1.67-2.619-2.962-3.918-3.876-1.524-1.076-3.149-1.752-4.877-2.03-.049-.007-.079.014-.089.063l-.048.182c-.015.062.01.1.074.112 3.766.717 6.587 3.193 8.947 6.036.256.305.528.342.896.301l1.401 1.877a.583.583 0 01-.245.48c-3.487 2.577-6.962 5.17-10.426 7.779a9.355 9.355 0 01-1.472.9c-.533.263-1.045.528-1.535.795-3.238-4.519-6.654-9.285-9.278-13.89-.476-.833-.899-2.029-.256-2.851a.831.831 0 01.479-.3.832.832 0 01.561.073 9.17 9.17 0 012.502 1.9l3.509 3.917a.07.07 0 00.059.023.112.112 0 00.089-.06.128.128 0 00-.014-.16l-3.264-3.843a12.988 12.988 0 01-1.873-3.226c-.309-.77-.227-1.42.126-2.119a.728.728 0 01.866-.364 3.26 3.26 0 011.506.996l3.962 5.107c.042.055.091.062.148.022l.153-.104c.057-.037.064-.083.022-.137l-3.977-5.182c-1.011-1.323-1.873-3.267-1.134-4.646a.76.76 0 01.944-.345c1.673.661 3.312 2.72 4.301 4.163z" fill="#CAD2EF"/><path d="M254.257 141.872l2.405 3.015a.5.5 0 01.112.297c.032.758.288 1.473.769 2.145 1.321 1.848 2.643 3.461 3.966 4.839.372.39.502.922.145 1.379-1.053 1.35-1.64 2.841-1.762 4.471-.007.082-.052.119-.134.112l-.1-.011c-.025-.005-.038-.02-.041-.045-.141-1.843.717-3.52 1.747-4.947a.495.495 0 00-.052-.639 35.134 35.134 0 01-4.271-5.137c-.384-.56-.67-1.264-.858-2.111a.871.871 0 00-.149-.324l-1.933-2.642c.141-.015.193-.149.156-.402zm-92.611.279c.054.139.136.227.245.264a18.893 18.893 0 01-1.817 2.263c-.283.303-.531.748-.744 1.335a4.737 4.737 0 01-.806 1.412 45.494 45.494 0 01-4.394 4.65c-.404.367-.451.776-.141 1.227.833 1.219 1.243 2.651 1.23 4.297a.228.228 0 01-.16.219l-.115.037a.117.117 0 01-.106-.018.12.12 0 01-.035-.045.12.12 0 01-.011-.056c.059-1.549-.342-2.955-1.205-4.219-.434-.643-.308-1.282.264-1.791 1.899-1.693 3.503-3.431 4.814-5.215.173-.241.287-.56.342-.959l2.639-3.401zm88.344.951l3.977 5.182c.042.054.035.1-.022.137l-.152.104c-.057.04-.107.033-.149-.022l-3.962-5.107c.141.025.226.017.256-.022.047-.062.065-.153.052-.272zm-84.233.748c.114.044.265.052.453.022l-4.263 4.847a.116.116 0 01-.034.024.095.095 0 01-.081 0 .116.116 0 01-.034-.024l-.119-.141a.132.132 0 01-.03-.085.129.129 0 01.034-.083l4.074-4.56z" fill="#2B1F21"/><path d="M159.007 145.552a4.168 4.168 0 00-.628-.264 1.161 1.161 0 00-.655-.018 17.928 17.928 0 00-3.349 1.252c-.579.288-1.536.986-2.869 2.096a33.55 33.55 0 01-3.212 2.376c.273-.664.6-1.132.982-1.402a27.557 27.557 0 002.237-1.628c.979-.785 1.726-1.313 2.242-1.583 1.102-.575 2.356-1.061 3.761-1.457.696-.196 1.193.013 1.491.628zm107.505 5.196c.203.201.348.441.435.721-.368.041-.639.004-.896-.301-2.36-2.843-5.181-5.319-8.947-6.036-.064-.012-.089-.05-.074-.112l.048-.182c.01-.049.04-.07.09-.063 1.727.278 3.352.954 4.876 2.03 1.299.914 2.605 2.206 3.918 3.876.228.29.411.313.55.067z" fill="#2B1F21"/><path d="M352.935 167.303a10.777 10.777 0 00-1.524-.219c-.655-.048-1.138-.286-1.584-.751-3.914-4.051-8.958-6.181-14.139-8.355a7.734 7.734 0 01-2.49-1.662.435.435 0 00-.35-.115c.055-.136.039-.247-.048-.331-2.515-2.433-2.935-5.232-1.26-8.396 1.241-2.346 3.735-2.703 6.062-1.744 2.918 1.208 5.617 3.595 7.828 5.728a151.78 151.78 0 004.498 4.133c1.677 1.487 2.78 2.77 3.308 3.847 1.112 2.273 1.012 4.894-.301 7.865z" fill="#16084E"/><path d="M249.057 148.109l3.264 3.843a.13.13 0 01.015.16.115.115 0 01-.09.06.07.07 0 01-.059-.023l-3.509-3.917c.067.005.13.022.19.052.072.037.12.018.145-.056.015-.037.029-.077.044-.119zm-82.557.732c.05.057.151.097.305.119l-3.468 3.424a.144.144 0 01-.058.035.156.156 0 01-.068.006l-.305-.049c-.139-.02-.156-.078-.052-.174l3.646-3.361z" fill="#2B1F21"/><path d="M274.306 155.896l-.75.561c-.568.038-1.062.319-1.483.844l-1.116 1.004c-.044.037-.048.079-.011.126.02.022.051.04.093.052-.191.255-.386.418-.587.487-.922.459-1.855 1.104-2.799 1.937-.785.691-1.995 1.648-3.628 2.869a7.675 7.675 0 00-1.672 1.691l-1.777 1.591-.844.643-2.765 2.078c-1.676-1.279-2.383-2.531-3.587-3.858a.598.598 0 01.03-.84c.624-.595 1.044-1.188 1.26-1.781.49-.267 1.002-.532 1.535-.795a9.28 9.28 0 001.472-.9c3.464-2.609 6.939-5.202 10.426-7.779a.583.583 0 00.245-.48c.067.065.13.101.19.108a.167.167 0 00.145-.059c.639-.777 1.583-1.877 2.665-.959a14.356 14.356 0 012.958 3.46z" fill="#16084E"/><path d="M388.22 152.131c.852-.003 1.701.009 2.546.033.964.028 1.816.164 2.557.409 1.393.464 2.751 1.216 4.074 2.256 2.48 1.956 4.032 3.317 4.654 4.085a49.375 49.375 0 002.876 3.256c.821.848 2.129 2.58 3.926 5.197l-.636.416c-2.443-3.053-4.187-5.175-5.23-6.367-2.659-3.036-5.3-5.411-7.924-7.126-2.072-1.35-4.361-1.696-6.869-1.037a2.075 2.075 0 01.026-1.122z" fill="#56D6A9"/><path d="M274.307 155.896l6.474 7.769a33.354 33.354 0 01-2.14 2.367c-2.692 2.714-5.967 3.844-9.828 3.39a26.694 26.694 0 01-8.237-2.364l1.777-1.591 8.099-6.497c.201-.069.397-.232.587-.487l1.223-1.16 1.294-.866.751-.561z" fill="#7E40D6"/><path d="M332.848 156.201c.144-.01.26.028.35.115a7.734 7.734 0 002.49 1.662c5.181 2.174 10.225 4.304 14.139 8.355.446.465.93.703 1.584.751.55.042 1.058.115 1.524.219.342.285.667.588.977.907 2.275 2.338-.096 6.189-3.271 5.07a9.158 9.158 0 01-1.029-.442.888.888 0 00-.937.082c-4.071 3.09-8.426 3.406-13.065.948-1.849-.982-3.33-2.583-4.445-4.803-1.475-2.936-1.683-5.961-.625-9.073.465-1.364 1.465-2.568 2.308-3.791z" fill="#FFBA9A"/><path d="M272.072 157.301a.246.246 0 01.19.022l-1.223 1.16a.196.196 0 01-.093-.052c-.037-.047-.033-.089.011-.126l1.115-1.004z" fill="#2B1F21"/><path d="M16.086 160.475l1.859.287a.154.154 0 01.134.152.154.154 0 01-.036.102.154.154 0 01-.094.054l-1.855.305a.152.152 0 00-.086.044.154.154 0 00-.044.086l-.287 1.858a.158.158 0 01-.051.096.156.156 0 01-.101.038.156.156 0 01-.156-.13l-.305-1.855a.158.158 0 00-.13-.13l-1.858-.286a.154.154 0 01-.134-.153c0-.037.012-.073.036-.102a.157.157 0 01.094-.053l1.855-.305a.158.158 0 00.13-.13l.286-1.859a.157.157 0 01.255-.097.153.153 0 01.053.094l.305 1.854c.005.033.02.063.044.087a.156.156 0 00.086.043z" fill="#FCB958"/><path d="M270.452 158.97l-8.099 6.497a7.675 7.675 0 011.672-1.691c1.633-1.222 2.843-2.178 3.628-2.869.944-.833 1.877-1.479 2.799-1.937z" fill="#2B1F21"/><path d="M382.18 164.791c.027.129-.003.286-.089.472l-.383.438c-.072.201-.249.42-.532.658-3.955 3.338-7.869 6.639-11.742 9.902-.344.29-1.049.498-2.115.625-1.623.193-3.249.27-4.88.23a.384.384 0 01-.34-.216.385.385 0 01-.04-.206.388.388 0 01.072-.199c2.5-3.498 4.053-7.502 4.661-12.009.537.29.921.219 1.152-.212.661-1.241 1.345-2.639 2.524-3.446 1.847-1.267 4.441-1.137 6.006.606.829.922 1.242 1.915 1.866 2.948a.4.4 0 00.316.204c.882.099 1.715.098 2.498-.003.196-.023.538.047 1.026.208z" fill="#FD3E81"/><path d="M280.781 163.665c.315.28.513.536.595.769-1.764 2.015-3.452 3.504-5.062 4.468-1.403.842-2.97 1.342-4.702 1.498-1.316.119-2.919-.034-4.81-.458a43.92 43.92 0 01-7.07-2.241l.844-.643a26.694 26.694 0 008.237 2.364c3.861.454 7.136-.676 9.828-3.39a33.354 33.354 0 002.14-2.367z" fill="#56D6A9"/><path d="M281.376 164.434l9.727 11.779a1.658 1.658 0 001.227.602l4.237.141c-2.463 1.616-4.324 3.577-5.583 5.884-.651 1.2-1.106 2.265-1.364 3.197-.743 2.68-1.226 5.505-.989 8.263.142 1.655.785 3.413 1.93 5.274l-4.617-.097c.186-2.522-.648-4.446-2.501-5.772-.494-1.784-1.192-3.346-2.097-4.687-3.02-4.473-6.901-8.144-11.641-11.013-1.945-1.18-4.378-2.384-7.297-3.613-.934-.392-1.758-.571-2.471-.539a49.312 49.312 0 00-2.141-2.635c-.308-.357-.584-.837-.829-1.439l2.765-2.078a44.025 44.025 0 007.07 2.242c1.891.423 3.494.576 4.81.457 1.732-.156 3.299-.656 4.701-1.498 1.611-.964 3.299-2.453 5.063-4.468z" fill="#7E40D6"/><path d="M382.09 165.263c.283-.027.427.145.432.517a25.515 25.515 0 002.416 10.526c.703 1.512 1.753 2.954 3.148 4.326.249.242.531.677.628 1.012.149.517.01.612-.416.282-1.517-1.18-2.8-2.784-3.851-4.813-1.861-3.598-2.774-7.402-2.74-11.411l.383-.439z" fill="#56D6A9"/><path d="M6.586 166.409a.743.743 0 101.487 0 .743.743 0 00-1.487 0z" fill="#FCB958"/><path d="M412.926 166.987c-.3 3.71-2.063 6.887-5.289 9.531-.389-.127-.638-.299-.747-.517a12.632 12.632 0 01-.729-1.818c-.855-2.708-.169-4.841 2.056-6.4l.635-.416c1.242-.578 2.6-.704 4.074-.38z" fill="#16084E"/><path d="M283.443 193.705l-.933-.45a22.885 22.885 0 00-2.565-4.783c-2.52-3.587-5.761-6.394-9.292-8.929-2.282-1.637-4.867-2.964-7.754-3.98l-.628-.275c-.451-.196-.781-.144-.989.156l-1.345-1.591c.713-.032 1.537.147 2.472.539 2.919 1.229 5.351 2.433 7.296 3.613 4.74 2.869 8.621 6.54 11.641 11.013.905 1.341 1.604 2.903 2.097 4.687z" fill="#56D6A9"/><path d="M282.51 193.255c-1.543-.189-2.61-.535-4.111.52-.387.271-.781.539-1.182.807l-15.935-19.139c.208-.299.538-.351.989-.156.394.174.603.266.628.275 2.887 1.016 5.471 2.343 7.754 3.981 3.531 2.535 6.772 5.342 9.292 8.928a22.918 22.918 0 012.565 4.784z" fill="#7E40D6"/><path d="M299.336 176.897c-2.46 1.006-4.087 1.91-4.88 2.713-2.176 2.193-3.587 4.748-4.234 7.665-.962 4.349-1.513 8.341 1.431 12.31a1.285 1.285 0 01-1.092-.011c-1.145-1.861-1.788-3.619-1.93-5.274-.237-2.758.246-5.583.989-8.263.258-.932.713-1.997 1.364-3.197 1.259-2.307 3.12-4.268 5.583-5.884.62-.354 1.543-.374 2.769-.059zm51.231-.112l-.494 3.167a.17.17 0 00.031.127.17.17 0 00.11.07c5.219.912 9.815 3.007 13.79 6.286 1.348 1.115 3.034 2.858 5.059 5.229.051.062.096.128.133.197.169.315.22.616.153.903-.05.219-.155.251-.316.097-1.253-1.2-2.145-2.631-3.457-3.773a95.11 95.11 0 01-1.628-1.442c-3.92-3.558-8.511-5.799-13.771-6.724-.154-.027-.254.035-.301.186-1.239 4.032-3.878 6.595-7.917 7.691a4.28 4.28 0 01-1.22.144c-1.241-.033-1.014.796-1.308 1.573-1.26 3.364-1.598 7.177-1.568 10.812.029 3.336.774 6.864 2.233 10.586.087.221.14.477.16.77.013.173-.072.268-.253.286a.43.43 0 01-.264-.057.448.448 0 01-.182-.203c-1.628-3.725-2.492-7.497-2.594-11.318-.092-3.46.401-6.986 1.479-10.579.112-.374.257-.743.435-1.108a.421.421 0 00-.013-.398.42.42 0 00-.336-.215 19.508 19.508 0 01-3.108-.505c-1.219-.293-2.231-.643-3.036-1.052-2.166-1.096-4.038-2.354-5.617-3.777a631.613 631.613 0 00-4.698-4.2c-.929-.821-1.609-1.754-2.423-2.672.718-.203 1.202-.155 1.449.145.669.889 1.931 2.237 3.784 4.044 2.478 2.413 5.026 4.292 7.642 5.635 2.093 1.078 4.085 1.263 6.36 1.602a.826.826 0 00.873-.476 17.373 17.373 0 013.004-4.587c1.64-1.794 3.706-2.806 6.196-3.037.206-.017.323-.127.353-.33.102-.65.201-1.264.297-1.844.094-.572.045-.986-.148-1.241.396-.127.767-.131 1.111-.012zm-1.661 4.212a.907.907 0 00-.465 0c-3.959.836-6.003 3.363-7.824 6.705-.25.461-.119.634.394.52 3.982-.889 6.661-3.204 8.036-6.943a.214.214 0 00-.011-.171.202.202 0 00-.054-.069.203.203 0 00-.076-.042zm11.246-4.313l-.016.015a.443.443 0 00-.017.626l4.063 4.281a.443.443 0 00.626.016l.016-.015a.442.442 0 00.016-.625l-4.063-4.282a.442.442 0 00-.625-.016zm-44.97.179c-1.223 2.353-3.583 5.487-6.17 6.055-.159.035-.237-.028-.235-.189.008-.322.135-.55.383-.684 2.23-1.207 3.846-2.91 4.847-5.111.154-.161.545-.185 1.175-.071z" fill="#56D6A9"/><path d="M348.906 180.997a.218.218 0 01.153.196.211.211 0 01-.012.086c-1.375 3.74-4.054 6.054-8.036 6.944-.513.114-.645-.06-.394-.521 1.821-3.341 3.865-5.869 7.824-6.705a.907.907 0 01.465 0z" fill="#7E40D6"/><path d="M315.427 196.307c-1.985-1.647-3.947-2.966-6.572-3.476-1.014-.197-1.877.246-2.873.212a.315.315 0 01-.245-.122c-.112-.139-.143-.27-.093-.394a.67.67 0 01.587-.435c2.6-.268 4.873.194 6.821 1.386 1.814 1.11 3.723 2.659 5.728 4.646a25.507 25.507 0 012.044 2.268c.833 1.048 1.81 2.029 2.665 3.092a258.31 258.31 0 015.263 6.765c.166.218.249.528.249.929-.002.124-.094.168-.275.13a.971.971 0 01-.613-.397 151.928 151.928 0 00-5.397-7.003c-2.59-3.184-5.019-5.718-7.289-7.601zm53.996 15.477c.094.374.108.767.041 1.178a.318.318 0 01-.182.008.261.261 0 01-.141-.074c-3.026-3.224-5.131-6.791-6.315-10.702-.759-2.5-.872-5.545-.339-9.136.04-.272.213-.492.521-.658.106-.057.229-.052.368.015.062.029.112.08.14.144a.292.292 0 01.012.202 10.63 10.63 0 00-.446 2.884c-.045 2.538.194 4.716.717 6.535.952 3.305 2.707 6.416 5.267 9.333.129.146.248.236.357.271z" fill="#56D6A9"/><path d="M282.51 193.255l.933.45c1.853 1.326 2.687 3.25 2.501 5.772-3.761-.188-6.67-1.82-8.727-4.895.401-.267.795-.536 1.182-.806 1.501-1.056 2.568-.71 4.111-.521z" fill="#16084E"/><path d="M387.878 194.303c-.04 7.09-.044 14.183-.011 21.28.005.733-.092 1.633-.29 2.698-.417 2.227-1.42 3.836-3.617 4.572-.627.211-1.706.32-3.237.327-3.678.015-7.325.064-10.943.145l-.316-10.362a2.889 2.889 0 00-.041-1.179l-.033-4.096a.515.515 0 01.323-.483 50.83 50.83 0 005.412-2.609c1.576-.873 3.201-2.031 4.877-3.476a208.463 208.463 0 007.396-6.709.451.451 0 01.48-.108z" fill="#FD3E81"/><path d="M178.636 197.374a1.23 1.23 0 10-.001-2.461 1.23 1.23 0 00.001 2.461zm-12.956 5.933l3.886.832c.027.005.052.02.07.041a.122.122 0 01.027.076c0 .027-.01.054-.027.076a.121.121 0 01-.07.04l-3.89.817a.12.12 0 00-.092.092l-.832 3.886a.121.121 0 01-.04.07.126.126 0 01-.076.027.122.122 0 01-.076-.027.123.123 0 01-.041-.07l-.817-3.89a.11.11 0 00-.032-.06.122.122 0 00-.059-.032l-3.886-.832a.115.115 0 01-.07-.041.116.116 0 010-.151.12.12 0 01.07-.041l3.89-.817a.115.115 0 00.059-.032.115.115 0 00.032-.059l.832-3.887a.12.12 0 01.117-.097.119.119 0 01.116.097l.817 3.89a.121.121 0 00.032.06.125.125 0 00.06.032z" fill="#FCB958"/><path d="M306.744 201.778c-.025-.582.025-.982.149-1.2.922-.347 1.606-.534 2.052-.562.845-.052.921.165.23.651-.622.441-1.432.811-2.431 1.111z" fill="#56D6A9"/><path d="M7.374 205.179a10.427 10.427 0 011.267 2.907c.273 1.075.245 2.102-.085 3.081-.605 1.784-1.87 2.968-3.795 3.55-.872.017-1.702.088-2.49.212-.03.005-.049.021-.056.048a.376.376 0 00-.011.041c-.104.079-.223.082-.357.007-.725-1.193.156-3.014.74-4.252 1.122-2.371 2.718-4.236 4.787-5.594z" fill="#16084E"/><path d="M297.009 236.361a3.352 3.352 0 01-.706 1.081c-.424.449-.702.766-.836.952a41.688 41.688 0 01-3.089 3.78l-.163-.264a2.19 2.19 0 00-.316-.401 26863.12 26863.12 0 01-29.115-29.19 7.874 7.874 0 01-.833-.999c-.074-.109-.047-.174.082-.194a53.742 53.742 0 018.642-.654.901.901 0 01.639.268l25.695 25.621zm5.45-7.553l-.03.405a.556.556 0 01-.127.323c-1.863 2.387-3.062 3.953-3.598 4.699-.451.631-.862.959-1.234.981l-24.465-24.551c-.128-.126-.107-.159.064-.1.237.084.488.138.75.16 4.562.401 8.916 1.369 13.062 2.903.342.126.637.313.884.561 4.684 4.706 9.326 9.388 13.928 14.046.114.117.369.308.766.573zm-10.739 14.187c.008.194-.022.334-.089.42a91.375 91.375 0 01-4.207 5.145l-35.014-34.962c-.126-.124-.104-.208.067-.253l7.441-1.944a.588.588 0 01.61.205 22.465 22.465 0 001.828 2.07c9.526 9.555 19.052 19.109 28.58 28.661.154.157.415.376.784.658z" fill="#CFFFEB"/><path d="M317.784 212.513c-2.067 1.241-3.424 2.947-4.535 5.174a.594.594 0 01-.524.323h-.342a.188.188 0 01-.093-.025.188.188 0 01-.098-.159.196.196 0 01.02-.095c1.141-2.237 3.453-5.742 5.869-6.084a.206.206 0 01.188.077.198.198 0 01.024.198c-.104.253-.274.45-.509.591z" fill="#56D6A9"/><path d="M286.662 249.682a6.527 6.527 0 01-.878 1.227 15.94 15.94 0 00-.955 1.152 29.677 29.677 0 01-2.925 3.446l-37.764-37.98a.167.167 0 01.044-.268l6.557-3.211c.161-.077.304-.052.428.074l35.493 35.56zm18.239-24.201l-1.755 2.464-12.318-12.496c-.233-.238-.198-.285.104-.141 4.86 2.319 9.298 5.405 13.315 9.259.247.235.465.54.654.914zm-23.744 30.962a31.417 31.417 0 01-4.62 5.799l-39.511-39.508c-.102-.101-.097-.198.014-.29a63.82 63.82 0 015.695-4.215.31.31 0 01.386.037l38.036 38.177z" fill="#CFFFEB"/><path d="M351.459 223.861c-.927.322-1.735.322-2.423 0-1.713-.808-3.605-1.408-5.676-1.799-3.085-.583-6.046-.33-8.884.758a3.416 3.416 0 00-1.018.647c-.86.2-1.685.198-2.476-.008 4.367-2.607 9.197-3.225 14.493-1.855 2.436.63 4.43 1.382 5.984 2.257zm-47.911-2.309l1.07 1.718c-1.244.032-1.6-.541-1.07-1.718z" fill="#56D6A9"/><path d="M349.036 223.861c-.496 0-.979.008-1.45.026-.5.017-.98.002-1.438-.045a74.325 74.325 0 00-11.095-.301c-.502.026-1.082-.078-1.595-.074.339-.3.679-.516 1.018-.647 2.838-1.088 5.799-1.341 8.884-.758 2.072.391 3.963.991 5.676 1.799z" fill="#7E40D6"/><path d="M26.855 222.913c.006.299.157.539.335.535.179-.004.318-.25.311-.55-.007-.3-.157-.539-.335-.535-.18.004-.318.25-.311.55z" fill="#56D6A9"/><path d="M275.894 263.402l-4.394 5.53-40.206-40.314c-.136-.133-.139-.27-.007-.409l4.467-4.687c.095-.096.189-.097.283-.003l39.857 39.883z" fill="#CFFFEB"/><path d="M73.818 223.801l-15.396.067a129.63 129.63 0 01-4.185-.045c-.03-.002-.04-.018-.033-.048.007-.025.022-.031.044-.019.01.005.021.008.034.008.16.01.337.011.528.004a280.918 280.918 0 0119.008.033z" fill="#16084E"/><path d="M433.868 324.352c-.503 1.147-.995 2.04-1.476 2.68-4.314 5.764-8.6 11.521-12.857 17.272-2.067 1.507-4.146 1.933-6.237 1.279-1.08-.337-2.344-1.131-3.791-2.382a412.71 412.71 0 01-7.579-6.706c-4.307-3.915-8.799-8.32-13.478-13.214-8.965-9.385-17.685-20.093-25.621-30.913-2.029-2.773-4.798-6.888-7.073-10.393a938.051 938.051 0 01-8.735-13.697c-3.038-4.869-6.216-10.556-9.534-17.061-.832-1.631-2.791-.962-3.825.023-4.516 4.322-9.623 8.5-13.871 12.63-.107.101-.211.321-.312.658a8.96 8.96 0 00-2.677 2.063c-.339.022-.604.286-.795.791a13.162 13.162 0 00-3.606 3.769c-.448.702-.597 1.363-.446 1.985-.631.688.105 1.933.64 2.457-.223.268-.26.553-.112.855.309.617.547 1.226 1.026 1.743.835.907 1.456 1.543 1.862 1.907.085.079.191.097.32.052-.01.082.037.173.141.275a13365.967 13365.967 0 0040.534 40.221c1.221 1.207 2.028 2.184 2.419 2.933a8.82 8.82 0 01.993 3.772c-.315 1.542-1.004 2.839-2.067 3.892-2.275 2.26-6.79 6.564-13.545 12.913a85.894 85.894 0 00-1.973 1.955c-1.051 1.07-2.141 1.863-3.271 2.379-2.977 1.353-5.691-.402-7.679-2.561-4.665-5.07-9.516-10.021-14.218-15.154-3.549-3.877-7.263-7.627-10.823-11.478a831.463 831.463 0 00-12.943-13.682c-.262-.27-.468-.368-.617-.294-.094-.297-.196-.51-.305-.639a315.2 315.2 0 00-1.579-1.862 577.29 577.29 0 00-6.007-6.301c-4.029-4.163-7.936-8.508-11.965-12.712-.503-.522-1.283-1.525-2.341-3.007-1.197-3.501-1.083-6.95.342-10.348.092-.226.04-.349.048-.579.495-.206.717-.52.665-.941l4.394-5.531c.416-.433.63-.82.643-1.159a31.417 31.417 0 004.62-5.799c.096-.096.245-.172.446-.226a.416.416 0 00.267-.223.666.666 0 00.034-.487 29.677 29.677 0 002.925-3.446c.198-.275.517-.659.955-1.152.357-.399.65-.808.878-1.227.379-.22.633-.595.762-1.122a91.375 91.375 0 004.207-5.145c.067-.086.097-.226.089-.42.417.124.636-.15.658-.821a41.688 41.688 0 003.089-3.78c.134-.186.413-.503.836-.952.32-.337.555-.697.707-1.081.473-.221.627-.603.46-1.145.372-.022.784-.35 1.235-.981.535-.746 1.734-2.312 3.598-4.699a.561.561 0 00.126-.323l.03-.405c.322.218.551-.07.687-.863l1.755-2.464c.423-.339.858-.683 1.304-1.029.427-.333.879-.52 1.357-.562a17.91 17.91 0 011.87-.07c5.419.078 10.89-.16 16.194-.09 4.443.062 8.853.093 13.229.093 1.821.003 3.764.091 5.828.264 1.76.149 3.834.244 6.222.286 4.81.08 9.626.147 14.448.201a.986.986 0 01.937.714 65.17 65.17 0 002.449 7.081c1.424 3.442 2.784 6.764 4.457 10.054 1.858 3.654 3.668 7.341 5.728 10.894 4.23 7.288 8.389 13.715 12.477 19.28 5.214 7.095 9.635 12.748 13.263 16.961 1.962 2.279 3.894 4.507 5.794 6.683a215.31 215.31 0 004.966 5.478 387.799 387.799 0 0015.225 15.355c1.003.955 2.39 2.416 2.932 3.765.543 1.35.275 2.279.287 3.513z" fill="#CAD2EF"/><path d="M51.688 224.046l-.777-.007c.101-.102.131-.166.089-.193.766-.179.995-.112.688.2z" fill="#3C1D88"/><path d="M270.835 269.873c-.008.23.044.353-.049.58-1.424 3.397-1.538 6.846-.341 10.348l-44.515-44.63c-.086-.089-.098-.187-.033-.294a90.017 90.017 0 014.263-6.344c.072-.099.153-.106.242-.019a61251.771 61251.771 0 0040.295 40.31c-.064.075-.018.091.138.049z" fill="#CFFFEB"/><path d="M47.937 236.416c.337-.01.603-.23.595-.491-.009-.26-.288-.463-.625-.452-.336.01-.602.23-.594.491.008.26.287.463.624.452z" fill="#FCB958"/><path d="M290.758 302.82c.522.612 1.049 1.232 1.579 1.862.109.129.211.342.305.639a28.239 28.239 0 01-6.345 2.669.307.307 0 01-.301-.078l-63.723-63.79a.337.337 0 01-.078-.402l2.765-6.307c.08-.181.189-.202.327-.064l65.471 65.471zm-14.14 7.79l-56.862-56.94a.11.11 0 01-.031-.053.118.118 0 01-.002-.062l1.832-8.073a.124.124 0 01.085-.089.126.126 0 01.12.03l63.062 63.11a.123.123 0 01.032.122.122.122 0 01-.034.055.117.117 0 01-.058.031l-8.029 1.903a.119.119 0 01-.062-.002.126.126 0 01-.053-.032z" fill="#CFFFEB"/><path d="M38.147 257.93l3.601.762a.16.16 0 010 .312l-3.601.762a.16.16 0 00-.126.127l-.763 3.601a.16.16 0 01-.056.091.165.165 0 01-.1.035.165.165 0 01-.1-.035.16.16 0 01-.056-.091l-.762-3.601a.16.16 0 00-.126-.127l-3.602-.762a.158.158 0 01-.09-.056.158.158 0 010-.2.163.163 0 01.09-.056l3.602-.762a.156.156 0 00.082-.044.158.158 0 00.044-.082l.762-3.602a.158.158 0 01.056-.09.16.16 0 01.1-.036.16.16 0 01.1.036.158.158 0 01.056.09l.762 3.602c.006.031.021.06.044.082a.156.156 0 00.083.044z" fill="#FCB958"/><path d="M219.6 255.432l55.182 55.271a.124.124 0 01.033.063.125.125 0 01-.051.124.116.116 0 01-.067.021l-9.43.112a.137.137 0 01-.049-.009.126.126 0 01-.04-.028l-45.838-45.945a.142.142 0 01-.028-.041.137.137 0 01-.009-.049l.085-9.433a.124.124 0 01.212-.086z" fill="#CFFFEB"/><path d="M199.886 263.227l1.709.368a.147.147 0 01.081.052c.02.026.03.058.03.091a.14.14 0 01-.033.089.139.139 0 01-.081.05l-1.71.357a.146.146 0 00-.112.112l-.368 1.709a.142.142 0 01-.052.081.146.146 0 01-.18-.003.147.147 0 01-.05-.081l-.357-1.71a.148.148 0 00-.111-.112l-1.71-.368a.14.14 0 01-.08-.052.149.149 0 01-.031-.09.146.146 0 01.115-.14l1.709-.357a.145.145 0 00.112-.111l.368-1.71a.144.144 0 01.052-.08.15.15 0 01.091-.031.146.146 0 01.139.115l.357 1.709c.006.028.02.053.039.073.02.019.045.033.073.039z" fill="#FCB958"/><path d="M319.478 264.528l-.431 3.494c-.069.555-.266.605-.591.152a6.11 6.11 0 00-1.654-1.584 8.98 8.98 0 012.676-2.062zm-68.67 43.09l-28.134-28.245a.112.112 0 01-.029-.052l-3.097-11.846a.116.116 0 01.009-.073.112.112 0 01.049-.054.114.114 0 01.072-.015.119.119 0 01.067.031l43.176 43.224a.118.118 0 01-.037.197.123.123 0 01-.078.004l-11.946-3.141a.113.113 0 01-.052-.03zm65.199-40.236l2.75 2.803c.09.091.104.194.045.308-.099.186-.169.36-.208.521a155.634 155.634 0 01-1.821 6.724c-.048.161-.131.181-.25.059l-4.568-4.661c-.151-.622-.002-1.284.446-1.985a13.162 13.162 0 013.606-3.769z" fill="#CFFFEB"/><path d="M4.252 270.939a.067.067 0 01-.017-.05c0-.009.003-.017.007-.025a.06.06 0 01.017-.021l2.77-2.494c.178-.162.36-.305.505-.399.145-.094.24-.131.267-.103l.09.1c.012.014.008.044-.015.088-.022.043-.061.1-.115.167a3.358 3.358 0 01-.199.221 6.131 6.131 0 01-.251.242l-2.77 2.494a.073.073 0 01-.047.017.071.071 0 01-.045-.021l-.197-.216zm7.806-.879l-3.349 3.09a.115.115 0 00-.006.163l.09.098c.044.047.116.05.163.007l3.35-3.091a.115.115 0 00.006-.163l-.091-.098a.114.114 0 00-.163-.006z" fill="#2B1F21"/><path d="M312.595 275.593l3.438 3.316a.318.318 0 01.097.304c-.06.317-.206.63-.439.937-.129.045-.235.027-.32-.052-.406-.364-1.027-1-1.862-1.907-.479-.516-.717-1.126-1.026-1.743-.148-.302-.111-.587.112-.855z" fill="#CFFFEB"/><path d="M48.54 280.12l1.69.435c.024.006.045.02.06.04a.11.11 0 01.023.068.114.114 0 01-.023.068.119.119 0 01-.06.04l-1.687.442a.113.113 0 00-.082.078l-.435 1.691a.112.112 0 01-.215 0l-.443-1.687a.112.112 0 00-.078-.082l-1.69-.435a.107.107 0 01-.06-.04.11.11 0 01-.024-.068c0-.024.008-.048.023-.068a.119.119 0 01.06-.04l1.688-.442a.105.105 0 00.051-.028.108.108 0 00.03-.05l.435-1.691a.111.111 0 01.216 0l.442 1.687a.109.109 0 00.078.082z" fill="#FCB958"/><path d="M225.239 284.577a27.7 27.7 0 01-.706-1.375c-.099-.209-.06-.24.119-.093.494.405.814.933 1.26 1.382a9911.336 9911.336 0 0021.491 21.521c.025.025.026.051.004.079h-.004c-.022.027-.047.029-.074.007a5.182 5.182 0 00-.844-.572c-9.129-4.813-16.211-11.796-21.246-20.949z" fill="#CFFFEB"/><path d="M215.278 287.495l1.743.42a.114.114 0 01.086.111.115.115 0 01-.086.112l-1.74.431a.116.116 0 00-.085.085l-.42 1.744a.124.124 0 01-.041.062.12.12 0 01-.071.024.118.118 0 01-.07-.024.117.117 0 01-.041-.062l-.431-1.74a.116.116 0 00-.031-.055.107.107 0 00-.055-.03l-1.743-.42a.112.112 0 01-.062-.042.11.11 0 01-.024-.07c0-.025.008-.05.024-.07a.106.106 0 01.062-.041l1.74-.432a.116.116 0 00.085-.085l.42-1.743a.116.116 0 01.041-.063.12.12 0 01.071-.024c.025 0 .05.009.07.024.02.016.035.038.041.063l.431 1.739a.116.116 0 00.086.086zm-175.383 7.312c-.085.695.381 1.322 1.04 1.402.657.08 1.26-.419 1.343-1.114.084-.695-.381-1.323-1.04-1.403-.657-.079-1.26.42-1.343 1.115zm-5.521 4.273c-.045.008-.076-.01-.093-.052a.649.649 0 01.022-.542c.072-.147.184-.186.335-.119l.39.174c.151.067.16.149.026.246-.2.143-.427.241-.68.293zm-8.156 2.72c-.118.192-.07.436.108.544.177.108.416.039.533-.154.117-.193.069-.437-.108-.545-.177-.108-.416-.038-.533.155zm183.837-1.066c-.285.668-.73 1.118-1.334 1.351-.648.244-1.103.053-1.367-.572a1.939 1.939 0 01-.148-.827c.033-.774.45-1.139 1.252-1.097l.873.048c.779.032 1.021.397.724 1.097zM11.686 310.785a1.245 1.245 0 100-2.49 1.245 1.245 0 000 2.49z" fill="#FCB958"/><path d="M140.121 156.008c1.743.985 3.486 2.724 4.557 3.575a868.932 868.932 0 0112.273 9.891c.587.134.55.61-.111 1.428a2592.163 2592.163 0 01-16.102 19.67c-1.395 1.687-2.561 2.963-3.498 3.828-.954-.748-1.904-1.218-2.851-1.409-.532-.104-1.009-.11-1.431-.018-3.112.758-4.636 2.925-4.572 6.501l-20.29.126a.676.676 0 00-.516.245.681.681 0 00-.139.554 360.99 360.99 0 013.472 21.224c.151 1.13-.337 1.705-1.464 1.725-2.788.047-5.586.12-8.393.219-4.795.004-9.69-.156-14.485.212l-12.753.022a280.933 280.933 0 00-19.008-.033 5.388 5.388 0 01-.528-.004.09.09 0 01-.034-.007c-.022-.013-.037-.007-.044.018-.008.03.003.046.033.048 1.393.038 2.788.052 4.185.045l-6.735.178c.308-.312.078-.379-.687-.2-2.587.138-4.353.193-5.297.163-.297-.01-.673-.257-1.126-.743l.58-18.626a.16.16 0 00-.092-.151.164.164 0 00-.093-.015.164.164 0 00-.087.036 97.237 97.237 0 00-6.155 5.576 76.998 76.998 0 01-4.29 3.891 103.789 103.789 0 00-7.013 6.516c-.81.33-1.216.923-1.216 1.78 0 9.104 0 18.176-.003 27.216a.263.263 0 01-.257.264l-8.006.271a324.732 324.732 0 00-13.407.138 10.368 10.368 0 01-2.788-.29c-.158-.223-.239-.44-.241-.651-.144-11.136-.118-22.272.078-33.408.002-.237.089-.5.26-.788.134.075.252.072.357-.007l2.557-.301c1.925-.582 3.19-1.766 3.795-3.55.33-.979.358-2.006.085-3.081a10.427 10.427 0 00-1.267-2.907l19.239-17.689a.522.522 0 00.275-.104 492.488 492.488 0 008.824-7.995 5.749 5.749 0 012.04-1.249 28.001 28.001 0 016.193-1.357c2.72-.293 5.475.026 8.263-.055.18-.005.22-.082.119-.231-2.375-3.501-3.944-7.211-4.498-11.422-.026-.219-.141-.294-.208-.491.064-.176.092-.337.082-.483-.26-3.675.214-7.188 1.423-10.541 6.483-17.979 29.914-22.056 42.132-7.501 3.437 4.091 5.345 8.837 5.724 14.236.416 5.962-1.293 11.56-4.847 16.466-.111.154-.073.228.115.223 3.883-.084 7.71-.116 11.482-.096 6.581.037 12.697.012 18.347-.075.498-.01.938-.245 1.319-.706a3617.225 3617.225 0 0116.723-20.101zm-82.825-7.319a12.01 12.01 0 01-.3.554 3.316 3.316 0 00-.261.569 19.924 19.924 0 00-1.09 6.211 86.18 86.18 0 01-.14 3.702 35.022 35.022 0 00-.034 3.705c.07 1.891.146 3.696.23 5.416a79.03 79.03 0 01.041 7.456c-.012.327.145.49.473.487 6.333-.044 12.325.097 18.488.078 4.618-.015 8.96.015 13.024.089.842.015 1.501-.271 1.977-.858 3.97-4.899 5.702-11.181 4.758-17.395-1.126-7.42-5.795-13.876-12.645-17.058-4.612-2.143-9.524-2.645-14.738-1.505-2.178.476-4.059 1.409-5.642 2.799-1.797 1.578-3.177 3.495-4.14 5.75z" fill="#7E40D6"/><path d="M165.757 143.85l-4.074 4.56a.123.123 0 00-.033.083.121.121 0 00.029.084l.119.142c.01.01.021.018.034.024a.098.098 0 00.081 0 .105.105 0 00.034-.024l4.263-4.847c.637-.545 1.331-.767 2.082-.665a.323.323 0 01.264.196c.394.863.337 1.723-.171 2.58-.674 1.14-1.302 2.093-1.885 2.858l-3.646 3.36c-.104.097-.087.155.052.175l.305.049a.156.156 0 00.068-.006.144.144 0 00.058-.035l3.468-3.424a5.726 5.726 0 012.397-1.617c.66-.232 1.14-.088 1.443.435.181.315.218.643.111.985-.144.466-.316.853-.517 1.16-1.077 1.66-2.365 3.434-3.861 5.323a401.63 401.63 0 01-6.646 8.162c-.496-.498-1.161-1.027-1.996-1.587-2.644-1.774-6.595-4.483-11.854-8.125l2.413-2.703a33.36 33.36 0 003.211-2.375c1.333-1.11 2.29-1.809 2.87-2.096a17.975 17.975 0 013.349-1.253c.215-.057.433-.05.654.019.195.062.405.15.628.264-.055.399-.169.718-.342.959-1.311 1.784-2.915 3.522-4.814 5.215-.572.509-.698 1.148-.263 1.791.862 1.264 1.263 2.67 1.204 4.219a.12.12 0 00.011.056.12.12 0 00.035.045.117.117 0 00.106.018l.115-.037a.228.228 0 00.16-.219c.013-1.646-.397-3.078-1.23-4.297-.31-.451-.263-.86.141-1.227a45.494 45.494 0 004.394-4.65c.352-.426.62-.897.806-1.412.213-.587.461-1.032.744-1.335a18.893 18.893 0 001.817-2.263c1.452-1.678 2.798-2.877 4.037-3.598.297-.174.713-.165 1.249.026a.307.307 0 01.208.234c.464 1.888-.457 3.297-1.628 4.773z" fill="#CAD2EF"/><path d="M161.646 142.151l-2.639 3.401c-.298-.615-.795-.824-1.491-.628-1.405.396-2.659.882-3.761 1.457-.516.27-1.263.798-2.242 1.583a27.557 27.557 0 01-2.237 1.628 63.01 63.01 0 019.18-8.868c.64-.499 3.312-2.55 3.844-.84.25.81.032 1.566-.654 2.267z" fill="#CAD2EF"/><path d="M81.285 155.706l-7.78-1.72a.762.762 0 00-.743.245c-3.211 3.683-7.18 6.125-11.697 8.181-.654.301-1.2.71-1.788 1.104-1.226.215-2.495.187-3.806-.086a34.995 34.995 0 01.034-3.705 85.34 85.34 0 00.14-3.703 19.931 19.931 0 011.09-6.211 3.35 3.35 0 01.26-.568c.124-.216.224-.4.301-.554 2.139-.449 3.937-.012 5.394 1.308a9.021 9.021 0 012.442 3.635.431.431 0 00.68.186 8.24 8.24 0 012.865-1.49c.51-.156 1.026-.61.881-1.204-.262-1.061-.276-2.299-.04-3.714.61-3.661 3.657-5.534 7.073-6.084a3.88 3.88 0 011.862.171c2.949.981 4.906 2.717 5.873 5.207.788 2.03-.07 6.612-1.91 7.921-.613.434-.99.794-1.13 1.081z" fill="#2B1F21"/><path d="M81.285 155.707c2.523-.888 4.238-.475 5.145 1.237.322.612.371 1.162.148 1.651-.576 1.256-1.505 1.999-2.724 2.535-.29.126-.423.347-.398.661.405 5.334-2.223 9.579-7.322 11.155-4.26 1.316-7.898.581-10.913-2.204a21.423 21.423 0 01-2.193-2.394.61.61 0 00-.313-.208 2.85 2.85 0 00-1.155-.097c-1.26.153-2.12-.509-2.699-1.68-.528-1.061-.389-2.01.416-2.847.588-.394 1.134-.803 1.788-1.104 4.516-2.056 8.486-4.498 11.697-8.181a.77.77 0 01.744-.245l7.78 1.721z" fill="#D26F5C"/><path d="M47.621 164.586c.067.197.182.272.208.491.554 4.211 2.123 7.921 4.498 11.422.101.149.062.226-.12.231-2.787.081-5.541-.238-8.262.055-2.185.233-4.25.686-6.192 1.357a5.749 5.749 0 00-2.041 1.249 492.488 492.488 0 01-8.824 7.995.522.522 0 01-.275.104c-.25-7.401-.3-12.038-.149-13.909.123-1.475.082-3.319.443-4.579.966-3.401 4.189-4.653 7.53-4.345.352.032.814-.015 1.387-.141a.456.456 0 00.304-.212c.402-.629.785-1.271 1.149-1.925 1.03-1.848 2.87-2.662 4.973-2.301 2.45.416 3.19 2.371 4.356 4.226.278.444.616.538 1.015.282z" fill="#56D6A9"/><path d="M101.056 223.567l6.464.26c2.373.094 4.528.263 6.463.505 6.631.831 13.363 2.53 20.194 5.1 7.253 2.728 13.291 6.686 18.113 11.872 5.126 5.516 9.646 11.463 13.827 17.73 4.56 6.834 9.079 13.632 13.56 20.395 4.282 6.456 8.92 13.091 12.975 19.176a87.37 87.37 0 012.405 3.821.46.46 0 01-.156.631l-9.727 5.91-.911.595c-2.46 1.624-4.705 3.435-7.054 5.196-5.13 3.851-9.899 6.884-16.054 10.627-.738.449-1.399.461-1.981.037-.513-.376-.991-.891-1.435-1.542a4429.43 4429.43 0 01-13.359-19.778 314.91 314.91 0 017.457-3.65c2.537-1.202 5.036-3.28 7.497-6.233.732-.881.97-1.896 1.628-2.81.456-.632.8-1.352 1.033-2.16a89.09 89.09 0 00.996-3.717c.706-2.962-.182-6.088-1.293-8.958-1.105-2.854-2.694-5.158-4.765-6.91-2.766-2.341-6.194-4.425-10.285-6.252-1.1-.49-1.97-1.278-3.033-1.847a9846.564 9846.564 0 01-48.938-26.29c-1.208-.65-2.53-1.152-3.46-2.122-2.111-2.201-3.354-4.852-3.728-7.954-.09-.746-.395-1.22-.918-1.42 4.795-.368 9.69-.208 14.485-.212z" fill="#A8B3CC"/><path d="M86.57 223.779c.524.201.83.674.919 1.42.374 3.102 1.617 5.754 3.728 7.954.93.97 2.252 1.472 3.46 2.122a9851.058 9851.058 0 0048.938 26.29c1.063.569 1.933 1.357 3.033 1.848 4.091 1.826 7.519 3.91 10.285 6.252 2.071 1.751 3.66 4.055 4.765 6.909 1.111 2.87 1.999 5.996 1.293 8.958a89.09 89.09 0 01-.996 3.717 6.945 6.945 0 01-1.033 2.16c-.658.914-.896 1.929-1.628 2.81-2.461 2.953-4.96 5.031-7.497 6.233a314.91 314.91 0 00-7.457 3.65l-67.484 33.661c-.166.081-.298.043-.394-.116a312.26 312.26 0 01-3.472-5.809l-1.305-2.546a14.424 14.424 0 00-1.617-2.483c-1.055-2.344-1.947-4.169-2.676-5.475-1.747-3.127-4.507-7.885-8.281-14.273l-1.439-2.494c-.483-.835-.293-1.47.57-1.903l35.37-17.756c.158-.08.198-.197.118-.353-.71-1.372-3.5-1.978-4.902-2.576a3752.254 3752.254 0 01-22.844-9.872C55.15 267.36 45.71 256.302 45.3 243.65c-.086-2.719-.069-6.569.053-11.553.026-1.111.223-2.159.133-3.278a32.81 32.81 0 01-.078-3.802c.02-.56.31-.847.87-.859l4.631-.119.777.007 6.735-.178 15.396-.067 12.753-.022zm-38.039 12.146a.38.38 0 00-.052-.179.487.487 0 00-.137-.149.658.658 0 00-.2-.096.763.763 0 00-.661.123.483.483 0 00-.128.158.38.38 0 00.012.361.488.488 0 00.137.149.659.659 0 00.2.096.763.763 0 00.661-.124.48.48 0 00.127-.157.38.38 0 00.041-.182z" fill="#CAD2EF"/><path d="M1.75 249.872c.914.223 1.844.319 2.788.29 4.54-.139 9.008-.185 13.407-.138l7.627.019c.53.002.809.269.836.799.05.981.08 2.052.09 3.211.007.941-.194 2.178-1.331 2.193-1.182.018-2.36.015-3.535-.007l-17.845.037-1.65-.123a.568.568 0 01-.524-.565 79.508 79.508 0 00-.138-4.46c-.026-.465.115-.84.275-1.256z" fill="#16084E"/><path d="M21.632 256.239a106.953 106.953 0 00-.858 4.98c-.216 1.48-.19 2.993-.123 4.483.082 1.795-.595 2.858-1.821 4.107a354.622 354.622 0 01-6.94 6.892c-.558.535-1.535 1.089-2.338 1.085-1.646-.004-2.249-1.472-2.665-2.829a.492.492 0 00-.297-.319c-2.048-.811-2.617-1.231-3.271-3.394a.499.499 0 00-.372-.346c-1.647-.379-3.07-1.078-2.84-3.047.164-1.417 2.784-3.587 3.803-4.491a.972.972 0 00.327-.81l-.45-6.274 17.845-.037zm-17.38 14.7l.197.216a.07.07 0 00.045.021.073.073 0 00.048-.017l2.769-2.494a6.13 6.13 0 00.252-.242c.077-.079.144-.155.198-.221.054-.067.093-.124.115-.167.023-.044.027-.074.015-.088l-.09-.1c-.026-.028-.122.009-.267.103a4.267 4.267 0 00-.506.399l-2.769 2.494a.052.052 0 00-.017.021.067.067 0 00.01.075zm7.97-.873a.13.13 0 00-.037-.027.13.13 0 00-.044-.01.116.116 0 00-.083.03L8.71 273.15a.108.108 0 00-.026.036.118.118 0 00-.004.088.13.13 0 00.024.039l.09.098a.11.11 0 00.037.026.111.111 0 00.088.004.103.103 0 00.038-.024l3.35-3.09a.117.117 0 00.03-.124.11.11 0 00-.024-.039l-.09-.098z" fill="#CAD2EF"/><path d="M59.151 307.061c3.774 6.388 6.534 11.146 8.281 14.273.729 1.306 1.621 3.131 2.677 5.475l1.063 2.338a.269.269 0 01-.097.339.27.27 0 01-.119.044 38.014 38.014 0 00-3.524.539c-2.173.438-4.22 1.464-6.144 3.077-1.338 1.123-1.929 2.49-1.204 4.163.989 2.279 1.844 4.048 1.327 6.687-.61 3.115-2.218 5.451-4.825 7.01-.964.577-2.084 1.045-3.36 1.401-1.819-3.442-3.163-5.931-4.033-7.467a2366.648 2366.648 0 00-7.147-12.485 1561.162 1561.162 0 01-7.944-13.976 29.91 29.91 0 011.29-.836 8.33 8.33 0 011.372-.677 84.724 84.724 0 005.75-2.464 2978.05 2978.05 0 0115.645-7.33.537.537 0 01.345-.041.96.96 0 00.647-.07zm126.023 1.907c.61 1.04 1.108 2.051 1.814 3.021a288.409 288.409 0 013.26 4.576 13.305 13.305 0 001.736 2.007c2.442 2.331 5.337.35 7.686-.78 4.479-2.156 9.605-.878 12.883 2.746.362.399 1.012 1.298 1.952 2.695-1.093.942-1.916 1.608-2.469 2-4.807 3.385-14.425 10.09-28.854 20.116-1.457 1.013-2.723 1.718-3.799 2.115l-15.332-22.175a.49.49 0 01.007-.573c.374-.513.85-.96 1.427-1.342 3.953-2.604 8.354-5.653 13.203-9.147 1.186-.855 3.416-2.327 5.025-3.654.347-.285.531-.622.55-1.011l.911-.594z" fill="#3C1D88"/><path d="M34.102 318.479c2.622 4.669 5.27 9.327 7.944 13.976 3.5 6.088 5.883 10.25 7.147 12.485.87 1.536 2.214 4.026 4.033 7.467-1.348.959-2.692 1.594-4.033 1.903a.665.665 0 01-.728-.312 1335.08 1335.08 0 01-19.013-33.304c-.04-.074-.023-.133.049-.178 1.353-.847 2.887-1.526 4.601-2.037zm180.402 4.754c1.781.788 2.309 2.349 2.866 4.044.089.275.016.497-.219.666a2713.561 2713.561 0 01-32.107 22.729c-.738.515-1.627.869-2.665 1.063a.366.366 0 01-.327-.089c-1.499-1.299-2.389-2.693-2.669-4.182 1.075-.397 2.342-1.102 3.799-2.115 14.429-10.026 24.047-16.731 28.854-20.116.553-.392 1.376-1.058 2.468-2z" fill="#7E40D6"/><path d="M17.945 250.024a324.734 324.734 0 00-13.407.138 10.368 10.368 0 01-2.788-.29" stroke="#4A2492" stroke-width="2"/><path d="M70.109 326.809c-1.056-2.344-1.948-4.169-2.676-5.475-1.748-3.127-4.508-7.885-8.282-14.273" stroke="#8378BC" stroke-width="2"/><path d="M21.632 256.239l-17.845.037" stroke="#706D9F" stroke-width="2"/><path d="M53.226 352.407c-1.819-3.441-3.163-5.931-4.033-7.467a2366.648 2366.648 0 00-7.147-12.485 1561.162 1561.162 0 01-7.944-13.976" stroke="#5D2FAF" stroke-width="2"/><path d="M145.882 153.696c5.258 3.642 9.209 6.351 11.853 8.125.836.56 1.501 1.089 1.996 1.587l1.231 1.531a.747.747 0 01.037.885c-.836 1.253-1.959 2.881-3.267 3.665a.308.308 0 01-.372-.019c-.216-.158-.352-.157-.409.004a868.932 868.932 0 00-12.273-9.891c-1.071-.851-2.814-2.59-4.557-3.575a16.253 16.253 0 012.817-3.487c.357-.334.734-.367 1.13-.096.585.398 1.19.822 1.814 1.271zm-12.923 39.277c.406.156.883.162 1.431.018.946.191 1.896.661 2.85 1.409-1.157 2.109-2.926 3.566-5.307 4.371-1.088.369-2.27.603-3.546.703-.065-3.576 1.459-5.743 4.572-6.501z" fill="#16084E"/><path d="M44.577 223.266c-3.541-.04-7.085-.063-10.63-.071-1.68-.002-2.87-.139-3.569-.409-1.145-.436-2.129-1.2-2.951-2.293a103.811 103.811 0 017.014-6.516 76.967 76.967 0 004.289-3.891 97.21 97.21 0 016.155-5.576.164.164 0 01.087-.036.164.164 0 01.185.166l-.58 18.626z" fill="#56D6A9"/><path d="M433.867 324.352a244.033 244.033 0 0013.846 9.311c.32.2.845.686 1.576 1.457l-24.223 30.352c-1.289-.634-2.243-1.213-2.862-1.735-2.684-2.264-4.349-5.784-3.751-9.315.194-1.13.5-2.031.918-2.702.523-.833 1.044-1.668 1.561-2.506.484-.785.559-1.628.227-2.527-.218-.587-.759-1.382-1.624-2.383a4008.065 4008.065 0 0112.857-17.272c.481-.64.972-1.533 1.475-2.68zm-74.089 2.999l11.321 11.333c.005.323-.159.655-.494.997a857.477 857.477 0 01-11.905 11.916 171.3 171.3 0 00-5.148 5.319 167.697 167.697 0 01-5.996 6.092c-.324.315-.674.611-1.048.888-.409.305-.743.6-1.003.885-3.309-2.577-4.634-5.84-3.978-9.79.339-2.022 1.383-3.517 2.591-5.074.872-1.127 1.308-2.199 1.308-3.215.003-.848-.417-1.696-1.26-2.546 6.755-6.349 11.27-10.653 13.545-12.913 1.063-1.053 1.752-2.35 2.067-3.892z" fill="#3C1D88"/><path d="M17.313 336.201l3.784.777c.03.005.058.021.077.045a.129.129 0 010 .167.128.128 0 01-.077.045l-3.78.791a.136.136 0 00-.065.036.13.13 0 00-.036.065l-.777 3.784a.13.13 0 01-.256 0l-.792-3.78a.132.132 0 00-.035-.066.134.134 0 00-.065-.035l-3.784-.777a.129.129 0 01-.077-.212.131.131 0 01.077-.044l3.78-.792a.126.126 0 00.065-.035.133.133 0 00.036-.065l.776-3.784a.133.133 0 01.045-.078.134.134 0 01.084-.03c.03 0 .06.011.084.03.023.02.039.048.044.078l.792 3.78a.13.13 0 00.1.1z" fill="#FCB958"/><path d="M449.289 335.12a14.099 14.099 0 014.148 2.602.325.325 0 01.037.446 1195.56 1195.56 0 01-24.13 29.906.234.234 0 01-.264.071 10.013 10.013 0 01-4.014-2.673l24.223-30.352zm-78.189 3.564c.592.057 1.023.263 1.293.617a54.668 54.668 0 001.881 2.327c.082.094.094.198.037.312-.439.885-.954 1.624-1.546 2.216L353.53 363.41c-1.554 1.553-3.178 2.921-4.691 4.501-.089.094-.192.112-.309.056a9.236 9.236 0 01-2.367-1.699c-.422-.421-.641-.917-.658-1.487.26-.285.594-.58 1.003-.885.374-.277.724-.573 1.048-.888a167.697 167.697 0 005.996-6.092 173.644 173.644 0 015.148-5.319 857.477 857.477 0 0011.905-11.916c.335-.342.499-.674.495-.997z" fill="#7E40D6"/><path fill="#FCB958" d="M133.237 213.552l1.314-1.314 1.314 1.314-1.314 1.314z"/><path d="M417.579 268.282l2.207-1.077a.5.5 0 01.715.382l.329 2.435a.5.5 0 01-.732.507l-2.536-1.356a.5.5 0 01.017-.891z" fill="#928DED"/><path d="M424.282 269.873l-2.208 1.077a.5.5 0 01-.715-.382l-.328-2.435a.5.5 0 01.731-.507l2.536 1.356a.5.5 0 01-.016.891z" fill="#7E40D6"/><path d="M429.526 272.678l-2.208 1.077a.499.499 0 01-.714-.382l-.329-2.434a.5.5 0 01.731-.508l2.536 1.357a.5.5 0 01-.016.89z" fill="#928DED"/><path d="M422.823 271.088l2.207-1.078a.5.5 0 01.715.383l.329 2.434a.5.5 0 01-.732.508l-2.536-1.357a.5.5 0 01.017-.89z" fill="#B5B1FD"/><path d="M426.24 274.95l-6.156 6.585c-.35.374-.969.042-.852-.456l2.06-8.776a.5.5 0 01.723-.327l4.096 2.191a.5.5 0 01.129.783z" fill="#928DED"/><path d="M420.712 271.683l-1.661 8.202c-.111.55-.906.527-.985-.029l-1.402-9.84a.5.5 0 01.731-.511l3.062 1.638a.501.501 0 01.255.54z" fill="#7E40D6"/><path d="M427.078 275.089l-5.901 5.933c-.396.398.064 1.046.57.804l8.964-4.296a.5.5 0 00.02-.891L427.668 275a.499.499 0 00-.59.089z" fill="#928DED"/><path d="M428.066 273.893l2.208-1.078a.5.5 0 01.715.383l.329 2.434a.5.5 0 01-.732.508l-2.536-1.357a.5.5 0 01.016-.89z" fill="#7E40D6"/><path d="M179.925 241.384l.744-2.34a.5.5 0 01.77-.254l1.989 1.442a.5.5 0 01-.138.88l-2.732.899a.5.5 0 01-.633-.627z" fill="#928DED"/><path d="M185.702 237.632l-.743 2.341a.501.501 0 01-.771.253l-1.988-1.442a.5.5 0 01.137-.88l2.733-.899a.5.5 0 01.632.627z" fill="#7E40D6"/><path d="M191.352 235.773l-.744 2.341a.5.5 0 01-.77.254l-1.988-1.443a.499.499 0 01.137-.879l2.732-.899a.5.5 0 01.633.626z" fill="#928DED"/><path d="M185.575 239.526l.744-2.341a.5.5 0 01.77-.253l1.988 1.442a.5.5 0 01-.137.88l-2.732.899a.5.5 0 01-.633-.627z" fill="#B5B1FD"/><path d="M190.728 239.719l.515 9c.03.511-.637.731-.917.302l-4.929-7.549a.5.5 0 01.263-.748l4.413-1.452a.5.5 0 01.655.447z" fill="#928DED"/><path d="M184.549 241.465l4.788 6.862c.322.461-.243 1.02-.7.693l-8.088-5.777a.5.5 0 01.134-.882l3.299-1.085c.21-.069.44.008.567.189z" fill="#7E40D6"/><path d="M191.407 239.209l.22 8.365c.015.561.802.676.976.142l3.079-9.451a.5.5 0 00-.632-.63l-3.299 1.085a.5.5 0 00-.344.489z" fill="#928DED"/><path d="M191.224 237.668l.744-2.341a.5.5 0 01.77-.253l1.988 1.442a.5.5 0 01-.137.879l-2.732.899a.5.5 0 01-.633-.626z" fill="#7E40D6"/><path d="M259.815 97.739l2.067-1.328a.5.5 0 01.754.296l.611 2.38a.5.5 0 01-.667.59l-2.677-1.052a.5.5 0 01-.088-.886z" fill="#928DED"/><path d="M266.658 98.535l-2.066 1.328a.5.5 0 01-.755-.296l-.611-2.38a.5.5 0 01.667-.589l2.678 1.051a.5.5 0 01.087.886z" fill="#7E40D6"/><path d="M272.194 100.709l-2.066 1.328a.5.5 0 01-.755-.297l-.611-2.379a.5.5 0 01.667-.59l2.677 1.052a.5.5 0 01.088.886z" fill="#928DED"/><path d="M265.351 99.913l2.066-1.328a.5.5 0 01.755.296l.611 2.379a.5.5 0 01-.667.59l-2.677-1.051a.5.5 0 01-.088-.886z" fill="#B5B1FD"/><path d="M269.196 103.349l-5.345 7.259c-.304.412-.958.155-.9-.354l1.022-8.956a.5.5 0 01.679-.409l4.324 1.698a.5.5 0 01.22.762z" fill="#928DED"/><path d="M263.324 100.75l-.691 8.34c-.047.56-.839.63-.982.087l-2.542-9.61a.5.5 0 01.666-.593l3.233 1.27c.206.08.334.286.316.506z" fill="#7E40D6"/><path d="M270.044 103.389l-5.167 6.582c-.347.442.185 1.032.66.731l8.401-5.312a.5.5 0 00-.085-.888l-3.233-1.269a.5.5 0 00-.576.156z" fill="#928DED"/><path d="M270.887 102.086l2.066-1.328a.5.5 0 01.755.297l.61 2.379a.5.5 0 01-.667.589l-2.677-1.051a.5.5 0 01-.087-.886z" fill="#7E40D6"/><path d="M347.738 96.707c26.705 0 48.354-21.648 48.354-48.353C396.092 21.649 374.443 0 347.738 0s-48.353 21.649-48.353 48.354 21.648 48.353 48.353 48.353z" fill="#DCDCDC"/><path d="M351.422 87.72c23.812 0 43.116-19.304 43.116-43.117 0-23.812-19.304-43.116-43.116-43.116-23.813 0-43.117 19.304-43.117 43.116 0 23.813 19.304 43.117 43.117 43.117z" fill="#ECECEC"/><circle cx="327.076" cy="51.108" r="8.363" fill="#C7C7C7"/><circle cx="344.546" cy="17.284" r="4.646" fill="#C7C7C7"/><circle cx="359.042" cy="76.383" r="3.903" fill="#C7C7C7"/><circle cx="386.919" cy="47.763" r="2.416" fill="#C7C7C7"/><circle cx="363.13" cy="11.337" r="2.416" fill="#C7C7C7"/></svg>