<svg width="69" height="54" viewBox="0 0 69 54" fill="none" xmlns="http://www.w3.org/2000/svg"><g clip-path="url(#clip0_509_1303)"><path d="M48.155 21.639l-1.929-.877-1.669-.93-16.693-9.619c-.079-.23-.114-.38-.104-.45A721.55 721.55 0 0129.385.11a.127.127 0 01.072-.097.134.134 0 01.125.005 1908.87 1908.87 0 0110.801 6.118c.68.386 1.274 1.133 1.784 2.241 1.7 3.687 3.23 6.864 4.587 9.53a17.644 17.644 0 011.401 3.732z" fill="#FCB958"/><path d="M27.864 10.213l16.693 9.62c.357.604.913.914 1.67.929l1.928.877a194.6 194.6 0 006.616 3.762c3.279 1.779 6.074 3.995 8.386 6.65.966 1.112 1.852 2.431 2.657 3.958a14.64 14.64 0 01-.91 1.498c-1.115 1.605-1.859 3.36-2.892 5.018a66.935 66.935 0 00-2.056 3.534c-.391.719-1.074 1.897-2.048 3.535a37.844 37.844 0 00-2.077 4.051c-.749.023-1.496.022-2.242-.003a21.136 21.136 0 01-8.92-2.268c-2.216-1.115-5.089-2.732-8.62-4.85-.444-.268-1-.513-1.669-.736L13.788 33.87l-2.423-1.527c-.12-.075-.162-.179-.13-.313.129-.51.35-.987.665-1.43a.963.963 0 00-.038-1.171.971.971 0 00-.326-.26 15.613 15.613 0 01-2.063-1.227.532.532 0 01-.13-.74c.483-.686.58-1.098.29-1.234a20.994 20.994 0 002.501-4.349 28.828 28.828 0 003.907-6.523c.297-.347.488-.691.572-1.033l1.978-3.412.985-1.29a.778.778 0 01.992-.205l2.081 1.171a.65.65 0 00.86-.204l.716-1.07a.961.961 0 011-.402c.71.156 1.848.68 2.29 1.35.173.262.29.332.35.211zm18.238 25.291a8.17 8.17 0 00.156-6.31 8.404 8.404 0 00-4.394-4.617 8.404 8.404 0 00-6.37-.22 8.172 8.172 0 00-4.614 4.306 8.172 8.172 0 00-.156 6.31 8.404 8.404 0 004.394 4.617 8.404 8.404 0 006.37.22 8.172 8.172 0 004.614-4.306z" fill="#3C1D88"/><path d="M13.788 33.871L34.38 45.788a467.278 467.278 0 01-15.455 1.565c-.372.03-1.07-.182-1.45-.394a887.689 887.689 0 01-10.96-6.293c-.201-.116-.215-.252-.042-.405l7.315-6.39zm52.026 2.137c1.026 1.676 1.81 3.551 2.353 5.628.28 1.066.408 2.054.383 2.966-.109 3.888-1.998 6.485-5.668 7.79-2.478.883-4.828 1.3-7.051 1.253a37.855 37.855 0 012.078-4.051c.973-1.638 1.656-2.816 2.048-3.535a66.876 66.876 0 012.055-3.535c1.033-1.657 1.777-3.412 2.892-5.017.32-.459.623-.958.91-1.498z" fill="#FCB958"/><path d="M46.102 35.504a8.172 8.172 0 01-4.614 4.306 8.404 8.404 0 01-6.37-.22 8.405 8.405 0 01-4.394-4.618 8.172 8.172 0 01.156-6.31 8.172 8.172 0 014.615-4.305 8.405 8.405 0 016.37.22 8.404 8.404 0 014.394 4.618 8.172 8.172 0 01-.157 6.31zm-2.117-3.45a5.509 5.509 0 10-11.017 0 5.509 5.509 0 0011.017 0z" fill="#56D6A9"/><path d="M38.476 37.562a5.508 5.508 0 100-11.017 5.508 5.508 0 000 11.017z" fill="#CFFFEB"/><path d="M18.59 10.652l-1.977 3.412-.498.46-4.315-1.181c-1.311-.233-2.561-.213-3.75.06a2.651 2.651 0 00-1.54.516c-.101.074-.13.17-.089.29 1.044 2.896 2.948 5.367 5.713 7.411a21.002 21.002 0 01-2.501 4.35c-3.801-2.49-6.468-5.846-7.999-10.07C.987 14.112.671 12.105.01 10.295a.167.167 0 01.096-.212 30.868 30.868 0 017.765-1.888c2.81-.313 5.75.081 8.82 1.182 1.034.371 1.667.796 1.9 1.275z" fill="#56D6A9"/><path d="M11.8 13.343l4.315 1.182c-.275.218-.3.409-.074.572a28.828 28.828 0 01-3.907 6.523c-2.765-2.044-4.67-4.515-5.713-7.411-.042-.12-.012-.216.09-.29.44-.327.954-.5 1.538-.517l3.75-.06z" fill="#16084E"/></g><defs><clipPath id="clip0_509_1303"><path fill="#fff" d="M0 0h69v54H0z"/></clipPath></defs></svg>