<svg version="1.1" id="Слой_1" xmlns="http://www.w3.org/2000/svg" xmlns:xlink="http://www.w3.org/1999/xlink" x="0" y="0" viewBox="0 0 1080 273.09" xml:space="preserve"><linearGradient id="SVGID_1_" gradientUnits="userSpaceOnUse" x1="25.673" y1="202.564" x2="127.847" y2="292.817"><stop offset="0" stop-color="#0eb69d"/><stop offset="1" stop-color="#85e047"/></linearGradient><path d="M81.52 205.32l-.69-.58-69.51 58.64c6.35 5.92 14.86 9.55 24.23 9.55h153.01L81.52 205.32z" fill="url(#SVGID_1_)"/><path d="M128.85 108.87L0 .15v81.51l54.35 45.85c5.59 4.72 5.59 13.33 0 18.05L0 191.42v45.96c0 10.27 4.36 19.51 11.32 26l70.2-59.23 47.34-39.94c17.14-14.46 17.14-40.87-.01-55.34zm180.38 88.75h29.26l-27.43-39.31.64-.28c7.96-3.46 14.19-8.52 18.51-15.03 4.32-6.51 6.51-14.37 6.51-23.38 0-9-2.16-16.9-6.43-23.47-4.26-6.57-10.43-11.71-18.34-15.29-7.94-3.59-17.43-5.41-28.21-5.41h-52.8v122.16h27.4v-34.35h27.11l23.78 34.36zm-50.89-55.93V97.58h23.82c8.67 0 15.37 1.91 19.91 5.68 4.58 3.8 6.9 9.31 6.9 16.38 0 6.95-2.32 12.43-6.9 16.29-4.55 3.83-11.25 5.77-19.92 5.77h-23.81zM360.4 75.46h27.4v122.16h-27.4zm215.96 0l-29.13 88.64-28.59-88.64h-25.59l-29.49 87.92-28.23-87.92h-28.39l40.14 122.16h29.65l28.42-84.73 27.53 84.73h29.82l39.96-122.16zm120.27 95.74l10.92 26.42h28.68L681.61 75.46h-27.44l-54.45 122.16h27.98l10.92-26.42h58.01zm-28.91-69.79l20.4 49.26h-40.81l20.41-49.26zm169.05-25.95H730.46v22.12h39.46v100.04h27.39V97.58h39.46zm100.92 70.73v-21.06h-57.24V97.22h64.81V75.46h-92.03v122.16h94.32v-21.76h-67.1v-29.67zm109.9 51.43h31.52l-45.56-63.19.24-.33 42.33-58.64h-29.42l-28.12 40.41-28.65-40.41h-31.01l42.92 60.03-45.2 62.13h31.34l29.54-43.23z" fill="#fff"/></svg>