<svg width="414" height="396" viewBox="0 0 414 396" fill="none" xmlns="http://www.w3.org/2000/svg"><path d="M215.838 395.521c109.22 0 197.761-88.541 197.761-197.761S325.058 0 215.838 0 18.078 88.54 18.078 197.76c0 109.22 88.54 197.761 197.76 197.761z" fill="#8309D1"/><path d="M73.147 220.898H65.82c-.621 0-1.154.533-1.154 1.155v49.829c0 .621-.533 1.154-1.155 1.154H45.657a1.176 1.176 0 01-1.155-1.154v-49.829c0-.622-.533-1.155-1.154-1.155h-6.484c-.933 0-1.466-1.066-.933-1.821l8.927-12.746 9.237-13.234c.444-.666 1.421-.666 1.91 0l9.237 13.234 8.927 12.746c.444.755-.09 1.821-1.022 1.821zm116.533 28.556h-7.327c-.622 0-1.155.533-1.155 1.155v49.828c0 .622-.533 1.155-1.155 1.155H162.19a1.176 1.176 0 01-1.154-1.155v-49.828c0-.622-.533-1.155-1.155-1.155h-6.484c-.933 0-1.466-1.066-.933-1.821l8.927-12.746 9.237-13.234c.444-.666 1.421-.666 1.91 0l9.237 13.234 8.927 12.746c.444.8-.089 1.821-1.022 1.821zm205-65.95h-7.328c-.622 0-1.155.533-1.155 1.155v49.829c0 .622-.533 1.155-1.154 1.155H367.19a1.176 1.176 0 01-1.155-1.155v-49.829c0-.622-.533-1.155-1.155-1.155h-6.484c-.932 0-1.465-1.065-.932-1.82l8.926-12.746 9.238-13.235c.444-.666 1.421-.666 1.909 0l9.238 13.235 8.926 12.746c.444.755-.089 1.82-1.021 1.82zM298.931 44.855h-7.328c-.622 0-1.155.533-1.155 1.154v49.829c0 .622-.533 1.155-1.154 1.155h-17.853a1.176 1.176 0 01-1.155-1.155V46.009c0-.621-.533-1.154-1.155-1.154h-6.484c-.932 0-1.465-1.066-.932-1.821l8.926-12.746 9.238-13.234c.444-.666 1.421-.666 1.909 0l9.238 13.234 8.926 12.746c.444.755-.089 1.82-1.021 1.82zM103.835 83.58h-7.328c-.622 0-1.154.534-1.154 1.155v49.829c0 .622-.533 1.155-1.155 1.155H76.345a1.176 1.176 0 01-1.155-1.155V84.735c0-.621-.533-1.154-1.154-1.154h-6.484c-.933 0-1.466-1.066-.933-1.821l8.927-12.746 9.237-13.234c.444-.666 1.421-.666 1.91 0l9.237 13.234 8.926 12.746c.489.755-.088 1.82-1.021 1.82zm109.028 28.068h-7.328c-.621 0-1.154.533-1.154 1.155v49.829c0 .621-.533 1.154-1.155 1.154h-17.853a1.176 1.176 0 01-1.155-1.154v-49.829c0-.622-.533-1.155-1.154-1.155h-6.484c-.933 0-1.466-1.066-.933-1.821l8.927-12.745 9.237-13.235c.444-.666 1.421-.666 1.91 0l9.237 13.235 8.927 12.745c.488.755-.089 1.821-1.022 1.821z" fill="#6E00C4"/><path d="M311.099 123.595c22.197 0 40.192-17.995 40.192-40.192s-17.995-40.192-40.192-40.192-40.192 17.995-40.192 40.192 17.995 40.192 40.192 40.192z" fill="#fff"/><path d="M290.493 117.91c-12.125-7.239-19.586-20.384-19.586-34.507 0-22.028 18.164-40.192 40.192-40.192s40.192 18.165 40.192 40.192" stroke="#4D0678" stroke-width="2" stroke-miterlimit="10" stroke-linecap="round"/><path d="M311.099 112.936c16.311 0 29.533-13.222 29.533-29.533 0-16.31-13.222-29.533-29.533-29.533-16.31 0-29.533 13.223-29.533 29.533 0 16.31 13.223 29.533 29.533 29.533z" fill="#BD0FEA"/><path d="M295.333 58.444a29.512 29.512 0 0115.766-4.574c16.21 0 29.533 13.323 29.533 29.533s-13.323 29.533-29.533 29.533a29.682 29.682 0 01-16.343-4.929" stroke="#4D0678" stroke-width="2" stroke-miterlimit="10" stroke-linecap="round"/><path d="M311.099 102.722c10.669 0 19.319-8.65 19.319-19.319 0-10.67-8.65-19.318-19.319-19.318-10.669 0-19.318 8.649-19.318 19.318 0 10.67 8.649 19.319 19.318 19.319z" fill="#fff"/><path d="M323.623 98.103a19.385 19.385 0 01-12.524 4.619c-10.614 0-19.318-8.705-19.318-19.319 0-10.614 8.704-19.318 19.318-19.318 2.665 0 5.329.577 7.816 1.643" stroke="#4D0678" stroke-width="2" stroke-miterlimit="10" stroke-linecap="round"/><path d="M311.099 95.616c6.745 0 12.213-5.468 12.213-12.213 0-6.745-5.468-12.213-12.213-12.213-6.745 0-12.213 5.468-12.213 12.213 0 6.745 5.468 12.213 12.213 12.213z" fill="#FDD746"/><path d="M303.416 73.9c2.176-1.777 4.885-2.71 7.683-2.71 6.706 0 12.213 5.507 12.213 12.213 0 6.706-5.507 12.213-12.213 12.213-1.865 0-3.686-.444-5.374-1.243" stroke="#4D0678" stroke-width="2" stroke-miterlimit="10" stroke-linecap="round"/><path d="M315.984 82.07l77.941-22.87" stroke="#6E00C4" stroke-width="6" stroke-miterlimit="10"/><path d="M394.103 59.6l6.617-11.148c.355-.622-.222-1.377-.933-1.155l-19.94 6.085a2.52 2.52 0 00-1.421 1.11l-6.928 11.413 22.605-6.306z" fill="#6E00C4"/><path d="M394.103 59.333l11.28 6.04c.71.355.577 1.42-.178 1.598l-20.073 5.108c-.622.133-1.244.088-1.777-.223l-11.857-6.173 22.605-6.35z" fill="#6E00C4"/><path d="M373.674 62.308c1.598-2.62 3.153-5.196 4.751-7.816a2.524 2.524 0 011.422-1.11l19.94-6.085c.711-.222 1.288.533.933 1.155l-6.618 11.147-14.833 4.041" stroke="#2D0649" stroke-width="2" stroke-miterlimit="10" stroke-linecap="round"/><path d="M318.782 85.046c.089.222-.133.489-.355.444l-3.775-.71-3.775-.71a.314.314 0 01-.178-.534l2.532-2.886 2.531-2.887c.178-.178.489-.133.577.089l1.244 3.642 1.199 3.552z" fill="#6E00C4"/><path d="M279.212 319.756c0 .533-.399 1.022-.888 1.066a280.236 280.236 0 01-36.416 2.265c-13.102 0-25.048-.933-35.662-2.265-.533-.044-.888-.533-.888-1.066v-8.615h73.854v8.615z" fill="url(#paint0_linear_59_821)" stroke="#FF7900" stroke-width="3" stroke-miterlimit="10"/><path opacity=".44" d="M279.212 319.756c0 .533-.399 1.022-.888 1.066a280.236 280.236 0 01-36.416 2.265c-13.102 0-25.048-.933-35.662-2.265-.533-.044-.888-.533-.888-1.066v-8.615h73.854v8.615z" fill="url(#paint1_linear_59_821)"/><path d="M279.212 311.185c0-1.999-16.298-3.597-36.372-3.597-20.073 0-37.482 1.598-37.482 3.597 0 1.998 17.409 3.597 37.482 3.597 20.074 0 36.372-1.643 36.372-3.597z" fill="url(#paint2_linear_59_821)" stroke="#fff" stroke-width="4" stroke-miterlimit="10"/><path d="M208.511 313.361v6.573m5.24-5.374v5.951m5.019-5.152v5.774m5.329-5.374v5.774m5.729-5.374v5.773m5.684-5.374v5.374m5.33-5.374v5.374m5.329-5.374v5.374m5.64-5.374v5.374m11.502-6.573v5.774m5.729-6.173v5.773m5.33-6.573v6.173m4.085-7.372v6.973" opacity=".82" stroke="#fff" stroke-width="3" stroke-miterlimit="10" stroke-linecap="round"/><path d="M281.61 309.009c0 .533-.399 1.021-.888 1.066a280.412 280.412 0 01-36.416 2.265c-13.102 0-25.048-.933-35.662-2.265-.533-.045-.888-.533-.888-1.066v-8.616h73.854v8.616z" fill="url(#paint3_linear_59_821)" stroke="#FF7900" stroke-width="3" stroke-miterlimit="10"/><path opacity=".44" d="M281.61 309.009c0 .533-.399 1.021-.888 1.066a280.412 280.412 0 01-36.416 2.265c-13.102 0-25.048-.933-35.662-2.265-.533-.045-.888-.533-.888-1.066v-8.616h73.854v8.616z" fill="url(#paint4_linear_59_821)"/><path d="M281.61 300.438c0-1.999-16.298-3.598-36.372-3.598-20.073 0-37.482 1.599-37.482 3.598 0 1.998 17.409 3.597 37.482 3.597 20.074 0 36.372-1.643 36.372-3.597z" fill="url(#paint5_linear_59_821)" stroke="#fff" stroke-width="4" stroke-miterlimit="10"/><path d="M210.909 302.614v6.572m5.196-5.373v5.951m5.063-5.152v5.774m5.329-5.374v5.773m5.729-5.374v5.774m5.685-5.374v5.374m5.329-5.374v5.374m5.329-5.374v5.374m5.64-5.374v5.374m5.418-6.173v5.773m6.084-6.173v5.774m5.729-6.173v5.773m5.33-6.573v6.173m4.085-7.372v6.972" opacity=".82" stroke="#fff" stroke-width="3" stroke-miterlimit="10" stroke-linecap="round"/><path d="M279.212 298.261c0 .533-.399 1.022-.888 1.066a280.06 280.06 0 01-36.416 2.265c-13.102 0-25.048-.932-35.662-2.265-.533-.044-.888-.533-.888-1.066v-8.615h73.854v8.615z" fill="url(#paint6_linear_59_821)" stroke="#FF7900" stroke-width="3" stroke-miterlimit="10"/><path opacity=".44" d="M279.212 298.261c0 .533-.399 1.022-.888 1.066a280.06 280.06 0 01-36.416 2.265c-13.102 0-25.048-.932-35.662-2.265-.533-.044-.888-.533-.888-1.066v-8.615h73.854v8.615z" fill="url(#paint7_linear_59_821)"/><path d="M279.212 289.646c0-1.999-16.298-3.598-36.372-3.598-20.073 0-37.482 1.599-37.482 3.598 0 1.998 17.409 3.597 37.482 3.597 20.074 0 36.372-1.599 36.372-3.597z" fill="url(#paint8_linear_59_821)" stroke="#fff" stroke-width="4" stroke-miterlimit="10"/><path d="M208.511 291.866v6.573m5.24-5.374v5.951m5.019-5.151v5.773m5.329-5.374v5.774m5.729-5.374v5.773m5.684-5.373v5.374m5.33-5.374v5.374m5.329-5.374v5.374m5.64-5.374v5.374m5.418-6.174v5.774m6.084-6.173v5.773m5.729-6.173v5.773m5.33-6.572v6.173m4.085-7.372v6.972" opacity=".82" stroke="#fff" stroke-width="3" stroke-miterlimit="10" stroke-linecap="round"/><path d="M280.012 287.514c0 .533-.4 1.022-.888 1.066a280.252 280.252 0 01-36.417 2.265c-13.101 0-25.048-.933-35.662-2.265-.533-.044-.888-.533-.888-1.066v-8.616h73.855v8.616z" fill="url(#paint9_linear_59_821)" stroke="#FF7900" stroke-width="3" stroke-miterlimit="10"/><path opacity=".44" d="M280.012 287.514c0 .533-.4 1.022-.888 1.066a280.252 280.252 0 01-36.417 2.265c-13.101 0-25.048-.933-35.662-2.265-.533-.044-.888-.533-.888-1.066v-8.616h73.855v8.616z" fill="url(#paint10_linear_59_821)"/><path d="M280.012 278.898c0-1.998-16.299-3.597-36.373-3.597-20.073 0-37.482 1.599-37.482 3.597 0 1.999 17.409 3.598 37.482 3.598 20.074 0 36.373-1.599 36.373-3.598z" fill="url(#paint11_linear_59_821)" stroke="#fff" stroke-width="4" stroke-miterlimit="10"/><path d="M209.31 281.119v6.573m5.196-5.374v5.951m5.063-5.152v5.774m5.329-5.418v5.817m5.729-5.418v5.818m5.685-5.418v5.418m5.329-5.418v5.418m5.329-5.418v5.418m5.641-5.418v5.418m5.418-6.217v5.817m6.084-6.173v5.774m5.729-6.173v5.773m5.329-6.573v6.173m4.086-7.372v6.973" opacity=".82" stroke="#fff" stroke-width="3" stroke-miterlimit="10" stroke-linecap="round"/><path d="M274.86 276.767c0 .533-.4 1.021-.888 1.065a280.076 280.076 0 01-36.417 2.265c-13.101 0-25.047-.932-35.661-2.265-.533-.044-.889-.532-.889-1.065v-8.616h73.855v8.616z" fill="url(#paint12_linear_59_821)" stroke="#FF7900" stroke-width="3" stroke-miterlimit="10"/><path opacity=".44" d="M274.86 276.767c0 .533-.4 1.021-.888 1.065a280.076 280.076 0 01-36.417 2.265c-13.101 0-25.047-.932-35.661-2.265-.533-.044-.889-.532-.889-1.065v-8.616h73.855v8.616z" fill="url(#paint13_linear_59_821)"/><path d="M274.86 268.151c0-1.999-16.299-3.597-36.372-3.597-20.074 0-37.483 1.598-37.483 3.597 0 1.998 17.409 3.597 37.483 3.597 20.073 0 36.372-1.599 36.372-3.597z" fill="url(#paint14_linear_59_821)" stroke="#fff" stroke-width="4" stroke-miterlimit="10"/><path d="M204.114 270.372v6.572m5.24-5.418v5.996m5.063-5.196v5.817m5.33-5.418v5.818m5.684-5.418v5.818m5.729-5.418v5.418m5.329-5.418v5.418m5.33-5.418v5.418m5.595-5.418v5.418m5.419-6.218v5.818m6.128-6.217v5.817m5.685-6.217v5.818m5.329-6.573v6.173m4.086-7.372v6.972" opacity=".82" stroke="#fff" stroke-width="3" stroke-miterlimit="10" stroke-linecap="round"/><path d="M277.614 266.019c0 .533-.4 1.022-.889 1.066a280.224 280.224 0 01-36.416 2.265c-13.101 0-25.048-.933-35.662-2.265-.533-.044-.888-.533-.888-1.066v-8.615h73.855v8.615z" fill="url(#paint15_linear_59_821)" stroke="#FF7900" stroke-width="3" stroke-miterlimit="10"/><path opacity=".44" d="M277.614 266.019c0 .533-.4 1.022-.889 1.066a280.224 280.224 0 01-36.416 2.265c-13.101 0-25.048-.933-35.662-2.265-.533-.044-.888-.533-.888-1.066v-8.615h73.855v8.615z" fill="url(#paint16_linear_59_821)"/><path d="M277.614 257.404c0-1.999-16.299-3.598-36.373-3.598-20.073 0-37.482 1.599-37.482 3.598 0 1.998 17.409 3.597 37.482 3.597 20.074 0 36.373-1.599 36.373-3.597z" fill="url(#paint17_linear_59_821)" stroke="#fff" stroke-width="4" stroke-miterlimit="10"/><path d="M206.912 259.624v6.573m5.24-5.418v5.995m5.019-5.196v5.818m5.329-5.418v5.818m5.729-5.418v5.817m5.729-5.418v5.418m5.329-5.418v5.418m5.329-5.418v5.418m5.596-5.418v5.418m5.418-6.217v5.818m6.085-6.218v5.818m5.729-6.218v5.818m5.329-6.617v6.218m4.086-7.373v6.973" opacity=".82" stroke="#fff" stroke-width="3" stroke-miterlimit="10" stroke-linecap="round"/><path d="M281.61 255.272c0 .533-.399 1.021-.888 1.066a280.236 280.236 0 01-36.416 2.265c-13.102 0-25.048-.933-35.662-2.265-.533-.045-.888-.533-.888-1.066v-8.616h73.854v8.616z" fill="url(#paint18_linear_59_821)" stroke="#FF7900" stroke-width="3" stroke-miterlimit="10"/><path opacity=".44" d="M281.61 255.272c0 .533-.399 1.021-.888 1.066a280.236 280.236 0 01-36.416 2.265c-13.102 0-25.048-.933-35.662-2.265-.533-.045-.888-.533-.888-1.066v-8.616h73.854v8.616z" fill="url(#paint19_linear_59_821)"/><path d="M281.61 245.546c0-2.576-16.298-4.707-36.372-4.707-20.073 0-37.482 2.087-37.482 4.707 0 2.576 17.409 4.708 37.482 4.708 20.074 0 36.372-2.132 36.372-4.708z" fill="url(#paint20_linear_59_821)" stroke="#fff" stroke-width="4" stroke-miterlimit="10"/><path d="M210.909 248.832v6.618m5.196-5.418v5.995m5.063-5.196v5.818m5.329-5.418v5.817m5.729-5.418v5.818m5.685-5.418v5.418m5.329-5.418v5.418m5.329-5.418v5.418m5.64-5.418v5.418m5.418-6.217v5.817m6.084-6.217v5.818m5.729-6.218v5.818m5.33-6.617v6.217m4.085-7.416v7.017" opacity=".82" stroke="#fff" stroke-width="3" stroke-miterlimit="10" stroke-linecap="round"/><path d="M112.184 319.312c0 .533.4 1.021.888 1.066a280.252 280.252 0 0036.417 2.265c13.101 0 25.048-.933 35.662-2.265.533-.045.888-.533.888-1.066v-8.616h-73.855v8.616z" fill="url(#paint21_linear_59_821)" stroke="#FF7900" stroke-width="3" stroke-miterlimit="10"/><path opacity=".44" d="M112.184 319.312c0 .533.4 1.021.888 1.066a280.252 280.252 0 0036.417 2.265c13.101 0 25.048-.933 35.662-2.265.533-.045.888-.533.888-1.066v-8.616h-73.855v8.616z" fill="url(#paint22_linear_59_821)"/><path d="M112.184 310.741c0-1.999 16.299-3.598 36.372-3.598 20.074 0 37.483 1.599 37.483 3.598 0 1.998-17.409 3.597-37.483 3.597-20.073 0-36.372-1.643-36.372-3.597z" fill="url(#paint23_linear_59_821)" stroke="#fff" stroke-width="4" stroke-miterlimit="10"/><path d="M182.886 312.917v6.573m-5.241-5.374v5.951m-5.018-5.152v5.774m-5.329-5.374v5.773m-5.729-5.373v5.773m-5.685-5.374v5.374m-5.329-5.374v5.374m-5.374-5.374v5.374m-5.596-5.374v5.374m-5.418-6.173v5.773m-6.084-6.173v5.774m-5.729-6.173v5.773m-5.329-6.573v6.173m-4.086-7.372v6.973" opacity=".82" stroke="#fff" stroke-width="3" stroke-miterlimit="10" stroke-linecap="round"/><path d="M109.786 308.565c0 .532.4 1.021.888 1.065a280.076 280.076 0 0036.417 2.265c13.101 0 25.047-.932 35.661-2.265.533-.044.889-.533.889-1.065v-8.616h-73.855v8.616z" fill="url(#paint24_linear_59_821)" stroke="#FF7900" stroke-width="3" stroke-miterlimit="10"/><path opacity=".44" d="M109.786 308.565c0 .532.4 1.021.888 1.065a280.076 280.076 0 0036.417 2.265c13.101 0 25.047-.932 35.661-2.265.533-.044.889-.533.889-1.065v-8.616h-73.855v8.616z" fill="url(#paint25_linear_59_821)"/><path d="M109.786 299.993c0-1.998 16.299-3.597 36.372-3.597 20.074 0 37.483 1.599 37.483 3.597 0 1.999-17.409 3.598-37.483 3.598-20.073 0-36.372-1.644-36.372-3.598z" fill="url(#paint26_linear_59_821)" stroke="#fff" stroke-width="4" stroke-miterlimit="10"/><path d="M180.488 302.169v6.573m-5.196-5.373v5.951m-5.063-5.152v5.773m-5.33-5.373v5.773m-5.729-5.374v5.774m-5.684-5.374v5.374m-5.329-5.374v5.374m-5.33-5.374v5.374m-5.64-5.374v5.374m-5.418-6.173v5.773m-6.084-6.173v5.773m-5.729-6.173v5.774m-5.329-6.573v6.173m-4.086-7.372v6.972" opacity=".82" stroke="#fff" stroke-width="3" stroke-miterlimit="10" stroke-linecap="round"/><path d="M112.184 297.817c0 .533.4 1.022.888 1.066a280.252 280.252 0 0036.417 2.265c13.101 0 25.048-.933 35.662-2.265.533-.044.888-.533.888-1.066v-8.571h-73.855v8.571z" fill="url(#paint27_linear_59_821)" stroke="#FF7900" stroke-width="3" stroke-miterlimit="10"/><path opacity=".44" d="M112.184 297.817c0 .533.4 1.022.888 1.066a280.252 280.252 0 0036.417 2.265c13.101 0 25.048-.933 35.662-2.265.533-.044.888-.533.888-1.066v-8.571h-73.855v8.571z" fill="url(#paint28_linear_59_821)"/><path d="M112.184 289.246c0-1.999 16.299-3.597 36.372-3.597 20.074 0 37.483 1.598 37.483 3.597 0 1.998-17.409 3.597-37.483 3.597-20.073 0-36.372-1.643-36.372-3.597z" fill="url(#paint29_linear_59_821)" stroke="#fff" stroke-width="4" stroke-miterlimit="10"/><path d="M182.886 291.422v6.573m-5.241-5.374v5.951m-5.018-5.151v5.773m-5.329-5.374v5.774m-5.729-5.374v5.773m-5.685-5.373v5.373m-5.329-5.373v5.373m-5.374-5.373v5.373m-5.596-5.373v5.373m-5.418-6.173v5.774m-6.084-6.173v5.773m-5.729-6.173v5.773m-5.329-6.572v6.173m-4.086-7.373v6.973" opacity=".82" stroke="#fff" stroke-width="3" stroke-miterlimit="10" stroke-linecap="round"/><path d="M111.385 287.07c0 .533.399 1.021.888 1.066a280.429 280.429 0 0036.417 2.265c13.101 0 25.047-.933 35.661-2.265.533-.045.889-.533.889-1.066v-8.616h-73.855v8.616z" fill="url(#paint30_linear_59_821)" stroke="#FF7900" stroke-width="3" stroke-miterlimit="10"/><path opacity=".44" d="M111.385 287.07c0 .533.399 1.021.888 1.066a280.429 280.429 0 0036.417 2.265c13.101 0 25.047-.933 35.661-2.265.533-.045.889-.533.889-1.066v-8.616h-73.855v8.616z" fill="url(#paint31_linear_59_821)"/><path d="M111.385 278.499c0-1.999 16.298-3.598 36.372-3.598s37.483 1.599 37.483 3.598c0 1.998-17.409 3.597-37.483 3.597-20.074 0-36.372-1.643-36.372-3.597z" fill="url(#paint32_linear_59_821)" stroke="#fff" stroke-width="4" stroke-miterlimit="10"/><path d="M182.086 280.675v6.572m-5.24-5.373v5.951m-5.019-5.152v5.773m-5.329-5.373v5.773m-5.729-5.373v5.773m-5.684-5.374v5.374m-5.33-5.374v5.374m-5.329-5.374v5.374m-5.64-5.374v5.374m-5.418-6.173v5.773m-6.084-6.173v5.773m-5.729-6.173v5.774m-5.33-6.573v6.173m-4.085-7.372v6.972" opacity=".82" stroke="#fff" stroke-width="3" stroke-miterlimit="10" stroke-linecap="round"/><path d="M116.536 276.323c0 .532.4 1.021.889 1.065a280.048 280.048 0 0036.416 2.265c13.101 0 25.048-.932 35.662-2.265.533-.044.888-.533.888-1.065v-8.616h-73.855v8.616z" fill="url(#paint33_linear_59_821)" stroke="#FF7900" stroke-width="3" stroke-miterlimit="10"/><path opacity=".44" d="M116.536 276.323c0 .532.4 1.021.889 1.065a280.048 280.048 0 0036.416 2.265c13.101 0 25.048-.932 35.662-2.265.533-.044.888-.533.888-1.065v-8.616h-73.855v8.616z" fill="url(#paint34_linear_59_821)"/><path d="M116.536 267.707c0-1.999 16.299-3.597 36.373-3.597 20.073 0 37.482 1.598 37.482 3.597 0 1.998-17.409 3.597-37.482 3.597-20.074 0-36.373-1.599-36.373-3.597z" fill="url(#paint35_linear_59_821)" stroke="#fff" stroke-width="4" stroke-miterlimit="10"/><path d="M187.282 269.927v6.573m-5.24-5.374v5.951m-5.063-5.151v5.773m-5.329-5.373v5.773m-5.685-5.418v5.818m-5.729-5.418v5.418m-5.329-5.418v5.418m-5.329-5.418v5.418m-5.596-5.418v5.418m-5.462-6.173v5.773m-6.085-6.173v5.773m-5.684-6.173v5.773m-5.33-6.572v6.173m-4.085-7.372v6.972" opacity=".82" stroke="#fff" stroke-width="3" stroke-miterlimit="10" stroke-linecap="round"/><path d="M85.538 319.312c0 .533-.4 1.021-.888 1.066a280.245 280.245 0 01-36.417 2.265c-13.101 0-25.048-.933-35.662-2.265-.533-.045-.888-.533-.888-1.066v-8.616h73.855v8.616z" fill="url(#paint36_linear_59_821)" stroke="#FF7900" stroke-width="3" stroke-miterlimit="10"/><path opacity=".44" d="M85.538 319.312c0 .533-.4 1.021-.888 1.066a280.245 280.245 0 01-36.417 2.265c-13.101 0-25.048-.933-35.662-2.265-.533-.045-.888-.533-.888-1.066v-8.616h73.855v8.616z" fill="url(#paint37_linear_59_821)"/><path d="M85.538 310.741c0-1.999-16.299-3.598-36.372-3.598-20.074 0-37.483 1.599-37.483 3.598 0 1.998 17.409 3.597 37.483 3.597 20.073 0 36.372-1.643 36.372-3.597z" fill="url(#paint38_linear_59_821)" stroke="#fff" stroke-width="4" stroke-miterlimit="10"/><path d="M14.792 312.917v6.573m5.24-5.374v5.951m5.063-5.152v5.774m5.329-5.374v5.773m5.729-5.373v5.773m5.685-5.374v5.374m5.329-5.374v5.374m5.329-5.374v5.374m5.64-5.374v5.374m5.419-6.173v5.773m6.084-6.173v5.774m5.729-6.173v5.773m5.329-6.573v6.173m4.086-7.372v6.973" opacity=".82" stroke="#fff" stroke-width="3" stroke-miterlimit="10" stroke-linecap="round"/><path d="M87.936 308.565c0 .532-.4 1.021-.888 1.065a280.068 280.068 0 01-36.417 2.265c-13.1 0-25.047-.932-35.661-2.265-.533-.044-.889-.533-.889-1.065v-8.616h73.855v8.616z" fill="url(#paint39_linear_59_821)" stroke="#FF7900" stroke-width="3" stroke-miterlimit="10"/><path opacity=".44" d="M87.936 308.565c0 .532-.4 1.021-.888 1.065a280.068 280.068 0 01-36.417 2.265c-13.1 0-25.047-.932-35.661-2.265-.533-.044-.889-.533-.889-1.065v-8.616h73.855v8.616z" fill="url(#paint40_linear_59_821)"/><path d="M87.936 299.993c0-1.998-16.299-3.597-36.372-3.597-20.074 0-37.483 1.599-37.483 3.597 0 1.999 17.41 3.598 37.483 3.598 20.073 0 36.372-1.644 36.372-3.598z" fill="url(#paint41_linear_59_821)" stroke="#fff" stroke-width="4" stroke-miterlimit="10"/><path d="M17.19 302.169v6.573m5.24-5.373v5.951m5.063-5.152v5.773m5.329-5.373v5.773m5.685-5.374v5.774m5.729-5.374v5.374m5.329-5.374v5.374m5.33-5.374v5.374m5.595-5.374v5.374m5.463-6.173v5.773m6.084-6.173v5.773m5.684-6.173v5.774m5.329-6.573v6.173m4.13-7.372v6.972" opacity=".82" stroke="#fff" stroke-width="3" stroke-miterlimit="10" stroke-linecap="round"/><path d="M85.538 297.817c0 .533-.4 1.022-.888 1.066a280.245 280.245 0 01-36.417 2.265c-13.101 0-25.048-.933-35.662-2.265-.533-.044-.888-.533-.888-1.066v-8.571h73.855v8.571z" fill="url(#paint42_linear_59_821)" stroke="#FF7900" stroke-width="3" stroke-miterlimit="10"/><path opacity=".44" d="M85.538 297.817c0 .533-.4 1.022-.888 1.066a280.245 280.245 0 01-36.417 2.265c-13.101 0-25.048-.933-35.662-2.265-.533-.044-.888-.533-.888-1.066v-8.571h73.855v8.571z" fill="url(#paint43_linear_59_821)"/><path d="M85.538 289.246c0-1.999-16.299-3.597-36.372-3.597-20.074 0-37.483 1.598-37.483 3.597 0 1.998 17.409 3.597 37.483 3.597 20.073 0 36.372-1.643 36.372-3.597z" fill="url(#paint44_linear_59_821)" stroke="#fff" stroke-width="4" stroke-miterlimit="10"/><path d="M14.792 291.422v6.573m5.24-5.374v5.951m5.063-5.151v5.773m5.329-5.374v5.774m5.729-5.374v5.773m5.685-5.373v5.373m5.329-5.373v5.373m5.329-5.373v5.373m5.64-5.373v5.373m5.419-6.173v5.774m6.084-6.173v5.773m5.729-6.173v5.773m5.329-6.572v6.173m4.086-7.373v6.973" opacity=".82" stroke="#fff" stroke-width="3" stroke-miterlimit="10" stroke-linecap="round"/><path opacity=".35" d="M270.908 322.11c2.087-.355 5.018-.089 7.105-.444.711 0 2.132-1.022 2.221-1.777.089-2.709-.444-2.842-.355-5.551.355-1.554-.223-2.221.355-3.331.044-.133 1.465-.266 1.465-.444l.311-6.217c0-.844.311-3.997-.444-3.997-.888 0-1.954-.4-1.776-1.333l.444-7.105c0-.089-.533-3.464.444-2.665l.089-11.058c0-.533-.089-.222-.533-.489-.666-.399-1.421-.844-2.665-.888-.222 0-1.154-.444-1.332-.444-.844.089-1.244-1.022-1.199-1.954l.355-5.463c.044-.355 1.022-1.243 1.288-1.51l.622-1.021c.266-.266.399-.577.444-.977l.71-8.172c1.333.178 2.665-.621 3.997-.444-.044-2.664 0-5.773 0-10.214-.133-.8.444-1.777-1.332-3.109-5.418-4.086-33.93-5.596-45.743-4.885 12.169 28.734 23.36 54.758 35.529 83.492z" fill="#FF8939"/><path d="M215.305 241.327c.667-.178 1.333-.355 1.955-.666 3.552-1.51 3.508-3.464 3.464-5.196l-.533-20.651c-.089-4.13 0-8.216.266-12.302l.711-9.637h22.516c.089 3.686.444 19.896-2.532 32.997-1.154 4.974-2.664 9.06-5.595 12.879-1.51 1.999-3.109 3.464-4.353 4.53-.532.444-1.154.711-1.82.844h-.089a37.629 37.629 0 01-5.907.622c-5.151.133-10.347.222-15.499.355-.222 0-.444-.133-.577-.355-.134-.267-.178-.578-.089-.844.089-.355.399-.622.71-.711l7.372-1.865z" fill="#FD7C6A"/><path d="M225.52 240.705c-.533.089-1.377.222-2.398.4-5.152.888-6.928 1.332-7.328 2.398-.045.133-.222.533 0 .888.311.533 1.199.444 1.332.444m2.265-1.332v1.022m-9.548-.8v-.933" stroke="#4D0678" stroke-width="2" stroke-miterlimit="10" stroke-linecap="round"/><path d="M222.944 244.747c-5.152.133-10.348.222-15.499.355-.222 0-.444-.133-.578-.355-.133-.267-.177-.578-.088-.844.088-.355.399-.622.71-.711l7.328-1.865c.666-.178 1.332-.355 1.954-.666 3.553-1.51 3.508-3.464 3.464-5.196l-.533-20.651c-.089-4.13 0-8.216.267-12.302l.666-9.637" stroke="#4D0678" stroke-width="2" stroke-miterlimit="10" stroke-linecap="round"/><path d="M283.564 167.028c.933-5.995 4.042-10.17 5.818-12.168l4.175 1.865c3.686-12.124 7.372-24.293 11.102-36.417.134-.399.267-.755.489-1.066.222-.31.488-.621.888-.932 1.11-.844 2.398-.888 3.02-.844.178 0 .355-.089.4-.267 1.066-3.597 2.131-7.194 3.242-10.791.355-.711.844-1.244 1.243-1.199.489.044.977 1.021.844 2.398-.266 3.286-.489 6.528-.755 9.815 2.976 1.332 7.283 3.819 8.305 8.082.444 1.777.133 3.287-.045 3.997a3133.593 3133.593 0 01-9.992 40.325c-.888 3.42-1.732 6.839-2.62 10.259-1.421 5.596-7.461 8.971-13.279 7.372l-15.322-6.573 2.487-13.856z" fill="#FD7C6A"/><path d="M291.781 163.564c3.686-12.124 9.148-31.132 12.879-43.256.133-.399.266-.755.488-1.066.222-.31.489-.621.888-.932 1.111-.844 2.398-.888 3.02-.844.178 0 .356-.089.4-.267 1.066-3.597 2.132-7.194 3.242-10.791.355-.711.844-1.244 1.243-1.199.489.044.977 1.021.844 2.398-.266 3.286-.488 6.528-.755 9.815 2.976 1.332 7.284 3.819 8.305 8.082.444 1.777.133 3.287-.044 3.997a3133.629 3133.629 0 01-9.993 40.325c-.888 3.42-1.732 6.839-2.62 10.259" stroke="#4D0678" stroke-width="2" stroke-miterlimit="10" stroke-linecap="round"/><path d="M307.813 130.167c.399-.621 1.732-2.975 1.199-5.951a8.497 8.497 0 00-1.51-3.464c-.045-.044 0-.088.044-.088a5.316 5.316 0 001.466 0c1.11-.222 2.487-1.022 2.798-2.399.089-.355.089-.666.044-.888 0-.177-.178-.266-.311-.266-.977.133-3.686.577-4.663.71" stroke="#4D0678" stroke-width="2" stroke-miterlimit="10" stroke-linecap="round"/><path d="M308.257 117.821l.71.711a.68.68 0 00.445.178h.532" stroke="#4D0678" stroke-width="2" stroke-miterlimit="10" stroke-linecap="round"/><path d="M324.067 125.282c.622-.888.4-1.954-.444-2.398-.533-.311-1.11-.178-1.288-.133.178-.977-.266-1.865-.977-2.132-.622-.222-1.243.045-1.421.133 0 0-.045 0-.045-.044a1.841 1.841 0 00-.532-1.821c-.533-.444-1.244-.533-1.91-.222 0 0-.045 0-.045-.044.045-.222.178-.977-.31-1.599a1.888 1.888 0 00-.889-.666c-.71-.267-1.554.088-2.042.799l-3.198 4.708a1.603 1.603 0 00.222 1.776c.489.533 1.466.533 2.132 0 .044 0 .044 0 .044.044-.488.8-.4 1.732.133 2.265.622.578 1.821.533 2.576-.222 0 0 .045 0 .045.045-.4.755-.267 1.687.266 2.176.666.577 1.954.444 2.62-.489h.045c-.045.267-.089.844.266 1.333.133.133.267.266.444.355.755.4 1.732.044 2.31-.755l1.998-3.109z" fill="#FD7C6A"/><path d="M311.01 121.818s0 .045 0 0c-.311.622-.222 1.377.222 1.777.489.533 1.466.533 2.132 0 .044 0 .044 0 .044.044-.488.799-.399 1.732.134 2.265.621.577 1.82.533 2.575-.222 0 0 .045 0 .045.044-.4.755-.267 1.688.266 2.176.666.578 1.954.445 2.621-.488h.044c-.044.266-.089.844.266 1.332.134.134.267.267.445.356.754.399 1.732.044 2.309-.755l2.043-3.02c.622-.889.399-1.954-.444-2.398-.533-.311-1.111-.178-1.288-.134" stroke="#4D0678" stroke-width="2" stroke-miterlimit="10" stroke-linecap="round"/><path d="M305.459 293.332l-20.873-7.95 24.248-58.577 20.74 9.859-24.115 56.668z" fill="#FD7C6A"/><path d="M305.015 294.264l-20.429-8.882 7.639-17.897 14.611 22.916-1.821 3.863z" fill="#fff"/><path d="M278.724 296.707l8.837-18.83 11.68 12.613 1.377-1.2c1.022-.888 2.576-1.11 3.864-.532.844.355 1.643.71 2.487 1.11a125.955 125.955 0 016.484 3.153c.311.178.133.622-.222.577-1.821-.222-3.598.178-4.841 1.111a4.62 4.62 0 00-1.554 1.954c-.178.444-.311.888-.356 1.332-.222 1.421-.266 3.153.089 5.152.888 4.885 3.908 8.216 5.685 9.859.355.311.666.666.888 1.066.4.71.844 1.82.888 3.153 0 .266 0 .533-.044.755-.134 1.554-.889 3.02-2.043 4.219-.711.71-1.421 1.465-2.132 2.176a.752.752 0 01-1.021.044l-29.711-25.625c-.533-.533-.711-1.376-.355-2.087z" fill="#4D0678"/><path d="M314.519 321.666l-5.596 4.841-34.996-30.2 5.596-4.84 34.996 30.199zm-23.533-24.884c2.158-.572 3.371-3.054 2.711-5.543-.66-2.49-2.945-4.044-5.102-3.471-2.158.572-3.371 3.054-2.711 5.543.66 2.49 2.945 4.044 5.102 3.471z" fill="#fff"/><path d="M298.176 299.105c.888-.444 2.531-1.066 4.663-1.199a13.696 13.696 0 015.595.8m-6.039 5.64c.444-.311 2.042-1.377 4.219-1.199.755.044 1.421.266 1.865.444m-9.06-13.057c-.222.666-.533 1.865-.311 3.331.133 1.066.533 1.865.8 2.398" stroke="#fff" stroke-width="2" stroke-miterlimit="10" stroke-linecap="round"/><path d="M360.795 301.681l-16.432 14.167-41.302-52.538 18.341-10.791 39.393 49.162z" fill="#FD7C6A"/><path d="M361.416 302.525l-17.053 13.323-10.348-13.057 24.781-3.775 2.62 3.509z" fill="#fff"/><path d="M340.188 323.575l.355-12.568 12.169-6.883.311-1.955c.222-1.421 1.376-2.709 2.842-3.153.933-.266 1.865-.533 2.842-.799 2.62-.711 5.152-1.332 7.594-1.91.4-.089.533.4.222.622-1.643 1.11-2.842 2.62-3.197 4.308a4.92 4.92 0 00.089 2.709c.133.488.355.933.621 1.377a16.385 16.385 0 003.687 4.219c4.174 3.419 9.015 4.085 11.635 4.219a8.225 8.225 0 011.51.266c.844.311 1.999.888 2.976 1.999l.533.666c.977 1.376 1.376 3.108 1.287 4.929-.044 1.111-.133 2.176-.177 3.287-.045.399-.356.311-.8.311l-42.634-.178c-.932-.044-1.687-.622-1.865-1.466z" fill="#4D0678"/><path d="M387.441 320.245l-1.155 7.327-49.873-.799 1.199-7.328 49.829.8z" fill="#fff"/><path d="M360.35 313.583c.4-.888 1.244-2.442 2.754-3.908 1.865-1.821 3.819-2.62 4.796-2.976m-.932 8.172c.133-.533.666-2.354 2.398-3.642a5.59 5.59 0 011.732-.844m-18.031-5.684c.045.71.222 2.753 1.821 4.263.755.711 1.599 1.111 2.176 1.333" stroke="#fff" stroke-width="2" stroke-miterlimit="10" stroke-linecap="round"/><path d="M361.194 282.229l-31.975 15.277-52.538-67.859 27.979-21.583 56.534 74.165z" fill="#2D0649"/><path d="M361.194 282.229l-31.975 15.277-52.538-67.859" stroke="#FD7C6A" stroke-width="2" stroke-miterlimit="10" stroke-linecap="round"/><path d="M292.846 265.264c12.702 7.861 16.654 10.481 27.18 17.454 7.727-18.786 20.828-43.656 28.556-62.441 4.53-11.059 2.265-24.737-6.351-32.109-4.041-3.464-9.015-4.752-13.634-5.019-5.862-.355-11.725.933-16.965 3.598l-72.611 36.505a35.633 35.633 0 005.951 10.303c3.997 4.752 8.704 7.728 13.056 9.637 6.262 2.754 13.457 2.443 19.541-.666 10.259-5.24 20.473-10.481 30.732-15.721-4.308 10.747-11.058 27.756-15.455 38.459z" fill="#2D0649"/><path d="M245.061 233.555c3.996 4.752 8.704 7.728 13.056 9.637 6.262 2.754 13.457 2.443 19.541-.666 10.259-5.24 20.473-10.481 30.732-15.721-4.397 10.703-2.443 5.951-6.795 16.654l-8.704 21.761 27.179 17.453 5.018-11.546m-17.764-41.658l7.017-16.121" stroke="#FD7C6A" stroke-width="2" stroke-miterlimit="10" stroke-linecap="round"/><path d="M294.889 195.54c-16.432 8.438-21.583 10.969-24.87 13.767a29.103 29.103 0 00-2.575 2.487c-1.688 1.688-9.06 17.453-15.766 24.559-5.596 5.907-13.679 6.662-17.32 7.328-.489.089-.844-.4-.666-.844 2.753-6.528 5.595-15.1 7.061-25.358a102.42 102.42 0 00.977-17.01c-1.244-.666-2.665-1.243-4.175-1.776-6.528-2.221-12.568-1.821-16.654-1.11-.355.044-.621-.222-.621-.578.399-3.775.755-7.239 1.11-10.392.533-4.796.71-6.084 1.377-7.727 1.687-4.042 4.618-6.617 6.794-7.861a21929.74 21929.74 0 0132.953-19.052 24.046 24.046 0 0123.493-.311c1.91 1.066 3.864 2.087 5.774 3.153-2.088 2.576-5.241 8.66-6.84 14.212-.666 2.309-.621 2.487-.799 4.352l1.688 6.04a35.573 35.573 0 004.219 9.903 35.213 35.213 0 004.84 6.218z" fill="#C2E202"/><path d="M255.808 162.987c1.554.844 3.42.577 4.486-.622.444-.488.71-1.066.799-1.688a3.574 3.574 0 00-.622-2.575c-.577-.8-1.11-1.599-1.687-2.399m-4.974 8.083c.133 1.732-.889 3.331-2.443 3.775a3.778 3.778 0 01-1.865.044c-.888-.222-1.599-.843-2.088-1.643-.488-.843-1.021-1.687-1.509-2.531m-4.308 43.655c.044-1.554.044-4.974 0-6.661a82.872 82.872 0 00-.755-9.282m54.047 4.397c-5.596-6.307-7.683-11.547-8.482-15.322-.311-1.51-.711-3.908-2.176-6.884-1.732-3.552-4.042-5.995-5.774-7.549" stroke="#fff" stroke-width="2" stroke-miterlimit="10" stroke-linecap="round"/><path d="M255.364 156.458c-10.97 6.351-14.833 8.216-25.847 14.567-2.176 1.244-5.107 3.819-6.795 7.861-.666 1.643-.844 2.931-1.377 7.727-.355 3.242-.755 6.795-1.154 10.659 0 .222.177.399.355.355 4.041-.755 10.214-1.199 16.92 1.066a33.675 33.675 0 014.175 1.776 102.42 102.42 0 01-.977 17.01c-1.466 10.258-4.308 18.83-7.061 25.358-.178.444.177.933.666.844 4.174-.755 12.968-2.088 17.32-7.328 1.865-2.221 2.842-3.953 4.93-7.106 2.264-3.419 4.396-6.928 6.261-10.569 1.111-2.177 3.154-7.284 7.595-10.259" stroke="#fff" stroke-width="2" stroke-miterlimit="10" stroke-linecap="round"/><path d="M291.736 154.771c-2.087 2.576-5.24 8.66-6.839 14.211-.666 2.31-.622 2.487-.8 4.352" stroke="#fff" stroke-width="2" stroke-miterlimit="10"/><path d="M253.499 162.365c2.131-1.066 3.019-3.686 1.909-5.818l-5.018-9.903-7.772 3.908 5.018 9.903c1.066 2.088 3.686 2.976 5.863 1.91z" fill="#FD7C6A"/><path d="M246.792 159.167c.134.445.4 1.066.844 1.688.267.4.844 1.244 1.732 1.688 1.732.932 3.82-.045 4.13-.222 2.132-1.066 2.976-3.775 1.821-6.04a44.982 44.982 0 01-.755-1.466l-4.174-8.216" stroke="#fff" stroke-width="2" stroke-miterlimit="10" stroke-linecap="round"/><path d="M252.655 150.729l-6.218 7.328-2.576-5.107 7.905-3.953.889 1.732z" fill="#4D0678"/><path d="M232.093 152.373a2.976 2.976 0 10-.002-5.952 2.976 2.976 0 00.002 5.952z" fill="#FD7C6A" stroke="#4D0678" stroke-width="2" stroke-miterlimit="10"/><path d="M229.872 140.471c0 1.82.711 3.242 1.777 5.284 1.332 2.621 3.02 5.951 6.795 7.683 3.33 1.51 8.038 1.644 11.99-.888.622-.399 4.752-3.108 5.596-7.949.533-2.976-.444-5.285-1.377-7.372-1.288-2.887-3.775-8.572-9.104-9.593-7.239-1.332-15.721 6.617-15.677 12.835z" fill="#FD7C6A"/><path d="M242.663 154.415c1.154.045 4.441.223 7.727-1.82.755-.489 4.752-3.109 5.596-7.95.533-2.975-.444-5.285-1.377-7.372-1.288-2.887-3.775-8.571-9.104-9.593-7.195-1.421-15.677 6.573-15.633 12.791 0 1.82.711 3.242 1.777 5.284.932 1.866 1.954 4.175 4.263 6.085" stroke="#4D0678" stroke-width="2" stroke-miterlimit="10" stroke-linecap="round"/><path d="M246.926 145.622l4.13-.932c.089 0 .178.044.222.133.178.533.489 2.176-.444 3.419-.489.622-1.421.844-2.132.489a.98.98 0 01-.222-.133c-1.332-.755-1.599-2.265-1.643-2.798-.044-.089 0-.178.089-.178z" fill="#F4F4F4"/><path d="M230.716 128.968c-.977-1.598-5.907-9.504-14.744-10.703-4.708-.621-8.527.889-11.147 1.999-9.904 4.13-8.971 10.081-16.743 13.057-7.95 3.064-12.302-1.91-20.696 1.998-2.176.977-3.952 2.265-5.373 3.553-2.976 2.664-4.575 6.661-3.953 10.614.178 1.288.622 2.665 1.377 4.041 1.865 3.376 4.841 4.974 6.662 5.685a7.654 7.654 0 002.664.488c5.463.089 11.68-.843 16.965-4.574 8.394-5.995 6.706-13.59 16.743-22.605 3.153-2.798 10.925-9.77 18.697-7.55 4.707 1.333 7.461 5.507 8.704 7.683.267-1.199.577-2.442.844-3.686z" fill="#2D0649"/><path d="M230.716 128.968c-.977-1.598-5.907-9.504-14.744-10.703-4.708-.621-8.527.889-11.147 1.999-9.904 4.13-8.971 10.081-16.743 13.057-7.95 3.064-12.302-1.91-20.696 1.998" stroke="#fff" stroke-width="2" stroke-miterlimit="10" stroke-linecap="round"/><path d="M232.093 130.612l-.8 1.021c-.755.933-2.132 1.11-3.064.355l-.311-.266c-.933-.755-1.11-2.132-.355-3.065l.799-1.021c.755-.933 2.132-1.11 3.064-.355l.311.266a2.15 2.15 0 01.356 3.065z" fill="#C2E202"/><path d="M227.918 131.722c-.933-.755-1.11-2.132-.355-3.065l.799-1.021c.755-.933 2.132-1.11 3.064-.355l.311.266" stroke="#4D0678" stroke-width="2" stroke-miterlimit="10" stroke-linecap="round"/><path d="M236.889 138.294c.178.178.755 1.155.4 2.354-.133.533-.444.933-.711 1.199-.089.089 0 .267.133.222 2.265-.71 5.108-1.954 7.728-4.174 2.043-1.688 4.397-3.686 4.397-6.351 0-.933-.311-1.821 0-1.998.666-.311 2.797 3.375 3.197 3.153.267-.133-.133-1.999-1.199-3.553-2.443-3.597-8.127-4.93-12.746-3.953-1.066.222-4.396.977-7.15 3.953-.444.444-3.153 3.508-3.375 8.127-.355 7.061 5.596 11.636 6.173 12.08a12.788 12.788 0 01.799-7.55c.666-1.554 1.599-2.709 2.354-3.509z" fill="#2D0649"/><path d="M248.835 129.59c.667-.311 2.798 3.375 3.198 3.153.266-.133-.133-1.998-1.199-3.553-2.443-3.597-8.127-4.974-12.746-3.952-1.288.266-3.508.977-5.818 2.842" stroke="#fff" stroke-width="2" stroke-miterlimit="10" stroke-linecap="round"/><path d="M247.503 139.138a4.608 4.608 0 01-.488-2.043c0-2.487 2.087-4.574 4.574-4.574 2.487 0 4.574 2.043 4.574 4.574 0 2.532-2.087 4.575-4.574 4.575-.444 0-.933-.089-1.377-.222" stroke="#4D0678" stroke-width="2" stroke-miterlimit="10" stroke-linecap="round"/><path d="M246.881 138.916c.755.444 1.555.888 2.31 1.377.621.355.888 1.11.621 1.776l-.31.889" stroke="#4D0678" stroke-width="2" stroke-miterlimit="10" stroke-linecap="round"/><path d="M244.006 143.508c.503-.197.65-1.022.329-1.845s-.988-1.33-1.491-1.134c-.503.196-.65 1.022-.329 1.844.321.823.989 1.331 1.491 1.135zm7.501-4.574c.503-.196.65-1.022.329-1.844-.321-.823-.989-1.331-1.491-1.134-.503.196-.65 1.022-.33 1.844.321.823.989 1.331 1.492 1.134z" fill="#2D0649"/><path d="M243.24 147.221a4.574 4.574 0 100-9.148 4.574 4.574 0 000 9.148z" stroke="#4D0678" stroke-width="2" stroke-miterlimit="10" stroke-linecap="round"/><path d="M4 324.02h283.117m17.143 0h95.527" stroke="#fff" stroke-width="7" stroke-miterlimit="10" stroke-linecap="round"/><path d="M114.316 308.254c.177.044.177.311 0 .4-.8.222-1.91.71-2.887 1.731a6.685 6.685 0 00-1.599 2.843c-.044.177-.355.222-.399 0-.222-.8-.622-1.821-1.555-2.798-.977-1.022-2.176-1.51-3.02-1.732-.177-.045-.177-.355 0-.4a6.003 6.003 0 002.621-1.377c1.154-1.021 1.687-2.264 1.954-3.197.044-.222.355-.222.399 0a6.244 6.244 0 001.821 3.109c.933.843 1.91 1.199 2.665 1.421zm101.522-19.408c.489-.089.755.533.356.844-1.555 1.288-3.553 3.375-4.708 6.484-1.11 2.975-1.021 5.729-.711 7.683.089.489-.532.755-.843.4a15.719 15.719 0 00-6.218-4.708 15.388 15.388 0 00-8.482-1.021c-.489.089-.755-.578-.356-.844a14.077 14.077 0 004.442-5.418c1.598-3.331 1.51-6.573 1.154-8.749-.089-.489.533-.755.844-.4 1.377 1.732 3.686 3.908 7.15 5.107 2.887.978 5.463.933 7.372.622zm-122.839 1.155c.31.222.089.711-.267.622-1.51-.222-3.686-.178-5.995.799a10.987 10.987 0 00-4.575 3.597c-.222.311-.71.089-.666-.266.222-1.51.222-3.553-.621-5.818-.933-2.487-2.532-4.174-3.82-5.196-.31-.222-.089-.71.267-.622 1.376.222 3.242.311 5.24-.355 2.665-.844 4.397-2.576 5.374-3.908.222-.311.71-.089.666.266-.222 1.644-.222 4.042.933 6.529a12.528 12.528 0 003.464 4.352zm103.343-24.781c.267 0 .355.355.133.488-.932.578-2.176 1.555-3.02 3.154-.843 1.554-.977 3.02-.977 4.085 0 .267-.355.356-.488.134-.578-.933-1.51-2.132-2.976-3.02-1.643-.977-3.33-1.199-4.53-1.199-.266 0-.355-.356-.133-.489a7.837 7.837 0 002.798-2.576 7.934 7.934 0 001.288-4.663c0-.266.355-.4.488-.133.622 1.066 1.688 2.398 3.465 3.286a8.696 8.696 0 003.952.933zm83.314-197.227c.222-.045.356.266.178.444-.8.577-1.777 1.554-2.443 3.064-.621 1.421-.621 2.753-.533 3.73.045.223-.266.356-.399.178-.578-.8-1.51-1.732-2.931-2.443-1.555-.754-3.02-.799-4.131-.71-.222.044-.355-.31-.177-.444.755-.533 1.643-1.332 2.265-2.532a7.118 7.118 0 00.755-4.219c-.045-.266.266-.355.444-.177a7.108 7.108 0 003.375 2.62c1.377.577 2.665.577 3.597.489zm63.507-17.143c.267.222.045.666-.31.622-1.422-.267-3.509-.4-5.818.4a10.59 10.59 0 00-4.619 3.197c-.222.267-.666.044-.622-.31.267-1.422.4-3.42-.266-5.64a11.65 11.65 0 00-3.375-5.241c-.267-.222-.045-.666.311-.622 1.332.31 3.108.488 5.107-.044 2.62-.667 4.396-2.177 5.462-3.42.222-.267.666-.044.622.31-.311 1.6-.488 3.865.489 6.352a10.584 10.584 0 003.019 4.396z" fill="#fff" stroke="#4D0678" stroke-width="2" stroke-miterlimit="10"/><path d="M38.64 195.717a7.95 7.95 0 100-15.899 7.95 7.95 0 000 15.899z" fill="#BD0FEA"/><path d="M116.892 224.007a4.974 4.974 0 100-9.948 4.974 4.974 0 000 9.948zm283.783-94.151a4.974 4.974 0 100-9.948 4.974 4.974 0 000 9.948zM14.259 265.93a5.506 5.506 0 100-11.013 5.506 5.506 0 000 11.013z" fill="#FD7C6A"/><path d="M100.016 285.826a6.972 6.972 0 000-13.945 6.973 6.973 0 000 13.945zm47.963-119.464a6.973 6.973 0 100-13.946 6.973 6.973 0 000 13.946zm223.518 113.824a7.95 7.95 0 10.001-15.899 7.95 7.95 0 00-.001 15.899z" fill="#BD0FEA"/><path d="M356.886 237.685a4.974 4.974 0 100-9.948 4.974 4.974 0 000 9.948zm-160.944 75.498a5.506 5.506 0 10.001-11.013 5.506 5.506 0 00-.001 11.013z" fill="#FD7C6A"/><path d="M210.953 213.926a6.973 6.973 0 100-13.946 6.973 6.973 0 000 13.946z" fill="#BD0FEA"/><defs><linearGradient id="paint0_linear_59_821" x1="242.287" y1="323.116" x2="242.287" y2="311.169" gradientUnits="userSpaceOnUse"><stop offset=".08" stop-color="#FF8939"/><stop offset=".67" stop-color="#FCC33E"/><stop offset="1" stop-color="#FADE41"/></linearGradient><linearGradient id="paint1_linear_59_821" x1="279.22" y1="317.142" x2="205.354" y2="317.142" gradientUnits="userSpaceOnUse"><stop offset=".376" stop-color="#FADE41"/><stop offset=".649" stop-color="#FADC41"/><stop offset=".748" stop-color="#FBD540"/><stop offset=".818" stop-color="#FBCA3F"/><stop offset=".875" stop-color="#FCB93D"/><stop offset=".923" stop-color="#FDA33B"/><stop offset=".964" stop-color="#FF8939"/></linearGradient><linearGradient id="paint2_linear_59_821" x1="237.806" y1="294.91" x2="254.588" y2="355.797" gradientUnits="userSpaceOnUse"><stop offset=".149" stop-color="#FADE41"/><stop offset=".176" stop-color="#FAD740"/><stop offset=".216" stop-color="#FCC33E"/><stop offset=".264" stop-color="#FEA23B"/><stop offset=".294" stop-color="#FF8939"/></linearGradient><linearGradient id="paint3_linear_59_821" x1="244.676" y1="312.364" x2="244.676" y2="300.418" gradientUnits="userSpaceOnUse"><stop offset=".08" stop-color="#FF8939"/><stop offset=".67" stop-color="#FCC33E"/><stop offset="1" stop-color="#FADE41"/></linearGradient><linearGradient id="paint4_linear_59_821" x1="281.609" y1="306.391" x2="207.743" y2="306.391" gradientUnits="userSpaceOnUse"><stop offset=".376" stop-color="#FADE41"/><stop offset=".649" stop-color="#FADC41"/><stop offset=".748" stop-color="#FBD540"/><stop offset=".818" stop-color="#FBCA3F"/><stop offset=".875" stop-color="#FCB93D"/><stop offset=".923" stop-color="#FDA33B"/><stop offset=".964" stop-color="#FF8939"/></linearGradient><linearGradient id="paint5_linear_59_821" x1="240.195" y1="284.159" x2="256.977" y2="345.046" gradientUnits="userSpaceOnUse"><stop offset=".149" stop-color="#FADE41"/><stop offset=".176" stop-color="#FAD740"/><stop offset=".216" stop-color="#FCC33E"/><stop offset=".264" stop-color="#FEA23B"/><stop offset=".294" stop-color="#FF8939"/></linearGradient><linearGradient id="paint6_linear_59_821" x1="242.287" y1="301.613" x2="242.287" y2="289.666" gradientUnits="userSpaceOnUse"><stop offset=".08" stop-color="#FF8939"/><stop offset=".67" stop-color="#FCC33E"/><stop offset="1" stop-color="#FADE41"/></linearGradient><linearGradient id="paint7_linear_59_821" x1="279.22" y1="295.64" x2="205.354" y2="295.64" gradientUnits="userSpaceOnUse"><stop offset=".376" stop-color="#FADE41"/><stop offset=".649" stop-color="#FADC41"/><stop offset=".748" stop-color="#FBD540"/><stop offset=".818" stop-color="#FBCA3F"/><stop offset=".875" stop-color="#FCB93D"/><stop offset=".923" stop-color="#FDA33B"/><stop offset=".964" stop-color="#FF8939"/></linearGradient><linearGradient id="paint8_linear_59_821" x1="237.806" y1="273.407" x2="254.588" y2="334.294" gradientUnits="userSpaceOnUse"><stop offset=".149" stop-color="#FADE41"/><stop offset=".176" stop-color="#FAD740"/><stop offset=".216" stop-color="#FCC33E"/><stop offset=".264" stop-color="#FEA23B"/><stop offset=".294" stop-color="#FF8939"/></linearGradient><linearGradient id="paint9_linear_59_821" x1="243.084" y1="290.861" x2="243.084" y2="278.915" gradientUnits="userSpaceOnUse"><stop offset=".08" stop-color="#FF8939"/><stop offset=".67" stop-color="#FCC33E"/><stop offset="1" stop-color="#FADE41"/></linearGradient><linearGradient id="paint10_linear_59_821" x1="280.017" y1="284.888" x2="206.15" y2="284.888" gradientUnits="userSpaceOnUse"><stop offset=".376" stop-color="#FADE41"/><stop offset=".649" stop-color="#FADC41"/><stop offset=".748" stop-color="#FBD540"/><stop offset=".818" stop-color="#FBCA3F"/><stop offset=".875" stop-color="#FCB93D"/><stop offset=".923" stop-color="#FDA33B"/><stop offset=".964" stop-color="#FF8939"/></linearGradient><linearGradient id="paint11_linear_59_821" x1="238.603" y1="262.656" x2="255.384" y2="323.543" gradientUnits="userSpaceOnUse"><stop offset=".149" stop-color="#FADE41"/><stop offset=".176" stop-color="#FAD740"/><stop offset=".216" stop-color="#FCC33E"/><stop offset=".264" stop-color="#FEA23B"/><stop offset=".294" stop-color="#FF8939"/></linearGradient><linearGradient id="paint12_linear_59_821" x1="237.907" y1="280.11" x2="237.907" y2="268.163" gradientUnits="userSpaceOnUse"><stop offset=".08" stop-color="#FF8939"/><stop offset=".67" stop-color="#FCC33E"/><stop offset="1" stop-color="#FADE41"/></linearGradient><linearGradient id="paint13_linear_59_821" x1="274.84" y1="274.137" x2="200.974" y2="274.137" gradientUnits="userSpaceOnUse"><stop offset=".376" stop-color="#FADE41"/><stop offset=".649" stop-color="#FADC41"/><stop offset=".748" stop-color="#FBD540"/><stop offset=".818" stop-color="#FBCA3F"/><stop offset=".875" stop-color="#FCB93D"/><stop offset=".923" stop-color="#FDA33B"/><stop offset=".964" stop-color="#FF8939"/></linearGradient><linearGradient id="paint14_linear_59_821" x1="233.426" y1="251.905" x2="250.207" y2="312.791" gradientUnits="userSpaceOnUse"><stop offset=".149" stop-color="#FADE41"/><stop offset=".176" stop-color="#FAD740"/><stop offset=".216" stop-color="#FCC33E"/><stop offset=".264" stop-color="#FEA23B"/><stop offset=".294" stop-color="#FF8939"/></linearGradient><linearGradient id="paint15_linear_59_821" x1="240.694" y1="269.358" x2="240.694" y2="257.412" gradientUnits="userSpaceOnUse"><stop offset=".08" stop-color="#FF8939"/><stop offset=".67" stop-color="#FCC33E"/><stop offset="1" stop-color="#FADE41"/></linearGradient><linearGradient id="paint16_linear_59_821" x1="277.627" y1="263.385" x2="203.761" y2="263.385" gradientUnits="userSpaceOnUse"><stop offset=".376" stop-color="#FADE41"/><stop offset=".649" stop-color="#FADC41"/><stop offset=".748" stop-color="#FBD540"/><stop offset=".818" stop-color="#FBCA3F"/><stop offset=".875" stop-color="#FCB93D"/><stop offset=".923" stop-color="#FDA33B"/><stop offset=".964" stop-color="#FF8939"/></linearGradient><linearGradient id="paint17_linear_59_821" x1="236.214" y1="241.153" x2="252.995" y2="302.04" gradientUnits="userSpaceOnUse"><stop offset=".149" stop-color="#FADE41"/><stop offset=".176" stop-color="#FAD740"/><stop offset=".216" stop-color="#FCC33E"/><stop offset=".264" stop-color="#FEA23B"/><stop offset=".294" stop-color="#FF8939"/></linearGradient><linearGradient id="paint18_linear_59_821" x1="244.676" y1="258.607" x2="244.676" y2="246.661" gradientUnits="userSpaceOnUse"><stop offset=".08" stop-color="#FF8939"/><stop offset=".67" stop-color="#FCC33E"/><stop offset="1" stop-color="#FADE41"/></linearGradient><linearGradient id="paint19_linear_59_821" x1="281.609" y1="252.634" x2="207.743" y2="252.634" gradientUnits="userSpaceOnUse"><stop offset=".376" stop-color="#FADE41"/><stop offset=".649" stop-color="#FADC41"/><stop offset=".748" stop-color="#FBD540"/><stop offset=".818" stop-color="#FBCA3F"/><stop offset=".875" stop-color="#FCB93D"/><stop offset=".923" stop-color="#FDA33B"/><stop offset=".964" stop-color="#FF8939"/></linearGradient><linearGradient id="paint20_linear_59_821" x1="240.025" y1="228.663" x2="257.455" y2="291.902" gradientUnits="userSpaceOnUse"><stop offset=".149" stop-color="#FADE41"/><stop offset=".176" stop-color="#FAD740"/><stop offset=".216" stop-color="#FCC33E"/><stop offset=".264" stop-color="#FEA23B"/><stop offset=".294" stop-color="#FF8939"/></linearGradient><linearGradient id="paint21_linear_59_821" x1="149.108" y1="322.677" x2="149.108" y2="310.731" gradientUnits="userSpaceOnUse"><stop offset=".08" stop-color="#FF8939"/><stop offset=".67" stop-color="#FCC33E"/><stop offset="1" stop-color="#FADE41"/></linearGradient><linearGradient id="paint22_linear_59_821" x1="112.175" y1="316.704" x2="186.041" y2="316.704" gradientUnits="userSpaceOnUse"><stop offset=".376" stop-color="#FADE41"/><stop offset=".649" stop-color="#FADC41"/><stop offset=".748" stop-color="#FBD540"/><stop offset=".818" stop-color="#FBCA3F"/><stop offset=".875" stop-color="#FCB93D"/><stop offset=".923" stop-color="#FDA33B"/><stop offset=".964" stop-color="#FF8939"/></linearGradient><linearGradient id="paint23_linear_59_821" x1="153.589" y1="294.472" x2="136.807" y2="355.359" gradientUnits="userSpaceOnUse"><stop offset=".149" stop-color="#FADE41"/><stop offset=".176" stop-color="#FAD740"/><stop offset=".216" stop-color="#FCC33E"/><stop offset=".264" stop-color="#FEA23B"/><stop offset=".294" stop-color="#FF8939"/></linearGradient><linearGradient id="paint24_linear_59_821" x1="146.719" y1="311.926" x2="146.719" y2="299.979" gradientUnits="userSpaceOnUse"><stop offset=".08" stop-color="#FF8939"/><stop offset=".67" stop-color="#FCC33E"/><stop offset="1" stop-color="#FADE41"/></linearGradient><linearGradient id="paint25_linear_59_821" x1="109.785" y1="305.953" x2="183.652" y2="305.953" gradientUnits="userSpaceOnUse"><stop offset=".376" stop-color="#FADE41"/><stop offset=".649" stop-color="#FADC41"/><stop offset=".748" stop-color="#FBD540"/><stop offset=".818" stop-color="#FBCA3F"/><stop offset=".875" stop-color="#FCB93D"/><stop offset=".923" stop-color="#FDA33B"/><stop offset=".964" stop-color="#FF8939"/></linearGradient><linearGradient id="paint26_linear_59_821" x1="151.199" y1="283.72" x2="134.418" y2="344.607" gradientUnits="userSpaceOnUse"><stop offset=".149" stop-color="#FADE41"/><stop offset=".176" stop-color="#FAD740"/><stop offset=".216" stop-color="#FCC33E"/><stop offset=".264" stop-color="#FEA23B"/><stop offset=".294" stop-color="#FF8939"/></linearGradient><linearGradient id="paint27_linear_59_821" x1="149.108" y1="301.174" x2="149.108" y2="289.228" gradientUnits="userSpaceOnUse"><stop offset=".08" stop-color="#FF8939"/><stop offset=".67" stop-color="#FCC33E"/><stop offset="1" stop-color="#FADE41"/></linearGradient><linearGradient id="paint28_linear_59_821" x1="112.175" y1="295.201" x2="186.041" y2="295.201" gradientUnits="userSpaceOnUse"><stop offset=".376" stop-color="#FADE41"/><stop offset=".649" stop-color="#FADC41"/><stop offset=".748" stop-color="#FBD540"/><stop offset=".818" stop-color="#FBCA3F"/><stop offset=".875" stop-color="#FCB93D"/><stop offset=".923" stop-color="#FDA33B"/><stop offset=".964" stop-color="#FF8939"/></linearGradient><linearGradient id="paint29_linear_59_821" x1="153.589" y1="272.969" x2="136.807" y2="333.856" gradientUnits="userSpaceOnUse"><stop offset=".149" stop-color="#FADE41"/><stop offset=".176" stop-color="#FAD740"/><stop offset=".216" stop-color="#FCC33E"/><stop offset=".264" stop-color="#FEA23B"/><stop offset=".294" stop-color="#FF8939"/></linearGradient><linearGradient id="paint30_linear_59_821" x1="148.312" y1="290.423" x2="148.312" y2="278.477" gradientUnits="userSpaceOnUse"><stop offset=".08" stop-color="#FF8939"/><stop offset=".67" stop-color="#FCC33E"/><stop offset="1" stop-color="#FADE41"/></linearGradient><linearGradient id="paint31_linear_59_821" x1="111.378" y1="284.45" x2="185.245" y2="284.45" gradientUnits="userSpaceOnUse"><stop offset=".376" stop-color="#FADE41"/><stop offset=".649" stop-color="#FADC41"/><stop offset=".748" stop-color="#FBD540"/><stop offset=".818" stop-color="#FBCA3F"/><stop offset=".875" stop-color="#FCB93D"/><stop offset=".923" stop-color="#FDA33B"/><stop offset=".964" stop-color="#FF8939"/></linearGradient><linearGradient id="paint32_linear_59_821" x1="152.792" y1="262.218" x2="136.011" y2="323.104" gradientUnits="userSpaceOnUse"><stop offset=".149" stop-color="#FADE41"/><stop offset=".176" stop-color="#FAD740"/><stop offset=".216" stop-color="#FCC33E"/><stop offset=".264" stop-color="#FEA23B"/><stop offset=".294" stop-color="#FF8939"/></linearGradient><linearGradient id="paint33_linear_59_821" x1="153.488" y1="279.672" x2="153.488" y2="267.725" gradientUnits="userSpaceOnUse"><stop offset=".08" stop-color="#FF8939"/><stop offset=".67" stop-color="#FCC33E"/><stop offset="1" stop-color="#FADE41"/></linearGradient><linearGradient id="paint34_linear_59_821" x1="116.555" y1="273.698" x2="190.421" y2="273.698" gradientUnits="userSpaceOnUse"><stop offset=".376" stop-color="#FADE41"/><stop offset=".649" stop-color="#FADC41"/><stop offset=".748" stop-color="#FBD540"/><stop offset=".818" stop-color="#FBCA3F"/><stop offset=".875" stop-color="#FCB93D"/><stop offset=".923" stop-color="#FDA33B"/><stop offset=".964" stop-color="#FF8939"/></linearGradient><linearGradient id="paint35_linear_59_821" x1="157.969" y1="251.466" x2="141.188" y2="312.353" gradientUnits="userSpaceOnUse"><stop offset=".149" stop-color="#FADE41"/><stop offset=".176" stop-color="#FAD740"/><stop offset=".216" stop-color="#FCC33E"/><stop offset=".264" stop-color="#FEA23B"/><stop offset=".294" stop-color="#FF8939"/></linearGradient><linearGradient id="paint36_linear_59_821" x1="48.601" y1="322.677" x2="48.601" y2="310.731" gradientUnits="userSpaceOnUse"><stop offset=".08" stop-color="#FF8939"/><stop offset=".67" stop-color="#FCC33E"/><stop offset="1" stop-color="#FADE41"/></linearGradient><linearGradient id="paint37_linear_59_821" x1="85.534" y1="316.704" x2="11.668" y2="316.704" gradientUnits="userSpaceOnUse"><stop offset=".376" stop-color="#FADE41"/><stop offset=".649" stop-color="#FADC41"/><stop offset=".748" stop-color="#FBD540"/><stop offset=".818" stop-color="#FBCA3F"/><stop offset=".875" stop-color="#FCB93D"/><stop offset=".923" stop-color="#FDA33B"/><stop offset=".964" stop-color="#FF8939"/></linearGradient><linearGradient id="paint38_linear_59_821" x1="44.12" y1="294.472" x2="60.901" y2="355.359" gradientUnits="userSpaceOnUse"><stop offset=".149" stop-color="#FADE41"/><stop offset=".176" stop-color="#FAD740"/><stop offset=".216" stop-color="#FCC33E"/><stop offset=".264" stop-color="#FEA23B"/><stop offset=".294" stop-color="#FF8939"/></linearGradient><linearGradient id="paint39_linear_59_821" x1="50.99" y1="311.926" x2="50.99" y2="299.979" gradientUnits="userSpaceOnUse"><stop offset=".08" stop-color="#FF8939"/><stop offset=".67" stop-color="#FCC33E"/><stop offset="1" stop-color="#FADE41"/></linearGradient><linearGradient id="paint40_linear_59_821" x1="87.923" y1="305.953" x2="14.057" y2="305.953" gradientUnits="userSpaceOnUse"><stop offset=".376" stop-color="#FADE41"/><stop offset=".649" stop-color="#FADC41"/><stop offset=".748" stop-color="#FBD540"/><stop offset=".818" stop-color="#FBCA3F"/><stop offset=".875" stop-color="#FCB93D"/><stop offset=".923" stop-color="#FDA33B"/><stop offset=".964" stop-color="#FF8939"/></linearGradient><linearGradient id="paint41_linear_59_821" x1="46.509" y1="283.72" x2="63.291" y2="344.607" gradientUnits="userSpaceOnUse"><stop offset=".149" stop-color="#FADE41"/><stop offset=".176" stop-color="#FAD740"/><stop offset=".216" stop-color="#FCC33E"/><stop offset=".264" stop-color="#FEA23B"/><stop offset=".294" stop-color="#FF8939"/></linearGradient><linearGradient id="paint42_linear_59_821" x1="48.601" y1="301.174" x2="48.601" y2="289.228" gradientUnits="userSpaceOnUse"><stop offset=".08" stop-color="#FF8939"/><stop offset=".67" stop-color="#FCC33E"/><stop offset="1" stop-color="#FADE41"/></linearGradient><linearGradient id="paint43_linear_59_821" x1="85.534" y1="295.201" x2="11.668" y2="295.201" gradientUnits="userSpaceOnUse"><stop offset=".376" stop-color="#FADE41"/><stop offset=".649" stop-color="#FADC41"/><stop offset=".748" stop-color="#FBD540"/><stop offset=".818" stop-color="#FBCA3F"/><stop offset=".875" stop-color="#FCB93D"/><stop offset=".923" stop-color="#FDA33B"/><stop offset=".964" stop-color="#FF8939"/></linearGradient><linearGradient id="paint44_linear_59_821" x1="44.12" y1="272.969" x2="60.901" y2="333.856" gradientUnits="userSpaceOnUse"><stop offset=".149" stop-color="#FADE41"/><stop offset=".176" stop-color="#FAD740"/><stop offset=".216" stop-color="#FCC33E"/><stop offset=".264" stop-color="#FEA23B"/><stop offset=".294" stop-color="#FF8939"/></linearGradient></defs></svg>4.027C381.712 314.338 382.867 314.915 383.844 316.026C384.021 316.248 384.199 316.47 384.377 316.692C385.354 318.068 385.753 319.8 385.664 321.621C385.62 322.732 385.531 323.797 385.487 324.908C385.442 325.307 385.131 325.219 384.687 325.219L342.053 325.041C341.121 324.997 340.366 324.419 340.188 323.575Z" fill="#4D0678"/>
<path d="M387.441 320.245L386.286 327.572L336.413 326.773L337.612 319.445L387.441 320.245Z" fill="white"/>
<path d="M360.35 313.583C360.75 312.695 361.594 311.141 363.104 309.675C364.969 307.854 366.923 307.055 367.9 306.699" stroke="white" stroke-width="2" stroke-miterlimit="10" stroke-linecap="round"/>
<path d="M366.968 314.871C367.101 314.338 367.634 312.517 369.366 311.229C369.987 310.785 370.609 310.519 371.098 310.385" stroke="white" stroke-width="2" stroke-miterlimit="10" stroke-linecap="round"/>
<path d="M353.067 304.701C353.112 305.411 353.289 307.454 354.888 308.964C355.643 309.675 356.487 310.075 357.064 310.297" stroke="white" stroke-width="2" stroke-miterlimit="10" stroke-linecap="round"/>
<path d="M361.194 282.229L329.219 297.506L276.681 229.647L304.66 208.064L361.194 282.229Z" fill="#2D0649"/>
<path d="M361.194 282.229L329.219 297.506L276.681 229.647" stroke="#FD7C6A" stroke-width="2" stroke-miterlimit="10" stroke-linecap="round"/>
<path d="M292.846 265.264C305.548 273.125 309.5 275.745 320.026 282.718C327.753 263.932 340.854 239.062 348.582 220.277C353.112 209.218 350.847 195.54 342.231 188.168C338.19 184.704 333.216 183.416 328.597 183.149C322.735 182.794 316.872 184.082 311.632 186.747C287.428 198.915 263.225 211.084 239.021 223.252C240.131 226.228 241.952 229.914 244.972 233.555C248.969 238.307 253.676 241.283 258.028 243.192C264.29 245.946 271.485 245.635 277.569 242.526C287.828 237.286 298.042 232.045 308.301 226.805C303.993 237.552 297.243 254.561 292.846 265.264Z" fill="#2D0649"/>
<path d="M245.061 233.555C249.057 238.307 253.765 241.283 258.117 243.192C264.379 245.946 271.574 245.635 277.658 242.526C287.917 237.286 298.131 232.045 308.39 226.805C303.993 237.508 305.947 232.756 301.595 243.459L292.891 265.22L320.07 282.673L325.088 271.127" stroke="#FD7C6A" stroke-width="2" stroke-miterlimit="10" stroke-linecap="round"/>
<path d="M307.324 229.469L314.341 213.348" stroke="#FD7C6A" stroke-width="2" stroke-miterlimit="10" stroke-linecap="round"/>
<path d="M294.889 195.54C278.457 203.978 273.306 206.509 270.019 209.307C268.598 210.506 267.444 211.794 267.444 211.794C265.756 213.482 258.384 229.247 251.678 236.353C246.082 242.26 237.999 243.015 234.358 243.681C233.869 243.77 233.514 243.281 233.692 242.837C236.445 236.309 239.287 227.737 240.753 217.479C241.641 211.172 241.863 205.443 241.73 200.469C240.486 199.803 239.065 199.226 237.555 198.693C231.027 196.472 224.987 196.872 220.901 197.583C220.546 197.627 220.28 197.361 220.28 197.005C220.679 193.23 221.035 189.766 221.39 186.613C221.923 181.817 222.1 180.529 222.767 178.886C224.454 174.844 227.385 172.269 229.561 171.025C240.531 164.674 251.5 158.324 262.514 151.973C269.753 147.798 278.635 147.665 286.007 151.662C287.917 152.728 289.871 153.749 291.781 154.815C289.693 157.391 286.54 163.475 284.941 169.027C284.275 171.336 284.32 171.514 284.142 173.379L285.83 179.419C286.496 182.039 287.739 185.592 290.049 189.322C291.647 191.943 293.379 193.985 294.889 195.54Z" fill="#C2E202"/>
<path d="M255.808 162.987C257.362 163.831 259.228 163.564 260.294 162.365C260.738 161.877 261.004 161.299 261.093 160.677C261.226 159.789 261.004 158.857 260.471 158.102C259.894 157.302 259.361 156.503 258.784 155.703" stroke="white" stroke-width="2" stroke-miterlimit="10" stroke-linecap="round"/>
<path d="M253.81 163.786C253.943 165.518 252.921 167.117 251.367 167.561C250.745 167.739 250.124 167.739 249.502 167.605C248.614 167.383 247.903 166.762 247.414 165.962C246.926 165.119 246.393 164.275 245.905 163.431" stroke="white" stroke-width="2" stroke-miterlimit="10" stroke-linecap="round"/>
<path d="M241.597 207.086C241.641 205.532 241.641 202.112 241.597 200.425C241.508 197.094 241.241 193.985 240.842 191.143" stroke="white" stroke-width="2" stroke-miterlimit="10" stroke-linecap="round"/>
<path d="M294.889 195.54C289.293 189.233 287.206 183.993 286.407 180.218C286.096 178.708 285.696 176.31 284.231 173.334C282.499 169.782 280.189 167.339 278.457 165.785" stroke="white" stroke-width="2" stroke-miterlimit="10" stroke-linecap="round"/>
<path d="M255.364 156.458C244.394 162.809 240.531 164.674 229.517 171.025C227.341 172.269 224.41 174.844 222.722 178.886C222.056 180.529 221.878 181.817 221.345 186.613C220.99 189.855 220.59 193.408 220.191 197.272C220.191 197.494 220.368 197.671 220.546 197.627C224.587 196.872 230.76 196.428 237.466 198.693C239.021 199.226 240.397 199.847 241.641 200.469C241.774 205.443 241.552 211.172 240.664 217.479C239.198 227.737 236.356 236.309 233.603 242.837C233.425 243.281 233.78 243.77 234.269 243.681C238.443 242.926 247.237 241.593 251.589 236.353C253.454 234.132 254.431 232.4 256.519 229.247C258.783 225.828 260.915 222.319 262.78 218.678C263.891 216.501 265.934 211.394 270.375 208.419" stroke="white" stroke-width="2" stroke-miterlimit="10" stroke-linecap="round"/>
<path d="M291.736 154.771C289.649 157.347 286.496 163.431 284.897 168.982C284.231 171.292 284.275 171.469 284.097 173.334" stroke="white" stroke-width="2" stroke-miterlimit="10"/>
<path d="M253.499 162.365C255.63 161.299 256.518 158.679 255.408 156.547L250.39 146.644L242.618 150.552L247.636 160.455C248.702 162.543 251.322 163.431 253.499 162.365Z" fill="#FD7C6A"/>
<path d="M246.792 159.167C246.926 159.612 247.192 160.233 247.636 160.855C247.903 161.255 248.48 162.099 249.368 162.543C251.1 163.475 253.188 162.498 253.498 162.321C255.63 161.255 256.474 158.546 255.319 156.281C255.008 155.703 254.875 155.437 254.564 154.815L250.39 146.599" stroke="white" stroke-width="2" stroke-miterlimit="10" stroke-linecap="round"/>
<path d="M252.655 150.729L246.437 158.057L243.861 152.95L251.766 148.997L252.655 150.729Z" fill="#4D0678"/>
<path d="M232.093 152.373C233.736 152.373 235.068 151.04 235.068 149.397C235.068 147.754 233.736 146.422 232.093 146.422C230.449 146.422 229.117 147.754 229.117 149.397C229.117 151.04 230.449 152.373 232.093 152.373Z" fill="#FD7C6A" stroke="#4D0678" stroke-width="2" stroke-miterlimit="10"/>
<path d="M229.872 140.471C229.872 142.291 230.583 143.713 231.649 145.755C232.981 148.376 234.669 151.706 238.444 153.438C241.774 154.948 246.482 155.082 250.434 152.55C251.056 152.151 255.186 149.442 256.03 144.601C256.563 141.625 255.586 139.316 254.653 137.229C253.365 134.342 250.878 128.657 245.549 127.636C238.31 126.304 229.828 134.253 229.872 140.471Z" fill="#FD7C6A"/>
<path d="M242.663 154.415C243.817 154.46 247.104 154.638 250.39 152.595C251.145 152.106 255.142 149.486 255.986 144.645C256.519 141.67 255.542 139.36 254.609 137.273C253.321 134.386 250.834 128.702 245.505 127.68C238.31 126.259 229.828 134.253 229.872 140.471C229.872 142.291 230.583 143.713 231.649 145.755C232.581 147.621 233.603 149.93 235.912 151.84" stroke="#4D0678" stroke-width="2" stroke-miterlimit="10" stroke-linecap="round"/>
<path d="M246.926 145.622C248.303 145.311 249.679 145 251.056 144.69C251.145 144.69 251.234 144.734 251.278 144.823C251.456 145.356 251.767 146.999 250.834 148.242C250.345 148.864 249.413 149.086 248.702 148.731C248.613 148.687 248.525 148.642 248.48 148.598C247.148 147.843 246.881 146.333 246.837 145.8C246.793 145.711 246.837 145.622 246.926 145.622Z" fill="#F4F4F4"/>
<path d="M230.716 128.968C229.739 127.37 224.809 119.464 215.972 118.265C211.264 117.644 207.445 119.154 204.825 120.264C194.921 124.394 195.854 130.345 188.082 133.321C180.132 136.385 175.78 131.411 167.386 135.319C165.21 136.296 163.434 137.584 162.013 138.872C159.037 141.536 157.438 145.533 158.06 149.486C158.238 150.774 158.682 152.151 159.437 153.527C161.302 156.903 164.278 158.501 166.099 159.212C166.942 159.523 167.831 159.7 168.763 159.7C174.226 159.789 180.443 158.857 185.728 155.126C194.122 149.131 192.434 141.536 202.471 132.521C205.624 129.723 213.396 122.751 221.168 124.971C225.875 126.304 228.629 130.478 229.872 132.654C230.139 131.455 230.449 130.212 230.716 128.968Z" fill="#2D0649"/>
<path d="M230.716 128.968C229.739 127.37 224.809 119.464 215.972 118.265C211.264 117.644 207.445 119.154 204.825 120.264C194.921 124.394 195.854 130.345 188.082 133.321C180.132 136.385 175.78 131.411 167.386 135.319" stroke="white" stroke-width="2" stroke-miterlimit="10" stroke-linecap="round"/>
<path d="M232.093 130.612L231.293 131.633C230.538 132.566 229.161 132.743 228.229 131.988L227.918 131.722C226.985 130.967 226.808 129.59 227.563 128.657L228.362 127.636C229.117 126.703 230.494 126.526 231.426 127.281L231.737 127.547C232.714 128.302 232.848 129.679 232.093 130.612Z" fill="#C2E202"/>
<path d="M227.918 131.722C226.985 130.967 226.808 129.59 227.563 128.657L228.362 127.636C229.117 126.703 230.494 126.526 231.426 127.281L231.737 127.547" stroke="#4D0678" stroke-width="2" stroke-miterlimit="10" stroke-linecap="round"/>
<path d="M236.889 138.294C237.067 138.472 237.644 139.449 237.289 140.648C237.156 141.181 236.845 141.581 236.578 141.847C236.489 141.936 236.578 142.114 236.711 142.069C238.976 141.359 241.819 140.115 244.439 137.895C246.482 136.207 248.836 134.209 248.836 131.544C248.836 130.611 248.525 129.723 248.836 129.546C249.502 129.235 251.633 132.921 252.033 132.699C252.3 132.566 251.9 130.7 250.834 129.146C248.391 125.549 242.707 124.216 238.088 125.193C237.022 125.415 233.692 126.17 230.938 129.146C230.494 129.59 227.785 132.654 227.563 137.273C227.208 144.334 233.159 148.909 233.736 149.353C233.469 148.065 233.114 145.089 234.535 141.803C235.201 140.249 236.134 139.094 236.889 138.294Z" fill="#2D0649"/>
<path d="M248.835 129.59C249.502 129.279 251.633 132.965 252.033 132.743C252.299 132.61 251.9 130.745 250.834 129.19C248.391 125.593 242.707 124.216 238.088 125.238C236.8 125.504 234.58 126.215 232.27 128.08" stroke="white" stroke-width="2" stroke-miterlimit="10" stroke-linecap="round"/>
<path d="M247.503 139.138C247.192 138.517 247.015 137.806 247.015 137.095C247.015 134.608 249.102 132.521 251.589 132.521C254.076 132.521 256.163 134.564 256.163 137.095C256.163 139.627 254.076 141.67 251.589 141.67C251.145 141.67 250.656 141.581 250.212 141.448" stroke="#4D0678" stroke-width="2" stroke-miterlimit="10" stroke-linecap="round"/>
<path d="M246.881 138.916C247.636 139.36 248.436 139.804 249.191 140.293C249.812 140.648 250.079 141.403 249.812 142.069L249.502 142.958" stroke="#4D0678" stroke-width="2" stroke-miterlimit="10" stroke-linecap="round"/>
<path d="M244.006 143.508C244.509 143.311 244.656 142.486 244.335 141.663C244.014 140.84 243.347 140.333 242.844 140.529C242.341 140.725 242.194 141.551 242.515 142.373C242.836 143.196 243.504 143.704 244.006 143.508Z" fill="#2D0649"/>
<path d="M251.507 138.934C252.01 138.738 252.157 137.912 251.836 137.09C251.515 136.267 250.847 135.759 250.345 135.956C249.842 136.152 249.695 136.978 250.015 137.8C250.336 138.623 251.004 139.131 251.507 138.934Z" fill="#2D0649"/>
<path d="M243.24 147.221C245.766 147.221 247.814 145.173 247.814 142.647C247.814 140.12 245.766 138.072 243.24 138.072C240.713 138.072 238.665 140.12 238.665 142.647C238.665 145.173 240.713 147.221 243.24 147.221Z" stroke="#4D0678" stroke-width="2" stroke-miterlimit="10" stroke-linecap="round"/>
<path d="M4 324.02H287.117" stroke="white" stroke-width="7" stroke-miterlimit="10" stroke-linecap="round"/>
<path d="M304.26 324.02H399.787" stroke="white" stroke-width="7" stroke-miterlimit="10" stroke-linecap="round"/>
<path d="M114.316 308.254C114.493 308.298 114.493 308.565 114.316 308.654C113.516 308.876 112.406 309.364 111.429 310.385C110.497 311.363 110.052 312.428 109.83 313.228C109.786 313.405 109.475 313.45 109.431 313.228C109.209 312.428 108.809 311.407 107.876 310.43C106.899 309.408 105.7 308.92 104.856 308.698C104.679 308.653 104.679 308.343 104.856 308.298C105.611 308.121 106.588 307.721 107.477 306.921C108.631 305.9 109.164 304.657 109.431 303.724C109.475 303.502 109.786 303.502 109.83 303.724C110.052 304.612 110.541 305.811 111.651 306.833C112.584 307.676 113.561 308.032 114.316 308.254Z" fill="white" stroke="#4D0678" stroke-width="2" stroke-miterlimit="10"/>
<path d="M215.838 288.846C216.327 288.757 216.593 289.379 216.194 289.69C214.639 290.978 212.641 293.065 211.486 296.174C210.376 299.149 210.465 301.903 210.775 303.857C210.864 304.346 210.243 304.612 209.932 304.257C208.688 302.702 206.69 300.793 203.714 299.549C200.472 298.172 197.408 298.172 195.232 298.528C194.743 298.617 194.477 297.95 194.876 297.684C196.386 296.574 198.118 294.842 199.318 292.266C200.916 288.935 200.828 285.693 200.472 283.517C200.383 283.028 201.005 282.762 201.316 283.117C202.693 284.849 205.002 287.025 208.466 288.224C211.353 289.202 213.929 289.157 215.838 288.846Z" fill="white" stroke="#4D0678" stroke-width="2" stroke-miterlimit="10"/>
<path d="M92.9987 290.001C93.3095 290.223 93.0875 290.712 92.7322 290.623C91.2222 290.401 89.0461 290.445 86.7368 291.422C84.5162 292.355 83.0507 293.82 82.1625 295.019C81.9404 295.33 81.4519 295.108 81.4963 294.753C81.7184 293.243 81.7184 291.2 80.8746 288.935C79.942 286.448 78.3432 284.761 77.0553 283.739C76.7444 283.517 76.9664 283.029 77.3217 283.117C78.6985 283.339 80.5637 283.428 82.5622 282.762C85.2268 281.918 86.9588 280.186 87.9359 278.854C88.1579 278.543 88.6464 278.765 88.602 279.12C88.38 280.764 88.38 283.162 89.5346 285.649C90.5117 287.692 91.8884 289.113 92.9987 290.001Z" fill="white" stroke="#4D0678" stroke-width="2" stroke-miterlimit="10"/>
<path d="M196.342 265.22C196.609 265.22 196.697 265.575 196.475 265.708C195.543 266.286 194.299 267.263 193.455 268.862C192.612 270.416 192.478 271.882 192.478 272.947C192.478 273.214 192.123 273.303 191.99 273.081C191.412 272.148 190.48 270.949 189.014 270.061C187.371 269.084 185.684 268.862 184.484 268.862C184.218 268.862 184.129 268.506 184.351 268.373C185.239 267.885 186.305 267.085 187.149 265.797C188.259 264.11 188.481 262.378 188.437 261.134C188.437 260.868 188.792 260.734 188.925 261.001C189.547 262.067 190.613 263.399 192.39 264.287C193.899 265.042 195.276 265.22 196.342 265.22Z" fill="white" stroke="#4D0678" stroke-width="2" stroke-miterlimit="10"/>
<path d="M279.656 67.9925C279.878 67.9481 280.012 68.259 279.834 68.4366C279.034 69.014 278.057 69.991 277.391 71.501C276.77 72.9221 276.77 74.2544 276.858 75.2315C276.903 75.4535 276.592 75.5867 276.459 75.4091C275.881 74.6097 274.949 73.6771 273.528 72.9665C271.973 72.2115 270.508 72.1671 269.397 72.256C269.175 72.3004 269.042 71.9451 269.22 71.8118C269.975 71.2789 270.863 70.4795 271.485 69.2804C272.329 67.6817 272.373 66.1273 272.24 65.0614C272.195 64.795 272.506 64.7062 272.684 64.8838C273.306 65.772 274.371 66.8823 276.059 67.504C277.436 68.0814 278.724 68.0814 279.656 67.9925Z" fill="white" stroke="#4D0678" stroke-width="2" stroke-miterlimit="10"/>
<path d="M343.163 50.8501C343.43 51.0722 343.208 51.5163 342.853 51.4719C341.431 51.2054 339.344 51.0722 337.035 51.8716C334.859 52.6265 333.349 53.9589 332.416 55.0691C332.194 55.3356 331.75 55.1135 331.794 54.7582C332.061 53.3371 332.194 51.3386 331.528 49.1181C330.773 46.6755 329.352 44.9435 328.153 43.8777C327.886 43.6556 328.108 43.2115 328.464 43.2559C329.796 43.5668 331.572 43.7444 333.571 43.2115C336.191 42.5453 337.967 41.0354 339.033 39.7919C339.255 39.5254 339.699 39.7475 339.655 40.1028C339.344 41.7015 339.167 43.9665 340.144 46.4535C340.899 48.5408 342.142 49.9619 343.163 50.8501Z" fill="white" stroke="#4D0678" stroke-width="2" stroke-miterlimit="10"/>
<path d="M38.6402 195.717C43.0306 195.717 46.5897 192.158 46.5897 187.768C46.5897 183.377 43.0306 179.818 38.6402 179.818C34.2498 179.818 30.6907 183.377 30.6907 187.768C30.6907 192.158 34.2498 195.717 38.6402 195.717Z" fill="#BD0FEA"/>
<path d="M116.892 224.007C119.639 224.007 121.866 221.78 121.866 219.033C121.866 216.286 119.639 214.059 116.892 214.059C114.145 214.059 111.918 216.286 111.918 219.033C111.918 221.78 114.145 224.007 116.892 224.007Z" fill="#FD7C6A"/>
<path d="M400.675 129.856C403.422 129.856 405.649 127.629 405.649 124.882C405.649 122.135 403.422 119.908 400.675 119.908C397.928 119.908 395.701 122.135 395.701 124.882C395.701 127.629 397.928 129.856 400.675 129.856Z" fill="#FD7C6A"/>
<path d="M14.2589 265.93C17.3002 265.93 19.7658 263.465 19.7658 260.424C19.7658 257.382 17.3002 254.917 14.2589 254.917C11.2175 254.917 8.75195 257.382 8.75195 260.424C8.75195 263.465 11.2175 265.93 14.2589 265.93Z" fill="#FD7C6A"/>
<path d="M100.016 285.826C103.866 285.826 106.988 282.705 106.988 278.854C106.988 275.003 103.866 271.881 100.016 271.881C96.1649 271.881 93.0432 275.003 93.0432 278.854C93.0432 282.705 96.1649 285.826 100.016 285.826Z" fill="#BD0FEA"/>
<path d="M147.979 166.362C151.83 166.362 154.952 163.24 154.952 159.389C154.952 155.539 151.83 152.417 147.979 152.417C144.128 152.417 141.007 155.539 141.007 159.389C141.007 163.24 144.128 166.362 147.979 166.362Z" fill="#BD0FEA"/>
<path d="M371.497 280.186C375.888 280.186 379.447 276.627 379.447 272.237C379.447 267.846 375.888 264.287 371.497 264.287C367.107 264.287 363.548 267.846 363.548 272.237C363.548 276.627 367.107 280.186 371.497 280.186Z" fill="#BD0FEA"/>
<path d="M356.886 237.685C359.633 237.685 361.86 235.458 361.86 232.711C361.86 229.964 359.633 227.737 356.886 227.737C354.139 227.737 351.912 229.964 351.912 232.711C351.912 235.458 354.139 237.685 356.886 237.685Z" fill="#FD7C6A"/>
<path d="M195.942 313.183C198.984 313.183 201.449 310.718 201.449 307.676C201.449 304.635 198.984 302.17 195.942 302.17C192.901 302.17 190.436 304.635 190.436 307.676C190.436 310.718 192.901 313.183 195.942 313.183Z" fill="#FD7C6A"/>
<path d="M210.953 213.926C214.804 213.926 217.926 210.804 217.926 206.953C217.926 203.103 214.804 199.981 210.953 199.981C207.102 199.981 203.981 203.103 203.981 206.953C203.981 210.804 207.102 213.926 210.953 213.926Z" fill="#BD0FEA"/>
<defs>
<linearGradient id="paint0_linear_59_821" x1="242.287" y1="323.116" x2="242.287" y2="311.169" gradientUnits="userSpaceOnUse">
<stop offset="0.0797761" stop-color="#FF8939"/>
<stop offset="0.6705" stop-color="#FCC33E"/>
<stop offset="1" stop-color="#FADE41"/>
</linearGradient>
<linearGradient id="paint1_linear_59_821" x1="279.22" y1="317.142" x2="205.354" y2="317.142" gradientUnits="userSpaceOnUse">
<stop offset="0.3758" stop-color="#FADE41"/>
<stop offset="0.6492" stop-color="#FADC41"/>
<stop offset="0.7477" stop-color="#FBD540"/>
<stop offset="0.8178" stop-color="#FBCA3F"/>
<stop offset="0.8746" stop-color="#FCB93D"/>
<stop offset="0.9227" stop-color="#FDA33B"/>
<stop offset="0.9642" stop-color="#FF8939"/>
</linearGradient>
<linearGradient id="paint2_linear_59_821" x1="237.806" y1="294.91" x2="254.588" y2="355.797" gradientUnits="userSpaceOnUse">
<stop offset="0.1487" stop-color="#FADE41"/>
<stop offset="0.1757" stop-color="#FAD740"/>
<stop offset="0.2157" stop-color="#FCC33E"/>
<stop offset="0.2637" stop-color="#FEA23B"/>
<stop offset="0.2945" stop-color="#FF8939"/>
</linearGradient>
<linearGradient id="paint3_linear_59_821" x1="244.676" y1="312.364" x2="244.676" y2="300.418" gradientUnits="userSpaceOnUse">
<stop offset="0.0797761" stop-color="#FF8939"/>
<stop offset="0.6705" stop-color="#FCC33E"/>
<stop offset="1" stop-color="#FADE41"/>
</linearGradient>
<linearGradient id="paint4_linear_59_821" x1="281.609" y1="306.391" x2="207.743" y2="306.391" gradientUnits="userSpaceOnUse">
<stop offset="0.3758" stop-color="#FADE41"/>
<stop offset="0.6492" stop-color="#FADC41"/>
<stop offset="0.7477" stop-color="#FBD540"/>
<stop offset="0.8178" stop-color="#FBCA3F"/>
<stop offset="0.8746" stop-color="#FCB93D"/>
<stop offset="0.9227" stop-color="#FDA33B"/>
<stop offset="0.9642" stop-color="#FF8939"/>
</linearGradient>
<linearGradient id="paint5_linear_59_821" x1="240.195" y1="284.159" x2="256.977" y2="345.046" gradientUnits="userSpaceOnUse">
<stop offset="0.1487" stop-color="#FADE41"/>
<stop offset="0.1757" stop-color="#FAD740"/>
<stop offset="0.2157" stop-color="#FCC33E"/>
<stop offset="0.2637" stop-color="#FEA23B"/>
<stop offset="0.2945" stop-color="#FF8939"/>
</linearGradient>
<linearGradient id="paint6_linear_59_821" x1="242.287" y1="301.613" x2="242.287" y2="289.666" gradientUnits="userSpaceOnUse">
<stop offset="0.0797761" stop-color="#FF8939"/>
<stop offset="0.6705" stop-color="#FCC33E"/>
<stop offset="1" stop-color="#FADE41"/>
</linearGradient>
<linearGradient id="paint7_linear_59_821" x1="279.22" y1="295.64" x2="205.354" y2="295.64" gradientUnits="userSpaceOnUse">
<stop offset="0.3758" stop-color="#FADE41"/>
<stop offset="0.6492" stop-color="#FADC41"/>
<stop offset="0.7477" stop-color="#FBD540"/>
<stop offset="0.8178" stop-color="#FBCA3F"/>
<stop offset="0.8746" stop-color="#FCB93D"/>
<stop offset="0.9227" stop-color="#FDA33B"/>
<stop offset="0.9642" stop-color="#FF8939"/>
</linearGradient>
<linearGradient id="paint8_linear_59_821" x1="237.806" y1="273.407" x2="254.588" y2="334.294" gradientUnits="userSpaceOnUse">
<stop offset="0.1487" stop-color="#FADE41"/>
<stop offset="0.1757" stop-color="#FAD740"/>
<stop offset="0.2157" stop-color="#FCC33E"/>
<stop offset="0.2637" stop-color="#FEA23B"/>
<stop offset="0.2945" stop-color="#FF8939"/>
</linearGradient>
<linearGradient id="paint9_linear_59_821" x1="243.084" y1="290.861" x2="243.084" y2="278.915" gradientUnits="userSpaceOnUse">
<stop offset="0.0797761" stop-color="#FF8939"/>
<stop offset="0.6705" stop-color="#FCC33E"/>
<stop offset="1" stop-color="#FADE41"/>
</linearGradient>
<linearGradient id="paint10_linear_59_821" x1="280.017" y1="284.888" x2="206.15" y2="284.888" gradientUnits="userSpaceOnUse">
<stop offset="0.3758" stop-color="#FADE41"/>
<stop offset="0.6492" stop-color="#FADC41"/>
<stop offset="0.7477" stop-color="#FBD540"/>
<stop offset="0.8178" stop-color="#FBCA3F"/>
<stop offset="0.8746" stop-color="#FCB93D"/>
<stop offset="0.9227" stop-color="#FDA33B"/>
<stop offset="0.9642" stop-color="#FF8939"/>
</linearGradient>
<linearGradient id="paint11_linear_59_821" x1="238.603" y1="262.656" x2="255.384" y2="323.543" gradientUnits="userSpaceOnUse">
<stop offset="0.1487" stop-color="#FADE41"/>
<stop offset="0.1757" stop-color="#FAD740"/>
<stop offset="0.2157" stop-color="#FCC33E"/>
<stop offset="0.2637" stop-color="#FEA23B"/>
<stop offset="0.2945" stop-color="#FF8939"/>
</linearGradient>
<linearGradient id="paint12_linear_59_821" x1="237.907" y1="280.11" x2="237.907" y2="268.163" gradientUnits="userSpaceOnUse">
<stop offset="0.0797761" stop-color="#FF8939"/>
<stop offset="0.6705" stop-color="#FCC33E"/>
<stop offset="1" stop-color="#FADE41"/>
</linearGradient>
<linearGradient id="paint13_linear_59_821" x1="274.84" y1="274.137" x2="200.974" y2="274.137" gradientUnits="userSpaceOnUse">
<stop offset="0.3758" stop-color="#FADE41"/>
<stop offset="0.6492" stop-color="#FADC41"/>
<stop offset="0.7477" stop-color="#FBD540"/>
<stop offset="0.8178" stop-color="#FBCA3F"/>
<stop offset="0.8746" stop-color="#FCB93D"/>
<stop offset="0.9227" stop-color="#FDA33B"/>
<stop offset="0.9642" stop-color="#FF8939"/>
</linearGradient>
<linearGradient id="paint14_linear_59_821" x1="233.426" y1="251.905" x2="250.207" y2="312.791" gradientUnits="userSpaceOnUse">
<stop offset="0.1487" stop-color="#FADE41"/>
<stop offset="0.1757" stop-color="#FAD740"/>
<stop offset="0.2157" stop-color="#FCC33E"/>
<stop offset="0.2637" stop-color="#FEA23B"/>
<stop offset="0.2945" stop-color="#FF8939"/>
</linearGradient>
<linearGradient id="paint15_linear_59_821" x1="240.694" y1="269.358" x2="240.694" y2="257.412" gradientUnits="userSpaceOnUse">
<stop offset="0.0797761" stop-color="#FF8939"/>
<stop offset="0.6705" stop-color="#FCC33E"/>
<stop offset="1" stop-color="#FADE41"/>
</linearGradient>
<linearGradient id="paint16_linear_59_821" x1="277.627" y1="263.385" x2="203.761" y2="263.385" gradientUnits="userSpaceOnUse">
<stop offset="0.3758" stop-color="#FADE41"/>
<stop offset="0.6492" stop-color="#FADC41"/>
<stop offset="0.7477" stop-color="#FBD540"/>
<stop offset="0.8178" stop-color="#FBCA3F"/>
<stop offset="0.8746" stop-color="#FCB93D"/>
<stop offset="0.9227" stop-color="#FDA33B"/>
<stop offset="0.9642" stop-color="#FF8939"/>
</linearGradient>
<linearGradient id="paint17_linear_59_821" x1="236.214" y1="241.153" x2="252.995" y2="302.04" gradientUnits="userSpaceOnUse">
<stop offset="0.1487" stop-color="#FADE41"/>
<stop offset="0.1757" stop-color="#FAD740"/>
<stop offset="0.2157" stop-color="#FCC33E"/>
<stop offset="0.2637" stop-color="#FEA23B"/>
<stop offset="0.2945" stop-color="#FF8939"/>
</linearGradient>
<linearGradient id="paint18_linear_59_821" x1="244.676" y1="258.607" x2="244.676" y2="246.661" gradientUnits="userSpaceOnUse">
<stop offset="0.0797761" stop-color="#FF8939"/>
<stop offset="0.6705" stop-color="#FCC33E"/>
<stop offset="1" stop-color="#FADE41"/>
</linearGradient>
<linearGradient id="paint19_linear_59_821" x1="281.609" y1="252.634" x2="207.743" y2="252.634" gradientUnits="userSpaceOnUse">
<stop offset="0.3758" stop-color="#FADE41"/>
<stop offset="0.6492" stop-color="#FADC41"/>
<stop offset="0.7477" stop-color="#FBD540"/>
<stop offset="0.8178" stop-color="#FBCA3F"/>
<stop offset="0.8746" stop-color="#FCB93D"/>
<stop offset="0.9227" stop-color="#FDA33B"/>
<stop offset="0.9642" stop-color="#FF8939"/>
</linearGradient>
<linearGradient id="paint20_linear_59_821" x1="240.025" y1="228.663" x2="257.455" y2="291.902" gradientUnits="userSpaceOnUse">
<stop offset="0.1487" stop-color="#FADE41"/>
<stop offset="0.1757" stop-color="#FAD740"/>
<stop offset="0.2157" stop-color="#FCC33E"/>
<stop offset="0.2637" stop-color="#FEA23B"/>
<stop offset="0.2945" stop-color="#FF8939"/>
</linearGradient>
<linearGradient id="paint21_linear_59_821" x1="149.108" y1="322.677" x2="149.108" y2="310.731" gradientUnits="userSpaceOnUse">
<stop offset="0.0797761" stop-color="#FF8939"/>
<stop offset="0.6705" stop-color="#FCC33E"/>
<stop offset="1" stop-color="#FADE41"/>
</linearGradient>
<linearGradient id="paint22_linear_59_821" x1="112.175" y1="316.704" x2="186.041" y2="316.704" gradientUnits="userSpaceOnUse">
<stop offset="0.3758" stop-color="#FADE41"/>
<stop offset="0.6492" stop-color="#FADC41"/>
<stop offset="0.7477" stop-color="#FBD540"/>
<stop offset="0.8178" stop-color="#FBCA3F"/>
<stop offset="0.8746" stop-color="#FCB93D"/>
<stop offset="0.9227" stop-color="#FDA33B"/>
<stop offset="0.9642" stop-color="#FF8939"/>
</linearGradient>
<linearGradient id="paint23_linear_59_821" x1="153.589" y1="294.472" x2="136.807" y2="355.359" gradientUnits="userSpaceOnUse">
<stop offset="0.1487" stop-color="#FADE41"/>
<stop offset="0.1757" stop-color="#FAD740"/>
<stop offset="0.2157" stop-color="#FCC33E"/>
<stop offset="0.2637" stop-color="#FEA23B"/>
<stop offset="0.2945" stop-color="#FF8939"/>
</linearGradient>
<linearGradient id="paint24_linear_59_821" x1="146.719" y1="311.926" x2="146.719" y2="299.979" gradientUnits="userSpaceOnUse">
<stop offset="0.0797761" stop-color="#FF8939"/>
<stop offset="0.6705" stop-color="#FCC33E"/>
<stop offset="1" stop-color="#FADE41"/>
</linearGradient>
<linearGradient id="paint25_linear_59_821" x1="109.785" y1="305.953" x2="183.652" y2="305.953" gradientUnits="userSpaceOnUse">
<stop offset="0.3758" stop-color="#FADE41"/>
<stop offset="0.6492" stop-color="#FADC41"/>
<stop offset="0.7477" stop-color="#FBD540"/>
<stop offset="0.8178" stop-color="#FBCA3F"/>
<stop offset="0.8746" stop-color="#FCB93D"/>
<stop offset="0.9227" stop-color="#FDA33B"/>
<stop offset="0.9642" stop-color="#FF8939"/>
</linearGradient>
<linearGradient id="paint26_linear_59_821" x1="151.199" y1="283.72" x2="134.418" y2="344.607" gradientUnits="userSpaceOnUse">
<stop offset="0.1487" stop-color="#FADE41"/>
<stop offset="0.1757" stop-color="#FAD740"/>
<stop offset="0.2157" stop-color="#FCC33E"/>
<stop offset="0.2637" stop-color="#FEA23B"/>
<stop offset="0.2945" stop-color="#FF8939"/>
</linearGradient>
<linearGradient id="paint27_linear_59_821" x1="149.108" y1="301.174" x2="149.108" y2="289.228" gradientUnits="userSpaceOnUse">
<stop offset="0.0797761" stop-color="#FF8939"/>
<stop offset="0.6705" stop-color="#FCC33E"/>
<stop offset="1" stop-color="#FADE41"/>
</linearGradient>
<linearGradient id="paint28_linear_59_821" x1="112.175" y1="295.201" x2="186.041" y2="295.201" gradientUnits="userSpaceOnUse">
<stop offset="0.3758" stop-color="#FADE41"/>
<stop offset="0.6492" stop-color="#FADC41"/>
<stop offset="0.7477" stop-color="#FBD540"/>
<stop offset="0.8178" stop-color="#FBCA3F"/>
<stop offset="0.8746" stop-color="#FCB93D"/>
<stop offset="0.9227" stop-color="#FDA33B"/>
<stop offset="0.9642" stop-color="#FF8939"/>
</linearGradient>
<linearGradient id="paint29_linear_59_821" x1="153.589" y1="272.969" x2="136.807" y2="333.856" gradientUnits="userSpaceOnUse">
<stop offset="0.1487" stop-color="#FADE41"/>
<stop offset="0.1757" stop-color="#FAD740"/>
<stop offset="0.2157" stop-color="#FCC33E"/>
<stop offset="0.2637" stop-color="#FEA23B"/>
<stop offset="0.2945" stop-color="#FF8939"/>
</linearGradient>
<linearGradient id="paint30_linear_59_821" x1="148.312" y1="290.423" x2="148.312" y2="278.477" gradientUnits="userSpaceOnUse">
<stop offset="0.0797761" stop-color="#FF8939"/>
<stop offset="0.6705" stop-color="#FCC33E"/>
<stop offset="1" stop-color="#FADE41"/>
</linearGradient>
<linearGradient id="paint31_linear_59_821" x1="111.378" y1="284.45" x2="185.245" y2="284.45" gradientUnits="userSpaceOnUse">
<stop offset="0.3758" stop-color="#FADE41"/>
<stop offset="0.6492" stop-color="#FADC41"/>
<stop offset="0.7477" stop-color="#FBD540"/>
<stop offset="0.8178" stop-color="#FBCA3F"/>
<stop offset="0.8746" stop-color="#FCB93D"/>
<stop offset="0.9227" stop-color="#FDA33B"/>
<stop offset="0.9642" stop-color="#FF8939"/>
</linearGradient>
<linearGradient id="paint32_linear_59_821" x1="152.792" y1="262.218" x2="136.011" y2="323.104" gradientUnits="userSpaceOnUse">
<stop offset="0.1487" stop-color="#FADE41"/>
<stop offset="0.1757" stop-color="#FAD740"/>
<stop offset="0.2157" stop-color="#FCC33E"/>
<stop offset="0.2637" stop-color="#FEA23B"/>
<stop offset="0.2945" stop-color="#FF8939"/>
</linearGradient>
<linearGradient id="paint33_linear_59_821" x1="153.488" y1="279.672" x2="153.488" y2="267.725" gradientUnits="userSpaceOnUse">
<stop offset="0.0797761" stop-color="#FF8939"/>
<stop offset="0.6705" stop-color="#FCC33E"/>
<stop offset="1" stop-color="#FADE41"/>
</linearGradient>
<linearGradient id="paint34_linear_59_821" x1="116.555" y1="273.698" x2="190.421" y2="273.698" gradientUnits="userSpaceOnUse">
<stop offset="0.3758" stop-color="#FADE41"/>
<stop offset="0.6492" stop-color="#FADC41"/>
<stop offset="0.7477" stop-color="#FBD540"/>
<stop offset="0.8178" stop-color="#FBCA3F"/>
<stop offset="0.8746" stop-color="#FCB93D"/>
<stop offset="0.9227" stop-color="#FDA33B"/>
<stop offset="0.9642" stop-color="#FF8939"/>
</linearGradient>
<linearGradient id="paint35_linear_59_821" x1="157.969" y1="251.466" x2="141.188" y2="312.353" gradientUnits="userSpaceOnUse">
<stop offset="0.1487" stop-color="#FADE41"/>
<stop offset="0.1757" stop-color="#FAD740"/>
<stop offset="0.2157" stop-color="#FCC33E"/>
<stop offset="0.2637" stop-color="#FEA23B"/>
<stop offset="0.2945" stop-color="#FF8939"/>
</linearGradient>
<linearGradient id="paint36_linear_59_821" x1="48.6009" y1="322.677" x2="48.6009" y2="310.731" gradientUnits="userSpaceOnUse">
<stop offset="0.0797761" stop-color="#FF8939"/>
<stop offset="0.6705" stop-color="#FCC33E"/>
<stop offset="1" stop-color="#FADE41"/>
</linearGradient>
<linearGradient id="paint37_linear_59_821" x1="85.534" y1="316.704" x2="11.6677" y2="316.704" gradientUnits="userSpaceOnUse">
<stop offset="0.3758" stop-color="#FADE41"/>
<stop offset="0.6492" stop-color="#FADC41"/>
<stop offset="0.7477" stop-color="#FBD540"/>
<stop offset="0.8178" stop-color="#FBCA3F"/>
<stop offset="0.8746" stop-color="#FCB93D"/>
<stop offset="0.9227" stop-color="#FDA33B"/>
<stop offset="0.9642" stop-color="#FF8939"/>
</linearGradient>
<linearGradient id="paint38_linear_59_821" x1="44.12" y1="294.472" x2="60.9015" y2="355.359" gradientUnits="userSpaceOnUse">
<stop offset="0.1487" stop-color="#FADE41"/>
<stop offset="0.1757" stop-color="#FAD740"/>
<stop offset="0.2157" stop-color="#FCC33E"/>
<stop offset="0.2637" stop-color="#FEA23B"/>
<stop offset="0.2945" stop-color="#FF8939"/>
</linearGradient>
<linearGradient id="paint39_linear_59_821" x1="50.9901" y1="311.926" x2="50.9901" y2="299.979" gradientUnits="userSpaceOnUse">
<stop offset="0.0797761" stop-color="#FF8939"/>
<stop offset="0.6705" stop-color="#FCC33E"/>
<stop offset="1" stop-color="#FADE41"/>
</linearGradient>
<linearGradient id="paint40_linear_59_821" x1="87.9232" y1="305.953" x2="14.0569" y2="305.953" gradientUnits="userSpaceOnUse">
<stop offset="0.3758" stop-color="#FADE41"/>
<stop offset="0.6492" stop-color="#FADC41"/>
<stop offset="0.7477" stop-color="#FBD540"/>
<stop offset="0.8178" stop-color="#FBCA3F"/>
<stop offset="0.8746" stop-color="#FCB93D"/>
<stop offset="0.9227" stop-color="#FDA33B"/>
<stop offset="0.9642" stop-color="#FF8939"/>
</linearGradient>
<linearGradient id="paint41_linear_59_821" x1="46.5093" y1="283.72" x2="63.2907" y2="344.607" gradientUnits="userSpaceOnUse">
<stop offset="0.1487" stop-color="#FADE41"/>
<stop offset="0.1757" stop-color="#FAD740"/>
<stop offset="0.2157" stop-color="#FCC33E"/>
<stop offset="0.2637" stop-color="#FEA23B"/>
<stop offset="0.2945" stop-color="#FF8939"/>
</linearGradient>
<linearGradient id="paint42_linear_59_821" x1="48.6009" y1="301.174" x2="48.6009" y2="289.228" gradientUnits="userSpaceOnUse">
<stop offset="0.0797761" stop-color="#FF8939"/>
<stop offset="0.6705" stop-color="#FCC33E"/>
<stop offset="1" stop-color="#FADE41"/>
</linearGradient>
<linearGradient id="paint43_linear_59_821" x1="85.534" y1="295.201" x2="11.6677" y2="295.201" gradientUnits="userSpaceOnUse">
<stop offset="0.3758" stop-color="#FADE41"/>
<stop offset="0.6492" stop-color="#FADC41"/>
<stop offset="0.7477" stop-color="#FBD540"/>
<stop offset="0.8178" stop-color="#FBCA3F"/>
<stop offset="0.8746" stop-color="#FCB93D"/>
<stop offset="0.9227" stop-color="#FDA33B"/>
<stop offset="0.9642" stop-color="#FF8939"/>
</linearGradient>
<linearGradient id="paint44_linear_59_821" x1="44.12" y1="272.969" x2="60.9013" y2="333.856" gradientUnits="userSpaceOnUse">
<stop offset="0.1487" stop-color="#FADE41"/>
<stop offset="0.1757" stop-color="#FAD740"/>
<stop offset="0.2157" stop-color="#FCC33E"/>
<stop offset="0.2637" stop-color="#FEA23B"/>
<stop offset="0.2945" stop-color="#FF8939"/>
</linearGradient>
</defs>
</svg>
